<?xml version="1.0" encoding="utf-8"?>
<!-- Generator: Adobe Illustrator 22.1.0, SVG Export Plug-In . SVG Version: 6.00 Build 0)  -->
<svg version="1.1" id="_x38_6b9c162-e770-4ffa-9cda-84e615f7dc7a"
	 xmlns="http://www.w3.org/2000/svg" xmlns:xlink="http://www.w3.org/1999/xlink" x="0px" y="0px" viewBox="0 0 1097.3 810.6"
	 style="enable-background:new 0 0 1097.3 810.6;" xml:space="preserve">
<style type="text/css">
	.st0{opacity:0.1;fill:#4F545C;enable-background:new    ;}
	.st1{fill:#1E1E1E;}
	.st2{fill:none;stroke:#535461;stroke-miterlimit:10;}
	.st3{fill:none;stroke:#1E1E1E;stroke-width:2;stroke-miterlimit:10;}
	.st4{opacity:9.000000e-02;fill:#4F545C;}
	.st5{fill:url(#SVGID_1_);}
	.st6{fill:#423D38;}
	.st7{opacity:0.1;enable-background:new    ;}
	.st8{fill:#474747;}
	.st9{opacity:5.000000e-02;}
	.st10{fill:#FDC2CC;}
	.st11{fill:#7289DA;}
	.st12{fill:#865A61;}
	.st13{opacity:5.000000e-02;enable-background:new    ;}
	.st14{fill:#FFFFFF;}
	.st15{fill:#F2F5FB;}
	.st16{fill:#DDE0ED;}
	.st17{fill:#ABB1D1;}
	.st18{fill:#D7666F;}
	.st19{opacity:0.1;fill:#FFFFFF;enable-background:new    ;}
</style>
<title>lost</title>
<path class="st0" d="M12.1,430c17.4,74.2,54.1,138.3,112.2,169.4c120.7,64.6,392.9,31.3,596.1-7c102.7-19.3,195.8-72.5,264.5-151.2
	L12.1,430z"/>
<path class="st1" d="M799.3,649.7c0,0-67.7,40.8,57,103.6c0,0,27.5-51-2.9-92.6c-12.2-16.8-35-21.8-53.1-11.6L799.3,649.7z"/>
<path class="st2" d="M800.1,648.9c0,0,57.9,44.3,56.3,104.5"/>
<path class="st1" d="M28.3,661.7c0,0-67.7,40.8,57,103.6c0,0,27.5-51-2.9-92.6c-12.2-16.8-35-21.8-53.1-11.6L28.3,661.7z"/>
<path class="st2" d="M28.1,660.9c0,0,57.9,44.3,56.2,104.5"/>
<path class="st3" d="M908.7,760.5c0,0-21.2-72,4-124.9c10.7-22.1,13.9-47.2,9.2-71.3c-2.3-11.4-5.7-22.6-10.1-33.5"/>
<path class="st1" d="M927.4,497.3c0,8.8-16,34.4-16,34.4s-16-25.6-16-34.4c0.6-8.8,8.2-15.5,17-14.9
	C920.4,482.9,926.8,489.3,927.4,497.3L927.4,497.3z"/>
<path class="st1" d="M953.8,546.2c-4.8,7.4-32.1,20.2-32.1,20.2s0.5-30.1,5.3-37.5c5.3-7.1,15.3-8.6,22.4-3.3
	C955.8,530.3,957.7,539.1,953.8,546.2L953.8,546.2z"/>
<path class="st1" d="M952.7,629.6c-7.9,4-37.9,1.2-37.9,1.2s15.6-25.8,23.5-29.7c8.1-3.4,17.5,0.4,21,8.5
	C962.4,617,959.5,625.6,952.7,629.6z"/>
<path class="st1" d="M937.5,692.6c-7.1,5.2-37.1,7.6-37.1,7.6s11.1-28,18.2-33.3c7.4-4.8,17.3-2.7,22.1,4.7
	C945,678.4,943.7,687.4,937.5,692.6L937.5,692.6z"/>
<path class="st1" d="M888.2,568.1c6.3,6.1,35.8,12.5,35.8,12.5s-7.2-29.3-13.5-35.4c-6.7-5.7-16.8-4.9-22.6,1.8
	C882.7,553.1,882.8,562.1,888.2,568.1L888.2,568.1z"/>
<path class="st1" d="M871.4,641.9c7.9,4,37.9,1.2,37.9,1.2s-15.7-25.8-23.5-29.7c-8.1-3.5-17.5,0.3-21,8.5
	C861.7,629.3,864.5,637.8,871.4,641.9L871.4,641.9z"/>
<path class="st1" d="M865,715.9c7.1,5.2,37.1,7.6,37.1,7.6s-11.1-28-18.2-33.3c-6.8-5.7-16.9-4.8-22.5,1.9
	c-5.7,6.8-4.8,16.9,1.9,22.5C863.9,715.1,864.5,715.5,865,715.9L865,715.9z"/>
<path class="st0" d="M1077.4,80.7H966c-5.3,0-9.6-4.3-9.6-9.6c0-5.3,4.3-9.6,9.6-9.6h19.3c-5.3,0-9.6-4.3-9.6-9.6s4.3-9.6,9.6-9.6
	h-13.8c-5.3,0-9.6-4.3-9.6-9.6s4.3-9.6,9.6-9.6h58.2c-12.9-6-28-10.3-45.4-12.5C825.6-10,769,3.5,749,17.4
	c-24.7,17.1-52.2,29.7-81.5,35.7c-97.9,20.2-280.9,44.5-446.8-7.8c-82.5-26-143.8,17.9-180.5,91.3h1056.6
	c-1.4-21.3-5.5-41-13.1-58.2C1082,79.9,1079.7,80.7,1077.4,80.7z"/>
<path class="st0" d="M2.7,275.1c-4.3,43.2-2.8,86.7,4.3,129.5l978.7,35.8c27.2-31.3,50.1-66.2,68-103.7L2.7,275.1z M389.7,367.5
	h-19.2c5.3,0,9.6,4.3,9.6,9.6c0,5.3-4.3,9.6-9.6,9.6H259c-5.3,0-9.6-4.3-9.6-9.6c0-5.3,4.3-9.6,9.6-9.6h19.3c-5.3,0-9.6-4.3-9.6-9.6
	c0-5.3,4.3-9.6,9.6-9.6h-13.8c-5.3,0-9.6-4.3-9.6-9.6c0-5.3,4.3-9.6,9.6-9.6l0,0h111.5c5.3,0,9.6,4.3,9.6,9.6c0,5.3-4.3,9.6-9.6,9.6
	h13.7c5.3,0,9.6,4.3,9.6,9.6C399.3,363.1,395,367.5,389.7,367.5z"/>
<path class="st0" d="M1096.8,137.3l-1068.5,26c-13,33.4-21.6,71.2-25.6,110.3h1075.4c7-23,12.2-46.5,15.6-70.3
	C1096.8,180.3,1098.1,158,1096.8,137.3z M219.7,222.5h-19.2c5.3,0,9.6,4.3,9.6,9.6c0,5.3-4.3,9.6-9.6,9.6H89c-5.3,0-9.6-4.3-9.6-9.6
	c0-5.3,4.3-9.6,9.6-9.6h19.3c-5.3,0-9.6-4.3-9.6-9.6s4.3-9.6,9.6-9.6H94.5c-5.3,0-9.6-4.3-9.6-9.6c0-5.3,4.3-9.6,9.6-9.6h111.5
	c5.3,0,9.6,4.3,9.6,9.6c0,5.3-4.3,9.6-9.6,9.6h13.7c5.3,0,9.6,4.3,9.6,9.6S225,222.5,219.7,222.5z"/>
<ellipse class="st4" cx="550.3" cy="777.6" rx="533" ry="33"/>
<linearGradient id="SVGID_1_" gradientUnits="userSpaceOnUse" x1="588.6211" y1="-26.2577" x2="588.6211" y2="696.5726" gradientTransform="matrix(1 0 0 -1 -51.34 767.31)">
	<stop  offset="0" style="stop-color:#808080;stop-opacity:0.25"/>
	<stop  offset="0.54" style="stop-color:#808080;stop-opacity:0.12"/>
	<stop  offset="1" style="stop-color:#808080;stop-opacity:0.1"/>
</linearGradient>
<path class="st5" d="M723.1,269.1c0,0-61.8-58.2-70.7-66.9c-3.1-3-6-6-8.6-8.5c-4.8-4.8-11-8.1-17.7-9.3
	c-23.2-4.4-46.8-18.6-46.8-18.6l0,0c-0.1-0.2-0.3-0.3-0.4-0.5c-2-2.8-3.5-6-4.3-9.3c-0.1-0.5-0.3-1-0.4-1.5c0.4-0.5,0.7-1,1.1-1.5
	c0.4-0.1,0.8-0.3,1.2-0.5c2.9-1.7,4.6-4.8,5.7-7.8c1-2.7,1.8-5.7,4.2-7.4c0.9-0.5,1.6-1.1,2.3-1.8c0.5-1,0.7-2,0.5-3.1
	c0-6.8-1.1-12.1,0.5-18.7c2.5-10.7,4.9-24-3.2-31.9c-4.2-4-9.5-6.7-15.2-7.6c-5.2-0.8-12.8,6.2-18.1,6c-13.3-0.5-24.6-12.6-37.3-8.7
	c-5.5,1.7-10.3,5.1-13.7,9.8c-6.3,8.9-5.7,20.5-4.8,31.1c0,0.8,0.2,1.6,0.7,2.3c0.5,0.6,1.2,0.8,1.7,1.4c0.5,0.7,0.7,1.6,0.5,2.5
	c-0.1,1.7-0.6,3.4-1.2,5c-0.4,0.5-0.4,1.2-0.2,1.8c0.2,0.3,0.6,0.6,1,0.7c0.5,0.2,1.1,0.3,1.7,0.4c-0.1,0.9-0.2,1.8-0.2,2.6
	c0,0.5,0,1,0,1.5c0,13.2,6.7,25.5,17.8,32.7c0.1,0.7,0.2,1.5,0.3,2.2c0.3,2.4,0.7,5,0.9,7.9c0,0.5,0.1,1,0.1,1.6l-0.3-0.6l-43,21.1
	c-3.2,0.7-6.1,2.2-8.7,4.3l-0.8,0.4v0.3c-0.4,0.3-0.7,0.6-1.1,0.9l-37.3-42.1l-87,75.5l47.8,51.5l53.8-4.5
	c-2.6,18.2-4.5,32.1-4.5,32.1s-9.8,42.1,37.8,34.1c-0.3,26.6-11.7,70.9-11.7,70.9c1.3,1.7,2.9,3.3,4.6,4.6l-0.3,1.8l-3,20.4
	c0,0-17.9,49.5-20.6,93.6s-6.2,68.9-6.2,68.9l-6.2,88.3l-8.7,40.4c-14.3,15.7-31,29-49.4,39.5c-3.4,1.8-4.7,6-2.9,9.4
	c0,0,0,0.1,0.1,0.1c3.5,6.1,14.4,12.3,47.1,2.3c52.2-16,47.4-15.4,47.4-15.4s0.8-21.4-1.5-34.1c-0.1-0.4-0.1-0.8-0.2-1.1
	c12.5-14.1,6.5-37,6.5-37s24.7-48.1,13-79.6c0,0-2.8-26.8,11.7-39.5c0.2-0.2,0.4-0.4,0.6-0.6l0.2-0.2l0.5-0.5l0.2-0.2l0.5-0.6
	l0.1-0.1c0.2-0.3,0.5-0.6,0.7-0.9l0.2-0.2l0.6-0.6l0.2-0.3l0.5-0.8l0.2-0.3l0.7-1.1l0.1-0.2l0.6-1l0.2-0.4l0.6-0.9l0.2-0.4l0.8-1.3
	l0,0l0.8-1.4l0.2-0.4l0.6-1.1l0.2-0.4l0.7-1.3l0.1-0.2l0.8-1.6l0.2-0.4l0.6-1.3l0.2-0.5l0.7-1.4l0.2-0.3l0.8-1.8l0.1-0.3l0.7-1.5
	l0.2-0.5l0.7-1.4l0.2-0.5l0.9-1.9l0,0l0.8-1.8l0.2-0.5l0.7-1.5l0.2-0.5l0.9-1.9v-0.1l0.9-2l0.2-0.4l0.7-1.6l0.2-0.5l0.7-1.7l0.1-0.3
	l0.9-2l0.1-0.3l0.7-1.7l0.2-0.5l0.7-1.6l0.2-0.5l0.8-2l0.1-0.2l0.8-1.8l0.2-0.6l0.6-1.5l0.2-0.5l0.7-1.8l0.1-0.2l0.8-2l0.2-0.6
	l0.6-1.4l0.2-0.6l0.6-1.5l0.2-0.5l0.7-1.9l0.2-0.5l0.5-1.4l0.3-0.7l0.5-1.2l0.3-0.7l0.7-1.8l0.2-0.5l0.5-1.3l0.3-0.7l0.4-1.1
	l0.3-0.7l0.5-1.2l0.3-0.8l0.5-1.2l0.3-0.8l0.3-0.8l0.3-0.8l0.3-0.7l0.7-1.8l0.1-0.3l0.3-0.9l0.2-0.6l0.3-0.9l0.2-0.4
	c2.9-7.9,4.6-13,4.6-13s13,45.5,11,59.5s12.4,66.2,12.4,66.2s-8.2,52.2-3.4,64.9s-6.9,60.2-6.9,60.2s0.9,0.5,2.4,1.2l-0.1,1.3
	c-0.8,10.4-2.4,30.5-4.4,38.3c-2.8,10.7-1.4,22.1,20.6,20.7s22.7-14.7,22.7-14.7s-7.3-23.4-8.1-37.2c0-0.5,0-0.9-0.1-1.3l0,0
	l0.6-0.2l0.2-0.1c0.3-0.1,0.5-0.2,0.7-0.3l0,0c0.2-0.1,0.4-0.2,0.6-0.4l0.2-0.1c0.2-0.1,0.3-0.2,0.5-0.4l0.1-0.1
	c0.2-0.2,0.4-0.3,0.6-0.5l0.1-0.1c0.1-0.2,0.3-0.3,0.4-0.5l0.1-0.2c0.2-0.2,0.3-0.4,0.5-0.7c7.5-12,8.2-37.5,8.2-37.5
	s15.1-85.6,9.6-97s-2.8-38.1-2.8-38.1s-6.2-40.1,0.7-59.5c5.1-14.5,8.4-64.7,8.2-88.6c0-0.5,0-1,0-1.5c0-0.2,0-0.3,0-0.5
	c5.1-6.4,9-17.5,6.2-37.1c-0.2-1.1-0.3-2.2-0.4-3.4c7.8-5.8,15.5-12.7,15.5-12.7l2.7-2.7l0.8-0.9c0.7,0.3,1.5,0.6,2.3,0.8
	c3,1.4,5.1,2.1,5.1,2.1s39.2-32.1,68.7-47.5S723.1,269.1,723.1,269.1z M676.4,297.2c0,0-41.2,26.1-48.7,39.5c-0.4,0.7-0.8,1.5-1,2.4
	l-1,0.4l0,0l-1.3,0.5c6.3-36,23.2-71.5,23.2-71.5s13,11.4,22,16S676.4,297.2,676.4,297.2L676.4,297.2z"/>
<path class="st6" d="M424.4,783.9c-31.6,10-42.1,3.8-45.5-2.3c-1.8-3.3-0.6-7.5,2.7-9.4c18-10.6,34.2-23.9,48-39.5
	c3.5-4,5.4-6.5,5.4-6.5s24.5-4.6,30.5,0c1.5,1.2,2.5,4.4,3.2,8.6c2.1,12.6,1.4,33.8,1.4,33.8S474.7,768,424.4,783.9z"/>
<path class="st6" d="M594,774.6c0,0-0.7,13.3-21.9,14.6s-22.5-9.9-19.9-20.5c1.9-7.7,3.5-27.5,4.2-37.9c0.3-3.9,0.4-6.5,0.4-6.5
	s33.1-3.3,29.8,6c-0.7,2.5-0.8,5-0.6,7.6C587,751.4,594,774.6,594,774.6z"/>
<path class="st7" d="M468.7,734.8l-0.6,0.7c-12.6,13.9-39.1,0-39.1,0l0.6-2.8c3.5-4,5.4-6.5,5.4-6.5s24.5-4.6,30.5,0
	C466.9,727.4,468,730.6,468.7,734.8z"/>
<path class="st7" d="M586.7,730.2c-0.7,2.5-0.8,5-0.6,7.6c-8.7,3-24-4.1-29.7-7c0.3-3.9,0.4-6.5,0.4-6.5S590,720.9,586.7,730.2z"/>
<path class="st8" d="M607.9,599.7c5.3,11.3-9.3,96-9.3,96s-0.7,25.2-8,37.1s-36.4-4.6-36.4-4.6s11.3-47,6.6-59.6s3.3-64.2,3.3-64.2
	s-13.9-51.7-11.9-65.6s-10.6-59-10.6-59s-29.2,86.8-43.1,99.4c-13.9,12.6-11.3,39.1-11.3,39.1c11.3,31.1-12.6,78.8-12.6,78.8
	s6,23.2-6.6,37.1s-39.1,0-39.1,0l8.6-41l6-87.4c0,0,3.3-24.5,6-68.2s19.9-92.7,19.9-92.7l2.9-20.2l2.4-16.9c0,0,134.5-4.6,137.8-5.3
	c0.8-0.2,1.3,4.9,1.3,12.9c0.2,23.8-3,73.4-7.9,87.8c-6.6,19.2-0.7,59-0.7,59S602.6,588.5,607.9,599.7z"/>
<g class="st9">
	<path d="M534.3,479.8c0,0-29.1,86.8-43.1,99.4S480,618.3,480,618.3c11.3,31.1-12.6,78.8-12.6,78.8s6,23.2-6.6,37.1
		c-3.2,3.4-7.5,5.6-12.2,6c7,0.7,14.4-0.3,19.5-6c12.6-13.9,6.6-37.1,6.6-37.1s23.8-47.7,12.6-78.8c0,0-2.7-26.5,11.3-39.1
		c10.7-9.7,30.4-63.1,38.9-87.4C535.7,484.7,534.3,479.8,534.3,479.8z"/>
	<path d="M605.2,562c0,0-6-39.7,0.7-59c5-14.4,8.1-64,7.9-87.8c0-8-0.5-13-1.3-12.9c-0.4,0.1-2.9,0.2-6.9,0.4
		c0.6,1.4,0.8,5.9,0.9,12.5c0.2,23.8-3,73.4-7.9,87.8c-6.6,19.2-0.7,59-0.7,59s-2.7,26.5,2.7,37.8s-9.3,96-9.3,96s-0.7,25.2-8,37.1
		c-1.4,2.1-3.6,3.6-6.1,4c5.7,0.8,10.8,0.1,13.4-4c7.3-11.9,8-37.1,8-37.1s14.6-84.8,9.3-96S605.2,562,605.2,562z"/>
</g>
<path class="st10" d="M588,175.1l-4.6,45.7c0,0-73.5,15.9-65.6-9.9c3.8-12.2,4-25.4,3.1-35.8c-0.2-2.8-0.5-5.4-0.8-7.8
	c-0.5-4.1-1.3-8.1-2.3-12.1c0,0,57-43.1,54.3-13.9c-0.6,5.5-0.3,11.1,1,16.5c0.8,3.3,2.3,6.4,4.2,9.2C582,173.6,588,175.1,588,175.1
	z"/>
<path class="st7" d="M573.2,157.8c-0.5,0.7-1.1,1.4-1.7,2.1c-12.8,15.2-34.9,18.3-51.4,7.4c-0.5-4.1-1.3-8.1-2.3-12.1
	c0,0,57-43.1,54.3-13.9C571.5,146.8,571.8,152.4,573.2,157.8z"/>
<path class="st10" d="M580.7,132.7c0,21.6-17.5,39.1-39.1,39c-21.6,0-39-17.5-39-39c0-0.5,0-1,0-1.5c0.8-21.6,19-38.4,40.6-37.5
	C564.1,94.5,580.7,111.7,580.7,132.7L580.7,132.7z"/>
<path class="st7" d="M613.8,415.2c-3.4,4.5-8.3,7.5-13.9,8.3l-30.4,10.6h-0.1l-9.2,3.2l-3.9-9.5l-4.7-11.7v21.2
	c0,0-58.2,4-79.3-12.9l2.4-16.9c0,0,134.5-4.6,137.8-5.3C613.3,402.1,613.8,407.2,613.8,415.2z"/>
<path class="st7" d="M588,175.1l-4.6,45.7c0,0-73.5,15.9-65.6-9.9c3.8-12.2,4-25.4,3.1-35.8c1.3,2.7,10.6,21.5,22.7,24.8l0,0
	c1.5,0.4,3.1,0.6,4.6,0.4c2.6-0.3,5-1.3,7.1-2.8c10.9-7.2,20-26.3,22-30.5C582,173.6,588,175.1,588,175.1z"/>
<path class="st11" d="M711.2,312.9c-28.5,15.2-66.2,47-66.2,47s-27.8-9.9-20.5-23.2s47-39.1,47-39.1s2-8-6.6-12.6
	s-21.2-15.9-21.2-15.9s-29.8,64.3-23.8,107.3s-19.9,45-19.9,45l-30.4,10.6h-0.1l-9.2,3.2l-3.9-9.5l-4.7-11.7v21.2
	c0,0-67.6,4.6-83.5-17.2c0,0,14.6-58.3,10.6-80.8s-8.6-135.8-8.6-135.8l50.7-25.5c0,0,9.9,21.6,22.9,25.2l0,0
	c1.5,0.4,3.1,0.6,4.6,0.4c2.6-0.3,5-1.3,7.1-2.8c12.3-8.1,22.3-31.4,22.3-31.4s22.8,14.1,45.2,18.4c6.5,1.2,12.5,4.4,17.1,9.2
	c2.4,2.5,5.3,5.4,8.3,8.4c8.6,8.6,68.2,66.2,68.2,66.2S739.7,297.6,711.2,312.9z"/>
<path class="st10" d="M645.7,348.7l-8.7,9.2l-2.6,2.7c0,0-23.2,21.2-29.2,20.5s-15.9-41.1-4-38.4c7.2,1.6,15.7-0.9,21.2-3.2l0,0
	c2-0.8,4-1.7,5.9-2.8L645.7,348.7z"/>
<path class="st7" d="M580.7,132.7c0,9.2-3.3,18.2-9.2,25.2c-2.1,0.2-4.1-0.8-5.3-2.5c-1.1-1.9-0.6-4.4-1.4-6.4s-2.4-3.5-3.4-5.4
	c-2.7-4.7-1.5-11.7-6.4-14.2c-2.2-1.1-5-0.8-7.5-0.3c-4.9,0.8-9.8,2.4-14.7,3.1c-5.5,0.8-10.5-2.8-15.9-2.9
	c-4.9-0.1-9.7,2.8-14.3,1.9c0.8-21.6,19-38.4,40.6-37.5C564.1,94.5,580.7,111.7,580.7,132.7L580.7,132.7z"/>
<path class="st12" d="M547.6,126.4c2.5-0.4,5.2-0.8,7.5,0.4c4.9,2.5,3.8,9.6,6.4,14.2c1,1.9,2.8,3.4,3.5,5.4s0.3,4.5,1.4,6.4
	c1.6,2.8,5.9,3.2,8.7,1.5s4.4-4.7,5.5-7.7c0.9-2.7,1.7-5.6,4-7.3c0.8-0.5,1.6-1.1,2.2-1.8c0.5-0.9,0.6-2,0.5-3.1
	c0-6.8-1-12,0.5-18.6c2.5-10.6,4.7-23.8-3.1-31.6c-4-4-9.1-6.6-14.6-7.5c-5-0.8-12.4,6.2-17.4,6c-12.9-0.5-23.7-12.4-36-8.6
	c-5.4,1.7-10,5.1-13.2,9.7c-6,8.8-5.5,20.3-4.6,30.8c0,0.8,0.2,1.6,0.7,2.3c0.5,0.5,1.2,0.8,1.6,1.4c0.5,0.7,0.7,1.6,0.5,2.5
	c-0.1,1.7-0.5,3.4-1.2,5c-0.3,0.5-0.4,1.2-0.2,1.8c0.2,0.3,0.6,0.6,1,0.7c5,1.8,10.4-1.7,15.7-1.6c5.3,0.1,10.4,3.7,16,2.9
	C537.7,128.8,542.7,127.2,547.6,126.4z"/>
<path class="st13" d="M569.5,432.2L569.5,432.2l-9.6,3.6l-3.5-9.9l-15-41.8l2.3-182.9l0,0c1.5,0.4,3.1,0.6,4.6,0.4
	c2.6-0.3,5-1.3,7.1-2.8l0,0l-2.8,180L569.5,432.2z"/>
<circle class="st14" cx="550.9" cy="208.2" r="2"/>
<circle class="st14" cx="546.9" cy="275.8" r="2"/>
<circle class="st14" cx="543.6" cy="346" r="2"/>
<circle class="st14" cx="547.6" cy="381.1" r="2"/>
<polygon class="st13" points="615.8,283.7 573.4,283.7 573.4,241.4 594.6,235.4 615.8,241.4 "/>
<circle class="st14" cx="548.9" cy="239.4" r="2"/>
<circle class="st14" cx="596" cy="241.4" r="2"/>
<circle class="st14" cx="545" cy="312.2" r="2"/>
<path class="st11" d="M479.4,197c0,0-18.5,2.6-24.5,36.4s-11.9,80.8-11.9,80.8s-9.9,43.7,39.7,33.1l2.7-15.2c0,0-5,17.5-3.6-17.5
	s1.7-58,1.7-58L479.4,197z"/>
<path class="st13" d="M479.4,197c0,0-18.5,2.6-24.5,36.4s-11.9,80.8-11.9,80.8s-9.9,43.7,39.7,33.1l2.7-15.2c0,0-7.6,16.9-6.3-18.2
	s4.3-57.3,4.3-57.3L479.4,197z"/>
<path class="st7" d="M645.7,348.7l-8.7,9.2c-12.4-5-14.8-18.1-14.8-18.1l0.3-0.2l0,0c2-0.8,4-1.7,5.9-2.8L645.7,348.7z"/>
<path class="st11" d="M633.4,331.8l-9.9,7.3c0,0,3.3,17.8,21.8,19.8l8-13.9L633.4,331.8z"/>
<polygon class="st15" points="349.3,235.8 433.1,161 471.5,205.6 537.4,202.2 557.4,243.5 494.6,325.5 465.3,280.8 395.4,286.8 "/>
<polygon class="st16" points="550.4,243.6 528.3,272.3 504.8,302.9 493.9,317 468.8,277.9 442.4,280.2 399.4,284 367.4,248.6 
	356.3,236.4 401,196.6 434.6,166.6 451.9,186.8 470.4,208.3 488.8,207.3 531.8,205.1 548.6,239.8 "/>
<polygon class="st17" points="411.7,213.5 367.4,248.6 356.3,236.4 401,196.6 "/>
<polygon class="st17" points="462.2,239.3 458.7,217.3 435.4,190 451.9,186.8 470.4,208.3 488.8,207.3 495.6,233.5 462.7,242.2 "/>
<polygon class="st17" points="550.4,243.6 528.3,272.3 516.9,255 548.6,239.8 "/>
<polygon class="st17" points="504.8,302.9 493.9,317 468.8,277.9 442.4,280.2 437.6,247.1 462.2,239.3 465.2,262 481.9,264.5 "/>
<path class="st18" d="M457.5,248.3c-0.2,0-0.5,0-0.6-0.2c-3.1-3.8-6.8-6.9-11.1-9.3c-0.3-0.2-0.4-0.6-0.3-0.9
	c0.2-0.3,0.6-0.4,0.9-0.3c4.4,2.4,8.3,5.7,11.5,9.6c0.2,0.3,0.2,0.7-0.1,0.9C457.7,248.2,457.6,248.3,457.5,248.3L457.5,248.3z"/>
<path class="st18" d="M449.7,250.1c-0.4,0.1-0.7-0.2-0.8-0.5c0-0.2,0-0.3,0.1-0.5l8.6-14.2c0.2-0.3,0.6-0.4,0.9-0.2s0.4,0.6,0.2,0.9
	l0,0l-8.6,14.2C450,250,449.8,250.1,449.7,250.1z"/>
<polygon class="st19" points="399.4,283.1 470.2,208.1 531.7,205.1 468.9,277.6 "/>
<path class="st10" d="M460.8,319.5c0,0,16.6-40.6,24.5-36.4s31.1,29.5,15.2,40.6c-15.9,11.1-27.2,16.4-27.2,16.4l-12.6-1.6V319.5z"
	/>
<path class="st11" d="M451.9,319.8c0,0,15.2-11.9,27.5,24.2l-11.6,1.7l-13.3-8L451.9,319.8z"/>
<path class="st13" d="M451.9,319.8c0,0,15.2-11.9,27.5,24.2l-11.6,1.7l-13.3-8L451.9,319.8z"/>
</svg>
