<?xml version="1.0" encoding="utf-8"?>
<!-- Generator: Adobe Illustrator 22.1.0, SVG Export Plug-In . SVG Version: 6.00 Build 0)  -->
<svg version="1.1" id="supreme" xmlns="http://www.w3.org/2000/svg" xmlns:xlink="http://www.w3.org/1999/xlink" x="0px" y="0px"
	 viewBox="0 0 500 500" style="enable-background:new 0 0 500 500;" xml:space="preserve">
<style type="text/css">
	.st0{fill:#EFEFEF;}
</style>
<path id="shape" class="st0" d="M413.3,200.7L355,259.1v-58.4l46.7-46.7h46.7l46.7,46.7H413.3z M322.6,154l-35,35v46.7l-35,35v-105
	l58.3-58.4V84l70,70l-23.3,35L322.6,154z M308,179.6l36.3,26.5v28.9v35l-93.3,72l-94.3-72v-63.9l36-26.5v55.4l58.3,53.8l57-53.8
	V179.6z M215,189l-35-35l-35,35l-23.3-35l70-70v23.3l58.3,58.4v105l-35-35V189z M145,259.1l-58.3-58.4H5L51.7,154h46.7l46.7,46.7
	V259.1z M88,212.4l57,57.7L28.3,387.5v-59.7L86,270.1l-57.7-57.7H88z M203.3,329.1H167L86.7,416v-64.8l70-68.7L203.3,329.1z
	 M413.3,351.2V416L333,329.1h-36.3l46.7-46.7L413.3,351.2z M471.7,387.5L355,270.1l57-57.7h59.6L414,270.1l57.7,57.7V387.5z"/>
</svg>
