<?xml version="1.0" encoding="utf-8"?>
<!-- Generator: Adobe Illustrator 22.1.0, SVG Export Plug-In . SVG Version: 6.00 Build 0)  -->
<svg version="1.1" id="zenith" xmlns="http://www.w3.org/2000/svg" xmlns:xlink="http://www.w3.org/1999/xlink" x="0px" y="0px"
	 viewBox="0 0 500 500" style="enable-background:new 0 0 500 500;" xml:space="preserve">
<style type="text/css">
	.st0{fill:#EFEFEF;}
</style>
<path id="shape" class="st0" d="M420,167.4l20,20v-70.1l30,30.1v110.2l-90-90.2H420z M379,137.4l-29.3,29.3l109.2,110.1l1,75.7
	L409.3,298l-50.6-50.5v-10.1l-69.8-69.7L358.7,97h79.9l-39.4,39.4L379,137.4z M160.8,97h63.3l26.7,35.8L276.1,97h63.7l-89,102
	L160.8,97z M140.3,237.4v10.1L89.7,298l-50.6,54.5l1-75.7l109.2-110.1L120,137.4l-20.2-1L60.3,97h79.9l69.8,70.7L140.3,237.4z
	 M120,167.4l-90,90.2V147.4l30-30.1v70.1l20-20H120z M150.4,315.1L120,343.4l-1,21.2l11.1-1l20.2,39.4h-40.5l-30.3-29.3H30
	l120.4-119.2V315.1z M250,215.6l31.3-28.4l58.3,52v68.7l-58.3-60.3L250,281.8l-30.3-34.3l-59.6,62.7v-62.7v-8.3l59.6-52.1L250,215.6
	z M420.4,373.7L390.1,403h-40.5l20.2-39.4l11.1,1l-1-21.2l-30.3-28.3v-60.6L470,373.7H420.4z"/>
</svg>
