<svg xmlns="http://www.w3.org/2000/svg" width="100" height="100" viewBox="0 0 100 100" class="heroicon-media-buttons heroicon heroicons-lg">
    <path class="heroicon-media-buttons-play-circle heroicon-component-fill" fill="#FFFFFF" d="M24 46a22 22 0 1 0 0-44 22 22 0 0 0 0 44z"></path>
    <path class="heroicon-media-buttons-pause-circle heroicon-component-fill" fill="#FFFFFF" d="M76 46a22 22 0 1 0 0-44 22 22 0 0 0 0 44z"></path>
    <path class="heroicon-media-buttons-back-circle heroicon-component-fill" fill="#FFFFFF" d="M24 98a22 22 0 1 0 0-44 22 22 0 0 0 0 44z"></path>
    <path class="heroicon-media-buttons-forward-circle heroicon-component-fill" fill="#FFFFFF" d="M98 76a22 22 0 1 1-44 0 22 22 0 0 1 44 0z"></path>
    <polygon class="heroicon-media-buttons-play-symbol heroicon-component-accent heroicon-component-fill" fill="#7ACFC0" points="17 15.144 17 14 18 14.556 33.97 23.428 35 24 33.97 24.572 18 33.444 17 34 17 32.856"></polygon>
    <path class="heroicon-media-buttons-pause-symbol heroicon-component-accent heroicon-component-fill" fill="#7ACFC0" d="M69 14h5v20h-6V14h1zm9 0h6v20h-6V14z"></path>
    <path class="heroicon-media-buttons-back-symbol heroicon-component-accent heroicon-component-fill" fill="#7ACFC0" d="M19 76.56V84h-4V68h4v8.56zm1.95.03L20 76l.95-.59L32 68.61l1-.61v16l-1-.62-11.05-6.8z"></path>
    <path class="heroicon-media-buttons-forward-symbol heroicon-component-accent heroicon-component-fill" fill="#7ACFC0" d="M80 76l-.95.59L68 83.39 67 84V68l1 .62 11.05 6.8.95.58zm1 7V68h4v16h-4v-1z"></path>
    <path class="heroicon-shadows" fill="#000000" d="M45.91 22a22 22 0 1 1-43.82 0 22 22 0 0 0 43.82 0zm52 0a22 22 0 1 1-43.82 0 22 22 0 0 0 43.82 0zm-52 52a22 22 0 1 1-43.82 0 22 22 0 0 0 43.82 0zm8.18 0a22 22 0 0 0 43.82 0 22 22 0 1 1-43.82 0z" opacity=".2"></path>
    <path class="heroicon-outline" fill="#4A4A4A" fill-rule="nonzero" d="M48 24a24 24 0 1 1-48 0 24 24 0 0 1 48 0zM24 46a22 22 0 1 0 0-44 22 22 0 0 0 0 44zm0-40v1A17 17 0 0 0 8.8 31.6l-.9.45A18 18 0 0 1 24 6zm-7 9.14V14l1 .56 15.97 8.87L35 24l-1.03.57L18 33.44 17 34V15.14zM32.94 24L18 15.7v16.6L32.94 24zM100 24a24 24 0 1 1-48 0 24 24 0 0 1 48 0zM76 46a22 22 0 1 0 0-44 22 22 0 0 0 0 44zM58 24A18 18 0 0 1 76 6v1a17 17 0 0 0-15.2 24.6l-.9.45A17.93 17.93 0 0 1 58 24zm11-10h5v20h-6V14h1zm4 1h-4v18h4V15zm5-1h6v20h-6V14zm1 1v18h4V15h-4zM48 76a24 24 0 1 1-48 0 24 24 0 0 1 48 0zM24 98a22 22 0 1 0 0-44 22 22 0 0 0 0 44zM6 76a18 18 0 0 1 18-18v1A17 17 0 0 0 8.8 83.6l-.9.45A17.93 17.93 0 0 1 6 76zm13 .56V84h-4V68h4v8.56zM18 69h-2v14h2V69zm2.95 7.59L20 76l.95-.59L32 68.61l1-.61v16l-1-.62-11.05-6.8zm.96-.59L32 82.21V69.79L21.9 76zM76 100a24 24 0 1 1 0-48 24 24 0 0 1 0 48zm22-24a22 22 0 1 0-44 0 22 22 0 0 0 44 0zM76 58v1a17 17 0 0 0-15.2 24.6l-.9.45A18 18 0 0 1 76 58zm4 18l-.95.59L68 83.39 67 84V68l1 .62 11.05 6.8.95.58zm-12-6.21v12.42L78.1 76 68 69.79zM81 83V68h4v16h-4v-1zm1 0h2V69h-2v14z"></path>
</svg>
