<svg xmlns="http://www.w3.org/2000/svg" width="100" height="100" viewBox="0 0 100 100" class="heroicon-female2 heroicon heroicons-lg">
    <path class="heroicon-female2-top heroicon-component-accent heroicon-component-fill" fill="#7ACFC0" d="M60 69l24.63 12.31c2.96 1.49 5.37 5.37 5.37 8.7V100H10V90c0-3.31 2.4-7.2 5.37-8.69L40 69v5a10 10 0 1 0 20 0v-5z"></path>
    <path class="heroicon-female2-collar heroicon-component-accent heroicon-component-fill" fill="#7ACFC0" d="M60 74v-2.76l6.95 3.47a4.98 4.98 0 0 1-1.49 2.9l-.43.41.16.59a4.99 4.99 0 0 1-3.6 6.24L61 85l-.14.59a4.99 4.99 0 0 1-6.25 3.6l-.58-.17-.42.44a4.99 4.99 0 0 1-7.22 0l-.41-.43-.59.16a4.99 4.99 0 0 1-6.24-3.6L39 85l-.59-.14a4.99 4.99 0 0 1-3.6-6.25l.17-.58-.44-.42a4.99 4.99 0 0 1-1.49-2.9L40 71.24V74a10 10 0 1 0 20 0z"></path>
    <path class="heroicon-female2-face heroicon-component-fill" fill="#FFFFFF" d="M60 66.6A22.01 22.01 0 0 0 71.91 49h2.1a5 5 0 0 0 0-10H72v-6.95a31.9 31.9 0 0 1-22-8.76 31.9 31.9 0 0 1-22 8.76V39h-2a5 5 0 0 0 0 10h2.09c.7 7.7 5.35 14.24 11.91 17.6V74a10 10 0 1 0 20 0v-7.4z"></path>
    <path class="heroicon-female2-hair heroicon-component-fill" fill="#FFFFFF" d="M71.27 74.64A20 20 0 0 0 84 56V24.99A25 25 0 0 0 50 1.67a25 25 0 0 0-34 23.32v31.02a20 20 0 0 0 12.73 18.63L40 69v-2.4A22.02 22.02 0 0 1 28.09 49h-2.1a5 5 0 0 1 0-10H28v-6.95a31.9 31.9 0 0 0 22-8.76 31.9 31.9 0 0 0 22 8.76V39h2a5 5 0 0 1 0 10h-2.09A22.01 22.01 0 0 1 60 66.6V69l11.27 5.64z"></path>
    <path class="heroicon-female2-mouth heroicon-component-fill" fill="#FFFFFF" d="M45.1 59a6.98 6.98 0 0 0 9.8 0h-9.8z"></path>
    <path class="heroicon-female2-teeth heroicon-component-fill" fill="#FFFFFF" d="M56.25 59a7.97 7.97 0 0 0 1.5-3h-15.5c.29 1.11.8 2.13 1.5 3h12.5z"></path>
    <path class="heroicon-shadows" fill="#000000" d="M62.07 70.03l6.32 3.16A31.85 31.85 0 0 1 50 79a31.85 31.85 0 0 1-18.39-5.8l6.32-3.17A26 26 0 0 1 24 47h2a24 24 0 1 0 48 0h2a26 26 0 0 1-13.93 23.03zM28 36.53v-4.48a31.9 31.9 0 0 0 22-8.76 31.9 31.9 0 0 0 22 8.76v4.48-2.48a31.9 31.9 0 0 1-22-8.76 31.9 31.9 0 0 1-22 8.76v2.48z" opacity=".2"></path>
    <path class="heroicon-outline" fill="#4A4A4A" fill-rule="nonzero" d="M41 0c3.17 0 6.2.6 9 1.67A25 25 0 0 1 84 25v31a20 20 0 0 1-12.73 18.64l13.36 6.67c2.96 1.49 5.37 5.37 5.37 8.7V100H10V90c0-3.31 2.4-7.2 5.37-8.69l13.36-6.67A20 20 0 0 1 16 56V25A25 25 0 0 1 41 0zm47 98v-8a8.65 8.65 0 0 0-4.27-6.9l-15.85-7.92a6 6 0 0 1-1.73 3.15 5.99 5.99 0 0 1-4.32 7.5 5.99 5.99 0 0 1-7.5 4.32 5.99 5.99 0 0 1-8.66 0 5.99 5.99 0 0 1-7.5-4.32 5.99 5.99 0 0 1-4.32-7.5 6 6 0 0 1-1.73-3.15L16.27 83.1A8.65 8.65 0 0 0 12 90v8h8v-6h1v6h58v-6h1v6h8zM32.1 72.95l7.9-4.13A24.27 24.27 0 0 1 26 49a4.98 4.98 0 0 1-3-1v8h-1v-9a5 5 0 0 1 4-8v-7.06c-1.36-.09-2.7-.25-4-.5V29.4c1.94.4 3.95.6 6 .65a29.9 29.9 0 0 0 22-9.6A29.63 29.63 0 0 0 72 30c2.05 0 4.06-.2 6-.6v2.04c-1.3.25-2.64.41-4 .55V39a5 5 0 0 1 2 9.58V60h-1V48.9c-.32.07-.66.1-1.08.1A24.53 24.53 0 0 1 60 69l7.9 3.95.84.42A18 18 0 0 0 82 56.01V25A23 23 0 0 0 50.72 3.53l-.72.28-.72-.28A23 23 0 0 0 18 25v31a18 18 0 0 0 13.26 17.37l.83-.42zM72 39.42v-7.37a31.9 31.9 0 0 1-22-8.76 31.9 31.9 0 0 1-22 8.76V47a22 22 0 0 0 44 0v-7.58zM74 41v6a3 3 0 0 0 0-6zM42 69.63V74a8 8 0 1 0 16 0v-4.37a23.96 23.96 0 0 1-16 0zM26 47v-6a3 3 0 1 0 0 6zm34 27a10 10 0 1 1-20 0v-2.76l-6.95 3.47c.16 1.1.68 2.12 1.49 2.9l.44.42-.17.58a4.98 4.98 0 0 0 3.6 6.25l.6.14.14.59a4.98 4.98 0 0 0 6.24 3.6l.59-.16.41.43a4.98 4.98 0 0 0 7.22 0l.42-.44.58.17a4.98 4.98 0 0 0 6.25-3.6l.14-.6.59-.14a4.98 4.98 0 0 0 3.6-6.24l-.16-.59.43-.41a4.98 4.98 0 0 0 1.49-2.9L60 71.24V74zM41 6v1a18 18 0 0 0-16.1 9.95l-.9-.45A19 19 0 0 1 41 6zm18 0a19 19 0 0 1 17 10.5l-.9.45A18 18 0 0 0 59 7V6zM43 41a2 2 0 1 1-4 0 2 2 0 0 1 4 0zm-2-8v1c-1.93 0-3.68.78-4.95 2.05l-.7-.7A7.98 7.98 0 0 1 41 33zm18 0c2.2 0 4.2.9 5.66 2.34l-.71.71A6.98 6.98 0 0 0 59 34v-1zm0 10a2 2 0 1 1 0-4 2 2 0 0 1 0 4zm-9 8c-1.03 0-1.98-.3-2.77-.84l.55-.83a3.98 3.98 0 0 0 4.44 0l.55.83c-.79.53-1.74.84-2.77.84zm-7.42 6a7.93 7.93 0 0 1-.33-1h15.5a8 8 0 0 1-15.17 1zm2.52 2a6.98 6.98 0 0 0 9.8 0h-9.8zm-.85-1h11.5a7 7 0 0 0 .58-1H43.67c.17.35.36.68.58 1z"></path>
</svg>
