<svg xmlns="http://www.w3.org/2000/svg" width="100" height="100" viewBox="0 0 100 100" class="heroicon-diamond heroicon heroicons-lg">
    <polygon class="heroicon-diamond-shape heroicon-component-fill" fill="#FFFFFF" points="20 17 50 13 80 17 100 37 50 87 0 37"></polygon>
    <path class="heroicon-diamond-sparkle heroicon-component-accent heroicon-component-fill" fill="#7ACFC0" d="M72 36h1a5 5 0 0 0 5-5v-1a1 1 0 0 1 1-1 1 1 0 0 1 1 1v1a5 5 0 0 0 5 5h1a1 1 0 0 1 1 1 1 1 0 0 1-1 1h-1a5 5 0 0 0-5 5v1a1 1 0 0 1-1 1 1 1 0 0 1-1-1v-1a5 5 0 0 0-5-5h-1a1 1 0 0 1-1-1 1 1 0 0 1 1-1zM25 49a3 3 0 0 0 3-3 1 1 0 0 1 1-1 1 1 0 0 1 1 1 3 3 0 0 0 3 3 1 1 0 0 1 1 1 1 1 0 0 1-1 1 3 3 0 0 0-3 3 1 1 0 0 1-1 1 1 1 0 0 1-1-1 3 3 0 0 0-3-3 1 1 0 0 1-1-1 1 1 0 0 1 1-1z"></path>
    <path class="heroicon-shadows" fill="#000000" d="M48.62 82.8L3.82 38h16.8l5.85 9.35A2 2 0 0 1 25 48a2 2 0 0 0 0 4 2 2 0 0 1 2 2 2 2 0 0 0 3.94.5l17.68 28.3zm2.76 0L76.88 42a4 4 0 0 1 .12 1v1a2 2 0 0 0 4 0v-1a4 4 0 0 1 4-4h1a2 2 0 0 0 1.73-1h8.44L51.38 82.8zM20 36H3.83L20 19.83V36zm60-16.17L96.17 36h-8.43A2 2 0 0 1 86 35h-1a4 4 0 0 1-4-4v-1a2 2 0 0 0-1-1.73v-8.44z" opacity=".2"></path>
    <path class="heroicon-outline" fill="#4A4A4A" fill-rule="nonzero" d="M20 17l30-4 30 4 20 20-50 50L0 37l20-20zm28.62 65.8L30.94 54.5A2 2 0 0 1 27 54a2 2 0 0 0-2-2 2 2 0 1 1 0-4 2 2 0 0 0 1.47-.65L20.63 38H3.82l44.79 44.8zm-17.4-29.72L50 83.1l26.4-42.23A4 4 0 0 0 73 39h-1c-.76 0-1.42-.42-1.76-1.04L21.8 38l5.18 8.28L27 46a2 2 0 1 1 4 0c0 1.1.9 2 2 2a2 2 0 1 1 0 4 2 2 0 0 0-1.77 1.08zm20.16 29.71L96.18 38h-8.45A2 2 0 0 1 86 39h-1a4 4 0 0 0-4 4v1a2 2 0 1 1-4 0v-1a4 4 0 0 0-.13-1L51.38 82.8zM21 36h.3l27.1-20.77L21 18.88V36zm29-20.74L22.95 36h47.32A2 2 0 0 1 72 35h1c.74 0 1.43-.2 2.03-.55L50 15.26zm1.6-.03l24.24 18.58A3.99 3.99 0 0 0 77 31v-1a2 2 0 0 1 2-2v-9.12l-27.4-3.65zM20 36V19.83L3.83 36H20zm60-16.17v8.44A2 2 0 0 1 81 30v1a4 4 0 0 0 4 4h1a1.99 1.99 0 0 1 1.74 1h8.43L80 19.83zM72 36a1 1 0 0 0-1 1 1 1 0 0 0 1 1h1a5 5 0 0 1 5 5v1a1 1 0 0 0 1 1 1 1 0 0 0 1-1v-1a5 5 0 0 1 5-5h1a1 1 0 0 0 1-1 1 1 0 0 0-1-1h-1a5 5 0 0 1-5-5v-1a1 1 0 0 0-1-1 1 1 0 0 0-1 1v1a5 5 0 0 1-5 5h-1zM25 49a1 1 0 0 0-1 1 1 1 0 0 0 1 1 3 3 0 0 1 3 3 1 1 0 0 0 1 1 1 1 0 0 0 1-1 3 3 0 0 1 3-3 1 1 0 0 0 1-1 1 1 0 0 0-1-1 3 3 0 0 1-3-3 1 1 0 0 0-1-1 1 1 0 0 0-1 1 3 3 0 0 1-3 3z"></path>
</svg>
