<svg xmlns="http://www.w3.org/2000/svg" width="100" height="100" viewBox="0 0 100 100" class="heroicon-devices-sync heroicon heroicons-lg">
    <path class="heroicon-devices-sync-tablet-edge-outer heroicon-component-accent heroicon-component-fill" fill="#7ACFC0" d="M6 2h68a4 4 0 0 1 4 4v22h-1V6a3 3 0 0 0-3-3H6a3 3 0 0 0-3 3v88a3 3 0 0 0 3 3h52.8c.21.36.45.7.73 1H6a4 4 0 0 1-4-4V6a4 4 0 0 1 4-4z"></path>
    <path class="heroicon-devices-sync-tablet-edge-inner heroicon-component-accent heroicon-component-fill" fill="#7ACFC0" d="M58.34 96a5.99 5.99 0 0 1-.34-2v-5H7V11h66v17h3V6a2 2 0 0 0-2-2H6a2 2 0 0 0-2 2v88c0 1.1.9 2 2 2h52.34z"></path>
    <path class="heroicon-devices-sync-tablet-screen heroicon-component-fill" fill="#FFFFFF" d="M72 28V12H8v76h50V34a6 6 0 0 1 6-6h8z"></path>
    <path class="heroicon-devices-sync-tablet-button heroicon-component-fill" fill="#FFFFFF" d="M43.5 92h-7a.5.5 0 0 0 0 1h7a.5.5 0 0 0 0-1z"></path>
    <path class="heroicon-devices-sync-phone-edge-outer heroicon-component-accent heroicon-component-fill" fill="#7ACFC0" d="M64 30h30a4 4 0 0 1 4 4v60a4 4 0 0 1-4 4H64a4 4 0 0 1-4-4V34a4 4 0 0 1 4-4z"></path>
    <path class="heroicon-devices-sync-phone-edge-inner heroicon-component-accent heroicon-component-fill" fill="#7ACFC0" d="M94 32H64a2 2 0 0 0-2 2v60c0 1.1.9 2 2 2h30a2 2 0 0 0 2-2V34a2 2 0 0 0-2-2z"></path>
    <polygon class="heroicon-devices-sync-phone-screen heroicon-component-fill" fill="#FFFFFF" points="64 40 94 40 94 88 64 88"></polygon>
    <path class="heroicon-devices-sync-phone-button heroicon-component-fill" fill="#FFFFFF" d="M75.5 92h7a.5.5 0 0 1 0 1h-7a.5.5 0 0 1 0-1z"></path>
    <circle class="heroicon-devices-sync-circle heroicon-component-accent heroicon-component-fill" cx="59" cy="82" r="18" fill="#7ACFC0"></circle>
    <path class="heroicon-devices-sync-symbol heroicon-component-fill" fill="#FFFFFF" d="M59 77a5.02 5.02 0 0 0-5 5c0 1.38.56 2.63 1.46 3.54l-.7.7-1.42 1.42-.7.7A9.06 9.06 0 0 1 50 82a9 9 0 0 1 9-9v-3l1 1 3.3 3.3.7.7-.7.7L60 79l-1 1v-3zm1 9.9a5 5 0 0 0 2.54-8.44l.7-.7 1.42-1.42.7-.7A9.06 9.06 0 0 1 68 82a9 9 0 0 1-9 9v3l-1-1-3.3-3.3-.7-.7.7-.7L58 85l1-1v3c.34 0 .68-.03 1-.1z"></path>
    <path class="heroicon-shadows" fill="#000000" d="M53 65.02V34a6 6 0 0 1 6-6h5v.08A6 6 0 0 0 59 34v30c-2.1 0-4.12.36-6 1.02z" opacity=".2"></path>
    <path class="heroicon-outline" fill="#4A4A4A" fill-rule="nonzero" d="M80 28h14a6 6 0 0 1 6 6v60a6 6 0 0 1-6 6H6a6 6 0 0 1-6-6V6a6 6 0 0 1 6-6h68a6 6 0 0 1 6 6v22zM49.05 97H6a3 3 0 0 1-3-3V6a3 3 0 0 1 3-3h68a3 3 0 0 1 3 3v22h1V6a4 4 0 0 0-4-4H6a4 4 0 0 0-4 4v88a4 4 0 0 0 4 4h44.75c-.59-.3-1.16-.64-1.7-1zm-4.2-3.86a1.5 1.5 0 0 1-1.35.86h-7a1.5 1.5 0 0 1 0-3h6.9c-.36-.64-.7-1.31-.99-2H7V11h66v17h3V6a2 2 0 0 0-2-2H6a2 2 0 0 0-2 2v88c0 1.1.9 2 2 2h41.69c-1.05-.85-2-1.8-2.83-2.86zM41 82a18 18 0 0 1 17-17.97V34a6 6 0 0 1 6-6h8V12H8v76h34.02A17.97 17.97 0 0 1 41 82zm20-17.89V34a3 3 0 0 1 3-3h30a3 3 0 0 1 3 3v60a3 3 0 0 1-3 3H68.95c-.54.36-1.11.7-1.7 1H94a4 4 0 0 0 4-4V34a4 4 0 0 0-4-4H64a4 4 0 0 0-4 4v30.03c.34.02.67.04 1 .08zM94 96a2 2 0 0 0 2-2V34a2 2 0 0 0-2-2H64a2 2 0 0 0-2 2v30.25c.34.06.67.12 1 .2V39h32v50H75.59a18.06 18.06 0 0 1-5.28 7H94zm0-8V40H64v24.7a18.02 18.02 0 0 1 9.06 6.06l9.5-18.98.89.44-9.72 19.43A17.92 17.92 0 0 1 75.98 88H94zm-57.5 4a.5.5 0 0 0 0 1h7a.5.5 0 0 0 0-1h-7zM59 98a16 16 0 1 0 0-32 16 16 0 0 0 0 32zM43 7v1h-6V7h6zm-8.55 50.22l-.9-.44 10-20 .9.44-10 20zm11-14l-6 12-.9-.44 6-12 .9.44zM82 35v1h-6v-1h6zm-6.5 56h7a1.5 1.5 0 0 1 0 3h-7a1.5 1.5 0 0 1 0-3zm7 1h-7a.5.5 0 0 0 0 1h7a.5.5 0 0 0 0-1zm-4.05-21.78l-.9-.44 6-12 .9.44-6 12zM59 77a5.02 5.02 0 0 0-5 5c0 1.38.56 2.63 1.46 3.54l-.7.7-1.42 1.42-.7.7A9.06 9.06 0 0 1 50 82a9 9 0 0 1 9-9v-3l1 1 3.3 3.3.7.7-.7.7L60 79l-1 1v-3zm-6 5a6 6 0 0 1 6-6h1V77.59L62.59 75 60 72.41V74h-1a8 8 0 0 0-6.32 12.9l1.43-1.42A5.98 5.98 0 0 1 53 82zm7 4.9a5 5 0 0 0 2.54-8.44l.7-.7 1.42-1.42.7-.7A9.06 9.06 0 0 1 68 82a9 9 0 0 1-9 9v3l-1-1-3.3-3.3-.7-.7.7-.7L58 85l1-1v3c.34 0 .68-.03 1-.1zm-2-.49L55.41 89 58 91.59V90h1a8 8 0 0 0 6.32-12.9l-1.43 1.42A6 6 0 0 1 59 88h-.99V86.41zM45 82a14 14 0 0 1 14-14v1a13 13 0 0 0-12.13 17.69l-.9.42c-.63-1.58-.97-3.3-.97-5.11z"></path>
</svg>
