<svg xmlns="http://www.w3.org/2000/svg" width="100" height="100" viewBox="0 0 100 100" class="heroicon-trash heroicon heroicons-lg">
    <path class="heroicon-trash-can heroicon-component-fill" fill="#FFFFFF" d="M15 19h70v73a7 7 0 0 1-7 7H22a7 7 0 0 1-7-7V19z"></path>
    <path class="heroicon-trash-lid heroicon-component-accent heroicon-component-fill" fill="#7ACFC0" d="M38 8V4a4 4 0 0 1 3.99-4h16.02A4 4 0 0 1 62 4v4h22a4 4 0 0 1 4 4v8H12v-8a4 4 0 0 1 4-4h22zm3 0h18V4a1 1 0 0 0-1-1H42a1 1 0 0 0-1 1v4z"></path>
    <path class="heroicon-shadows" fill="#000000" d="M79.5 94.6A3 3 0 0 1 75 92V26a3 3 0 0 1 4.5-2.6A3 3 0 0 0 78 26v66a3 3 0 0 0 1.5 2.6zm-14-71.2A3 3 0 0 0 61 26v66a3 3 0 0 0 4.5 2.6A3 3 0 0 1 64 92V26a3 3 0 0 1 1.5-2.6zm-14 71.2A3 3 0 0 1 47 92V26a3 3 0 0 1 4.5-2.6A3 3 0 0 0 50 26v66a3 3 0 0 0 1.5 2.6zm-14-71.2A3 3 0 0 0 33 26v66a3 3 0 0 0 4.5 2.6A3 3 0 0 1 36 92V26a3 3 0 0 1 1.5-2.6zm-14 71.2A3 3 0 0 1 19 92V26a3 3 0 0 1 4.5-2.6A3 3 0 0 0 22 26v66a3 3 0 0 0 1.5 2.6zM14 20h72v2H14v-2z" opacity=".2"></path>
    <path class="heroicon-outline" fill="#4A4A4A" fill-rule="nonzero" d="M38 8V4a4 4 0 0 1 3.99-4h16.02A4 4 0 0 1 62 4v4h22a4 4 0 0 1 4 4v4a2 2 0 0 1 0 4h-2v72a8 8 0 0 1-8 8H22a8 8 0 0 1-8-8V20h-2a2 2 0 0 1 0-4v-4a4 4 0 0 1 4-4h22zm22 0h1V4a3 3 0 0 0-2.99-3H41.99A3 3 0 0 0 39 4v4h1V4c0-1.1.9-2 2-2h16a2 2 0 0 1 2 2v4zM41 8h18V4a1 1 0 0 0-1-1H42a1 1 0 0 0-1 1v4zm-27 8h55v1H14v1h72v-6a2 2 0 0 0-2-2H16a2 2 0 0 0-2 2v4zm2 4v72a6 6 0 0 0 6 6h56a6 6 0 0 0 6-6V20H16zm6 3a3 3 0 0 1 3 3v66a3 3 0 0 1-6 0V26a3 3 0 0 1 3-3zm-2 69a2 2 0 1 0 4 0V26a2 2 0 1 0-4 0v66zm13-66a3 3 0 0 1 6 0v66a3 3 0 0 1-6 0V26zm1 0v66a2 2 0 1 0 4 0V26a2 2 0 1 0-4 0zm16-3a3 3 0 0 1 3 3v66a3 3 0 0 1-6 0V26a3 3 0 0 1 3-3zm-2 69a2 2 0 1 0 4 0V26a2 2 0 1 0-4 0v66zm13-66a3 3 0 0 1 6 0v66a3 3 0 0 1-6 0V26zm1 0v66a2 2 0 1 0 4 0V26a2 2 0 1 0-4 0zm16-3a3 3 0 0 1 3 3v66a3 3 0 0 1-6 0V26a3 3 0 0 1 3-3zm-2 69a2 2 0 1 0 4 0V26a2 2 0 1 0-4 0v66z"></path>
</svg>
