<svg xmlns="http://www.w3.org/2000/svg" width="100" height="100" viewBox="0 0 100 100" class="heroicon-gift heroicon heroicons-lg">
    <rect class="heroicon-gift-box heroicon-component-fill" width="96" height="80" x="2" y="17" fill="#FFFFFF"></rect>
    <path class="heroicon-gift-bow heroicon-component-accent heroicon-component-fill" fill="#7ACFC0" d="M57.93 8.26A4 4 0 0 0 54 5h-8a4 4 0 0 0-3.93 3.26l-18.48-7.1C20.5-.05 18 1.67 18 4.98v8.02A4 4 0 0 0 22 17h9v-7l11 4.23V15h-2v84h20V15h-2v-.77L69 10v7h9a4 4 0 0 0 4-4V5c0-3.32-2.5-5.04-5.6-3.85l-18.47 7.1z"></path>
    <polygon class="heroicon-shadows" fill="#000000" points="96 33 98 33 98 30 2 30 2 33 4 33 4 37 96 37 96 33" opacity=".2"></polygon>
    <path class="heroicon-outline" fill="#4A4A4A" fill-rule="nonzero" d="M42.07 8.26A4 4 0 0 1 46 5h8a4 4 0 0 1 3.93 3.26l18.48-7.1C79.5-.04 82 1.69 82 5V13c0 .73-.2 1.4-.54 2H98a2 2 0 0 1 2 2v16a2 2 0 0 1-2 2v62a2 2 0 0 1-2 2H4a2 2 0 0 1-2-2v-62a2 2 0 0 1-2-2V17c0-1.11.9-2 2-2h16.54a3.97 3.97 0 0 1-.54-2V5c0-3.31 2.5-5.03 5.6-3.84l18.47 7.1zM42 14.24l-9-3.47-2-.77v5h11v-.76zm0-2.15v-1.71L22.88 3.02c-1.08-.41-1.76-.22-2.1.02-.36.24-.78.8-.78 1.96V13c0 1.1.9 2 2 2h7V7.08l2.72 1.05L42 12.09zM71 17H60v13h25v1H60v2h38V17H71zm7-2a2 2 0 0 0 2-1.99V5c0-1.15-.42-1.72-.77-1.96-.35-.24-1.03-.43-2.1-.02L58 10.38v1.71l10.28-3.95L71 7.09V15h7zm-20 0h11v-5l-2 .77-9 3.47V15zm-2-2.14V9a2 2 0 0 0-2-2h-2v2h-1V7h-2v6h-1V7h-2a2 2 0 0 0-2 2v6h12v-2.14zM31 17H2v13h35v1H2v2h38V17h-9zm11 0v13h3v1h-3v3h16v-3h-9v-1h9V17H42zm0 18v62h16V35H42zm18 0v62h36V35H60zm-20 0H4v62.01h36V35z"></path>
</svg>
