<svg xmlns="http://www.w3.org/2000/svg" width="100" height="100" viewBox="0 0 100 100" class="heroicon-thumbs-up heroicon heroicons-lg">
    <path class="heroicon-thumbs-up-hand heroicon-component-fill" fill="#FFFFFF" d="M45.59 27.41a5.54 5.54 0 0 0 1.41-3.4V13A3 3 0 0 1 50 10h1c5.52 0 10 4.49 10 10v10.01c0 2.2-.8 5.6-1.79 7.57l-.32.64c-.5.98 0 1.78 1.11 1.78h29a7 7 0 0 1 4.85 12.05 7 7 0 0 1 0 13.9 7 7 0 0 1-4 12A7 7 0 0 1 85 90H47a20.02 20.02 0 0 1-19.08-14H16V50h11.2c.54-2.97 2.14-6.34 4.04-8.24L45.6 27.4z"></path>
    <polygon class="heroicon-thumbs-up-sleeve heroicon-component-accent heroicon-component-fill" fill="#7ACFC0" points="14 48 2 48 2 84 14 84"></polygon>
    <path class="heroicon-shadows" fill="#000000" d="M89.77 81.5A5 5 0 0 1 85 88H67a5 5 0 0 1-4.77-6.5A5 5 0 0 0 67 85h18a5 5 0 0 0 4.77-3.5zm-27.54-36A5 5 0 0 0 67 49h22a5 5 0 0 0 4.77-3.5A5 5 0 0 1 89 52H67a5 5 0 0 1-4.77-6.5zm0 24A5 5 0 0 0 67 73h22a5 5 0 0 0 4.77-3.5A5 5 0 0 1 89 76H67a5 5 0 0 1-4.77-6.5zm35.54-12A5 5 0 0 1 93 64H67a5 5 0 0 1-4.77-6.5A5 5 0 0 0 67 61h26a5 5 0 0 0 4.77-3.5zM63 88.75V89H48a19 19 0 0 1-18.87-16.78A21 21 0 0 0 48 84h12.07A7 7 0 0 0 63 88.75zM2 77h12v7H2v-7z" opacity=".2"></path>
    <path class="heroicon-outline" fill="#4A4A4A" fill-rule="nonzero" d="M45.59 27.41a5.54 5.54 0 0 0 1.41-3.4V13A3 3 0 0 1 50 10h1c5.52 0 10 4.49 10 10v10.01c0 2.2-.8 5.6-1.79 7.57l-.32.64c-.5.98 0 1.78 1.11 1.78h29a7 7 0 0 1 4.85 12.05 7 7 0 0 1 0 13.9 7 7 0 0 1-4 12A7 7 0 0 1 85 90H47a20.02 20.02 0 0 1-19.08-14H16v10H0V46h16v4h11.2c.54-2.97 2.14-6.34 4.04-8.24L45.6 27.4zM27 52H16v22h11.4c-.26-1.3-.4-2.63-.4-4v-2h2v2a18 18 0 0 0 18 18h15.1a6.98 6.98 0 0 1 1.3-11 7 7 0 0 1 0-12 7 7 0 0 1 0-12 7 7 0 0 1-1.3-11H46v-1h11.5c-.85-.9-1.09-2.3-.4-3.68l.32-.64c.85-1.7 1.58-4.78 1.58-6.67v-10c0-4.42-3.59-8.01-8-8.01h-1a1 1 0 0 0-1 1v11a7.5 7.5 0 0 1-2 4.83L32.66 43.17C30.69 45.14 29 49.22 29 52v6h-2v-6zm40 36h18a5 5 0 0 0 0-10H67a5 5 0 0 0 0 10zm0-46a5 5 0 0 0 0 10h22a5 5 0 0 0 0-10H67zm22 24H67a5 5 0 0 0 0 10h22a5 5 0 0 0 0-10zm-22-2h26a5 5 0 0 0 0-10H67a5 5 0 0 0 0 10zM14 48H2v36h12V48zm43 0a14 14 0 0 1-14 14v-1a13 13 0 0 0 13-13v-2h1v2zm-46 3v18h-1V51h1z"></path>
</svg>
