<svg xmlns="http://www.w3.org/2000/svg" width="100" height="100" viewBox="0 0 100 100" class="heroicon-swatch heroicon heroicons-lg">
    <path class="heroicon-swatch-background heroicon-component-fill" fill="#FFFFFF" d="M4 0a4 4 0 0 0-4 4v85a4 4 0 0 0 4 4h3v3a4 4 0 0 0 4 4h85a4 4 0 0 0 4-4V74a4 4 0 0 0-4-4H70.98l21.67-12.51a4 4 0 0 0 1.46-5.46l-11-19.06a4 4 0 0 0-5.46-1.46l-21.67 12.5L68.5 22.36a4 4 0 0 0-1.46-5.46l-19.06-11a4 4 0 0 0-5.46 1.46L30 29.02V4a4 4 0 0 0-4-4H4z"></path>
    <polygon class="heroicon-swatch-color-1-1 heroicon-component-accent heroicon-component-fill" fill="#7ACFC0" points="2 19 2 7 28 7 28 19"></polygon>
    <polygon class="heroicon-swatch-color-1-2 heroicon-component-accent heroicon-component-fill" fill="#7ACFC0" points="2 25 2 37 28 37 28 25"></polygon>
    <polygon class="heroicon-swatch-color-1-3 heroicon-component-accent heroicon-component-fill" fill="#7ACFC0" points="2 55 2 43 28 43 28 55"></polygon>
    <polygon class="heroicon-swatch-color-1-4 heroicon-component-accent heroicon-component-fill" fill="#7ACFC0" points="2 61 2 73 28 73 28 61"></polygon>
    <polygon class="heroicon-swatch-color-2-1 heroicon-component-accent heroicon-component-fill" fill="#7ACFC0" points="42.742 10.95 36.742 21.342 59.258 34.342 65.258 23.95"></polygon>
    <polygon class="heroicon-swatch-color-2-2 heroicon-component-accent heroicon-component-fill" fill="#7ACFC0" points="30 33.019 30 38.235 50.258 49.931 56.258 39.538 33.742 26.538"></polygon>
    <polygon class="heroicon-swatch-color-2-3 heroicon-component-accent heroicon-component-fill" fill="#7ACFC0" points="30 45.163 30 59.019 41.258 65.519 47.258 55.127"></polygon>
    <polygon class="heroicon-swatch-color-2-4 heroicon-component-accent heroicon-component-fill" fill="#7ACFC0" points="30 65.947 30 79.804 32.258 81.108 38.258 70.715"></polygon>
    <polygon class="heroicon-swatch-color-3-1 heroicon-component-accent heroicon-component-fill" fill="#7ACFC0" points="76.05 34.742 89.05 57.258 78.658 63.258 65.658 40.742"></polygon>
    <polygon class="heroicon-swatch-color-3-2 heroicon-component-accent heroicon-component-fill" fill="#7ACFC0" points="51.373 52 53.981 47.483 60.462 43.742 73.462 66.258 63.069 72.258"></polygon>
    <polygon class="heroicon-swatch-color-3-3 heroicon-component-accent heroicon-component-fill" fill="#7ACFC0" points="40.981 70 47.909 58 57.873 75.258 47.481 81.258"></polygon>
    <polygon class="heroicon-swatch-color-3-4heroicon-component-accent heroicon-component-fill" fill="#7ACFC0" points="30.588 88 37.517 76 42.285 84.258 31.892 90.258"></polygon>
    <polygon class="heroicon-swatch-color-4-1 heroicon-component-accent heroicon-component-fill" fill="#7ACFC0" points="93 98 93 72 81 72 81 98"></polygon>
    <polygon class="heroicon-swatch-color-4-2 heroicon-component-accent heroicon-component-fill" fill="#7ACFC0" points="63 74.608 63 98 75 98 75 72 67.517 72"></polygon>
    <polygon class="heroicon-swatch-color-4-3 heroicon-component-accent heroicon-component-fill" fill="#7ACFC0" points="45 85 45 98 57 98 57 78.072"></polygon>
    <polygon class="heroicon-swatch-color-4-4 heroicon-component-accent heroicon-component-fill" fill="#7ACFC0" points="27 95.392 27 98 39 98 39 88.464"></polygon>
    <path class="heroicon-outline" fill="#4A4A4A" fill-rule="nonzero" d="M4 0h22a4 4 0 0 1 4 4v25.02L42.51 7.35a4 4 0 0 1 5.46-1.46l19.06 11a4 4 0 0 1 1.46 5.46l-12.5 21.67L77.64 31.5a4 4 0 0 1 5.46 1.46l11 19.06a4 4 0 0 1-1.46 5.46L70.98 70H96a4 4 0 0 1 4 4v22a4 4 0 0 1-4 4H11a4 4 0 0 1-4-4v-3H4a4 4 0 0 1-4-4V4a4 4 0 0 1 4-4zm26 33.02v5.21l20.26 11.7 6-10.4-22.52-13L30 33.03zm0 6.37v1.15l5.4 3.12-.5.87L30 41.7V44l17.76 10.26 2-3.46L30 39.39zm0 5.77v13.86l11.26 6.5 6-10.4L30 45.17zm0 15.01v4.62l8.76 5.06 2-3.46L30 60.17zm0 5.78V79.8l2.26 1.3 6-10.38L30 65.95zm0 15v4.07l1.76-3.05L30 80.96zM30 89a4 4 0 0 1-1.98 3.46l-.04.06 3.05-1.76L30 89l-.01.02V89zm-4.6 4h-8.54l4.67 2.7a2 2 0 0 0 2.73-.74L25.39 93zm-12.54 0h-.17l2.61 4.53a2 2 0 0 0 2.74.73L20 97.12 12.86 93zm-2.48 0H9v3c0 1.1.9 2 2 2h2.27l-2.89-5zM26 2H4a2 2 0 0 0-2 2v2h26V4a2 2 0 0 0-2-2zM2 19h26V7H2v12zm0 1v4h26v-4H2zm0 5v12h26V25H2zm26 13H2v4h26v-4zM2 55h26V43H2v12zm0 1v4h26v-4H2zm0 5v12h26V61H2zm26 13H2v15c0 1.1.9 2 2 2h22a2 2 0 0 0 2-2V74zm23.37-22l11.7 20.26 10.4-6-13-22.52-6.49 3.74-2.6 4.52zm-1.15 2l3.12 5.4-.87.5-2.83-4.9-1.15 2 10.25 17.76 3.46-2L50.8 53l-.58 1zm-9.24 16l6.5 11.26 10.4-6L47.9 58l-6.93 12zm2.17 13.76l3.46-2L40.41 71l-2.32 4 5.06 8.76zM30.6 88l1.3 2.26 10.4-6L37.51 76l-6.93 12zm-8.1 10H26v-2.03h-.02a4 4 0 0 1-3.44 2l-.06.03zM46.96 7.62a2 2 0 0 0-2.73.73l-1 1.73 22.52 13 1-1.73a2 2 0 0 0-.73-2.73l-19.06-11zm-4.23 3.33l-6 10.4 22.52 13 6-10.4-22.52-13zm16.02 24.26l-22.52-13-2 3.46 22.52 13 2-3.46zM27 95.39V98h12v-9.54L27 95.4zm13-7.5V98h4V85.58l-4 2.3zM45 85v13h12V78.07L45 85zm13-7.5V98h4V75.19l-1 .57V82h-1v-5.66l-2 1.15zm5-2.9V98h12V72h-7.48L63 74.6zm18.38-40.63a2 2 0 0 0-2.73-.73l-1.73 1 13 22.52 1.73-1a2 2 0 0 0 .73-2.73l-11-19.06zm-5.33.77l-10.4 6 13 22.52 10.4-6-13-22.52zm-11.26 6.5l-3.46 2 13 22.52 3.46-2-13-22.52zM98 74a2 2 0 0 0-2-2h-2v26h2a2 2 0 0 0 2-2V74zm-5 24V72H81v26h12zM76 72v26h4V72h-4zM3 21h9v1H3v-1zm9 18v1H3v-1h9zm0 18v1H3v-1h9zm0 18v1H3v-1h9zm3 13a3 3 0 1 1 0-6 3 3 0 0 1 0 6zm2-3a2 2 0 1 0-4 0 2 2 0 0 0 4 0zm27.4-56.93l-.5.87-7.8-4.5.5-.87 7.8 4.5zM68.93 50.4l-.87.5-4.5-7.8.87-.5 4.5 7.8zM79 82h-1v-9h1v9z"></path>
</svg>
