<svg xmlns="http://www.w3.org/2000/svg" width="100" height="100" viewBox="0 0 100 100" class="heroicon-monitor heroicon heroicons-lg">
    <rect class="heroicon-monitor-edge heroicon-component-accent heroicon-component-fill" width="98" height="78" x="1" y="11" fill="#7ACFC0" rx="5"></rect>
    <rect class="heroicon-monitor-screen heroicon-component-fill" width="86" height="66" x="7" y="17" fill="#FFFFFF"></rect>
    <rect class="heroicon-shadows" width="86" height="5" x="7" y="17" fill="#000000" opacity=".2"></rect>
    <path class="heroicon-outline" fill="#4A4A4A" fill-rule="nonzero" d="M0 16a6 6 0 0 1 6-6h88a6 6 0 0 1 6 6v68a6 6 0 0 1-6 6H6a6 6 0 0 1-6-6V16zm6-4a4 4 0 0 0-4 4v68a4 4 0 0 0 4 4h88a4 4 0 0 0 4-4V16a4 4 0 0 0-4-4H6zm0 6c0-1.1.9-2 2-2h84a2 2 0 0 1 2 2v64a2 2 0 0 1-2 2H8a2 2 0 0 1-2-2V18zm2 0v31h1V19h15v-1H8zm17 1h16v-1H25v1zm16 1H25v27.59l1-1L28.41 49h2L32 50.59l1.06-1.06L37 23.26l.99 6.6 3 19.98.01.08V20zm1 31.76L43.38 49h3.2L53 42.59l5 5V20H42v31.76zm-1 6.48l-.48.96-.5-3.04-1-6.01L37 36.75l-2.06 13.72L32 53.41 29.59 51h-2L26 49.41l-1 1V80h16V58.24zM42 80h16V50.41l-5-5L47.41 51h-2.8L42 56.24V80zm-1 1H25v1h16v-1zm1 1h16v-1H42v1zm0-63h16v-1H42v1zm17 0h16v-1H59v1zm0 1v28.59l.41.41h4L67 52.59 70.59 49h1.8L75 43.76V20H59zm0 31v29h16V48.24L73.62 51h-2.2L67 55.41 62.59 51H59zm16 30H59v1h16v-1zm1-35.24L77.62 49H90V20H76v25.76zM76 80h14V51H76.38l-.38-.76V80zm0 2h16V51h-1v30H76v1zm0-63h15v30h1V18H76v1zm-66 1v29h13.59l.41-.41V20H10zm0 31v29h14V51H10zm0 30H9V51H8v31h16v-1H10z"></path>
</svg>
