<svg xmlns="http://www.w3.org/2000/svg" width="100" height="100" viewBox="0 0 100 100" class="heroicon-cloud heroicon heroicons-lg">
    <path class="heroicon-cloud-background heroicon-component-fill" fill="#FFFFFF" d="M83 82H22a22 22 0 0 1-3.14-43.78 27.01 27.01 0 0 1 49.99-5.89 15 15 0 0 1 18.08 16.13A17 17 0 0 1 83 82z"></path>
    <path class="heroicon-shadows" fill="#000000" d="M.2 57A22 22 0 0 0 22 82h61a17 17 0 0 0 16.74-20A17 17 0 0 1 83 76H22A22 22 0 0 1 .2 57z" opacity=".2"></path>
    <path class="heroicon-outline" fill="#4A4A4A" fill-rule="nonzero" d="M83 82H22a22 22 0 0 1-3.14-43.78 27.01 27.01 0 0 1 49.99-5.89 15 15 0 0 1 18.08 16.13A17 17 0 0 1 83 82zm0-2a15 15 0 0 0 3.47-29.6l-1.7-.4.17-1.74a13 13 0 0 0-15.67-13.98l-1.48.32-.7-1.33a25 25 0 0 0-46.3 5.45l-.33 1.3-1.32.18A20 20 0 0 0 22 80h61z"></path>
</svg>
