<svg xmlns="http://www.w3.org/2000/svg" width="100" height="100" viewBox="0 0 100 100" class="heroicon-phone-alert heroicon heroicons-lg">
    <rect class="heroicon-phone-alert-edge-outer heroicon-component-accent heroicon-component-fill" width="56" height="98" x="22" y="1" fill="#7ACFC0" rx="5"></rect>
    <rect class="heroicon-phone-alert-edge-inner heroicon-component-accent heroicon-component-fill" width="52" height="94" x="24" y="3" fill="#7ACFC0" rx="3"></rect>
    <rect class="heroicon-phone-alert-screen heroicon-component-fill" width="46" height="74" x="27" y="13" fill="#FFFFFF"></rect>
    <rect class="heroicon-phone-alert-button heroicon-component-fill" width="10" height="3" x="45" y="90" fill="#FFFFFF" rx="1.5"></rect>
    <circle class="heroicon-phone-alert-circle heroicon-component-accent heroicon-component-fill" cx="50" cy="50" r="14" fill="#7ACFC0"></circle>
    <path class="heroicon-phone-alert-symbol heroicon-component-fill" fill="#FFFFFF" d="M47 43h6l-1 8h-4l-1-8zm3 15a3 3 0 1 1 0-6 3 3 0 0 1 0 6z"></path>
    <path class="heroicon-outline" fill="#4A4A4A" fill-rule="nonzero" d="M27 0h46a6 6 0 0 1 6 6v88a6 6 0 0 1-6 6H27a6 6 0 0 1-6-6V6a6 6 0 0 1 6-6zm46 2H27a4 4 0 0 0-4 4v88a4 4 0 0 0 4 4h46a4 4 0 0 0 4-4V6a4 4 0 0 0-4-4zM27 3h46a3 3 0 0 1 3 3v88a3 3 0 0 1-3 3H27a3 3 0 0 1-3-3V6a3 3 0 0 1 3-3zm46 1H27a2 2 0 0 0-2 2v88c0 1.1.9 2 2 2h46a2 2 0 0 0 2-2V6a2 2 0 0 0-2-2zm-46 9h46v74H27V13zm1 1v72h44V14H28zm36 36a14 14 0 1 1-28 0 14 14 0 0 1 28 0zM50 62a12 12 0 1 0 0-24 12 12 0 0 0 0 24zM40 50a10 10 0 0 1 10-10v1a9 9 0 0 0-8.05 13.03l-.9.44A9.96 9.96 0 0 1 40 50zm8-7h5l-.13 1-.87 7h-4l-.88-7-.12-1h1zm.13 1l.75 6h2.24l.75-6h-3.74zM50 58a3 3 0 1 1 0-6 3 3 0 0 1 0 6zm2-3a2 2 0 1 0-4 0 2 2 0 0 0 4 0zM47 8h6v1h-6V8zm-2 83.5c0-.83.67-1.5 1.5-1.5h7a1.5 1.5 0 0 1 0 3h-7a1.5 1.5 0 0 1-1.5-1.5zm1 0c0 .28.22.5.5.5h7a.5.5 0 1 0 0-1h-7a.5.5 0 0 0-.5.5z"></path>
</svg>
