<svg xmlns="http://www.w3.org/2000/svg" width="100" height="100" viewBox="0 0 100 100" class="heroicon-hard-drive heroicon heroicons-lg">
    <rect class="heroicon-hard-drive-casing heroicon-component-fill" width="76" height="100" x="12" fill="#FFFFFF" rx="8"></rect>
    <circle class="heroicon-hard-drive-disc-outer heroicon-component-fill" cx="50" cy="38" r="28" fill="#FFFFFF"></circle>
    <path class="heroicon-hard-drive-disc-inner heroicon-component-accent heroicon-component-fill" fill="#7ACFC0" d="M50 62a24 24 0 1 1 0-48 24 24 0 0 1 0 48zm0-14a10 10 0 1 0 0-20 10 10 0 0 0 0 20zm0-7a3 3 0 1 1 0-6 3 3 0 0 1 0 6z"></path>
    <path class="heroicon-hard-drive-arm heroicon-component-accent heroicon-component-fill" fill="#7ACFC0" d="M43.46 74l8.84-15.3-10.01 8.87-.71.63-.94-.15A4 4 0 1 0 43.46 74z"></path>
    <path class="heroicon-hard-drive-actuator heroicon-component-accent heroicon-component-fill" fill="#7ACFC0" d="M58 78h20v12H52l6-12zM32 66v6a8 8 0 0 0 8 8h6v10H22V66h10z"></path>
    <path class="heroicon-outline" fill="#4A4A4A" fill-rule="nonzero" d="M20 0h60a8 8 0 0 1 8 8v84a8 8 0 0 1-8 8H20a8 8 0 0 1-8-8V8a8 8 0 0 1 8-8zm60 2H20a6 6 0 0 0-6 6v84a6 6 0 0 0 6 6h60a6 6 0 0 0 6-6V8a6 6 0 0 0-6-6zM22 8a2 2 0 1 1-4 0 2 2 0 0 1 4 0zm-2 1a1 1 0 1 0 0-2 1 1 0 0 0 0 2zm60 1a2 2 0 1 1 0-4 2 2 0 0 1 0 4zm1-2a1 1 0 1 0-2 0 1 1 0 0 0 2 0zM22 92a2 2 0 1 1-4 0 2 2 0 0 1 4 0zm-2 1a1 1 0 1 0 0-2 1 1 0 0 0 0 2zm60 1a2 2 0 1 1 0-4 2 2 0 0 1 0 4zm1-2a1 1 0 1 0-2 0 1 1 0 0 0 2 0zM22 51a2 2 0 1 1-4 0 2 2 0 0 1 4 0zm-2 1a1 1 0 1 0 0-2 1 1 0 0 0 0 2zm60 1a2 2 0 1 1 0-4 2 2 0 0 1 0 4zm1-2a1 1 0 1 0-2 0 1 1 0 0 0 2 0zM24 66h1V50.62a28 28 0 1 1 50 0V78h3v12H52l1-2 .5-1H46v3H22V66h2zm16 16a10 10 0 0 1-10-10v-4h-6v20h20v-6h-4zm6 1h9.5l2.5-5h13V56.52A27.93 27.93 0 0 1 50.4 66l-5.2 9a6 6 0 1 1-4.24-8.92l1.3-1.16A28.01 28.01 0 0 1 29 56.52V66h3v6a8 8 0 0 0 8 8h6v3zm9 1h-9v2h8l1-2zm19-6V52.43c-.6 1-1.28 1.97-2 2.9V78h2zM28 55.32c-.72-.92-1.4-1.88-2-2.89V66h2V55.32zM73 38a23 23 0 1 0-26.08 22.8l8.54-7.58 1.74 1-1 1.73-2.77 4.8A23 23 0 0 0 73 38zM45.94 61.66a24 24 0 1 1 6.85.18l-1.22 2.11a26 26 0 1 0-7.5-.63l1.87-1.66zM60 38a10 10 0 1 1-20 0 10 10 0 0 1 20 0zm-10 9a9 9 0 1 0 0-18 9 9 0 0 0 0 18zm0-6a3 3 0 1 1 0-6 3 3 0 0 1 0 6zm2-3a2 2 0 1 0-4 0 2 2 0 0 0 4 0zm-8.54 36l8.84-15.3-10.01 8.87-.71.63-.94-.15A4 4 0 1 0 43.46 74zm11.78 14H76v-8H59.24l-4 8zM27 72a1 1 0 1 1 0-2 1 1 0 0 1 0 2zm1 13a1 1 0 1 1-2 0 1 1 0 0 1 2 0zm13 1a1 1 0 1 1 0-2 1 1 0 0 1 0 2zm-1-12a2 2 0 1 1 0-4 2 2 0 0 1 0 4zm1-2a1 1 0 1 0-2 0 1 1 0 0 0 2 0zm33 13a1 1 0 1 1-2 0 1 1 0 0 1 2 0z"></path>
</svg>
