<svg xmlns="http://www.w3.org/2000/svg" width="100" height="100" viewBox="0 0 100 100" class="heroicon-hand-point heroicon heroicons-lg">
    <rect class="heroicon-hand-point-sleeve heroicon-component-accent heroicon-component-fill" width="36" height="12" x="34" y="88" fill="#7ACFC0"></rect>
    <path class="heroicon-hand-point-hand heroicon-component-fill" fill="#FFFFFF" d="M38 88v-7.26A20 20 0 0 1 25 62V35a3 3 0 0 1 3-3h3c.7 0 1.37.12 2 .34V6.01a6 6 0 1 1 12 0v22.52a6 6 0 0 1 9.98 4.02 5.97 5.97 0 0 1 9.64 2.35A6 6 0 0 1 75 39v14 9c0 8.58-5.4 15.9-13 18.74V88H38z"></path>
    <path class="heroicon-shadows" fill="#000000" d="M38 84.74c2.18.82 4.53 1.26 7 1.26h10c2.47 0 4.82-.44 7-1.26v-6A19.95 19.95 0 0 1 55 80H45c-2.47 0-4.82-.44-7-1.26v6z" opacity=".2"></path>
    <path class="heroicon-outline" fill="#4A4A4A" fill-rule="nonzero" d="M36 88h2v-7.26A20 20 0 0 1 25 62V35a3 3 0 0 1 3-3h3c.7 0 1.37.12 2 .34V6.01a6 6 0 1 1 12 0v22.52a6 6 0 0 1 9.98 4.02 5.97 5.97 0 0 1 9.64 2.35A6 6 0 0 1 75 39v14h-.03c.02.33.03.66.03 1v8c0 8.58-5.4 15.9-13 18.74V88h8v12H34V88h2zm-3-29V34.54a3.97 3.97 0 0 0-2-.54h-3a1 1 0 0 0-1 1v27a18 18 0 0 0 18 18v2c-1.73 0-3.4-.22-5-.63V88h20v-6.63c-1.6.41-3.27.63-5 .63v-2a18 18 0 0 0 18-18V39a4 4 0 1 0-8 0V41h-2v-4a4 4 0 1 0-8 0v4h-2v-8a4 4 0 1 0-8 0v8h-2V6a4 4 0 1 0-8 0v53h-2zm3 31v2h18v1H36v5h32v-8H36zm1-46v-1h4v1h-4zm10-1h4v1h-4v-1zm10 1v-1h4v1h-4zm10-1h4v1h-4v-1z"></path>
</svg>
