<svg xmlns="http://www.w3.org/2000/svg" width="100" height="100" viewBox="0 0 100 100" class="heroicon-documentation heroicon heroicons-lg">
    <polygon class="heroicon-documentation-book-cover heroicon-component-accent heroicon-component-fill" fill="#7ACFC0" points="7 82 7 32 1 32 1 88 99 88 99 32 93 32 93 82 7 82"></polygon>
    <polygon class="heroicon-documentation-book-pages heroicon-component-fill" fill="#FFFFFF" points="38 24 7 24 7 82 93 82 93 24 62 24 62 33 50 39 38 33"></polygon>
    <polygon class="heroicon-documentation-block-sides heroicon-component-fill" fill="#FFFFFF" points="38 17 50 11 62 17 62 33 50 39 38 33"></polygon>
    <polygon class="heroicon-documentation-block-top heroicon-component-accent heroicon-component-fill" fill="#7ACFC0" points="50 20.764 42.472 17 50 13.236 57.528 17"></polygon>
    <path class="heroicon-shadows" fill="#000000" d="M51.08 80h-2.16A6 6 0 0 0 43 75H8v5H6v5H0v3h99v-3h-5v-5h-2v-5H57a6 6 0 0 0-5.92 5zM51 36.26V22.5l8.76-4.38.24.12v13.52l-9 4.5z" opacity=".2"></path>
    <path class="heroicon-outline" fill="#4A4A4A" fill-rule="nonzero" d="M40.24 15.88L50 11l9.76 4.88L62 17v6h32v8h6v58H56l-.3.3c-.38.38-1.16.7-1.7.7h-8c-.55 0-1.32-.32-1.7-.7L44 89H0V31h6v-8h32v-6l2.24-1.12zM49 36.26V22.5l-8.76-4.38-.24.12v13.52l9 4.5zm2 0l9-4.5V18.24l-.24-.12L51 22.5v13.76zm-1-15.5L57.53 17 50 13.24 42.47 17 50 20.76zM49 38.5L38 33H14v-1h24v-7H8v48h35a7.98 7.98 0 0 1 6 2.71V38.5zM62 25v7h24v1H62l-11 5.5v37.2a7.98 7.98 0 0 1 6-2.7h35V25H62zM6 33H2v52h42v-2H6V33zm37 42H8v2h32v1H8v1h35v1H8v1h41a6 6 0 0 0-6-6zm51 1v7H56v2h42V33h-4v43zm-37-1a6 6 0 0 0-6 6h41v-1H70v-1h22v-2H60v-1h32v-1H57zm-12 8v2.59c.2.2.71.41 1 .41h8c.28 0 .8-.21 1-.41V83H45zm-1 3H2v1h42v-1zm1 1.17l.7.71.3.12h8c.02 0 .28-.1.3-.12l.7-.7v-.42c-.33.15-.7.24-1 .24h-8c-.3 0-.67-.1-1-.24v.41zM98 87v-1H56v1h42zM38 35v1H14v-1h24zm-24 3h25v1H14v-1zm12 3v1H14v-1h12zm-10 3h22v1H16v-1zm24 3v1H14v-1h26zm-2 3v1H14v-1h24zm-4 3v1H14v-1h20zm-18 3h24v1H16v-1zm23 3v1H14v-1h25zm-25 3h26v1H14v-1zm26 3v1H14v-1h26zm20-30h24v1H60v-1zm25 3v1H60v-1h25zm-25 3h12v1H60v-1zm24 3v1H62v-1h22zm-24 3h26v1H60v-1zm24 4H60v-1h24v1zm-24 2h20v1H60v-1zm26 3v1H62v-1h24zm-26 3h25v1H60v-1zm26 3v1H60v-1h26zm-26 3h26v1H60v-1z"></path>
</svg>
