<svg xmlns="http://www.w3.org/2000/svg" width="100" height="100" viewBox="0 0 100 100" class="heroicon-phone heroicon heroicons-lg">
    <rect class="heroicon-phone-edge-outer heroicon-component-accent heroicon-component-fill" width="56" height="98" x="22" y="1" fill="#7ACFC0" rx="5"></rect>
    <rect class="heroicon-phone-edge-inner heroicon-component-accent heroicon-component-fill" width="52" height="94" x="24" y="3" fill="#7ACFC0" rx="3"></rect>
    <rect class="heroicon-phone-screen heroicon-component-fill" width="46" height="74" x="27" y="13" fill="#FFFFFF"></rect>
    <rect class="heroicon-phone-button heroicon-component-fill" width="10" height="3" x="45" y="90" fill="#FFFFFF" rx="1.5"></rect>
    <path class="heroicon-outline" fill="#4A4A4A" fill-rule="nonzero" d="M21 6a6 6 0 0 1 6-6h46a6 6 0 0 1 6 6v88a6 6 0 0 1-6 6H27a6 6 0 0 1-6-6V6zm6-4a4 4 0 0 0-4 4v88a4 4 0 0 0 4 4h46a4 4 0 0 0 4-4V6a4 4 0 0 0-4-4H27zm-3 4a3 3 0 0 1 3-3h46a3 3 0 0 1 3 3v88a3 3 0 0 1-3 3H27a3 3 0 0 1-3-3V6zm3-2a2 2 0 0 0-2 2v88c0 1.1.9 2 2 2h46a2 2 0 0 0 2-2V6a2 2 0 0 0-2-2H27zm1 9h45v74H27V13h1zm44 1H28v72h44V14zM54.45 37.22l-10 20-.9-.44 10-20 .9.44zm-5 18l-.9-.44 6-12 .9.44-6 12zM53 8v1h-6V8h6zm-6.5 82h7a1.5 1.5 0 0 1 0 3h-7a1.5 1.5 0 0 1 0-3zm7 1h-7a.5.5 0 0 0 0 1h7a.5.5 0 0 0 0-1z"></path>
</svg>
