<svg xmlns="http://www.w3.org/2000/svg" width="100" height="100" viewBox="0 0 100 100" class="heroicon-cloud-upload heroicon heroicons-lg">
    <path class="heroicon-cloud-upload-background heroicon-component-fill" fill="#FFFFFF" d="M83 75a17 17 0 0 0 3.93-33.54 15 15 0 0 0-18.08-16.13 27 27 0 0 0-50 5.9A22 22 0 0 0 22 75h61z"></path>
    <polygon class="heroicon-cloud-upload-arrow heroicon-component-accent heroicon-component-fill" fill="#7ACFC0" points="57 71 68 71 50 53 32 71 43 71 43 89 57 89"></polygon>
    <path class="heroicon-shadows" fill="#000000" d="M34 69l-2 2h11v4H22A22 22 0 0 1 .2 50 22 22 0 0 0 22 69h12zm32 0h17a17 17 0 0 0 16.74-14A17 17 0 0 1 83 75H57v-4h11l-2-2z" opacity=".2"></path>
    <path class="heroicon-outline" fill="#4A4A4A" fill-rule="nonzero" d="M83 75H57v14H43V75H22a22 22 0 0 1-3.14-43.78 27.01 27.01 0 0 1 49.99-5.89 15 15 0 0 1 18.08 16.13A17 17 0 0 1 83 75zm-26-4v2h26a15 15 0 0 0 1.63-29.91A13.03 13.03 0 0 0 72 27c-1.48 0-2.9.25-4.21.7a25 25 0 0 0-47.3 5.36A20 20 0 0 0 22 73h21v-2H32l2-2 14.59-14.59L50 53l1.41 1.41L65 68h18a10 10 0 0 0 8.95-5.53l.9.45A11 11 0 0 1 83 69H66l2 2H57zm-12-2v18h10V69h8.17L50 55.83 36.83 69H45zM26.21 28.6A21 21 0 0 1 45 17v1a20 20 0 0 0-17.9 11.05l-.89-.44zM48 69v12h-1V69h1z"></path>
</svg>
