<svg xmlns="http://www.w3.org/2000/svg" width="100" height="100" viewBox="0 0 100 100" class="heroicon-cloud-check heroicon heroicons-lg">
    <path class="heroicon-cloud-check-background heroicon-component-fill" fill="#FFFFFF" d="M83 74a17 17 0 0 0 3.93-33.54 15 15 0 0 0-18.08-16.13 27 27 0 0 0-50 5.9A22 22 0 0 0 22 74h61z"></path>
    <circle class="heroicon-cloud-check-circle heroicon-component-accent heroicon-component-fill" cx="50" cy="73" r="18" fill="#9561E2"></circle>
    <polygon class="heroicon-cloud-check-symbol heroicon-component-fill" fill="#FFFFFF" points="46.293 74.465 44.121 72.293 43.414 71.586 42.707 72.293 41.293 73.707 40.586 74.414 41.293 75.121 46.293 80.121 47 80.829 47.707 80.121 57.707 70.121 58.414 69.414 57.707 68.707 56.293 67.293 55.586 66.586 54.879 67.293 47.707 74.465 47 75.172"></polygon>
    <path class="heroicon-shadows" fill="#000000" d="M32.7 68a18 18 0 0 0-.67 6H22A22 22 0 0 1 .83 46H2.1A20 20 0 0 0 22 68h10.7zm64.84-19.8a16.91 16.91 0 0 1 2.45 8.3A18 18 0 0 1 82 74H67.97a18.29 18.29 0 0 0-.67-6H82a16 16 0 0 0 15.54-19.8z" opacity=".1"></path>
    <path class="heroicon-outline" fill="#4A4A4A" fill-rule="nonzero" d="M83 74H67.97a18 18 0 0 1-35.94 0H22a22 22 0 0 1-3.14-43.78 27.01 27.01 0 0 1 49.99-5.89 15 15 0 0 1 18.08 16.13A17 17 0 0 1 83 74zm-15.03-2H83a15 15 0 0 0 1.63-29.91A13.03 13.03 0 0 0 72 26c-1.48 0-2.9.25-4.21.7a25 25 0 0 0-47.3 5.36A20 20 0 0 0 22 72h10.03a18 18 0 0 1 34.95-5H83a10 10 0 0 0 8.95-5.53l.9.45A11 11 0 0 1 83 68H67.3c.37 1.28.6 2.62.67 4zM66 73a16 16 0 1 0-32 0 16 16 0 0 0 32 0zm-19.7 1.46l.7.71.7-.7 7.18-7.18.7-.7.71.7 1.42 1.42.7.7-.7.71-10 10-.71.7-.7-.7-5-5-.71-.7.7-.71 1.42-1.42.7-.7.71.7 2.17 2.17zM55.58 68l-7.88 7.88-.71.7-.7-.7L43.4 73 42 74.41l5 5 10-10L55.59 68zM45 16v1a20 20 0 0 0-17.9 11.05l-.89-.44A21 21 0 0 1 45 16zm-8.04 62.11A14 14 0 0 1 50 59v1a13 13 0 0 0-12.13 17.69l-.9.42z"></path>
</svg>
