<svg xmlns="http://www.w3.org/2000/svg" width="100" height="100" viewBox="0 0 100 100" class="heroicon-clock heroicon heroicons-lg">
    <path class="heroicon-clock-edge heroicon-component-accent heroicon-component-fill" fill="#7ACFC0" d="M50 99a49 49 0 1 1 0-98 49 49 0 0 1 0 98zm0-9a40 40 0 1 0 0-80 40 40 0 0 0 0 80z"></path>
    <circle class="heroicon-clock-background heroicon-component-fill" cx="50" cy="50" r="40" fill="#FFFFFF"></circle>
    <path class="heroicon-shadows" fill="#000000" d="M1.09 47a49 49 0 0 0 97.82 0 49 49 0 1 1-97.82 0zm4.98 5.5a44 44 0 1 1 87.86 0 44 44 0 0 0-87.86 0z" opacity=".2"></path>
    <path class="heroicon-outline" fill="#4A4A4A" fill-rule="nonzero" d="M100 50A50 50 0 1 1 0 50a50 50 0 0 1 100 0zM50 98a48 48 0 1 0 0-96 48 48 0 0 0 0 96zm44-48a44 44 0 1 1-88 0 44 44 0 0 1 88 0zM50 93a43 43 0 1 0 0-86 43 43 0 0 0 0 86zm0-2a41 41 0 1 1 0-82 41 41 0 0 1 0 82zm39-41a39 39 0 1 0-78 0 39 39 0 0 0 78 0zM49 15h2v6h-2v-6zm36 36h-6v-2h6v2zM49 85v-6h2v6h-2zM15 51v-2h6v2h-6zm59.75-27.16l1.41 1.41-23.5 24.7 1.58 1.46-2.83 2.83-.41-.45V76h-2V53.8l-.41.44-2.83-2.83 1.62-1.54-12.94-14.01 1.42-1.42L49 46.57V42h2v4.43l23.75-22.6zM50 51a1 1 0 1 0 0-2 1 1 0 0 0 0 2z"></path>
</svg>
