<svg xmlns="http://www.w3.org/2000/svg" width="100" height="100" viewBox="0 0 100 100" class="heroicon-contract heroicon heroicons-lg">
    <rect class="heroicon-contract-pages heroicon-component-fill" width="78" height="100" fill="#FFFFFF"></rect>
    <polygon class="heroicon-contract-pen-housing heroicon-component-fill" fill="#FFFFFF" points="90 22 99 22 99 25 96 25 96 79 93 90 90 79"></polygon>
    <path class="heroicon-contract-pen-button heroicon-component-accent heroicon-component-fill" fill="#7ACFC0" d="M90 15h5v7s4-.24 4 0v3h-9V15z"></path>
    <rect class="heroicon-contract-pen-grip heroicon-component-accent heroicon-component-fill" width="6" height="24" x="90" y="55" fill="#7ACFC0"></rect>
    <path class="heroicon-shadows" fill="#000000" d="M58 89H0v11h78V89h-2V71h-.45A18 18 0 0 1 58 85v4z" opacity=".2"></path>
    <path class="heroicon-outline" fill="#4A4A4A" fill-rule="nonzero" d="M78 71v29H0V0h78v71zM2 2v87h53.3a7.98 7.98 0 0 0 2.7-6V69h18V2H2zm56 89H2v1h24v1H2v1h36v1H2v3h74v-1H52v-1h24v-3H46v-1h30v-1H58zm8.73-2H76v-9.27A20.08 20.08 0 0 1 66.73 89zM58 89a18 18 0 0 0 18-18H60v12c0 2.25-.74 4.33-2 6zm32-68v-7h6v7h2a2 2 0 0 1 2 2v18a1 1 0 1 1-2 0V26h-1v53l-3 12h-2l-3-12V21h1zm2-5v5h2v-5h-2zm4 7h-5v1h7v-1h-2zm-5 2v30h4V25h-4zm2 61.75L94.94 79h-3.88L93 86.75zM91 58v18h4V58h-4zm0 19v1h4v-1h-4zm4-20v-1h-4v1h4zM12 12h54v1H12v-1zm0 3h52v1H12v-1zm51 3v1H12v-1h51zm-51 3h53v1H12v-1zm34 3v1H12v-1h34zm-34 5h52v1H12v-1zm54 3v1H12v-1h54zm-54 3h53v1H12v-1zm44 3v1H12v-1h44zm-44 5h54v1H12v-1zm50 3v1H12v-1h50zm-50 3h50v1H12v-1zm18 3v1H12v-1h18zm-18 5h54v1H12v-1zm50 3v1H12v-1h50zm-50 3h30v1H12v-1zm0 13h30v1H12v-1zm4-4.7l.35.35L18 73.29l.65-.64.35-.36.35.36.65.64 1.65-1.64.35-.36.35.36L24 73.29l.65-.64.35-.36.35.36.65.64.65-.64.35-.36.35.36.65.64 1.65-1.64.7.7-2 2-.35.36-.35-.36-.65-.64-.65.64-.35.36-.35-.36-.65-.64-.65.64-.35.36-.35-.36L22 72.71l-1.65 1.64-.35.36-.35-.36-.65-.64-.65.64-.35.36-.35-.36L16 72.71l-1.65 1.64-.7-.7 2-2 .35-.36zm26.65 1.05l.7-.7 1.15 1.14 1.15-1.14.7.7-1.14 1.15 1.14 1.15-.7.7-1.15-1.14-1.15 1.14-.7-.7 1.14-1.15-1.14-1.15z"></path>
</svg>
