<svg xmlns="http://www.w3.org/2000/svg" width="100" height="100" viewBox="0 0 100 100" class="heroicon-camera heroicon heroicons-lg">
    <path class="heroicon-camera-top heroicon-component-accent heroicon-component-fill" fill="#7ACFC0" d="M36.83 16L29 23.83V24H2v12h9.53a5.98 5.98 0 0 1 8.94 0h8.08A27.94 27.94 0 0 1 50 26c8.61 0 16.31 3.89 21.45 10H98V24H83.17l-.17-.17L75.17 16H36.83z"></path>
    <path class="heroicon-camera-body heroicon-component-fill" fill="#FFFFFF" d="M20.58 38h7.67a27 27 0 1 0 43.5 0H98v46H2V38h9.42a5 5 0 0 1 9.16 0z"></path>
    <path class="heroicon-camera-buttons heroicon-component-fill" fill="#FFFFFF" d="M5 17h13v6H5v-6zm16 3h7v3h-7v-3zm63-1h11v4H84v-4z"></path>
    <circle class="heroicon-camera-lens-barrel heroicon-component-accent heroicon-component-fill" cx="50" cy="54" r="27" fill="#7ACFC0"></circle>
    <circle class="heroicon-camera-lens-glass heroicon-component-fill" cx="50" cy="54" r="16" fill="#FFFFFF"></circle>
    <path class="heroicon-shadows" fill="#000000" d="M68.9 56a19 19 0 0 0-37.8 0 19 19 0 1 1 37.8 0zm9.08-1l.02 1a28 28 0 1 1-55.98-1 28 28 0 0 0 55.96 0z" opacity=".2"></path>
    <path class="heroicon-outline" fill="#4A4A4A" fill-rule="nonzero" d="M20 22v-3h2v-1h5v1h2v2l7-7h40l7 7v-3h13v4h4v62a2 2 0 0 1-2 2H2a2 2 0 0 1-2-2V22h4v-6h15v6h1zm16.83-6L29 23.83V24H2v12h9.53a5.98 5.98 0 0 1 8.94 0h8.08A27.94 27.94 0 0 1 50 26c8.61 0 16.31 3.89 21.45 10H98V24H83.17l-.17-.17L75.17 16H36.83zM2 38v46h3V38H2zm4 46h88V38H72.98A27.87 27.87 0 0 1 78 54c0 6.53-2.23 12.53-5.98 17.3a4 4 0 1 1-4.73 4.73A28 28 0 0 1 27.02 38l-5.35-.01a5.99 5.99 0 1 1-11.32 0H6v46zm89 0h3V38h-3v46zM16 22v-1H7v1h9zm-1-4h-1v2h1v-2zm1 2h1v-2h-1v2zm-3-2h-1v2h1v-2zm-2 0h-1v2h1v-2zm-2 0H8v2h1v-2zm-2 2v-2H6v2h1zm20 1h-5v1h5v-1zm58 1h1v-2h-1v2zm3 0v-2h-1v2h1zm1 0h1v-2h-1v2zm3 0v-2h-1v2h1zm1 0h1v-2h-1v2zM24 54a26 26 0 1 0 52 0 26 26 0 0 0-52 0zm48.63 22.63a2 2 0 1 0-2.83-2.83 2 2 0 0 0 2.83 2.83zM20 40a4 4 0 1 0-8 0 4 4 0 0 0 8 0zm55-8a5 5 0 1 1 0-10 5 5 0 0 1 0 10zm0-2a3 3 0 1 0 0-6 3 3 0 0 0 0 6zm0-2a1 1 0 1 1 0-2 1 1 0 0 1 0 2zM16 43a3 3 0 1 1 0-6 3 3 0 0 1 0 6zm0-1a2 2 0 1 0 0-4 2 2 0 0 0 0 4zm34 36a24 24 0 1 1 0-48 24 24 0 0 1 0 48zm0-1a23 23 0 1 0 0-46 23 23 0 0 0 0 46zM30 54a20 20 0 1 1 40 0 20 20 0 0 1-40 0zm38 0a18 18 0 1 0-36 0 18 18 0 0 0 36 0zM50 70a16 16 0 1 1 0-32 16 16 0 0 1 0 32zm0-1a15 15 0 0 0 9.32-26.75l-5.89 10.2-.86-.5 5.94-10.3A15 15 0 1 0 50 69zm-1.57-14.55l-.86-.5 6-10.4.86.5-6 10.4z"></path>
</svg>
