<svg xmlns="http://www.w3.org/2000/svg" width="100" height="100" viewBox="0 0 100 100" class="heroicon-puzzle heroicon heroicons-lg">
    <path class="heroicon-puzzle-bottom-right heroicon-component-accent heroicon-component-fill" fill="#7ACFC0" d="M51 69V51h18c.73 0 1.68.59 2 1.24l.21.42c.3.6.14 1.57-.33 2.04l-1.18 1.18A6.52 6.52 0 0 0 68 60a7 7 0 1 0 14 0 6.5 6.5 0 0 0-1.7-4.12l-1.18-1.18a1.97 1.97 0 0 1-.33-2.04l.21-.42A2.55 2.55 0 0 1 81 51h17v32a15 15 0 0 1-15 15H51V81a4.55 4.55 0 0 0-2.34-3.79l-.43-.21a3.95 3.95 0 0 0-4.35.7l-1.18 1.18c-.59.6-1.85 1.12-2.7 1.12a5 5 0 0 1 0-10c.84 0 2.11.53 2.7 1.12l1.18 1.18a3.96 3.96 0 0 0 4.35.7l.43-.21A4.53 4.53 0 0 0 51 69z"></path>
    <path class="heroicon-puzzle-top-left heroicon-component-accent heroicon-component-fill" fill="#7ACFC0" d="M19 49H2V17A15 15 0 0 1 17 2h32v17a4.55 4.55 0 0 0 2.34 3.79l.43.21c1.37.69 3.27.38 4.35-.7l1.18-1.18c.59-.6 1.85-1.12 2.7-1.12a5 5 0 0 1 0 10c-.84 0-2.11-.53-2.7-1.12l-1.18-1.18a3.96 3.96 0 0 0-4.35-.7l-.43.21A4.53 4.53 0 0 0 49 31V49H31c-.73 0-1.68-.59-2-1.24l-.21-.42c-.3-.6-.14-1.57.33-2.04l1.18-1.18A6.52 6.52 0 0 0 32 40a7 7 0 1 0-14 0 6.5 6.5 0 0 0 1.7 4.12l1.18 1.18c.06.06.12.12.17.2a2 2 0 0 1 .16 1.84l-.21.42A2.56 2.56 0 0 1 19 49z"></path>
    <path class="heroicon-puzzle-bottom-left heroicon-component-fill" fill="#FFFFFF" d="M2 83V51h17a4.55 4.55 0 0 0 3.79-2.34l.21-.43a3.95 3.95 0 0 0-.7-4.35l-1.18-1.18A4.54 4.54 0 0 1 20 40a5 5 0 0 1 10 0c0 .84-.53 2.11-1.12 2.7l-1.18 1.18a3.96 3.96 0 0 0-.7 4.35l.21.43A4.53 4.53 0 0 0 31 51H49v18c0 .73-.59 1.68-1.24 2l-.42.21c-.6.3-1.57.14-2.04-.33l-1.18-1.18A6.52 6.52 0 0 0 40 68a7 7 0 1 0 0 14 6.5 6.5 0 0 0 4.12-1.7l1.18-1.18a1.97 1.97 0 0 1 2.04-.33l.42.21A2.58 2.58 0 0 1 49 81v17H17A15 15 0 0 1 2 83z"></path>
    <path class="heroicon-puzzle-top-right heroicon-component-fill" fill="#FFFFFF" d="M51 19V2h32a15 15 0 0 1 15 15v32H81a4.55 4.55 0 0 0-3.79 2.34l-.21.43a3.95 3.95 0 0 0 .7 4.35l1.18 1.18c.6.59 1.12 1.85 1.12 2.7a5 5 0 0 1-10 0c0-.84.53-2.11 1.12-2.7l1.18-1.18a3.96 3.96 0 0 0 .7-4.35l-.21-.43A4.53 4.53 0 0 0 69 49H51V31c0-.73.59-1.68 1.24-2l.42-.21c.6-.3 1.57-.14 2.04.33l1.18 1.18c.97.96 2.75 1.7 4.12 1.7a7 7 0 1 0 0-14 6.5 6.5 0 0 0-4.12 1.7l-1.18 1.18c-.47.48-1.44.63-2.04.33l-.42-.21A2.58 2.58 0 0 1 51 19z"></path>
    <path class="heroicon-shadows" fill="#000000" d="M0 81v2a17 17 0 0 0 17 17h66a17 17 0 0 0 17-17v-2h-2a15 15 0 0 1-15 15H17A15 15 0 0 1 2 81H0z" opacity=".2"></path>
    <path class="heroicon-outline" fill="#4A4A4A" fill-rule="nonzero" d="M83 0a17 17 0 0 1 17 17v66a17 17 0 0 1-17 17H17A17 17 0 0 1 0 83V17A17 17 0 0 1 17 0h66zM2 83a15 15 0 0 0 15 15h32V81a2.58 2.58 0 0 0-1.24-2l-.42-.21c-.6-.3-1.57-.15-2.04.33l-1.18 1.18A6.5 6.5 0 0 1 40 82a7 7 0 0 1 0-14c1.37 0 3.15.74 4.12 1.7l1.18 1.18c.47.47 1.44.63 2.04.33l.42-.21A2.56 2.56 0 0 0 49 69V51H31a4.53 4.53 0 0 1-3.79-2.34l-.21-.43a3.96 3.96 0 0 1 .7-4.35l1.18-1.18A4.57 4.57 0 0 0 30 40a5 5 0 1 0-10 0c0 .85.52 2.11 1.12 2.7l1.18 1.18a3.95 3.95 0 0 1 .7 4.35l-.21.43A4.55 4.55 0 0 1 19 51H2v32zm49-14a4.53 4.53 0 0 1-2.34 3.79l-.43.21a3.96 3.96 0 0 1-4.35-.7l-1.18-1.18A4.57 4.57 0 0 0 40 70a5 5 0 1 0 0 10c.85 0 2.11-.52 2.7-1.12l1.18-1.18a3.95 3.95 0 0 1 4.35-.7l.43.21A4.55 4.55 0 0 1 51 81V98h32a15 15 0 0 0 15-15V51H81a2.55 2.55 0 0 0-2 1.24l-.21.42c-.3.6-.15 1.57.33 2.04l1.18 1.18A6.5 6.5 0 0 1 82 60a7 7 0 0 1-14 0c0-1.37.74-3.15 1.7-4.12l1.18-1.18c.47-.47.63-1.44.33-2.04l-.21-.42A2.56 2.56 0 0 0 69 51H51v18zM19 49a2.56 2.56 0 0 0 2-1.24l.21-.42a2 2 0 0 0-.16-1.84c-.05-.08-.1-.14-.17-.2l-1.18-1.18A6.5 6.5 0 0 1 18 40a7 7 0 0 1 14 0c0 1.37-.74 3.15-1.7 4.12l-1.18 1.18a1.98 1.98 0 0 0-.33 2.04l.21.42A2.56 2.56 0 0 0 31 49h18V31a4.53 4.53 0 0 1 2.34-3.79l.43-.21a3.96 3.96 0 0 1 4.35.7l1.18 1.18A4.57 4.57 0 0 0 60 30a5 5 0 1 0 0-10c-.85 0-2.11.52-2.7 1.12l-1.18 1.18a3.95 3.95 0 0 1-4.35.7l-.43-.21A4.55 4.55 0 0 1 49 19V2H17A15 15 0 0 0 2 17v32h17zm32-30c0 .54.33 1.21.77 1.65.14.15.3.27.47.35l.42.21c.6.3 1.57.15 2.04-.33l1.18-1.18A6.5 6.5 0 0 1 60 18a7 7 0 0 1 0 14 6.52 6.52 0 0 1-4.12-1.7l-1.18-1.18a1.98 1.98 0 0 0-2.04-.33l-.42.21A2.56 2.56 0 0 0 51 31v18h18a4.53 4.53 0 0 1 3.79 2.34l.21.43a3.96 3.96 0 0 1-.7 4.35l-1.18 1.18A4.57 4.57 0 0 0 70 60a5 5 0 1 0 10 0c0-.85-.52-2.11-1.12-2.7l-1.18-1.18a3.95 3.95 0 0 1-.7-4.35l.21-.43A4.55 4.55 0 0 1 81 49H98V17A15 15 0 0 0 83 2H51v17zm4 36h6v1h-5v11h-1V55zM17 7A10 10 0 0 0 7 17v8H6v-8A11 11 0 0 1 17 6h20v1H17zM6 29h1v6H6v-6z"></path>
</svg>
