<svg xmlns="http://www.w3.org/2000/svg" width="100" height="100" viewBox="0 0 100 100" class="heroicon-calculator heroicon heroicons-lg">
    <path class="heroicon-calculator-body heroicon-component-fill" fill="#FFFFFF" d="M12 36h76v60a3 3 0 0 1-3 3H15a3 3 0 0 1-3-3V36z"></path>
    <path class="heroicon-calculator-top heroicon-component-accent heroicon-component-fill" fill="#7ACFC0" d="M12 4a3 3 0 0 1 3-3h70a3 3 0 0 1 3 3v32H12V4z"></path>
    <rect class="heroicon-calculator-screen heroicon-component-fill" width="62" height="15" x="19" y="14" fill="#FFFFFF"></rect>
    <path class="heroicon-calculator-buttons-numbers heroicon-component-fill" fill="#FFFFFF" d="M17 41h15v9H17v-9zm17 0h15v9H34v-9zm17 0h15v9H51v-9zM17 52h15v9H17v-9zm17 0h15v9H34v-9zm17 0h15v9H51v-9zM17 63h15v9H17v-9zm17 0h15v9H34v-9zm17 0h15v9H51v-9zM17 74h15v9H17v-9zm17 0h15v9H34v-9zm17 0h15v9H51v-9zM17 85h32v9H17v-9zm34 0h15v9H51v-9z"></path>
    <path class="heroicon-calculator-buttons-equations heroicon-component-accent heroicon-component-fill" fill="#7ACFC0" d="M68 41h15v9H68v-9zm0 11h15v9H68v-9zm0 11h15v9H68v-9zm0 11h15v9H68v-9zm0 11h15v9H68v-9z"></path>
    <path class="heroicon-shadows" fill="#000000" d="M13 37h74v2H13v-2zm4 13h15v1H17v-1zm17 0h15v1H34v-1zm17 0h15v1H51v-1zm17 0h15v1H68v-1zM17 61h15v1H17v-1zm17 0h15v1H34v-1zm17 0h15v1H51v-1zm17 0h15v1H68v-1zM17 72h15v1H17v-1zm17 0h15v1H34v-1zm17 0h15v1H51v-1zm17 0h15v1H68v-1zM17 83h15v1H17v-1zm17 0h15v1H34v-1zm17 0h15v1H51v-1zm17 0h15v1H68v-1zM17 94h32v1H17v-1zm34 0h15v1H51v-1zm17 0h15v1H68v-1zM17 12h66l-3 3H20l-3-3z" opacity=".2"></path>
    <path class="heroicon-outline" fill="#4A4A4A" fill-rule="nonzero" d="M15 0h70a4 4 0 0 1 4 4v92a4 4 0 0 1-4 4H15a4 4 0 0 1-4-4V4a4 4 0 0 1 4-4zm-2 96c0 1.1.9 2 2 2h70a2 2 0 0 0 2-2V37H13v59zm5-44h14v9H17v-9h1zm69-17V4a2 2 0 0 0-2-2H15a2 2 0 0 0-2 2v31h74zM34 52h15v9H34v-9zm-3 1H18v7h13v-7zm20-1h15v9H51v-9zm-16 1v7h13v-7H35zm34-1h14v9H68v-9h1zm-17 1v7h13v-7H52zM17 41h15v9H17v-9zm65 12H69v7h13v-7zM35 41h14v9H34v-9h1zm-17 1v7h13v-7H18zm33-1h15v9H51v-9zm-3 1H35v7h13v-7zm21-1h14v9H68v-9h1zm-17 1v7h13v-7H52zM17 63h15v9H17v-9zm65-21H69v7h13v-7zM35 63h14v9H34v-9h1zm-17 1v7h13v-7H18zm33-1h15v9H51v-9zm-3 1H35v7h13v-7zm21-1h14v9H68v-9h1zm-17 1v7h13v-7H52zM17 74h15v9H17v-9zm65-10H69v7h13v-7zM35 74h14v9H34v-9h1zm-17 1v7h13v-7H18zm33-1h15v9H51v-9zm-3 1H35v7h13v-7zm21-1h14v9H68v-9h1zm-17 1v7h13v-7H52zM17 85h32v9H17v-9zm65-10H69v7h13v-7zM52 85h14v9H51v-9h1zm-34 1v7h30v-7H18zm50-1h15v9H68v-9zm-3 1H52v7h13v-7zm4 0v7h13v-7H69zM18 12h65v19H17V12h1zm64 1H18v17h64V13zm-63 1h62v15H19V14zm1 1v13h60V15H20zm23-9h14v2H43V6z"></path>
</svg>
