<svg xmlns="http://www.w3.org/2000/svg" width="100" height="100" viewBox="0 0 100 100" class="heroicon-thumbs-down heroicon heroicons-lg">
    <path class="heroicon-thumbs-down-hand heroicon-component-fill" fill="#FFFFFF" d="M45.59 27.41a5.54 5.54 0 0 0 1.41-3.4V13A3 3 0 0 1 50 10h1c5.52 0 10 4.49 10 10v10.01c0 2.2-.8 5.6-1.79 7.57l-.32.64c-.5.98 0 1.78 1.11 1.78h29a7 7 0 0 1 4.85 12.05 7 7 0 0 1 0 13.9 7 7 0 0 1-4 12A7 7 0 0 1 85 90H47a20.02 20.02 0 0 1-19.08-14H16V50h11.2c.54-2.97 2.14-6.34 4.04-8.24L45.6 27.4z" transform="matrix(1 0 0 -1 0 100)"></path>
    <polygon class="heroicon-thumbs-down-sleeve heroicon-component-accent heroicon-component-fill" fill="#7ACFC0" points="14 22 2 22 2 58 14 58"></polygon>
    <path class="heroicon-shadows" fill="#000000" d="M62.23 39.5A5 5 0 0 0 67 46h26a5 5 0 0 0 4.77-6.5A5 5 0 0 1 93 43H67a5 5 0 0 1-4.77-3.5zM2 51h12v7H2v-7zm87.77-35.5A5 5 0 0 1 85 22H67a5 5 0 0 1-4.77-6.5A5 5 0 0 0 67 19h18a5 5 0 0 0 4.77-3.5zm-27.54 36A5 5 0 0 0 67 55h22a5 5 0 0 0 4.77-3.5A5 5 0 0 1 89 58H67a5 5 0 0 1-4.77-6.5zm0-24A5 5 0 0 0 67 31h22a5 5 0 0 0 4.77-3.5A5 5 0 0 1 89 34H67a5 5 0 0 1-4.77-6.5z" opacity=".2"></path>
    <path class="heroicon-outline" fill="#4A4A4A" fill-rule="nonzero" d="M71 10h14a7 7 0 0 1 4.85 12.05 7 7 0 0 1 4 12 7 7 0 0 1 0 13.9A7 7 0 0 1 89 60H60c-1.11 0-1.6.8-1.1 1.78l.31.64A20.1 20.1 0 0 1 61 70v10C61 85.52 56.52 90 51 90h-1a3 3 0 0 1-3-3.01v-11c0-1.1-.63-2.62-1.41-3.4L31.24 58.24c-1.9-1.9-3.5-5.27-4.04-8.24H16v10H0V20h16v4h11.92A20.02 20.02 0 0 1 47 10H71zm-4 12h18a5 5 0 0 0 0-10H67a5 5 0 0 0 0 10zm-4.9-10H47a18 18 0 0 0-18 18v2h-2v-2c0-1.37.14-2.7.4-4H16v22h11v-6h2v6c0 2.78 1.69 6.86 3.66 8.83L47 71.17A7.5 7.5 0 0 1 49 76v11A1 1 0 0 0 50 88h1c4.41 0 8-3.59 8-8V69.99c0-1.89-.73-4.98-1.58-6.67l-.32-.64c-.69-1.38-.45-2.78.4-3.68H46v-1h16.1a6.98 6.98 0 0 1 1.3-11 7 7 0 0 1 0-12 7 7 0 0 1 0-12 7 7 0 0 1-1.3-11zM67 58h22a5 5 0 0 0 0-10H67a5 5 0 0 0 0 10zm0-24h22a5 5 0 0 0 0-10H67a5 5 0 0 0 0 10zm0 12h26a5 5 0 0 0 0-10H67a5 5 0 0 0 0 10zM14 58V22H2v36h12zm43-6v2h-1v-2a13 13 0 0 0-13-13v-1a14 14 0 0 1 14 14zm-46-9h-1V25h1v18z"></path>
</svg>
