<svg xmlns="http://www.w3.org/2000/svg" width="100" height="100" viewBox="0 0 100 100" class="heroicon-female1 heroicon heroicons-lg">
    <path class="heroicon-female1-top heroicon-component-accent heroicon-component-fill" fill="#7ACFC0" d="M80 98v-6h-1v6H52l7.17-7.17A11.08 11.08 0 0 0 62 83.99V72.24L83.73 83.1A8.65 8.65 0 0 1 88 90v8h-8zm-59 0v-6h-1v6h-8v-8a8.65 8.65 0 0 1 4.27-6.9L38 72.24v11.75c0 2.22 1.27 5.28 2.83 6.84L48 98H21z"></path>
    <path class="heroicon-female1-collar heroicon-component-accent heroicon-component-fill" fill="#7ACFC0" d="M41.54 90.12L49.4 98h1.18l7.87-7.88A10.11 10.11 0 0 0 61 84V72.34c-.65.33-1.32.64-2 .92v10.73a8.2 8.2 0 0 1-1.95 4.72L50 95.76l-7.05-7.05c-1-1-1.95-3.3-1.95-4.72V73.26c-.69-.28-1.36-.6-2.01-.93H39V84a10.1 10.1 0 0 0 2.54 6.13z"></path>
    <path class="heroicon-female1-hair heroicon-component-fill" fill="#FFFFFF" d="M77 33.38a12 12 0 0 1 2.98 22.03l-1.06.61.06 1.23.02.75a14 14 0 0 1-13.06 13.97l-2.36-1.18a23.98 23.98 0 0 0 10.34-17.8L74 53a5 5 0 0 0 3-9V33.38zM74 43V33c.34 0 .67.01 1 .04V43.1c-.32-.07-.66-.1-1-.1zM23 28a26 26 0 0 1 52 0v3.04c-.33-.03-.66-.04-1-.04H54a29.88 29.88 0 0 1-20.44-8.04A29.96 29.96 0 0 1 26 32.22V43c-1.13 0-2.16.37-3 1V28zm3 25h.08a23.98 23.98 0 0 0 10.34 17.79l-1.96.98a14 14 0 0 1-10.39-19.15c.6.24 1.25.38 1.93.38z"></path>
    <path class="heroicon-female1-face heroicon-component-fill" fill="#FFFFFF" d="M72 51a22 22 0 1 1-44 0V33.14a33.23 33.23 0 0 0 6.09-7.1A32.79 32.79 0 0 0 54 33h18v18zm2 0v-6a3 3 0 0 1 0 6zm-51-3a3 3 0 0 1 3-3v6a3 3 0 0 1-3-3zm27 27a24 24 0 0 0 7-1.04V84c0 .9-.74 2.68-1.36 3.3L50 92.93l-5.64-5.64A6.38 6.38 0 0 1 43 84V73.96A24 24 0 0 0 50 75z"></path>
    <path class="heroicon-female1-mouth heroicon-component-fill" fill="#FFFFFF" d="M44.25 62a7 7 0 0 0 11.5 0h-11.5z"></path>
    <path class="heroicon-shadows" fill="#000000" d="M65.37 72l3.57 1.74A23.96 23.96 0 0 1 50 83c-7.7 0-14.55-3.63-18.94-9.26l3.57-1.75a25.97 25.97 0 0 1-10.61-19.98h2a23.99 23.99 0 0 0 10.67 18.98h.01A23.89 23.89 0 0 0 50 75c4.92 0 9.5-1.48 13.3-4.02h.01a23.99 23.99 0 0 0 10.67-18.97h2a25.97 25.97 0 0 1-10.61 19.98zM28 33.13a33.23 33.23 0 0 0 6.09-7.1A32.79 32.79 0 0 0 54 33h18v2H54a32.79 32.79 0 0 1-19.91-6.97A33.23 33.23 0 0 1 28 35.14v-2z" opacity=".2"></path>
    <path class="heroicon-outline" fill="#4A4A4A" fill-rule="nonzero" d="M77 31.32a14 14 0 0 1 3.98 25.82L81 58a16 16 0 0 1-12 15.5l15.63 7.81c2.96 1.49 5.37 5.37 5.37 8.7V100H10V90c0-3.31 2.4-7.2 5.37-8.69l16.39-8.19a16 16 0 0 1-9.37-21.66A4.98 4.98 0 0 1 21 48V28a28 28 0 1 1 56 0v3.32zM80 98h8v-8a8.65 8.65 0 0 0-4.27-6.9L62 72.24v11.75c0 2.21-1.26 5.27-2.83 6.84L52 98h27v-6h1v6zm-59 0h27l-7.17-7.17A11.08 11.08 0 0 1 38 83.99V72.24L16.27 83.1A8.65 8.65 0 0 0 12 90v8h8v-6h1v6zm56-64.62V44a5 5 0 0 1-3.08 9 23.98 23.98 0 0 1-10.34 17.79l2.36 1.18a14 14 0 0 0 13.04-14.72l-.06-1.23 1.06-.61A12 12 0 0 0 77 33.38zM72 51V33H54a32.79 32.79 0 0 1-19.91-6.97A33.23 33.23 0 0 1 28 33.14V51a22 22 0 0 0 44 0zm2 0a3 3 0 0 0 0-6v6zm0-8c.34 0 .68.03 1 .1V33.04c-.33-.03-.66-.04-1-.04v10zM23 28v16c.84-.63 1.87-1 3-1V32.22a30.15 30.15 0 0 0 7.56-9.26A29.88 29.88 0 0 0 54 31h20c.34 0 .67.01 1 .04V28a26 26 0 0 0-52 0zm0 20a3 3 0 0 0 3 3v-6a3 3 0 0 0-3 3zm3 5c-.68 0-1.33-.14-1.93-.38a14 14 0 0 0 10.39 19.15l1.96-.98a23.98 23.98 0 0 1-10.34-17.8L26 53zm15.54 37.12L49.4 98h1.18l7.87-7.88A10.11 10.11 0 0 0 61 84V72.34c-.65.33-1.32.64-2 .92v10.73a8.2 8.2 0 0 1-1.95 4.72L50 95.76l-7.05-7.05c-1-1-1.95-3.3-1.95-4.72V73.26c-.69-.28-1.36-.6-2.01-.93H39V84a10.1 10.1 0 0 0 2.54 6.13zM50 75a24 24 0 0 1-7-1.04V84c0 .9.74 2.68 1.36 3.3L50 92.93l5.64-5.64A6.38 6.38 0 0 0 57 84V73.96A24 24 0 0 1 50 75zm-9-38v1c-1.93 0-3.68.78-4.95 2.05l-.7-.7A7.98 7.98 0 0 1 41 37zm0 10a2 2 0 1 1 0-4 2 2 0 0 1 0 4zm18-10c2.2 0 4.2.9 5.66 2.34l-.71.71A6.98 6.98 0 0 0 59 38v-1zm0 10a2 2 0 1 1 0-4 2 2 0 0 1 0 4zm-9 8c-1.03 0-1.98-.3-2.77-.84l.55-.83a3.98 3.98 0 0 0 4.44 0l.55.83c-.79.53-1.74.84-2.77.84zm-6.93 7a7.98 7.98 0 0 1-.49-1h14.84A7.98 7.98 0 0 1 50 66a8 8 0 0 1-6.93-4zm1.18 0a7 7 0 0 0 11.5 0h-11.5zM29.68 17.46a22 22 0 0 1 29.16-9.14l-.45.9a21 21 0 0 0-27.83 8.73l-.88-.49z"></path>
</svg>
