<svg xmlns="http://www.w3.org/2000/svg" width="100" height="100" viewBox="0 0 100 100" class="heroicon-couple2 heroicon heroicons-lg">
    <path class="heroicon-couple2-male-top heroicon-component-accent heroicon-component-fill" fill="#7ACFC0" d="M44 92V80c0-1.3.37-2.69 1-3.98V71h1v3.33a9.53 9.53 0 0 1 3.37-3.01L54 69c0-2.56-1.97-5.75-4.26-6.9L36 55.25V64c0 3.32-1.9 4.1-4.25 1.75L28 62l-3.75 3.75C21.9 68.1 20 67.32 20 64v-8.76L6.26 62.1C3.98 63.25 2 66.45 2 69v23h8V71h1v21h33z"></path>
    <path class="heroicon-couple2-male-collar heroicon-component-accent heroicon-component-fill" fill="#7ACFC0" d="M35 55v9c0 2.43-.82 2.77-2.54 1.05l-3.75-3.76L35 55zm-7.7 6.3l-3.76 3.75C21.82 66.77 21 66.43 21 64v-9l6.3 6.3z"></path>
    <path class="heroicon-couple2-male-hair heroicon-component-fill" fill="#FFFFFF" d="M12 17v10.13a4 4 0 0 1 1-.13v-9.42c.61.27 1.29.42 2 .42h28v9a4 4 0 0 1 1 .13V15.99a4.99 4.99 0 0 0-2.7-4.43l-.57-.3-.29-.56A5 5 0 0 0 36 8H15a5 5 0 0 0-3 9z"></path>
    <path class="heroicon-couple2-male-face heroicon-component-fill" fill="#FFFFFF" d="M41 34v3a13 13 0 0 1-7 11.54v4.63l-6 6-6-6v-4.63A13 13 0 0 1 15 37V34h-2a3 3 0 1 1 0-6h2v-8h26v8h2a3 3 0 1 1 0 6h-2z"></path>
    <path class="heroicon-couple2-male-mouth heroicon-component-fill" fill="#FFFFFF" d="M28 45a5 5 0 0 1-4-2h8a5 5 0 0 1-4 2z"></path>
    <path class="heroicon-couple2-male-teeth heroicon-component-fill" fill="#FFFFFF" d="M23.1 41c.07.35.18.68.32 1h9.16c.14-.32.25-.65.32-1h-9.8z"></path>
    <path class="heroicon-couple2-female-top heroicon-component-accent heroicon-component-fill" fill="#7ACFC0" d="M59.72 71.29a4.01 4.01 0 0 1-1.55-2.14l-7.91 3.96C47.98 74.25 46 77.45 46 80V92h6v-7h1v7h38v-7h1v7h6V80a8.64 8.64 0 0 0-4.26-6.9l-7.9-3.95a4 4 0 0 1-1.56 2.14 4 4 0 0 1-3.3 5.7 4 4 0 0 1-5.7 3.29 4 4 0 0 1-6.57 0 4 4 0 0 1-5.7-3.3 4 4 0 0 1-3.29-5.7z"></path>
    <path class="heroicon-couple2-female-collar heroicon-component-accent heroicon-component-fill" fill="#7ACFC0" d="M80 66.24l4.92 2.46a3 3 0 0 1-1.21 1.77l-.7.48.36.77a3 3 0 0 1-2.47 4.27l-.84.07-.07.85a3 3 0 0 1-4.27 2.46l-.77-.36-.48.7a3 3 0 0 1-4.94 0l-.48-.7-.77.36a3 3 0 0 1-4.27-2.47l-.07-.84-.85-.07a3 3 0 0 1-2.46-4.27l.36-.77-.7-.48a3 3 0 0 1-1.2-1.77L64 66.24V68a8 8 0 1 0 16 0v-1.76z"></path>
    <path class="heroicon-couple2-female-hair heroicon-component-fill" fill="#FFFFFF" d="M92 53a14 14 0 0 1-8.37 12.82L80 64v-.3c4.2-2.66 7-7.35 7-12.7a4 4 0 0 0 0-8v-5c-6.1 0-11.52-2.87-15-7.34A18.97 18.97 0 0 1 57 38v5a4 4 0 0 0 0 8 15 15 0 0 0 7.28 12.86L64 63.7V64l-3.63 1.82A14 14 0 0 1 52 53V34a13 13 0 0 1 19.07-11.5l.93.5.93-.5A13 13 0 0 1 92 34v19z"></path>
    <path class="heroicon-couple2-female-face heroicon-component-fill" fill="#FFFFFF" d="M85 50v1a13 13 0 0 1-7 11.54V68a6 6 0 0 1-12 0v-5.47A13 13 0 0 1 59 51v-1h-2a3 3 0 1 1 0-6h2v-4.1c4.98-.47 9.56-2.69 13-6.2a20.94 20.94 0 0 0 13 6.2V44h2a3 3 0 1 1 0 6h-2z"></path>
    <path class="heroicon-couple2-female-mouth heroicon-component-fill" fill="#FFFFFF" d="M72 59a4 4 0 0 1-3.47-2h6.94A4 4 0 0 1 72 59z"></path>
    <path class="heroicon-shadows" fill="#000000" d="M85 39.9v2a20.94 20.94 0 0 1-13-6.2 20.94 20.94 0 0 1-13 6.2v-2c4.98-.47 9.56-2.69 13-6.2a20.94 20.94 0 0 0 13 6.2zM12 19h30v3H12v-3zm69.8 45.9l3.95 1.97A20.92 20.92 0 0 1 72 72a20.92 20.92 0 0 1-13.75-5.13l3.96-1.97A16.98 16.98 0 0 1 55 51v-.53c.59.34 1.27.53 2 .53a15 15 0 0 0 30 0c.73 0 1.41-.2 2-.53V51c0 5.74-2.85 10.82-7.2 13.9zM36 49.7V53l3.35 1.67A20.9 20.9 0 0 1 28 58a20.9 20.9 0 0 1-11.35-3.33L20 53v-3.3a14.93 14.93 0 0 0 8 2.3c2.94 0 5.68-.85 8-2.3z" opacity=".2"></path>
    <path class="heroicon-outline" fill="#4A4A4A" fill-rule="nonzero" d="M43 35v2c0 5.35-2.8 10.04-7 12.7V53l14.63 7.32c.68.34 1.33.8 1.93 1.35A15.92 15.92 0 0 1 50 53V34a15 15 0 0 1 22-13.27A15 15 0 0 1 94 34v19a16 16 0 0 1-8.13 13.93l8.76 4.39C97.6 72.8 100 76.68 100 80v14H0V69c0-3.32 2.41-7.2 5.37-8.68L20 53v-3.3c-4.2-2.67-7-7.35-7-12.7v-2a4 4 0 0 1-3-6.65V17.9A7 7 0 0 1 15 6h21a7 7 0 0 1 6.21 3.78A6.99 6.99 0 0 1 46 15.99v12.36A4 4 0 0 1 43 35zm1 57V80c0-1.3.37-2.69 1-3.98V71h1v3.33a9.53 9.53 0 0 1 3.37-3.01L54 69c0-2.56-1.97-5.75-4.26-6.9L36 55.25V64c0 3.32-1.9 4.1-4.25 1.75L28 62l-3.75 3.75C21.9 68.1 20 67.32 20 64v-8.76L6.26 62.1C3.98 63.25 2 66.45 2 69v23h8V71h1v21h33zm11.94-23.97l2.2-1.1a16.07 16.07 0 0 1-3.59-2.76 10.38 10.38 0 0 1 1.39 3.86zM13 27v-7.29c-.35-.1-.68-.23-1-.38v7.8a4 4 0 0 1 1-.13zm28-7H15v17a13 13 0 0 0 26 0V20zm2 13a2 2 0 1 0 0-4v4zm1-5.87V15.99a4.99 4.99 0 0 0-2.7-4.43l-.57-.3-.29-.56A5 5 0 0 0 36 8H15a5 5 0 0 0 0 10h28v9a4 4 0 0 1 1 .13zM13 29a2 2 0 1 0 0 4v-4zm9 24.17l6 6 6-6v-2.42a14.96 14.96 0 0 1-12 0v2.42zM35 55l-6.3 6.3 3.76 3.75C34.18 66.77 35 66.43 35 64v-9zm-7.7 6.3L21 55v9c0 2.43.82 2.77 2.54 1.05l3.75-3.76zM92 53V34a13 13 0 0 0-19.07-11.5L72 23l-.93-.5A13 13 0 0 0 52 34v19a14 14 0 0 0 8.37 12.82L64 64v-.3l.28.16A15 15 0 0 1 57 51a4 4 0 0 1 0-8v-5c6.1 0 11.52-2.87 15-7.34A18.97 18.97 0 0 0 87 38v5a4 4 0 0 1 0 8c0 5.35-2.8 10.04-7 12.7v.3l3.63 1.82A14 14 0 0 0 92 53zm-7-4v-9.1a20.94 20.94 0 0 1-13-6.2 20.94 20.94 0 0 1-13 6.2V51a13 13 0 0 0 26 0v-2zm4-2a2 2 0 0 0-2-2v4a2 2 0 0 0 2-2zm-34 0c0 1.1.9 2 2 2v-4a2 2 0 0 0-2 2zm10.34 17.45l.66.3V68a6 6 0 0 0 12 0v-3.25a14.95 14.95 0 0 1-12.66-.3zM80 66.24V68a8 8 0 1 1-16 0v-1.76l-4.92 2.46a3 3 0 0 0 1.21 1.77l.7.48-.36.77a3 3 0 0 0 2.46 4.27l.85.07.07.84a3 3 0 0 0 4.27 2.47l.77-.36.48.7a3 3 0 0 0 4.94 0l.48-.7.77.36a3 3 0 0 0 4.27-2.46l.07-.85.84-.07a3 3 0 0 0 2.47-4.27l-.36-.77.7-.48a3 3 0 0 0 1.2-1.77L80 66.24zm-20.28 5.05a4.01 4.01 0 0 1-1.55-2.14l-7.91 3.96C47.98 74.25 46 77.45 46 80V92h6v-7h1v7h38v-7h1v7h6V80a8.64 8.64 0 0 0-4.26-6.9l-7.9-3.95a4 4 0 0 1-1.56 2.14 4 4 0 0 1-3.3 5.7 4 4 0 0 1-5.7 3.29 4 4 0 0 1-6.57 0 4 4 0 0 1-5.7-3.3 4 4 0 0 1-3.29-5.7zM67.1 56H76.9a4.96 4.96 0 0 1-4.9 4 5 5 0 0 1-4.9-4zm4.9 3a4 4 0 0 0 3.47-2h-6.94A4 4 0 0 0 72 59zm6-11a1 1 0 1 1 0-2 1 1 0 0 1 0 2zm0-6a5 5 0 0 1 4.47 2.76l-.9.45A4 4 0 0 0 78 43v-1zm-12 0v1a4 4 0 0 0-3.58 2.21l-.9-.45A5 5 0 0 1 66 42zm1 5a1 1 0 1 1-2 0 1 1 0 0 1 2 0zm2.78 5.33l.56-.83a2.99 2.99 0 0 0 3.32 0l.56.83a3.98 3.98 0 0 1-4.44 0zM79 23a11 11 0 0 1 9.84 6.08l-.9.45A10 10 0 0 0 79 24v-1zm-23.84 6.08A11 11 0 0 1 65 23v1a10 10 0 0 0-8.95 5.53l-.9-.45zM18 9h15v1H18V9zm4.08 32a6.05 6.05 0 0 1-.08-1h12a6 6 0 0 1-11.92 1zM28 45a5 5 0 0 0 4-2h-8a5 5 0 0 0 4 2zm-4.9-4c.07.35.18.68.32 1h9.16c.14-.32.25-.65.32-1h-9.8zM35 31a1 1 0 1 1-2 0 1 1 0 0 1 2 0zm-1-5a5 5 0 0 1 4.47 2.76l-.9.45a4 4 0 0 0-4.84-2l-.31-.95A5 5 0 0 1 34 26zm-8.22 10.33l.56-.83a2.99 2.99 0 0 0 3.32 0l.56.83a3.98 3.98 0 0 1-4.44 0zM23 31a1 1 0 1 1-2 0 1 1 0 0 1 2 0zm.58-4.74l-.31.94a4 4 0 0 0-4.85 2.01l-.9-.45a5 5 0 0 1 6.06-2.5zM29 87a1 1 0 1 1-2 0 1 1 0 0 1 2 0zm0-8a1 1 0 1 1-2 0 1 1 0 0 1 2 0zm0-8a1 1 0 1 1-2 0 1 1 0 0 1 2 0z"></path>
</svg>
