<svg xmlns="http://www.w3.org/2000/svg" width="100" height="100" viewBox="0 0 100 100" class="heroicon-microphone heroicon heroicons-lg">
    <path class="heroicon-microphone-stand heroicon-component-accent heroicon-component-fill" fill="#7ACFC0" d="M72 34v-2h6v24a28 28 0 0 1-24 27.72V90l22 4v6H24v-6l22-4v-6.28A28 28 0 0 1 22 56V32h6v2h4v3h-4v19a22 22 0 1 0 44 0V37h-4v-3h4z"></path>
    <path class="heroicon-microphone-housing heroicon-component-fill" fill="#FFFFFF" d="M30 12A12 12 0 0 1 42 0h16a12 12 0 0 1 12 12v46a12 12 0 0 1-12 12H42a12 12 0 0 1-12-12V12z"></path>
    <path class="heroicon-shadows" fill="#000000" d="M30 12h19v2H30v-2zm0 6h19v2H30v-2zm0 6h19v2H30v-2zm0 6h19v2H30v-2zm0 6h19v2H30v-2zm0 6h19v2H30v-2zm0 6h19v2H30v-2zm0 6h19v2H30v-2zm21-42h19v2H51v-2zm0 6h19v2H51v-2zm0 6h19v2H51v-2zm0 6h19v2H51v-2zm0 6h19v2H51v-2zm0 6h19v2H51v-2zm0 6h19v2H51v-2zm0 6h19v2H51v-2zm-9 8h4v4h-4v-4zm6 0h4v4h-4v-4zm6 0h4v4h-4v-4zm-8 21h8v3h-8v-3z" opacity=".2"></path>
    <path class="heroicon-outline" fill="#4A4A4A" fill-rule="nonzero" d="M42 0h16a12 12 0 0 1 12 12v22h2v-2h6v24a28 28 0 0 1-24 27.72V90l22 4v6H24v-6l22-4v-6.28A28 28 0 0 1 22 56V32h6v2h2V12A12 12 0 0 1 42 0zm6 2h-2v6h-4V2a10 10 0 0 0-10 10h17v4H32v2h17v4H32v2h17v4H32v2h17v4H32v2h17v4H32v2h17v4H32v2h17v4H32v2h17v4H32a10 10 0 0 0 10 10v-6h4v6h2v-6h4v6h2v-6h4v6a10 10 0 0 0 10-10H51v-4h17v-2H51v-4h17v-2H51v-4h17v-2H51v-4h17v-2H51v-4h17v-2H51v-4h17v-2H51v-4h17v-2H51v-4h17A10 10 0 0 0 58 2v6h-4V2h-2v6h-4V2zm9 66v-5h-2v5h2zm-6-5h-2v5h2v-5zm-6 5v-5h-2v5h2zM55 2v5h2V2h-2zm-6 0v5h2V2h-2zm3 53v2h16v-2H52zm16-6H52v2h16v-2zm0-6H52v2h16v-2zm0-6H52v2h16v-2zm0-6H52v2h16v-2zm0-6H52v2h16v-2zm0-6H52v2h16v-2zm0-6H52v2h16v-2zM32 57h16v-2H32v2zm0-6h16v-2H32v2zm0-6h16v-2H32v2zm0-6h16v-2H32v2zm0-6h16v-2H32v2zm0-6h16v-2H32v2zm0-6h16v-2H32v2zm0-6h16v-2H32v2zM43 2v5h2V2h-2zm27 33v1h2v-1h-2zm2 2h-2v21a12 12 0 0 1-12 12H42a12 12 0 0 1-12-12V37h-2v19a22 22 0 1 0 44 0V37zm-44-2v1h2v-1h-2zm24 48.93a28.42 28.42 0 0 1-4 0V90h4v-6.07zM53.82 92H46.18l-16.5 3h40.64l-16.5-3zM26 96v2h48v-2H26zm-2-62v22a26 26 0 0 0 52 0V34h-2v22a24 24 0 0 1-48 0V34h-2z"></path>
</svg>
