<svg xmlns="http://www.w3.org/2000/svg" width="100" height="100" viewBox="0 0 100 100" class="heroicon-adjustments heroicon heroicons-lg">
    <path class="heroicon-adjustments-cover-outer heroicon-component-accent heroicon-component-fill" fill="#7ACFC0" d="M0 4a4 4 0 0 1 4-4h92a4 4 0 0 1 4 4v92a4 4 0 0 1-4 4H4a4 4 0 0 1-4-4V4z"></path>
    <polygon class="heroicon-adjustments-cover-inner heroicon-component-fill" fill="#FFFFFF" points="4 4 5 4 95 4 96 4 96 5 96 95 96 96 95 96 5 96 4 96 4 95 4 5"></polygon>
    <path class="heroicon-adjustments-sliders heroicon-component-accent heroicon-component-fill" fill="#7ACFC0" d="M54 19a4 4 0 0 1 0 8h-8a4 4 0 0 1 0-8h8zm3 27h8a4 4 0 0 1 0 8h-8a4 4 0 0 1 0-8zM35 73h8a4 4 0 0 1 0 8h-8a4 4 0 0 1 0-8z"></path>
    <path class="heroicon-shadows" fill="#000000" d="M48.2 74H77a3 3 0 0 1 2.6 4.5A3 3 0 0 0 77 77H49c0-1.1-.3-2.12-.8-3zm-18.4 0H23a3 3 0 0 0-2.6 4.5A3 3 0 0 1 23 77h6c0-1.1.3-2.12.8-3zm40.4-27H77a3 3 0 0 1 2.6 4.5A3 3 0 0 0 77 50h-6c0-1.1-.3-2.12-.8-3zm-18.4 0H23a3 3 0 0 0-2.6 4.5A3 3 0 0 1 23 50h28c0-1.1.3-2.12.8-3zm7.4-27H77a3 3 0 0 1 2.6 4.5A3 3 0 0 0 77 23H60c0-1.1-.3-2.12-.8-3zm-18.4 0H23a3 3 0 0 0-2.6 4.5A3 3 0 0 1 23 23h17c0-1.1.3-2.12.8-3z" opacity=".2"></path>
    <path class="heroicon-outline" fill="#4A4A4A" fill-rule="nonzero" d="M0 4a4 4 0 0 1 4-4h92a4 4 0 0 1 4 4v92a4 4 0 0 1-4 4H4a4 4 0 0 1-4-4V4zm2 0v92c0 1.1.9 2 2 2h92a2 2 0 0 0 2-2V4a2 2 0 0 0-2-2H4a2 2 0 0 0-2 2zm2 0h92v92H4V4zm1 1v90h90V5H5zm4 5a1 1 0 1 1 0-2 1 1 0 0 1 0 2zm83-1a1 1 0 1 1-2 0 1 1 0 0 1 2 0zM9 92a1 1 0 1 1 0-2 1 1 0 0 1 0 2zm83-1a1 1 0 1 1-2 0 1 1 0 0 1 2 0zM54 17h23a6 6 0 0 1 0 12H23a6 6 0 0 1 0-12h31zm23 1H57.32c.77.51 1.41 1.2 1.88 2H77a3 3 0 1 1 0 6H59.2c-.47.8-1.11 1.49-1.88 2H77a5 5 0 0 0 0-10zM23 28h19.68a6.03 6.03 0 0 1-1.88-2H23a3 3 0 1 1 0-6h17.8c.47-.8 1.11-1.49 1.88-2H23a5 5 0 0 0 0 10zm17-5c0-.7.12-1.37.34-2H23a2 2 0 1 0 0 4h17.34a5.99 5.99 0 0 1-.34-2zm20 0c0 .7-.12 1.37-.34 2H77a2 2 0 1 0 0-4H59.66c.22.63.34 1.3.34 2zm-6-4h-8a4 4 0 0 0 0 8h8a4 4 0 0 0 0-8zm-6 2h1v4h-1v-4zm3 0h1v4h-1v-4zm6 23h20a6 6 0 0 1 0 12H23a6 6 0 0 1 0-12h34zm11.32 1c.77.51 1.41 1.2 1.88 2H77a3 3 0 1 1 0 6h-6.8c-.47.8-1.11 1.49-1.88 2H77a5 5 0 0 0 0-10h-8.68zM53.68 55a6.03 6.03 0 0 1-1.88-2H23a3 3 0 1 1 0-6h28.8c.47-.8 1.11-1.49 1.88-2H23a5 5 0 0 0 0 10h30.68zm-2.34-3a5.99 5.99 0 0 1 0-4H23a2 2 0 1 0 0 4h28.34zm19.32-4a5.99 5.99 0 0 1 0 4H77a2 2 0 1 0 0-4h-6.34zM57 46a4 4 0 0 0 0 8h8a4 4 0 0 0 0-8h-8zm3 2v4h-1v-4h1zm3 0v4h-1v-4h1zM35 71h42a6 6 0 0 1 0 12H23a6 6 0 0 1 0-12h12zm11.32 1c.77.51 1.41 1.2 1.88 2H77a3 3 0 1 1 0 6H48.2c-.47.8-1.11 1.49-1.88 2H77a5 5 0 0 0 0-10H46.32zM31.68 82a6.03 6.03 0 0 1-1.88-2H23a3 3 0 1 1 0-6h6.8c.47-.8 1.11-1.49 1.88-2H23a5 5 0 0 0 0 10h8.68zm-2.34-3a5.99 5.99 0 0 1 0-4H23a2 2 0 1 0 0 4h6.34zm19.32-4a5.99 5.99 0 0 1 0 4H77a2 2 0 1 0 0-4H48.66zM35 73a4 4 0 0 0 0 8h8a4 4 0 0 0 0-8h-8zm3 2v4h-1v-4h1zm3 0v4h-1v-4h1z"></path>
</svg>
