<svg xmlns="http://www.w3.org/2000/svg" width="100" height="100" viewBox="0 0 100 100" class="heroicon-surveillance heroicon heroicons-lg">
    <path class="heroicon-surveillance-camera heroicon-component-accent heroicon-component-fill" fill="#7ACFC0" d="M90 14h1v20h-4v2H70V24h4c3.32 0 7.9-1.9 10.24-4.24L90 14z"></path>
    <path class="heroicon-surveillance-cover heroicon-component-fill" fill="#FFFFFF" d="M0 4h100L84.24 19.76C81.9 22.1 77.32 24 74 24H0V4z"></path>
    <polygon class="heroicon-surveillance-cover-accent heroicon-component-accent heroicon-component-fill" fill="#7ACFC0" points="95 9 100 4 0 4 0 9 95 9"></polygon>
    <polygon class="heroicon-surveillance-housing heroicon-component-fill" fill="#FFFFFF" points="2 24 72 24 72 42 12 42 12 40 2 40"></polygon>
    <path class="heroicon-surveillance-housing-accent heroicon-component-accent heroicon-component-fill" fill="#7ACFC0" d="M2 24h10v5H2v-5zm17 0h40v12H19V24z"></path>
    <path class="heroicon-surveillance-mount heroicon-component-fill" fill="#FFFFFF" d="M16 74h7.53a5.98 5.98 0 0 1 0-8H8V56H0v40h8v-8l8-8v-6zm16-8.47V52h-8v13.53a5.98 5.98 0 0 1 8 0zM16 42h24v5l-5 5H21l-5-5v-5z"></path>
    <circle class="heroicon-surveillance-hinge heroicon-component-accent heroicon-component-fill" cx="28" cy="70" r="6" fill="#7ACFC0"></circle>
    <path class="heroicon-shadows" fill="#000000" d="M90 14h1v3l-6.76 6.76C81.9 26.1 77.32 28 74 28H2v-4h72c3.32 0 7.9-1.9 10.24-4.24L90 14zM16 42h24v4H16v-4zm8 10h8v2h-8v-2zM6 74h10v2H6v-2z" opacity=".2"></path>
    <path class="heroicon-outline" fill="#4A4A4A" fill-rule="nonzero" d="M100 4L90 14h1v20h-4v2H72v6H40v5l-5 5h-3v13.53A5.98 5.98 0 0 1 28 76a5.99 5.99 0 0 1-4.47-2H16v6l-8 8v8H0V56h8v10h15.53c.15-.17.3-.32.47-.47V52h-3l-5-5v-5h-4v-2H2V24H0V4h100zM12 29H4v9h8v-9zm0-1v-4H4v4h8zm6 12h52V24H59v12H19V24h-5v16h4zm-4-18h60c2.78 0 6.86-1.69 8.83-3.66L92.17 9H2v13h12zm6 13h38V24H20v11zm62-1V21.48C79.58 22.97 76.45 24 74 24h-2v10h10zM18 46.17L21.83 50h12.34L38 46.17V42H18v4.17zM89 16h-1l-1 1v15h2V16zm-4 3l-.76.76c-.36.36-.78.72-1.24 1.05V34h2V19zM2 8h91.17l2-2H2v2zm28 56.34V52h-4v12.34a5.99 5.99 0 0 1 4 0zM22.34 72a6 6 0 0 1 0-4H8v4h14.34zM2 58v36h4V58H2zm6 16v11.17l6-6V74H8zm24-4a4 4 0 1 0-8 0 4 4 0 0 0 8 0zm32.5-39a2.5 2.5 0 1 1 0-5 2.5 2.5 0 0 1 0 5zm1.5-2.5a1.5 1.5 0 1 0-3 0 1.5 1.5 0 0 0 3 0zM28 48a2 2 0 1 1 0-4 2 2 0 0 1 0 4zm1-2a1 1 0 1 0-2 0 1 1 0 0 0 2 0zm1 24a2 2 0 1 1-4 0 2 2 0 0 1 4 0zm-2 1a1 1 0 1 0 0-2 1 1 0 0 0 0 2z"></path>
</svg>
