<svg xmlns="http://www.w3.org/2000/svg" width="100" height="100" viewBox="0 0 100 100" class="heroicon-safe heroicon heroicons-lg">
    <rect class="heroicon-safe-casing heroicon-component-accent heroicon-component-fill" width="98" height="86" x="1" y="6" fill="#7ACFC0" rx="7"></rect>
    <rect class="heroicon-safe-door heroicon-component-fill" width="86" height="74" x="7" y="12" fill="#FFFFFF" rx="2"></rect>
    <path class="heroicon-safe-hinges heroicon-component-fill" fill="#FFFFFF" d="M90 28h5v10h-5V28zm0 32h5v10h-5V60z"></path>
    <circle class="heroicon-safe-lock-outer heroicon-component-accent heroicon-component-fill" cx="50" cy="49" r="18" fill="#7ACFC0"></circle>
    <circle class="heroicon-safe-lock-inner heroicon-component-fill" cx="50" cy="49" r="14" fill="#FFFFFF"></circle>
    <circle class="heroicon-safe-lock-knob heroicon-component-accent heroicon-component-fill" cx="50" cy="49" r="6" fill="#7ACFC0"></circle>
    <path class="heroicon-safe-handle heroicon-component-accent heroicon-component-fill" fill="#7ACFC0" d="M19 32a5 5 0 1 0-6 0v34a5 5 0 1 0 6 0V32z"></path>
    <path class="heroicon-shadows" fill="#000000" d="M90 38h5v3h-5v-3zm0 32h5v3h-5v-3zM43.16 50.5a7 7 0 0 0 13.68 0A7.03 7.03 0 0 1 50 59a7 7 0 0 1-6.84-8.5zm-12.1 0a19 19 0 0 0 37.88 0 19 19 0 1 1-37.88 0z" opacity=".2"></path>
    <path class="heroicon-outline" fill="#4A4A4A" fill-rule="nonzero" d="M0 13a8 8 0 0 1 8-8h84a8 8 0 0 1 8 8v72a8 8 0 0 1-8 8h-4v2H76v-2H24v2H12v-2H8a8 8 0 0 1-8-8V13zm2 0v72a6 6 0 0 0 6 6h84a6 6 0 0 0 6-6V13a6 6 0 0 0-6-6H8a6 6 0 0 0-6 6zm91 47h2v10h-2v14a2 2 0 0 1-2 2H9a2 2 0 0 1-2-2V14c0-1.1.9-2 2-2h82a2 2 0 0 1 2 2v14h2v10h-2v22zm-3-32h2V14a1 1 0 0 0-1-1H9a1 1 0 0 0-1 1v70a1 1 0 0 0 1 1h82a1 1 0 0 0 1-1V70h-2V60h2V38h-2V28zm-71 4v34a5 5 0 1 1-6 0V32a5 5 0 1 1 6 0zm0-1.35a4 4 0 1 0-6 0V28a3 3 0 1 1 6 0v2.65zm-6 36.7a4 4 0 1 0 6 0V70a3 3 0 1 1-6 0v-2.65zM17 28a1 1 0 1 0-2 0v42a1 1 0 1 0 2 0V28zm-5-13h76v1H12v-1zm79 14v8h3v-8h-3zm0 32v8h3v-8h-3zm-41 7a19 19 0 1 1 0-38 19 19 0 0 1 0 38zm17-19a17 17 0 1 0-34 0 17 17 0 0 0 34 0zM50 63a14 14 0 1 1 0-28 14 14 0 0 1 0 28zm10-14a10 10 0 1 0-20 0 10 10 0 0 0 20 0zm3 0c0-.99-.11-1.95-.32-2.88l-1.93.52a11.04 11.04 0 0 1 0 4.72l1.93.52c.2-.93.32-1.89.32-2.88zm-2.51 3.33a10.99 10.99 0 0 1-2.37 4.09l1.42 1.41c1.3-1.4 2.3-3.1 2.88-4.98l-1.93-.52zm-3.07 4.8a10.99 10.99 0 0 1-4.1 2.36l.53 1.93a12.99 12.99 0 0 0 4.98-2.88l-1.41-1.42zm-5.06 2.62a11.04 11.04 0 0 1-4.72 0l-.52 1.93a13.04 13.04 0 0 0 5.76 0l-.52-1.93zm-5.69-.26a10.99 10.99 0 0 1-4.09-2.37l-1.41 1.42c1.4 1.3 3.1 2.3 4.98 2.88l.52-1.93zm-4.8-3.07a10.99 10.99 0 0 1-2.36-4.1l-1.93.53a12.99 12.99 0 0 0 2.88 4.98l1.42-1.41zM37 49c0 .99.11 1.95.32 2.88l1.93-.52a11.04 11.04 0 0 1 0-4.72l-1.93-.52c-.2.93-.32 1.89-.32 2.88zm4.88-7.42l-1.42-1.41c-1.3 1.4-2.3 3.1-2.88 4.98l1.93.52c.49-1.53 1.3-2.92 2.37-4.09zm.7-.7a10.99 10.99 0 0 1 4.1-2.37l-.53-1.93a12.99 12.99 0 0 0-4.98 2.88l1.41 1.42zm5.06-2.63a11.04 11.04 0 0 1 4.72 0l.52-1.93a13.04 13.04 0 0 0-5.76 0l.52 1.93zm5.69.26c1.53.49 2.92 1.3 4.09 2.37l1.41-1.42c-1.4-1.3-3.1-2.3-4.98-2.88l-.52 1.93zm4.8 3.07a10.99 10.99 0 0 1 2.36 4.1l1.93-.53a12.98 12.98 0 0 0-2.88-4.98l-1.42 1.41zM50 40l2.44 2.44a7 7 0 1 1-4.88 0L50 40zm0 14a5 5 0 1 0 0-10 5 5 0 0 0 0 10zm0-2a3 3 0 1 1 0-6 3 3 0 0 1 0 6zm2-3a2 2 0 1 0-4 0 2 2 0 0 0 4 0z"></path>
</svg>
