<svg xmlns="http://www.w3.org/2000/svg" width="100" height="100" viewBox="0 0 100 100" class="heroicon-contacts-book heroicon heroicons-lg">
    <path class="heroicon-contacts-book-cover heroicon-component-fill" fill="#FFFFFF" d="M21 84h-9a5 5 0 0 0-5 5v5a5 5 0 0 0 5 5h75v-4H11v-7h76V1H21v83z"></path>
    <rect class="heroicon-contacts-book-pages heroicon-component-fill" width="74" height="7" x="11" y="88" fill="#FFFFFF"></rect>
    <path class="heroicon-contacts-book-binding heroicon-component-accent heroicon-component-fill" fill="#7ACFC0" d="M21 84V1h-9a5 5 0 0 0-5 5v82l4-4h10z"></path>
    <path class="heroicon-contacts-book-at-symbol heroicon-component-accent heroicon-component-fill" fill="#7ACFC0" d="M59.34 47.35l-.85.89A9 9 0 1 1 52 33a8.56 8.56 0 0 1 5.4 1.8L59 36v-3h2v12a4 4 0 0 0 8 0v-3a17 17 0 1 0-10.3 15.63l.9 1.8A19 19 0 1 1 71 42v2.99a6 6 0 0 1-10.97 3.37l-.69-1.02zM52 49a7 7 0 1 0 0-14 7 7 0 0 0 0 14z"></path>
    <polygon class="heroicon-contacts-book-tab-1 heroicon-component-accent heroicon-component-fill" fill="#7ACFC0" points="88 9.236 88 22.764 92 20.764 92 11.236"></polygon>
    <polygon class="heroicon-contacts-book-tab-2 heroicon-component-accent heroicon-component-fill" fill="#7ACFC0" points="88 25 88 36.764 92 34.764 92 25.236 89.764 24.118"></polygon>
    <polygon class="heroicon-contacts-book-tab-3 heroicon-component-accent heroicon-component-fill" fill="#7ACFC0" points="88 50.764 88 39 89.764 38.118 92 39.236 92 48.764"></polygon>
    <polygon class="heroicon-contacts-book-tab-4 heroicon-component-accent heroicon-component-fill" fill="#7ACFC0" points="88 53 88 64.764 92 62.764 92 53.236 89.764 52.118"></polygon>
    <polygon class="heroicon-contacts-book-tab-5 heroicon-component-accent heroicon-component-fill" fill="#7ACFC0" points="88 78.764 88 67 89.764 66.118 92 67.236 92 76.764"></polygon>
    <path class="heroicon-shadows" fill="#000000" d="M7 89a5 5 0 0 1 5-5h75v4h-2v7h2v4H12a5 5 0 0 1-5-5v-5z" opacity=".2"></path>
    <path class="heroicon-outline" fill="#4A4A4A" fill-rule="nonzero" d="M88 7l6 3v12l-2 1 2 1v12l-2 1 2 1v12l-2 1 2 1v12l-2 1 2 1v12l-6 3v8h-2v5h2v6H12a6 6 0 0 1-6-6V6a6 6 0 0 1 6-6h76v7zm-2 76V2H16v74h-1V2h-2v74h-1V2a4 4 0 0 0-4 4v78.53A5.98 5.98 0 0 1 12 83h74zm2-73.76v13.52l4-2v-9.52l-4-2zM88 25v11.76l4-2v-9.52l-2.24-1.12L88 25zm0 25.76l4-2v-9.52l-2.24-1.12L88 39v11.76zM88 53v11.76l4-2v-9.52l-2.24-1.12L88 53zm0 25.76l4-2v-9.52l-2.24-1.12L88 67v11.76zM56 90h28v-1H12v5h72v-1H26v-1h58v-1H56v-1zm30-3v-2H12a4 4 0 0 0-4 4v5a4 4 0 0 0 4 4h74v-2H12a2 2 0 0 1-2-2v-5c0-1.1.9-2 2-2h74zM20 2v81h2V2h-2zm38 30.79V32h4v13a3 3 0 0 0 6 0v-3a16 16 0 1 0-8.87 14.33l.03-.02.44.9 1.35 2.68-.03.02A20.07 20.07 0 0 1 52 62a20 20 0 1 1 20-20v3a7 7 0 0 1-12.8 3.93A10.04 10.04 0 0 1 52 52a10 10 0 1 1 6-18v-1.21zm1.34 14.56l.7 1.02A6 6 0 0 0 71 45v-3a19 19 0 1 0-11.4 17.42l-.9-1.8A17 17 0 1 1 69 42v3.01a4 4 0 1 1-8 0V33h-2v3l-1.6-1.2A8.56 8.56 0 0 0 52 33a9 9 0 1 0 6.49 15.24l.85-.89zM59 42a7 7 0 1 1-14 0 7 7 0 0 1 14 0zm-7 6a6 6 0 1 0 0-12 6 6 0 0 0 0 12z"></path>
</svg>
