<svg xmlns="http://www.w3.org/2000/svg" width="100" height="100" viewBox="0 0 100 100" class="heroicon-radio heroicon heroicons-lg">
    <rect class="heroicon-radio-housing-outer heroicon-component-fill" width="90" height="58" x="5" y="28" fill="#FFFFFF" rx="5"></rect>
    <path class="heroicon-radio-housing-inner heroicon-component-fill" fill="#FFFFFF" d="M8 33a2 2 0 0 1 2-2h80a2 2 0 0 1 2 2v48a2 2 0 0 1-2 2H10a2 2 0 0 1-2-2V33z"></path>
    <polygon class="heroicon-radio-interface-background heroicon-component-fill" fill="#FFFFFF" points="90 33 10 33 10 39.021 10 39.375 10 40.083 10 40.438 10 41.146 10 41.5 10 42.208 10 42.563 10 43.271 10 43.625 10 44.333 10 44.688 10 45.396 10 45.75 10 46.458 10 46.813 10 47.521 10 47.875 10 48.583 10 48.938 10 49.646 10 50 11 50 89 50 90 50 90 49.646 90 48.938 90 48.583 90 47.875 90 47.521 90 46.813 90 46.458 90 45.75 90 45.396 90 44.688 90 44.333 90 43.625 90 43.271 90 42.563 90 42.208 90 41.5 90 41.146 90 40.438 90 40.083 90 39.375 90 39.021"></polygon>
    <polygon class="heroicon-radio-speaker heroicon-component-accent heroicon-component-fill" fill="#7ACFC0" points="90 50 10 50 10 60.979 10 61.625 10 62.917 10 63.563 10 64.854 10 65.5 10 66.792 10 67.438 10 68.729 10 69.375 10 70.667 10 71.313 10 72.604 10 73.25 10 74.542 10 75.188 10 76.479 10 77.125 10 78.417 10 79.063 10 80.354 10 81 11 81 89 81 90 81 90 80.354 90 79.063 90 78.417 90 77.125 90 76.479 90 75.188 90 74.542 90 73.25 90 72.604 90 71.313 90 70.667 90 69.375 90 68.729 90 67.438 90 66.792 90 65.5 90 64.854 90 63.563 90 62.917 90 61.625 90 60.979"></polygon>
    <path class="heroicon-radio-handle-bar heroicon-component-fill" fill="#FFFFFF" d="M7 13h7v1H7a4 4 0 0 0-4 4v18H2V18a5 5 0 0 1 5-5zm86 1h-7v-1h7a5 5 0 0 1 5 5v18h-1V18a4 4 0 0 0-4-4z"></path>
    <path class="heroicon-radio-handle-connector heroicon-component-accent heroicon-component-fill" fill="#7ACFC0" d="M0 37h5v10H0V37zm95 0h5v10h-5V37z"></path>
    <polygon class="heroicon-radio-handle heroicon-component-accent heroicon-component-fill" fill="#7ACFC0" points="84 14 16 14 16 13 84 13"></polygon>
    <path class="heroicon-radio-knobs heroicon-component-accent heroicon-component-fill" fill="#7ACFC0" d="M21 47a5 5 0 1 1 0-10 5 5 0 0 1 0 10zm58 0a5 5 0 1 1 0-10 5 5 0 0 1 0 10z"></path>
    <rect class="heroicon-radio-controls heroicon-component-accent heroicon-component-fill" width="30" height="4" x="35" y="24" fill="#7ACFC0"></rect>
    <path class="heroicon-radio-dial heroicon-component-accent heroicon-component-fill" fill="#7ACFC0" d="M29 38h42v3H29v-3zm0 5h42v3H29v-3z"></path>
    <path class="heroicon-shadows" fill="#000000" d="M73.08 43a6 6 0 1 0 11.83 0 6 6 0 0 1-11.83 0zm-58 0a6 6 0 1 0 11.83 0 6 6 0 0 1-11.83 0zM10 33l-1-1h82l-1 1v3H10v-3zm-9 9h4v5H1v-5zm94 0h4v5h-4v-5z" opacity=".2"></path>
    <path class="heroicon-outline" fill="#4A4A4A" fill-rule="nonzero" d="M86 11v1h7a6 6 0 0 1 6 6v18h1v12h-4v33a6 6 0 0 1-6 6h-5v2H73v-2H27v2H15v-2h-5a6 6 0 0 1-6-6V48H0V36h1V18a6 6 0 0 1 6-6h7v-1h72zM7 13a5 5 0 0 0-5 5v18h1V18a4 4 0 0 1 4-4h7v-1H7zm0 2a3 3 0 0 0-3 3v15a6 6 0 0 1 6-6h24v-4h32v4h24a6 6 0 0 1 6 6V18a3 3 0 0 0-3-3h-7v1H14v-1H7zm47 10h-8v2h8v-2zm0 4H10a4 4 0 0 0-4 4v48a4 4 0 0 0 4 4h80a4 4 0 0 0 4-4V33a4 4 0 0 0-4-4H54zm10-2v-2h-8v2h8zm-20-2h-8v2h8v-2zm49-11a4 4 0 0 1 4 4v18h1V18a5 5 0 0 0-5-5h-7v1h7zm-9 0v-1H16v1h68zM2 38v8h2v-8H2zm96 8v-8h-2v8h2zM8 33a2 2 0 0 1 2-2h80a2 2 0 0 1 2 2v48a2 2 0 0 1-2 2H10a2 2 0 0 1-2-2V33zm1 0v48a1 1 0 0 0 1 1h80a1 1 0 0 0 1-1V33a1 1 0 0 0-1-1H10a1 1 0 0 0-1 1zm81 0v48H10V33h80zM11 80h78v-2H11v2zm78-5H11v2h78v-2zm0-4v-2H11v2h78zm-78 1v2h78v-2H11zm0-4h78v-2H11v2zm78-5H11v2h78v-2zm0-4v-2H11v2h78zm-78 1v2h78v-2H11zm0-4h78v-2H11v2zm78-5H11v2h78v-2zm-78-1h78V34H11v16zm10-2a6 6 0 1 1 0-12 6 6 0 0 1 0 12zm4-6a4 4 0 1 0-8 0 4 4 0 0 0 8 0zm-2 0a2 2 0 1 1-4 0 2 2 0 0 1 4 0zm-2 1a1 1 0 1 0 0-2 1 1 0 0 0 0 2zm64-1a6 6 0 1 1-12 0 6 6 0 0 1 12 0zm-6 4a4 4 0 1 0 0-8 4 4 0 0 0 0 8zm0-2a2 2 0 1 1 0-4 2 2 0 0 1 0 4zm1-2a1 1 0 1 0-2 0 1 1 0 0 0 2 0zm-51-4h42v3H29v-3zm1 1v1h40v-1H30zm0 4h41v3H29v-3h1zm40 1H30v1h40v-1z"></path>
</svg>
