<svg xmlns="http://www.w3.org/2000/svg" width="100" height="100" viewBox="0 0 100 100" class="heroicon-currency heroicon heroicons-lg">
    <rect class="heroicon-currency-background heroicon-component-fill" width="100" height="67" y="17" fill="#FFFFFF"></rect>
    <path class="heroicon-currency-decorative heroicon-component-accent heroicon-component-fill" fill="#43b581" d="M87.07 24A7 7 0 0 0 93 29.93v30.14A7 7 0 0 0 87.07 66H12.93A7 7 0 0 0 7 60.07V29.93A7 7 0 0 0 12.93 24h74.14zm-1.68 2H14.6A7.73 7.73 0 0 1 9 31.47v27.06c2.74.7 4.9 2.8 5.61 5.47H85.4A7.73 7.73 0 0 1 91 58.53V31.47A7.73 7.73 0 0 1 85.39 26zM50 59a14 14 0 1 1 0-28 14 14 0 0 1 0 28zm0-4a10 10 0 1 0 0-20 10 10 0 0 0 0 20zm-26-7a3 3 0 1 1 0-6 3 3 0 0 1 0 6zm52 0a3 3 0 1 1 0-6 3 3 0 0 1 0 6z"></path>
    <rect class="heroicon-shadows" width="100" height="13" y="71" fill="#000000" opacity=".2"></rect>
    <path class="heroicon-outline" fill="#4A4A4A" fill-rule="nonzero" d="M0 73V17h100v67H0V73zm2-2h96V19H2v52zm0 2v1h24v1H2v1h36v1H2v3h36v1H2v1h96v-1H54v-1h44v-1H74v-1h24v-3H68v-1h30v-1H2zm85-50h1a6 6 0 0 0 6 6v32a6 6 0 0 0-6 6H12a6 6 0 0 0-6-6V29a6 6 0 0 0 6-6h75zm.07 1H12.93A7 7 0 0 1 7 29.93v30.14A7 7 0 0 1 12.93 66h74.14A7 7 0 0 1 93 60.07V29.93A7 7 0 0 1 87.07 24zm-1.68 2A7.73 7.73 0 0 0 91 31.47v27.06A7.73 7.73 0 0 0 85.39 64H14.6A7.73 7.73 0 0 0 9 58.53V31.47A7.73 7.73 0 0 0 14.61 26H85.4zm-70.05 1A8.73 8.73 0 0 1 10 32.21V57.8A8.73 8.73 0 0 1 15.34 63h69.32A8.73 8.73 0 0 1 90 57.79V32.2A8.73 8.73 0 0 1 84.66 27H15.34zM50 59a14 14 0 1 1 0-28 14 14 0 0 1 0 28zm13-14a13 13 0 1 0-26 0 13 13 0 0 0 26 0zm-2 0a11 11 0 1 1-22 0 11 11 0 0 1 22 0zM50 55a10 10 0 1 0 0-20 10 10 0 0 0 0 20zM27 45a3 3 0 1 1-6 0 3 3 0 0 1 6 0zm-3 2a2 2 0 1 0 0-4 2 2 0 0 0 0 4zm52 1a3 3 0 1 1 0-6 3 3 0 0 1 0 6zm2-3a2 2 0 1 0-4 0 2 2 0 0 0 4 0z"></path>
</svg>
