<svg xmlns="http://www.w3.org/2000/svg" width="100" height="100" viewBox="0 0 100 100" class="heroicon-contract-block heroicon heroicons-lg">
    <rect class="heroicon-contract-block-pages heroicon-component-fill" width="78" height="100" x="3" fill="#FFFFFF"></rect>
    <circle class="heroicon-contract-block-circle heroicon-component-accent heroicon-component-fill" cx="80" cy="82" r="18" fill="#7ACFC0"></circle>
    <path class="heroicon-contract-block-symbol heroicon-component-fill" fill="#FFFFFF" d="M80 91a9 9 0 1 1 0-18 9 9 0 0 1 0 18zm-4.66-7.17l6.49-6.49a5 5 0 0 0-6.49 6.49zm8.2 1.7a5 5 0 0 0 1.12-5.36l-6.49 6.49a5 5 0 0 0 5.37-1.12z"></path>
    <path class="heroicon-shadows" fill="#000000" d="M63.41 89H3v11h78v-.03A18 18 0 0 1 63.41 89z" opacity=".2"></path>
    <path class="heroicon-outline" fill="#4A4A4A" fill-rule="nonzero" d="M3 89V0h78v64.03a18 18 0 0 1 0 35.94v.03H3V89zm76-24.97V2H5v87h58.41A18 18 0 0 1 79 64.03zM64.4 91H5v1h24v1H5v1h36v1H5v3h66.75c-.59-.3-1.16-.64-1.7-1H55v-1h13.69a18.1 18.1 0 0 1-2.94-3H49v-1h16.03c-.22-.33-.42-.66-.62-1zM96 82a16 16 0 1 0-32 0 16 16 0 0 0 32 0zM69 12v1H15v-1h54zm-2 3v1H15v-1h52zm-1 3v1H15v-1h51zm2 3v1H15v-1h53zm-19 3v1H15v-1h34zm18 5v1H15v-1h52zm2 3v1H15v-1h54zm-1 3v1H15v-1h53zm-9 3v1H15v-1h44zm10 5v1H15v-1h54zm-4 3v1H15v-1h50zm0 3v1H15v-1h50zm-32 3v1H15v-1h18zm36 5v1H15v-1h54zm-4 3v1H15v-1h50zm-20 3v1H15v-1h30zm0 14H15v-1h30v1zm-26-5.7l.35.35L21 73.29l.65-.64.35-.36.35.36.65.64 1.65-1.64.35-.36.35.36L27 73.29l.65-.64.35-.36.35.36.65.64.65-.64.35-.36.35.36.65.64 1.65-1.64.7.7-2 2-.35.36-.35-.36-.65-.64-.65.64-.35.36-.35-.36-.65-.64-.65.64-.35.36-.35-.36L25 72.71l-1.65 1.64-.35.36-.35-.36-.65-.64-.65.64-.35.36-.35-.36L19 72.71l-1.65 1.64-.7-.7 2-2 .35-.36zm27.8 2.2l-1.15-1.15.7-.7 1.15 1.14 1.15-1.14.7.7-1.14 1.15 1.14 1.15-.7.7-1.15-1.14-1.15 1.14-.7-.7 1.14-1.15zm20.16 13.61A14 14 0 0 1 80 68v1a13 13 0 0 0-12.13 17.69l-.9.42zM80 91a9 9 0 1 1 0-18 9 9 0 0 1 0 18zm0-1a8 8 0 1 0 0-16 8 8 0 0 0 0 16zm2.76-12.17l-6.93 6.93-.07.07-.65.65a6 6 0 0 1 8.37-8.37l-.65.65-.07.07zm-7.42 6l6.49-6.49a5 5 0 0 0-6.49 6.49zm9.55-5.3a6 6 0 0 1-8.37 8.36l.65-.65.07-.07 6.93-6.93.07-.07.65-.65zm-1.35 7a5 5 0 0 0 1.12-5.36l-6.49 6.49a5 5 0 0 0 5.37-1.12z"></path>
</svg>
