<svg xmlns="http://www.w3.org/2000/svg" width="100" height="100" viewBox="0 0 100 100" class="heroicon-compass heroicon heroicons-lg">
    <path class="heroicon-compass-edge heroicon-component-accent heroicon-component-fill" fill="#7ACFC0" d="M50 99a49 49 0 1 1 0-98 49 49 0 0 1 0 98zm0-8a41 41 0 1 0 0-82 41 41 0 0 0 0 82z"></path>
    <circle class="heroicon-compass-background heroicon-component-fill" cx="50" cy="50" r="40" fill="#FFFFFF"></circle>
    <path class="heroicon-compass-direction heroicon-component-fill" fill="#FFFFFF" d="M50 22.12l4.56 18.23-8.1 6.11-6.11 8.1L22.12 50l19.82-4.95-3.62-6.73 6.73 3.62L50 22.12zm3.54 31.42l6.11-8.1L77.88 50l-19.82 4.95 3.62 6.73-6.73-3.62L50 77.88l-4.56-18.23 8.1-6.11z"></path>
    <polygon class="heroicon-compass-needle heroicon-component-accent heroicon-component-fill" fill="#7ACFC0" points="47.892 47.892 34.824 65.176 52.108 52.108 65.176 34.824"></polygon>
    <path class="heroicon-shadows" fill="#000000" d="M98.91 47a49 49 0 1 1-97.82 0 49 49 0 0 0 97.82 0zm-4.98 5.5a44 44 0 0 0-87.86 0 44 44 0 1 1 87.86 0z" opacity=".2"></path>
    <path class="heroicon-outline" fill="#4A4A4A" fill-rule="nonzero" d="M50 100A50 50 0 1 1 50 0a50 50 0 0 1 0 100zm48-50a48 48 0 1 0-96 0 48 48 0 0 0 96 0zM50 94a44 44 0 1 1 0-88 44 44 0 0 1 0 88zm43-44a43 43 0 1 0-86 0 43 43 0 0 0 86 0zm-2 0a41 41 0 1 1-82 0 41 41 0 0 1 82 0zM50 89a39 39 0 1 0 0-78 39 39 0 0 0 0 78zm5.42-49.3l20.04-15.16L60.3 44.58 82 50l-22.45 5.61 4.6 8.53-8.54-4.6L50 82l-5.42-21.7-20.04 15.16L39.7 55.42 18 50l22.45-5.61-4.6-8.53 8.54 4.6L50 18l5.42 21.7zM50 22.11l-4.95 19.82-6.73-3.62 3.62 6.73L22.12 50l18.23 4.56 6.11-8.1 8.1-6.11L50 22.12zm3.54 31.42l-8.1 6.11L50 77.88l4.95-19.82 6.73 3.62-3.62-6.73L77.88 50l-18.23-4.56-6.11 8.1zm-5.65-5.65L34.82 65.18 52.11 52.1l13.07-17.29L47.89 47.9zM52 50a2 2 0 1 1-4 0 2 2 0 0 1 4 0z"></path>
</svg>
