<svg xmlns="http://www.w3.org/2000/svg" width="100" height="100" viewBox="0 0 100 100" class="heroicon-inbox heroicon heroicons-lg">
    <rect class="heroicon-inbox-box heroicon-component-accent heroicon-component-fill" width="88" height="100" x="6" fill="#7ACFC0" rx="6"></rect>
    <polygon class="heroicon-inbox-pages heroicon-component-fill" fill="#FFFFFF" points="78 28.179 78 75 64 75 58 87 42 87 36 75 22 75 22 28.179 22 6 78 6"></polygon>
    <polygon class="heroicon-shadows" fill="#000000" points="20 63 20 8 14 8 14 73 19 73 19 74 36 74 42 86 58 86 64 74 81 74 81 73 86 73 86 8 80 8 80 63 20 63" opacity=".2"></polygon>
    <path class="heroicon-outline" fill="#4A4A4A" fill-rule="nonzero" d="M6 6a6 6 0 0 1 6-6h76a6 6 0 0 1 6 6v88a6 6 0 0 1-6 6H12a6 6 0 0 1-6-6V6zm86 69V5.96A4 4 0 0 0 88 2H12a4 4 0 0 0-4 3.96V75a4 4 0 0 0 4 4h22.62l5.58 11.16 1.5-3.76L36 75H12V6h8V4h60v2h8v69H64l-5.7 11.4 1.5 3.76L65.38 79H88a4 4 0 0 0 4-4zM14 8v65h6V8h-6zm8 64v1h15.24l1 2H57v1H38.74l3.5 7H51v1h-8.26l.5 1h13.52l1.5-3H46v-1h12.76l.5-1H50v-1h9.76l3-6H78v-1H50v-1h28v-1h-8v-1h8v-3H60v-1h18v-1H22v1h28v1H22v1h18v1H22v3h22v1H22zm58-1v2h6V8h-6v63zm-2-47V6H22v56h56V24zM42.54 87l-1.6 4h18.12l-1.6-4H42.54zM8 78v16a4 4 0 0 0 4 4h76a4 4 0 0 0 4-4V78a4.99 4.99 0 0 1-4 2H66l-6 12H40l-6-12H12a5 5 0 0 1-4-2zm20-28h40v1H28v-1zm44-3v1H28v-1h44zm-44-5h34v1H28v-1zm43-3v1H28v-1h43zm-43-3h44v1H28v-1zm42-3v1H28v-1h42zm-42-5h24v1H28v-1zm43-3v1H28v-1h43zm-43-3h41v1H28v-1zm42-3v1H28v-1h42zm2-3v1H28v-1h44z"></path>
</svg>
