<svg xmlns="http://www.w3.org/2000/svg" width="100" height="100" viewBox="0 0 100 100" class="heroicon-printer heroicon heroicons-lg">
    <path class="heroicon-printer-body heroicon-component-fill" fill="#FFFFFF" d="M92 62V50.99A4 4 0 0 0 88 47H12a4 4 0 0 0-4 3.99V62h13v14H8v4a7 7 0 0 1-7-7V41a7 7 0 0 1 7-7h84a7 7 0 0 1 7 7v32a7 7 0 0 1-7 7v-4H79V62h13z"></path>
    <path class="heroicon-printer-lights heroicon-component-accent heroicon-component-fill" fill="#7ACFC0" d="M8 41h4v4H8v-4zm6 0h4v4h-4v-4zm6 0h4v4h-4v-4z"></path>
    <path class="heroicon-printer-guard heroicon-component-accent heroicon-component-fill" fill="#7ACFC0" d="M8 51a4 4 0 0 1 4-4h76a4 4 0 0 1 4 4v11H8V51z"></path>
    <path class="heroicon-printer-base heroicon-component-accent heroicon-component-fill" fill="#7ACFC0" d="M8 76h13v4H8v-4zm71 0h13v4H79v-4z"></path>
    <path class="heroicon-printer-pages heroicon-component-fill" fill="#FFFFFF" d="M25 1h50v33H25V1zm-4 61h58v37H21V62z"></path>
    <path class="heroicon-printer-holder heroicon-component-accent heroicon-component-fill" fill="#7ACFC0" d="M25 34H13V12a7 7 0 0 1 7-7h5v29zM75 6.05V7.1 5h5a7 7 0 0 1 7 7v22H75V6.05z"></path>
    <polygon class="heroicon-shadows" fill="#000000" points="91 63 9 63 9 71 20 71 20 67 80 67 80 71 91 71" opacity=".2"></polygon>
    <path class="heroicon-outline" fill="#4A4A4A" fill-rule="nonzero" d="M20 81H8a8 8 0 0 1-8-8V41a8 8 0 0 1 8-8h4V12a8 8 0 0 1 8-8h4V0h52v4h4a8 8 0 0 1 8 8v21h4a8 8 0 0 1 8 8v32a8 8 0 0 1-8 8H80v19H20V81zm62-46H8a6 6 0 0 0-6 6v32a6 6 0 0 0 6 6V51a4 4 0 0 1 4-4h76a4 4 0 0 1 4 4v28a6 6 0 0 0 6-6V41a6 6 0 0 0-6-6H82zM10 79h10v-2H10v2zm10-16H9v12h11V63zm70 16v-2H80v2h10zm0-4h1V63H80v12h10zm1-14V51a3 3 0 0 0-3-3H12a3 3 0 0 0-3 3v10h82zM26 2v31h48V2H26zm50 4v27h2V12a2 2 0 1 1 4 0v21h4V12a6 6 0 0 0-6-6h-4zM18 33V12a2 2 0 1 1 4 0v21h2V6h-4a6 6 0 0 0-6 6v21h4zm1 0h2V12a1 1 0 1 0-2 0v21zm62 0V12a1 1 0 1 0-2 0v21h2zm-3 65V63H22v35h56zM8 41h4v4H8v-4zm1 1v2h2v-2H9zm6-1h3v4h-4v-4h1zm2 1h-2v2h2v-2zm3-1h4v4h-4v-4zm1 3h2v-2h-2v2zm-11 7l2-2h38v1H12a1 1 0 0 0-1 1v9h-1v-9zm62 14H29v-1h43v1zm-44 3v-1h44v1H28zm2 3v-1h42v1H30zm42 5H48v-1h24v1zm-43 3v-1h43v1H29zm43 3H31v-1h41v1zm-42 3v-1h42v1H30zm42 3H28v-1h44v1z"></path>
</svg>
