<svg xmlns="http://www.w3.org/2000/svg" width="100" height="100" viewBox="0 0 100 100" class="heroicon-anchor heroicon heroicons-lg">
    <path class="heroicon-anchor-body heroicon-component-fill" fill="#FFFFFF" d="M55 20.8V75a10 10 0 0 0 10 10h1a14 14 0 0 0 14-14 2 2 0 0 0-2-2h-6l1.33-2L86 48l2-3v26a24 24 0 0 1-24 24h-7c-1.1 0-2.63.63-3.42 1.42l-2.17 2.17L50 100l-1.41-1.41-2.17-2.17A5.56 5.56 0 0 0 43 95h-7a24 24 0 0 1-24-24V45l2 3 12.67 19L28 69h-6a2 2 0 0 0-2 2 14 14 0 0 0 14 14h1a10 10 0 0 0 10-10V20.8a11 11 0 1 1 10 0zM50 13a2 2 0 1 0 0-4 2 2 0 0 0 0 4z"></path>
    <rect class="heroicon-anchor-stock heroicon-component-accent heroicon-component-fill" width="60" height="12" x="20" y="27" fill="#7ACFC0" rx="4"></rect>
    <path class="heroicon-anchor-hoops heroicon-component-fill" fill="#FFFFFF" d="M26 28c0-1.1.9-2 2-2h2a2 2 0 0 1 2 2v10a2 2 0 0 1-2 2h-2a2 2 0 0 1-2-2V28zm42 0c0-1.1.9-2 2-2h2a2 2 0 0 1 2 2v10a2 2 0 0 1-2 2h-2a2 2 0 0 1-2-2V28z"></path>
    <rect class="heroicon-shadows" width="10" height="4" x="45" y="39" fill="#000000" opacity=".2"></rect>
    <path class="heroicon-outline" fill="#4A4A4A" fill-rule="nonzero" d="M68.27 27A2 2 0 0 1 70 26h2a2 2 0 0 1 1.73 1H76a4 4 0 0 1 4 4v4a4 4 0 0 1-4 4h-2.27A2 2 0 0 1 72 40h-2a2 2 0 0 1-1.73-1H55v36a10 10 0 0 0 10 10h1a14 14 0 0 0 14-14 2 2 0 0 0-2-2h-6l1.33-2L86 48l2-3v26a24 24 0 0 1-24 24h-7c-1.1 0-2.63.63-3.42 1.42l-2.17 2.17L50 100l-1.41-1.41-2.17-2.17A5.56 5.56 0 0 0 43 95h-7a24 24 0 0 1-24-24V45l2 3 12.67 19L28 69h-6a2 2 0 0 0-2 2 14 14 0 0 0 14 14h1a10 10 0 0 0 10-10V39H31.73A2 2 0 0 1 30 40h-2a2 2 0 0 1-1.73-1H24a4 4 0 0 1-4-4v-4a4 4 0 0 1 4-4h2.27A2 2 0 0 1 28 26h2a2 2 0 0 1 1.73 1H45v-6.2a11 11 0 1 1 10 0V27h13.27zm-14.18-7.98a9 9 0 1 0-8.18 0l1.09.56V27h6v-7.42l1.09-.56zM32 29v2h5v1h-5v5h36v-2H58v-1h10v-5H32zm42 0v5h4v-3a2 2 0 0 0-2-2h-2zm0 8h2a2 2 0 0 0 2-2h-4v2zm-50-8a2 2 0 0 0-2 2h4v-2h-2zm-2 3v3c0 1.1.9 2 2 2h2v-5h-4zm25 43a12 12 0 0 1-12 12h-1a16 16 0 0 1-16-16 4 4 0 0 1 4-4h2.26L14 51.6V71a22 22 0 0 0 22 22h7c1.63 0 3.68.85 4.83 2L50 97.18l2.17-2.16C53.33 93.84 55.37 93 57 93h7a22 22 0 0 0 22-22V51.6L75.74 67H78a4 4 0 0 1 4 4 16 16 0 0 1-16 16h-1a12 12 0 0 1-12-12V39h-4v3h-1v-3h-1v36zM28 28v10h2V28h-2zm42 0v10h2V28h-2zM54 11a4 4 0 1 1-8 0 4 4 0 0 1 8 0zm-4 2a2 2 0 1 0 0-4 2 2 0 0 0 0 4zm0-9v1a6 6 0 0 0-5.37 8.68l-.9.45A7 7 0 0 1 50 4zm-7 28h-4v-1h4v1zm6 14v20h-1V46h1zM16 57v8h-1v-8h1zm48 34v1h-6v-1h6z"></path>
</svg>
