<svg xmlns="http://www.w3.org/2000/svg" width="100" height="100" viewBox="0 0 100 100" class="heroicon-folder-sync heroicon heroicon-lg">
    <path class="heroicon-folder-sync-tab heroicon-component-accent heroicon-component-fill" fill="#7ACFC0" d="M0 6.003C0 3.793 1.792 2 3.993 2H45l10 10h41.007c2.205 0 3.993 1.797 3.993 3.993v4.004L0 20V6.003z"></path>
    <rect class="heroicon-folder-sync-cover heroicon-component-fill" fill="#ffffff" y="18" width="100" height="64" rx="4"></rect>
    <circle class="heroicon-folder-sync-circle heroicon-component-accent heroicon-component-fill" fill="#7ACFC0" cx="82" cy="81" r="18"></circle>
    <path class="heroicon-folder-sync-symbol heroicon-component-fill" fill="#ffffff" d="M82 76c-.343 0-.677.034-1 .1-2.282.463-4 2.48-4 4.9 0 1.38.56 2.63 1.465 3.535l-.708.708-1.414 1.414-.707.707c-.236-.236-.46-.485-.668-.746C73.738 85.078 73 83.125 73 81c0-4.97 4.03-9 9-9v-3l1 1 3.293 3.293L87 74l-.707.707L83 78l-1 1v-3zm1 9.9c2.282-.463 4-2.48 4-4.9 0-1.38-.56-2.63-1.465-3.535l.708-.708 1.414-1.414.707-.707c.236.236.46.485.668.746C90.262 76.922 91 78.875 91 81c0 4.97-4.03 9-9 9v3l-1-1-3.293-3.293L77 88l.707-.707L81 84l1-1v3c.343 0 .677-.034 1-.1z"></path>
    <path class="heroicon-shadows" fill="#000000" d="M100 20.003C100 17.795 98.21 16 96.003 16H3.997C1.8 16 0 17.792 0 20.003v2C0 19.793 1.8 18 3.997 18h92.006C98.21 18 100 19.795 100 22.003v-2z" opacity=".2"></path>
    <path class="heroicon-outline" fill="#4A4A4A" d="M45 2l10 10h41c2.21 0 4 1.79 4 4v62c0 .33-.04.65-.115.955.076.67.115 1.354.115 2.045 0 9.94-8.06 18-18 18-9.606 0-17.454-7.524-17.973-17H4c-2.21 0-4-1.79-4-4V6c0-2.21 1.79-4 4-4h41zm53 21.764c-.53-.475-1.232-.764-2-.764H4c-.768 0-1.47.29-2 .764V78c0 1.105.895 2 2 2h60.027c.52-9.476 8.367-17 17.973-17 6.966 0 13.008 3.957 16 9.746V23.764zm-96-1.23c.588-.34 1.27-.534 2-.534h92c.73 0 1.412.195 2 .535V22c0-1.105-.895-2-2-2H4c-1.105 0-2 .895-2 2v.535zM98 16c0-1.105-.895-2-2-2H54.172l-.586-.586L44.172 4H4c-1.105 0-2 .895-2 2v12.535c.588-.34 1.27-.535 2-.535h92c.73 0 1.412.195 2 .535V16zM82 97c8.837 0 16-7.163 16-16s-7.163-16-16-16-16 7.163-16 16 7.163 16 16 16zM6 8h36v1H6V8zm32 5v1H6v-1h32zm44 63c-.343 0-.677.034-1 .1-2.282.463-4 2.48-4 4.9 0 1.38.56 2.63 1.465 3.535l-.708.708-1.414 1.414-.707.707c-.236-.236-.46-.485-.668-.746C73.738 85.078 73 83.125 73 81c0-4.97 4.03-9 9-9v-3l1 1 3.293 3.293L87 74l-.707.707L83 78l-1 1v-3zm-6 5c0-3.314 2.686-6 6-6h1V76.586L85.586 74 83 71.414V73h-1c-4.418 0-8 3.582-8 8 0 1.85.626 3.55 1.68 4.906l1.43-1.43c-.7-.98-1.11-2.18-1.11-3.476zm7 4.9c2.282-.463 4-2.48 4-4.9 0-1.38-.56-2.63-1.465-3.535l.708-.708 1.414-1.414.707-.707c.236.236.46.485.668.746C90.262 76.922 91 78.875 91 81c0 4.97-4.03 9-9 9v3l-1-1-3.293-3.293L77 88l.707-.707L81 84l1-1v3c.343 0 .677-.034 1-.1zm-2-.486L78.414 88 81 90.586V89h1c4.418 0 8-3.582 8-8 0-1.85-.626-3.55-1.68-4.906l-1.43 1.43c.7.98 1.11 2.18 1.11 3.476 0 3.314-2.686 6-6 6h-1V85.414zM68 81c0-7.732 6.268-14 14-14v1c-7.18 0-13 5.82-13 13 0 1.652.308 3.232.87 4.686l-.908.425C68.342 84.53 68 82.805 68 81z" fill-rule="nonzero"></path>
</svg>
