<svg xmlns="http://www.w3.org/2000/svg" width="100" height="100" viewBox="0 0 100 100" class="heroicon-laptop heroicon heroicons-lg">
    <path class="heroicon-laptop-body heroicon-component-fill" fill="#FFFFFF" fill-rule="nonzero" d="M100 77h-6V20a6 6 0 0 0-6-6H12a6 6 0 0 0-6 6v57H0v7l6.08 1.22c2.16.43 5.7.78 7.91.78h72.02c2.2 0 5.75-.35 7.91-.78L100 84v-7z"></path>
    <path class="heroicon-laptop-screen-edge heroicon-component-accent heroicon-component-fill" fill="#7ACFC0" d="M9 20a3 3 0 0 1 3-3h76a3 3 0 0 1 3 3v52a3 3 0 0 1-3 3H12a3 3 0 0 1-3-3V20z"></path>
    <polygon class="heroicon-laptop-screen heroicon-component-fill" fill="#FFFFFF" points="13 23 12 23 12 24 12 71 12 72 13 72 87 72 88 72 88 71 88 24 88 23 87 23"></polygon>
    <path class="heroicon-shadows" fill="#000000" d="M41.27 79h17.46A2 2 0 0 1 57 80H43a2 2 0 0 1-1.73-1zM5.2 83h89.6l-1.27.25c-2.04.41-5.45.75-7.52.75H13.99c-2.07 0-5.49-.34-7.52-.75L5.2 83z" opacity=".2"></path>
    <path class="heroicon-outline" fill="#4A4A4A" fill-rule="nonzero" d="M100 77v7l-6.08 1.22c-2.16.43-5.7.78-7.91.78H13.99c-2.2 0-5.75-.35-7.91-.78L0 84v-7h6V20a6 6 0 0 1 6-6h76a6 6 0 0 1 6 6v57h6zm-2 5v-3H59.83A3 3 0 0 1 57 81H43a3 3 0 0 1-2.83-2H2v3h96zm-56.73-3c.34.6.99 1 1.73 1h14a2 2 0 0 0 1.73-1H41.27zM5.2 83l1.27.25c2.03.41 5.45.75 7.52.75h72.02c2.07 0 5.48-.34 7.52-.75L94.8 83H5.2zM8 77h84V20a4 4 0 0 0-4-4H12a4 4 0 0 0-4 4v57zm1-57a3 3 0 0 1 3-3h76a3 3 0 0 1 3 3v52a3 3 0 0 1-3 3H12a3 3 0 0 1-3-3V20zm3-2a2 2 0 0 0-2 2v52c0 1.1.9 2 2 2h76a2 2 0 0 0 2-2V20a2 2 0 0 0-2-2H12zm1 5h75v49H12V23h1zm74 1H13v47h74V24zm-35-4v1h-6v-1h6zm-7.55 36.22l-.9-.44 10-20 .9.44-10 20zm5-2l-.9-.44 6-12 .9.44-6 12z"></path>
</svg>
