<svg xmlns="http://www.w3.org/2000/svg" width="100" height="100" viewBox="0 0 100 100" class="heroicon-user-block heroicon heroicons-lg">
    <path class="heroicon-user-block-top heroicon-component-accent heroicon-component-fill" fill="#7ACFC0" d="M66.11 73.8L51 66.23V72a10 10 0 1 1-20 0v-5.76L7.27 78.1A8.65 8.65 0 0 0 3 85v13h72.24a17 17 0 0 1-9.13-24.2z"></path>
    <path class="heroicon-user-block-face heroicon-component-fill" fill="#FFFFFF" d="M33 60.5V72a8 8 0 1 0 16 0V60.5A22 22 0 0 0 63 40V24a22 22 0 0 0-44 0v16a22 22 0 0 0 14 20.5z"></path>
    <circle class="heroicon-user-block-circle heroicon-component-accent heroicon-component-fill" cx="81" cy="82" r="17" fill="#7ACFC0"></circle>
    <path class="heroicon-user-block-symbol heroicon-component-fill" fill="#FFFFFF" d="M81 91a9 9 0 1 1 0-18 9 9 0 0 1 0 18zm3.54-5.46a5 5 0 0 0 1.12-5.37l-6.49 6.49a5 5 0 0 0 5.37-1.12zm-8.2-1.71l6.49-6.49a5 5 0 0 0-6.49 6.49z"></path>
    <path class="heroicon-shadows" fill="#000000" d="M31 61.82V64l-8.74 4.37A33.84 33.84 0 0 0 41 74c6.93 0 13.37-2.07 18.74-5.63L51 64v-2.18A23.91 23.91 0 0 1 41 64c-3.57 0-6.96-.78-10-2.18z" opacity=".2"></path>
    <path class="heroicon-outline" fill="#4A4A4A" fill-rule="nonzero" d="M66.28 71.64A18 18 0 1 1 81 100H1V85c0-3.31 2.4-7.2 5.37-8.69L31 64v-2.18a24 24 0 0 1-14-21.81V23.99a24 24 0 0 1 48 0v16.02a24 24 0 0 1-14 21.82V64l15.28 7.64zM72.75 98c-.6-.31-1.19-.66-1.75-1.03V98h1.75zM70 96.25a17.97 17.97 0 0 1-4.79-22.9L51 66.23V72a10 10 0 1 1-20 0v-5.76L7.27 78.1A8.65 8.65 0 0 0 3 85v13h8v-6h1v6h58v-1.75zM33 62.63V72a8 8 0 1 0 16 0v-9.36a23.97 23.97 0 0 1-16 0zM19 24v16.02a22 22 0 0 0 44 0V23.99a22 22 0 0 0-44 0zm5.9-8.04A18 18 0 0 1 41 6v1a17 17 0 0 0-15.2 9.4l-.9-.45zM81 98a16 16 0 1 0 0-32 16 16 0 0 0 0 32zm0-7a9 9 0 1 1 0-18 9 9 0 0 1 0 18zm0-1a8 8 0 1 0 0-16 8 8 0 0 0 0 16zm4.9-11.48a6 6 0 0 1-8.38 8.37l.65-.65.07-.07 7-7 .65-.65zm-1.36 7.02a5 5 0 0 0 1.12-5.37l-6.49 6.49a5 5 0 0 0 5.37-1.12zm-.78-7.71l-6.93 6.93-.07.07-.65.65a6 6 0 0 1 8.37-8.37l-.65.65-.07.07zm-7.42 6l6.49-6.49a5 5 0 0 0-6.49 6.49z"></path>
</svg>
