<svg xmlns="http://www.w3.org/2000/svg" width="100" height="100" viewBox="0 0 100 100" class="heroicon-cog heroicon heroicons-lg">
    <path class="heroicon-cog-front-outer heroicon-component-fill" fill="#FFFFFF" d="M39.17 26.08l.13-1.6.54-6.48h4.32l.54 6.49.13 1.6 1.59.21a31 31 0 0 1 3.61.72l1.53.4.74-1.4 3.05-5.8 3.98 1.68-2.03 6.14-.5 1.53 1.4.82c1.08.64 2.08 1.31 3.09 2.07l1.27.97 1.23-1.03 4.97-4.21 3.05 3.05-4.2 4.97-1.04 1.23.97 1.27c.75 1 1.41 1.98 2.04 3.06l.8 1.36 1.52-.47 6.26-1.94 1.62 4L74 47.65l-1.44.72.4 1.57c.32 1.2.55 2.39.73 3.65l.22 1.59 1.6.13 6.48.54v4.32l-6.49.54-1.6.13-.21 1.59a31 31 0 0 1-.72 3.61l-.4 1.53 1.4.74 5.8 3.05-1.68 3.98-6.14-2.03-1.53-.5-.82 1.4a31.2 31.2 0 0 1-2.07 3.09l-.97 1.27 1.03 1.23 4.21 4.97-3.05 3.05-4.97-4.2-1.23-1.04-1.27.97a31.2 31.2 0 0 1-3.06 2.04l-1.36.8.47 1.52 1.94 6.26-4 1.62L52.35 90l-.72-1.44-1.57.4c-1.2.32-2.39.55-3.65.73l-1.59.22-.13 1.6-.54 6.48h-4.32l-.54-6.49-.13-1.6-1.59-.21a31 31 0 0 1-3.61-.72l-1.53-.4-.74 1.4-3.05 5.8-3.98-1.68 2.03-6.14.5-1.53-1.4-.82a31.2 31.2 0 0 1-3.09-2.07l-1.27-.97-1.23 1.03-4.97 4.21-3.05-3.05 4.2-4.97 1.04-1.23-.97-1.27c-.76-1-1.43-2-2.07-3.1l-.82-1.39-1.53.5-6.14 2.03-1.69-3.98 5.8-3.05 1.4-.74-.4-1.53a31 31 0 0 1-.7-3.61l-.23-1.59-1.6-.13L2 60.16v-4.32l6.49-.54 1.6-.13.21-1.59a31 31 0 0 1 .72-3.61l.4-1.53-1.4-.74-5.8-3.05 1.68-3.98 6.14 2.03 1.53.5.82-1.4a31.2 31.2 0 0 1 2.07-3.09l.97-1.27-1.03-1.23-4.21-4.97 3.05-3.05 4.97 4.2 1.23 1.04 1.27-.97c1-.75 1.98-1.41 3.06-2.05l1.36-.8-.47-1.51-1.94-6.26 4-1.62L31.65 26l.72 1.44 1.57-.4c1.2-.32 2.39-.55 3.65-.73l1.59-.22zM42 72a14 14 0 1 0 0-28 14 14 0 0 0 0 28z"></path>
    <path class="heroicon-cog-front-inner heroicon-component-fill" fill="#FFFFFF" d="M42 72a14 14 0 1 1 0-28 14 14 0 0 1 0 28zm0-5a9 9 0 1 0 0-18 9 9 0 0 0 0 18z"></path>
    <path class="heroicon-cog-back-outer heroicon-component-accent heroicon-component-fill" fill="#7ACFC0" d="M76.87 9.03l-1.53-.38c-.7-.17-1.38-.3-2.11-.41L71.66 8l-.13-1.58L71.16 2h-2.32l-.37 4.42L68.34 8l-1.57.24c-.73.1-1.4.24-2.11.41l-1.53.38-.73-1.39-2.08-3.95-2.13.9 1.37 4.2.5 1.51-1.37.82c-.63.38-1.2.77-1.8 1.2l-1.27.95-1.21-1.02-3.39-2.87-1.64 1.64 2.87 3.39 1.02 1.21-.94 1.27c-.44.6-.83 1.17-1.2 1.8l-.83 1.37-1.52-.5-2.55-.84.25 3.07 1.16.61 1.4.73-.39 1.52c.64.13 1.26.27 1.88.43l3.9-7.43 7.2 3.06a12.5 12.5 0 0 1 17.7 17.6l3 7.37-7.42 3.74c.16.64.31 1.28.44 1.93l1.55-.4.72 1.43.58 1.14 3.04.25-.8-2.6-.47-1.49 1.34-.8c.64-.39 1.2-.77 1.8-1.2l1.27-.95 1.21 1.02 3.39 2.87 1.64-1.64-2.87-3.39-1.02-1.21.94-1.27c.44-.6.83-1.17 1.2-1.8l.83-1.37 1.52.5 4.18 1.37.9-2.13-3.94-2.08-1.4-.73.39-1.52c.17-.71.3-1.39.41-2.12l.24-1.57 1.58-.13 4.42-.37v-2.32l-4.42-.37-1.58-.13-.24-1.57c-.1-.74-.24-1.41-.42-2.12l-.38-1.55 1.42-.72 3.94-1.99-.87-2.15-4.27 1.33-1.5.46-.8-1.34a21.2 21.2 0 0 0-1.2-1.8l-.95-1.27 1.02-1.21 2.87-3.39-1.64-1.64-3.39 2.87-1.21 1.02-1.27-.94c-.6-.44-1.17-.83-1.8-1.2l-1.37-.83.5-1.52L81.8 4.6l-2.13-.9-2.08 3.94-.73 1.4z"></path>
    <path class="heroicon-cog-back-inner heroicon-component-accent heroicon-component-fill" fill="#7ACFC0" d="M59.2 28.67l2-6.08A11.5 11.5 0 1 1 77.29 38.9l-5.97 1.85c-.57-.96-1.18-1.89-1.84-2.78l.02.01.51.02a8 8 0 1 0-7.98-7.49l.13.1c-.95-.7-1.93-1.35-2.95-1.94z"></path>
    <path class="heroicon-shadows" fill="#000000" d="M55.86 56a16 16 0 0 0-27.72 0 14 14 0 0 1 27.72 0zm4.16-29.82l1.19-3.6a11.5 11.5 0 0 1 20.06 5.1 13.98 13.98 0 0 0-21.25-1.5z" opacity=".2"></path>
    <path class="heroicon-outline" fill="#4A4A4A" fill-rule="nonzero" d="M49.4 17.66c.41-.67.85-1.33 1.32-1.96l-4.05-4.8 4.24-4.23 4.8 4.05c.62-.47 1.28-.9 1.95-1.31l-1.95-5.93 5.52-2.35 2.94 5.58c.76-.19 1.53-.34 2.3-.45L67 0h6l.52 6.26c.78.11 1.55.26 2.3.45l2.95-5.58 5.52 2.35-1.95 5.93c.67.4 1.33.84 1.96 1.31l4.8-4.05 4.23 4.24-4.05 4.8c.46.62.9 1.27 1.3 1.95l6.03-1.87 2.25 5.56-5.58 2.81c.2.76.35 1.53.46 2.32L100 27v6l-6.26.52c-.11.78-.26 1.55-.45 2.3l5.58 2.95-2.35 5.52-5.93-1.95c-.4.67-.84 1.33-1.31 1.96l4.05 4.8-4.24 4.23-4.8-4.05c-.62.46-1.27.9-1.95 1.3l1.05 3.37.61.05v1.92l.21.7-.21.08V62l-8.32.7c-.18 1.3-.44 2.58-.76 3.83l7.43 3.9-3.13 7.37-7.89-2.6a34.05 34.05 0 0 1-2.2 3.3l5.4 6.37-5.66 5.66-6.38-5.4a34.03 34.03 0 0 1-3.24 2.18l2.48 8.01-7.41 3-3.74-7.41c-1.27.33-2.57.59-3.89.77L46 100h-8l-.7-8.32c-1.3-.18-2.58-.44-3.83-.76l-3.9 7.43-7.37-3.13 2.6-7.89a34.05 34.05 0 0 1-3.3-2.2l-6.37 5.4-5.66-5.66 5.4-6.38a34.05 34.05 0 0 1-2.2-3.29l-7.89 2.6-3.13-7.36 7.43-3.91a33.83 33.83 0 0 1-.76-3.84L0 62v-8l8.32-.7c.18-1.3.44-2.58.76-3.83l-7.43-3.9 3.13-7.37 7.89 2.6c.67-1.14 1.4-2.24 2.2-3.3l-5.4-6.37 5.66-5.66 6.38 5.4a34.03 34.03 0 0 1 3.24-2.18l-2.48-8.01 7.41-3 3.74 7.41c1.27-.33 2.57-.59 3.89-.77L38 16h5.35l.13-.29.88.29H46l.05.56 3.36 1.1zm-10.23 8.42l-1.59.22c-1.26.18-2.44.41-3.65.73l-1.57.4-.72-1.44-2.91-5.77-4 1.62 1.93 6.26.47 1.51-1.36.8a31.2 31.2 0 0 0-3.06 2.05l-1.27.97-1.23-1.03-4.97-4.21-3.05 3.05 4.2 4.97 1.04 1.23-.97 1.27c-.76 1-1.43 2-2.07 3.1l-.82 1.39-1.53-.5-6.14-2.03-1.69 3.98 5.8 3.05 1.4.74-.4 1.53a31 31 0 0 0-.7 3.61l-.23 1.59-1.6.13-6.48.54v4.32l6.49.54 1.6.13.21 1.59a31 31 0 0 0 .72 3.61l.4 1.53-1.4.74-5.8 3.05 1.68 3.98 6.14-2.03 1.53-.5.82 1.4a31.2 31.2 0 0 0 2.07 3.09l.97 1.27-1.03 1.23-4.21 4.97 3.05 3.05 4.97-4.2 1.23-1.04 1.27.97c1 .76 2 1.43 3.1 2.07l1.39.82-.5 1.53-2.03 6.14 3.98 1.69 3.05-5.8.74-1.4 1.53.4a31 31 0 0 0 3.61.7l1.59.23.13 1.6.54 6.48h4.32l.54-6.49.13-1.6 1.59-.21c1.26-.18 2.44-.41 3.65-.73l1.57-.4.72 1.44 2.91 5.77 4-1.62-1.93-6.26-.47-1.51 1.36-.8a31.2 31.2 0 0 0 3.06-2.05l1.27-.97 1.23 1.03 4.97 4.21 3.05-3.05-4.2-4.97-1.04-1.23.97-1.27c.76-1 1.43-2 2.07-3.1l.82-1.39 1.53.5 6.14 2.03 1.69-3.98-5.8-3.05-1.4-.74.4-1.53a31 31 0 0 0 .7-3.61l.23-1.59 1.6-.13 6.48-.54v-4.32l-6.49-.54-1.6-.13-.21-1.59c-.18-1.26-.41-2.44-.73-3.65l-.4-1.57 1.44-.72 5.77-2.91-1.62-4-6.26 1.93-1.51.47-.8-1.36a31.2 31.2 0 0 0-2.05-3.06l-.97-1.27 1.03-1.23 4.21-4.97-3.05-3.05-4.97 4.2-1.23 1.04-1.27-.97c-1-.76-2-1.43-3.1-2.07l-1.39-.82.5-1.53 2.03-6.14-3.98-1.69-3.05 5.8-.74 1.4-1.53-.4a31 31 0 0 0-3.61-.7l-1.59-.23-.13-1.6-.54-6.48h-4.32l-.54 6.49-.13 1.6zM42 43.5a14.5 14.5 0 1 1 0 29 14.5 14.5 0 0 1 0-29zM28.5 58a13.5 13.5 0 1 0 27 0 13.5 13.5 0 0 0-27 0zM52 58a10 10 0 1 1-20 0 10 10 0 0 1 20 0zm-2 0a8 8 0 1 0-16 0 8 8 0 0 0 16 0zM76.87 9.03l-1.53-.38c-.7-.17-1.38-.3-2.11-.41L71.66 8l-.13-1.58L71.16 2h-2.32l-.37 4.42L68.34 8l-1.57.24c-.73.1-1.4.24-2.11.41l-1.53.38-.73-1.39-2.08-3.95-2.13.9 1.37 4.2.5 1.51-1.37.82c-.63.38-1.2.77-1.8 1.2l-1.27.95-1.21-1.02-3.39-2.87-1.64 1.64 2.87 3.39 1.02 1.21-.94 1.27c-.44.6-.83 1.17-1.2 1.8l-.83 1.37-1.52-.5-2.55-.84.25 3.07 1.16.61 1.4.73-.39 1.52c.64.13 1.26.27 1.88.43l3.9-7.43 7.2 3.06a12.5 12.5 0 0 1 17.7 17.6l3 7.37-7.42 3.74c.16.64.31 1.28.44 1.93l1.55-.4.72 1.43.58 1.14 3.04.25-.8-2.6-.47-1.49 1.34-.8c.64-.39 1.2-.77 1.8-1.2l1.27-.95 1.21 1.02 3.39 2.87 1.64-1.64-2.87-3.39-1.02-1.21.94-1.27c.44-.6.83-1.17 1.2-1.8l.83-1.37 1.52.5 4.18 1.37.9-2.13-3.94-2.08-1.4-.73.39-1.52c.17-.71.3-1.39.41-2.12l.24-1.57 1.58-.13 4.42-.37v-2.32l-4.42-.37-1.58-.13-.24-1.57c-.1-.74-.24-1.41-.42-2.12l-.38-1.55 1.42-.72 3.94-1.99-.87-2.15-4.27 1.33-1.5.46-.8-1.34a21.2 21.2 0 0 0-1.2-1.8l-.95-1.27 1.02-1.21 2.87-3.39-1.64-1.64-3.39 2.87-1.21 1.02-1.27-.94c-.6-.44-1.17-.83-1.8-1.2l-1.37-.83.5-1.52L81.8 4.6l-2.13-.9-2.08 3.94-.73 1.4zM46.69 24.27l.02-.1-.03-.02v.12zm12.51 4.4c1.02.6 2 1.24 2.95 1.94l-.13-.1a8 8 0 1 1 7.47 7.47l-.02-.01c.66.9 1.27 1.82 1.84 2.78l5.97-1.85A11.5 11.5 0 1 0 61.2 22.59l-2 6.08zM76 30a6 6 0 0 0-11.99-.42l4.86-4.1 5.66 5.65-4.11 4.86A6 6 0 0 0 76 30zm-.14 23.32l-.02-.04-.1.03.12.01z"></path>
</svg>
