<svg xmlns="http://www.w3.org/2000/svg" width="100" height="100" viewBox="0 0 100 100" class="heroicon-game-control heroicon heroicons-lg">
    <path class="heroicon-game-control-housing heroicon-component-fill" fill="#FFFFFF" d="M15 18v1h-.47a4 4 0 0 0-3.97 3.5l-.43 3.44A17.98 17.98 0 0 0 3.58 48.4L.21 81 0 83h12.01c3.3 0 7.3-2.34 8.93-5.23l2.42-4.3.98-1.75A13.99 13.99 0 0 0 45.96 61h8.08a14 14 0 0 0 21.62 10.72l.98 1.75 2.42 4.3c1.62 2.89 5.63 5.23 8.93 5.23H100l-.2-2-3.38-32.61a17.98 17.98 0 0 0-6.55-22.44l-.43-3.45a4 4 0 0 0-3.97-3.5H85v-2H75v2h-.47a4 4 0 0 0-3.97 3.5l-.31 2.5h-40.5l-.31-2.5a4 4 0 0 0-3.97-3.5H25v-2H15v1z"></path>
    <path class="heroicon-game-control-right-pad-top heroicon-component-accent heroicon-component-fill" fill="#7ACFC0" d="M80 38a4 4 0 1 0 0-8 4 4 0 0 0 0 8z"></path>
    <path class="heroicon-game-control-right-pad-right heroicon-component-accent heroicon-component-fill" fill="#7ACFC0" d="M91 41a4 4 0 1 1-8 0 4 4 0 0 1 8 0z"></path>
    <path class="heroicon-game-control-right-pad-bottom heroicon-component-accent heroicon-component-fill" fill="#7ACFC0" d="M80 52a4 4 0 1 0 0-8 4 4 0 0 0 0 8z"></path>
    <path class="heroicon-game-control-right-pad-left heroicon-component-accent heroicon-component-fill" fill="#7ACFC0" d="M73 45a4 4 0 1 0 0-8 4 4 0 0 0 0 8z"></path>
    <path class="heroicon-game-control-joysticks heroicon-component-accent heroicon-component-fill" fill="#7ACFC0" d="M75 60a7 7 0 1 1-14 0 7 7 0 0 1 14 0zm-36 0a7 7 0 1 1-14 0 7 7 0 0 1 14 0z"></path>
    <path class="heroicon-game-control-left-pad heroicon-component-accent heroicon-component-fill" fill="#7ACFC0" d="M24 36l-3.3 3.3-.7.7-.7-.7L16 36v-5h8v5zm1 9l-3.3-3.3-.7-.7.7-.7L25 37h5v8h-5zm-8 6h-1v-5l3.3-3.3.7-.7.7.7L24 46v5h-7zm-2-14l3.3 3.3.7.7-.7.7L15 45h-5v-8h5z"></path>
    <path class="heroicon-game-control-buttons-top heroicon-component-accent heroicon-component-fill" fill="#7ACFC0" d="M24 18v1h-8v-1h8zm52 1v-1h8v1h-8z"></path>
    <path class="heroicon-game-control-button-center-circle heroicon-component-accent heroicon-component-fill" fill="#7ACFC0" d="M55 47a5 5 0 1 1-10 0 5 5 0 0 1 10 0z"></path>
    <path class="heroicon-game-control-buttons-center-square heroicon-component-accent heroicon-component-fill" fill="#7ACFC0" d="M40 35h6v4h-6v-4zm14 0h6v4h-6v-4z"></path>
    <path class="heroicon-shadows" fill="#000000" d="M15 29h10v1H15v-1zm60 0h10v1H75v-1zM34.79 50.4c-.18-.06-.35-.1-.53-.14A16.91 16.91 0 0 0 37 41.5l.01.5c0 3.05-.8 5.92-2.21 8.4zm-12.73 8.48A17 17 0 0 1 3 41.5a17 17 0 0 0 19.23 16.35c-.07.34-.13.68-.17 1.03zm55.88 0c-.04-.35-.1-.7-.17-1.03A17 17 0 0 0 96.99 41.5l.01.5a17 17 0 0 1-19.06 16.88zM65.2 50.39a16.92 16.92 0 0 1-2.2-8.89c.09 3.22 1.08 6.22 2.73 8.76l-.53.13zM42 60.5l.01.5a10 10 0 1 1-19.99-.5 10 10 0 0 0 19.98 0zm36 0l.01.5a10 10 0 1 1-19.99-.5 10 10 0 0 0 19.98 0zm-23.01-13l.02.5a5 5 0 1 1-9.98-.5 5 5 0 0 0 9.96 0zM40 39h6v1h-6v-1zm14 0h6v1h-6v-1z" opacity=".2"></path>
    <path class="heroicon-outline" fill="#4A4A4A" fill-rule="nonzero" d="M15 18v-1h10v2h.47a4 4 0 0 1 3.97 3.5l.31 2.5h40.5l.31-2.5a4 4 0 0 1 3.97-3.5H75v-2h10v2h.47a4 4 0 0 1 3.97 3.5l.43 3.44a17.98 17.98 0 0 1 6.55 22.45L99.79 81l.21 2H87.99c-3.3 0-7.3-2.34-8.93-5.23l-2.42-4.3-.98-1.75A13.99 13.99 0 0 1 54.04 61h-8.08a14 14 0 0 1-21.62 10.72l-.98 1.75-2.42 4.3C19.32 80.66 15.31 83 12.01 83H0l.2-2 3.38-32.61a17.98 17.98 0 0 1 6.55-22.44l.43-3.45a4 4 0 0 1 3.97-3.5H15v-1zm9 0h-8v1h8v-1zm52 1h8v-1h-8v1zm-50.53 2H14.53a2 2 0 0 0-1.98 1.75l-.25 1.98a17.93 17.93 0 0 1 15.4 0l-.25-1.98A2 2 0 0 0 25.47 21zm61.98 1.75A2 2 0 0 0 85.47 21H74.53a2 2 0 0 0-1.98 1.75l-.25 1.98a17.93 17.93 0 0 1 15.4 0l-.25-1.98zM2.22 81H12c2.57 0 5.92-1.95 7.19-4.21l3.4-6.05 1.05-1.86 1.79 1.17A11.16 11.16 0 0 0 32 72a12 12 0 0 0 11.97-11.14L44.1 59H55.9l.13 1.86A12 12 0 0 0 68 72c2.52.02 4.6-.64 6.56-1.95l1.8-1.17 1.04 1.86 3.4 6.05C82.07 79.05 85.42 81 88 81h9.78l-3.23-31.21a16.99 16.99 0 0 1-16.78 8.06A9.96 9.96 0 0 1 78 60a10 10 0 1 1-12.26-9.74A17.03 17.03 0 0 1 63 41c0-4.68 1.9-8.93 4.96-12H32.04a16.95 16.95 0 0 1 2.22 21.26 10 10 0 1 1-12.03 7.6A17.12 17.12 0 0 1 20 58a17 17 0 0 1-14.55-8.21L2.22 81zm68.13-54h-40.7c.47.32.92.67 1.35 1.04V28h38v.04c.43-.37.88-.72 1.35-1.04zM80 25a16 16 0 0 0-13.42 24.71l.78 1.2-1.4.32a9 9 0 1 0 10.83 6.84l-.3-1.4 1.4.2A16 16 0 1 0 80 25zM4 41a16 16 0 0 0 18.1 15.86l1.41-.18-.3 1.39a9 9 0 1 0 10.83-6.84l-1.4-.32.78-1.2A16 16 0 1 0 4 41zm88-6h1v12h-7v7H74v-7h-7V35h7v-7h12v7h6zm-7 1v-7H75v7h-7v10h7v7h10v-7h7V36h-7zm-59-8v7h7v12h-7v7H14v-7H7V35h7v-7h12zm-12 8H8v10h7v7h10v-7h7V36h-7v-7H15v7h-1zm41 11a5 5 0 1 1-10 0 5 5 0 0 1 10 0zm-5 4a4 4 0 1 0 0-8 4 4 0 0 0 0 8zM40 35h6v4h-6v-4zm1 1v2h4v-2h-4zm13-1h6v4h-6v-4zm1 1v2h4v-2h-4zm25 2a4 4 0 1 1 0-8 4 4 0 0 1 0 8zm3-4a3 3 0 1 0-6 0 3 3 0 0 0 6 0zm8 7a4 4 0 1 1-8 0 4 4 0 0 1 8 0zm-4 3a3 3 0 1 0 0-6 3 3 0 0 0 0 6zm-7 8a4 4 0 1 1 0-8 4 4 0 0 1 0 8zm3-4a3 3 0 1 0-6 0 3 3 0 0 0 6 0zm-10-3a4 4 0 1 1 0-8 4 4 0 0 1 0 8zm3-4a3 3 0 1 0-6 0 3 3 0 0 0 6 0zm-1 19a7 7 0 1 1-14 0 7 7 0 0 1 14 0zm-7 5a5 5 0 1 0 0-10 5 5 0 0 0 0 10zm-29-5a7 7 0 1 1-14 0 7 7 0 0 1 14 0zm-7 5a5 5 0 1 0 0-10 5 5 0 0 0 0 10zm-8-29l-3.3 3.3-.7.7-.7-.7L16 36v-5h8v5zm-1-4h-6v3.59l3 3 3-3V32zm2 13l-3.3-3.3-.7-.7.7-.7L25 37h5v8h-5zm.41-1H29v-6h-3.59l-3 3 3 3zM17 51h-1v-5l3.3-3.3.7-.7.7.7L24 46v5h-7zm6-1v-3.59l-3-3-3 3V50h6zm-8-13l3.3 3.3.7.7-.7.7L15 45h-5v-8h5zm-4 7h3.59l3-3-3-3H11v6z"></path>
</svg>
