<svg xmlns="http://www.w3.org/2000/svg" width="100" height="100" viewBox="0 0 100 100" class="heroicon-cloud-x heroicon heroicons-lg">
    <path class="heroicon-cloud-x-background heroicon-component-fill" fill="#FFFFFF" d="M83 74a17 17 0 0 0 3.93-33.54 15 15 0 0 0-18.08-16.13 27 27 0 0 0-50 5.9A22 22 0 0 0 22 74h61z"></path>
    <circle class="heroicon-cloud-x-circle heroicon-component-accent heroicon-component-fill" cx="50" cy="73" r="18" fill="#7ACFC0"></circle>
    <polygon class="heroicon-cloud-x-symbol heroicon-component-fill" fill="#FFFFFF" points="52.828 73 57.778 68.05 54.95 65.222 50 70.172 45.05 65.222 42.222 68.05 47.172 73 42.222 77.95 45.05 80.778 50 75.828 54.95 80.778 57.778 77.95"></polygon>
    <path class="heroicon-shadows" fill="#000000" d="M32.7 68a18 18 0 0 0-.67 6H22A22 22 0 0 1 .83 46H2.1A20 20 0 0 0 22 68h10.7zm64.84-19.8a16.91 16.91 0 0 1 2.45 8.3A18 18 0 0 1 82 74H67.97a18.29 18.29 0 0 0-.67-6H82a16 16 0 0 0 15.54-19.8z" opacity=".2"></path>
    <path class="heroicon-outline" fill="#4A4A4A" fill-rule="nonzero" d="M83 74H67.97a18 18 0 0 1-35.94 0H22a22 22 0 0 1-3.14-43.78 27.01 27.01 0 0 1 49.99-5.89 15 15 0 0 1 18.08 16.13A17 17 0 0 1 83 74zm-15.03-2H83a15 15 0 0 0 1.63-29.91A13.03 13.03 0 0 0 72 26c-1.48 0-2.9.25-4.21.7a25 25 0 0 0-47.3 5.36A20 20 0 0 0 22 72h10.03a18 18 0 0 1 34.95-5H83a10 10 0 0 0 8.95-5.53l.9.45A11 11 0 0 1 83 68H67.3c.37 1.28.6 2.62.67 4zM66 73a16 16 0 1 0-32 0 16 16 0 0 0 32 0zM45 16v1a20 20 0 0 0-17.9 11.05l-.89-.44A21 21 0 0 1 45 16zm5 54.17l4.95-4.95 2.83 2.83L52.83 73l4.95 4.95-2.83 2.83L50 75.83l-4.95 4.95-2.83-2.83L47.17 73l-4.95-4.95 2.83-2.83L50 70.17zm4.95-3.53L50 71.59l-4.95-4.95-1.41 1.41L48.59 73l-4.95 4.95 1.41 1.41L50 74.41l4.95 4.95 1.41-1.41L51.41 73l4.95-4.95-1.41-1.41zM36.96 78.1A14 14 0 0 1 50 59v1a13 13 0 0 0-12.13 17.69l-.9.42z"></path>
</svg>
