<svg xmlns="http://www.w3.org/2000/svg" width="100" height="100" viewBox="0 0 100 100" class="heroicon-database heroicon heroicons-lg">
    <path class="heroicon-database-exterior heroicon-component-fill-" fill="#FFFFFF" d="M10 20v12a11.22 11.22 0 0 0 1.83 6A11.2 11.2 0 0 0 10 44v12c0 2.09.64 4.1 1.83 6A11.2 11.2 0 0 0 10 68v12c0 11.05 17.9 20 40 20s40-8.95 40-20V68c0-2.09-.64-4.1-1.83-6A11.2 11.2 0 0 0 90 56V44c0-2.09-.64-4.1-1.83-6A11.2 11.2 0 0 0 90 32V20C90 8.95 72.1 0 50 0S10 8.95 10 20z"></path>
    <path class="heroicon-database-interior heroicon-component-accent heroicon-component-fill-" fill="#7ACFC0" fill-rule="nonzero" d="M16 66.54C23.06 72.22 35.65 76 50 76c14.35 0 26.94-3.78 34-9.46V68c0 6.65-14.96 14-34 14s-34-7.35-34-14v-1.46zm0-24C23.06 48.22 35.65 52 50 52c14.35 0 26.94-3.78 34-9.46V44c0 6.65-14.96 14-34 14s-34-7.35-34-14v-1.46z"></path>
    <path class="heroicon-shadows" fill="#000000" fill-rule="nonzero" d="M83.96 44.57c.03-.19.04-.38.04-.57v-1.46C76.94 48.22 64.35 52 50 52c-14.35 0-26.94-3.78-34-9.46V44c0 .19.01.38.04.57C23.1 50.23 35.67 54 50 54c14.33 0 26.9-3.77 33.96-9.43zm0 24c.03-.19.04-.38.04-.57v-1.46C76.94 72.22 64.35 76 50 76c-14.35 0-26.94-3.78-34-9.46V68c0 .19.01.38.04.57C23.1 74.23 35.67 78 50 78c14.33 0 26.9-3.77 33.96-9.43z" opacity=".2"></path>
    <path class="heroicon-outline" fill="#4A4A4A" fill-rule="nonzero" d="M10 20C10 8.95 27.9 0 50 0s40 8.95 40 20v12c0 2.09-.64 4.1-1.83 6A11.2 11.2 0 0 1 90 44v12c0 2.09-.64 4.1-1.83 6A11.2 11.2 0 0 1 90 68v12c0 11.05-17.9 20-40 20s-40-8.95-40-20V68c0-2.09.64-4.1 1.83-6A11.2 11.2 0 0 1 10 56V44c0-2.09.64-4.1 1.83-6l.04.06A11.22 11.22 0 0 1 10 32V20zm2 0c0 9.64 17.03 18 38 18s38-8.36 38-18c0-4.36-3.58-8.84-10.61-12.35l-.74-.37C69.79 4.05 60.38 2 50 2 39.62 2 30.21 4.05 23.35 7.28l-.74.37C15.58 11.16 12 15.65 12 20zm0 4.24V32c0 4.36 3.58 8.84 10.61 12.35C29.62 47.88 39.17 50.01 50 50c10.83.01 20.38-2.12 27.39-5.65C84.42 40.84 88 36.35 88 32v-7.76C84.01 32.58 68.56 39 50 39s-34.01-6.42-38-14.76zm74.95 15.43c-.83 1-1.82 1.96-2.95 2.87V44c0 6.65-14.96 14-34 14s-34-7.35-34-14v-1.46a20.81 20.81 0 0 1-2.88-2.78A8.96 8.96 0 0 0 12 44c0 4.55 3.88 9.05 10.84 12.47C29.78 59.88 39.3 62 50 62c10.7 0 20.22-2.12 27.16-5.53C84.12 53.05 88 48.56 88 44c0-1.41-.38-2.84-1.12-4.24l.07-.09zM17 43.31V44c0 1.28.72 2.74 2.33 4.27 1.62 1.56 3.94 3 6.93 4.3C32.29 55.22 40.59 57.02 50 57c9.41 0 17.71-1.79 23.74-4.42 3-1.3 5.31-2.75 6.93-4.3 1.6-1.54 2.33-3 2.33-4.28v-.7l.03-.02C75.83 48.55 63.73 52 50 52c-13.7 0-25.8-3.44-33-8.7zM12 68c0 4.56 3.88 9.05 10.84 12.47C29.78 83.88 39.3 86 50 86c10.7 0 20.22-2.12 27.16-5.53C84.12 77.05 88 72.56 88 68c0-1.41-.38-2.84-1.12-4.24-.82.97-1.78 1.9-2.88 2.78V68c0 6.65-14.96 14-34 14s-34-7.35-34-14v-1.46a20.7 20.7 0 0 1-2.88-2.78A8.96 8.96 0 0 0 12 68zm5 0c0 1.28.72 2.74 2.33 4.27 1.62 1.56 3.94 3 6.93 4.3C32.29 79.22 40.59 81.02 50 81c9.41 0 17.71-1.79 23.74-4.42 3-1.3 5.31-2.75 6.93-4.3 1.6-1.54 2.33-3 2.33-4.28v-.7C75.8 72.57 63.7 76 50 76c-13.71 0-25.82-3.45-33.02-8.71l.02.02V68zm-5-19.76V56c0 4.36 3.58 8.84 10.61 12.35C29.62 71.88 39.17 74.01 50 74c10.83.01 20.38-2.12 27.39-5.65C84.42 64.84 88 60.35 88 56v-7.76C84.01 56.58 68.56 63 50 63s-34.01-6.42-38-14.76zm0 24V80c0 4.36 3.58 8.84 10.61 12.35C29.62 95.88 39.17 98.01 50 98c10.83.01 20.38-2.12 27.39-5.65C84.42 88.84 88 84.35 88 80v-7.76C84.01 80.58 68.56 87 50 87s-34.01-6.42-38-14.76zM16 20h1c0 6.29 15.4 13 33 13s33-6.71 33-13h1c0 6.65-14.96 14-34 14s-34-7.35-34-14z"></path>
</svg>
