<svg xmlns="http://www.w3.org/2000/svg" width="100" height="100" viewBox="0 0 100 100" class="heroicon-envelope-search heroicon heroicon-lg">
    <rect class="heroicon-envelope-search-body heroicon-component-fill" fill="#ffffff" x="1" y="13" width="98" height="58" rx="3"></rect>
    <path class="heroicon-envelope-search-sides heroicon-component-accent heroicon-component-fill" fill="#7ACFC0" d="M97.95 15.557c.033.143.05.29.05.443v52c0 .152-.017.3-.05.443L94 65.44V18.56l3.95-3.003zM2.05 68.443C2.016 68.3 2 68.153 2 68V16c0-.152.017-.3.05-.443L6 18.56v46.88l-3.95 3.003z"></path>
    <circle class="heroicon-envelope-search-circle heroicon-component-accent heroicon-component-fill" fill="#7ACFC0" cx="82" cy="71" r="18"></circle>
    <path class="heroicon-envelope-search-symbol heroicon-component-fill" fill="#ffffff" d="M90.607 76.778l-.707.707-1.415 1.415-.707.707-.707-.707-3.74-3.74c-2.653 1.435-6.037 1.032-8.28-1.21-2.733-2.734-2.733-7.166 0-9.9 2.734-2.733 7.166-2.733 9.9 0 2.242 2.243 2.645 5.627 1.21 8.28l3.74 3.74.707.708zm-8.486-9.9c-1.17-1.17-3.07-1.17-4.24 0-1.173 1.172-1.173 3.072 0 4.243 1.17 1.173 3.07 1.173 4.24 0 1.173-1.17 1.173-3.07 0-4.24z"></path>
    <path class="heroicon-shadows" fill="#000000" d="M0 14l46.815 35.58c1.76 1.336 4.614 1.334 6.37 0L100 14 52.997 55.363c-1.655 1.456-4.334 1.46-5.994 0L0 14z" opacity=".2"></path>
    <path class="heroicon-outline" fill="#4A4A4A" fill-rule="nonzero" d="M99.885 68.955c.076.67.115 1.354.115 2.045 0 9.94-8.06 18-18 18-9.606 0-17.454-7.524-17.973-17H4c-2.21 0-4-1.79-4-4V16c0-2.21 1.79-4 4-4h92c2.21 0 4 1.79 4 4v52c0 .33-.04.65-.115.955zm-96.48.955c.188.06.388.09.595.09h60.027c.4-7.32 5.174-13.473 11.752-15.896L61.504 43.256 52.42 50.16c-1.43 1.088-3.41 1.088-4.84 0l-9.085-6.904L3.418 69.914l-.013-.004zM78.17 53.408C79.403 53.14 80.684 53 82 53c4.142 0 7.958 1.4 11 3.75V19.32L63.158 42l15.01 11.408zM94 57.583c1.627 1.457 2.988 3.205 4 5.163V16c0-.152-.017-.3-.05-.443L94 18.56V57.583zM4 14c-.202 0-.398.03-.582.086L48.79 48.568c.715.544 1.705.544 2.42 0l45.372-34.482C96.398 14.03 96.202 14 96 14H4zm-1.95 1.557c-.033.143-.05.29-.05.443v52c0 .152.017.3.05.442L6 65.44V18.56l-3.95-3.003zM7 64.68L36.842 42 7 19.32v45.36zM98 71c0-8.837-7.163-16-16-16s-16 7.163-16 16 7.163 16 16 16 16-7.163 16-16zm-30 0c0-7.732 6.268-14 14-14v1c-7.18 0-13 5.82-13 13 0 1.652.308 3.232.87 4.686l-.908.425C68.342 74.53 68 72.805 68 71zm19.778 8.607L83.33 75.16c-2.653 1.435-6.038 1.032-8.28-1.21-2.733-2.734-2.733-7.166 0-9.9 2.734-2.733 7.166-2.733 9.9 0 2.242 2.243 2.645 5.627 1.21 8.28l3.74 3.74.706.708-.707.707-1.415 1.414-.707.707zm-2.854-7.097l.355-.656c1.23-2.274.883-5.176-1.037-7.097-2.344-2.343-6.142-2.343-8.486 0-2.343 2.343-2.343 6.142 0 8.486 1.92 1.92 4.823 2.268 7.097 1.037l.656-.355.528.527 3.74 3.74 1.414-1.414-3.74-3.74-.528-.528zm-2.096-6.34c1.563 1.564 1.563 4.096 0 5.66-1.562 1.56-4.094 1.56-5.657 0-1.56-1.564-1.56-4.096 0-5.66 1.564-1.56 4.096-1.56 5.658 0zm-.707.71c-1.17-1.173-3.07-1.173-4.24 0-1.173 1.17-1.173 3.07 0 4.24 1.17 1.173 3.07 1.173 4.24 0 1.173-1.17 1.173-3.07 0-4.24z"></path>
</svg>
