<svg xmlns="http://www.w3.org/2000/svg" width="100" height="100" viewBox="0 0 100 100" class="heroicon-server heroicon heroicons-lg">
    <path class="heroicon-server-housing heroicon-component-fill" fill="#FFFFFF" d="M14 94v-2h-1.01A3 3 0 0 1 10 89V3a3 3 0 0 1 2.99-3h74.02A3 3 0 0 1 90 3v86a3 3 0 0 1-2.99 3H86v2h4v6H10v-6h4z"></path>
    <path class="heroicon-server-boxes heroicon-component-accent heroicon-component-fill" fill="#7ACFC0" d="M15 4h70a1 1 0 0 1 1 1v16a1 1 0 0 1-1 1H15a1 1 0 0 1-1-1V5a1 1 0 0 1 1-1zm0 20h70a1 1 0 0 1 1 1v16a1 1 0 0 1-1 1H15a1 1 0 0 1-1-1V25a1 1 0 0 1 1-1zm0 20h70a1 1 0 0 1 1 1v16a1 1 0 0 1-1 1H15a1 1 0 0 1-1-1V45a1 1 0 0 1 1-1zm0 20h70a1 1 0 0 1 1 1v16a1 1 0 0 1-1 1H15a1 1 0 0 1-1-1V65a1 1 0 0 1 1-1z"></path>
    <path class="heroicon-server-controls heroicon-component-fill" fill="#FFFFFF" d="M50 17a4 4 0 1 1 0-8 4 4 0 0 1 0 8zM20 9h19v8H19V9h1zm39-2h3v12h-3V7zm5 0h2v12h-3V7h1zm3 0h3v12h-3V7zm5 0h2v12h-3V7h1zm3 0h3v12h-3V7zm6 5h2v3h-3v-3h1zm-1 4h3v3h-3v-3zM50 37a4 4 0 1 1 0-8 4 4 0 0 1 0 8zm-30-8h19v8H19v-8h1zm39-2h3v12h-3V27zm5 0h2v12h-3V27h1zm3 0h3v12h-3V27zm5 0h2v12h-3V27h1zm3 0h3v12h-3V27zm6 5h2v3h-3v-3h1zm-1 4h3v3h-3v-3zM50 57a4 4 0 1 1 0-8 4 4 0 0 1 0 8zm-30-8h19v8H19v-8h1zm39-2h3v12h-3V47zm5 0h2v12h-3V47h1zm3 0h3v12h-3V47zm5 0h2v12h-3V47h1zm3 0h3v12h-3V47zm6 5h2v3h-3v-3h1zm-1 4h3v3h-3v-3zM50 77a4 4 0 1 1 0-8 4 4 0 0 1 0 8zm-30-8h19v8H19v-8h1zm39-2h3v12h-3V67zm5 0h2v12h-3V67h1zm3 0h3v12h-3V67zm5 0h2v12h-3V67h1zm3 0h3v12h-3V67zm6 5h2v3h-3v-3h1zm-1 4h3v3h-3v-3z"></path>
    <rect class="heroicon-shadows" width="70" height="4" x="15" y="91" fill="#000000" opacity=".2"></rect>
    <path class="heroicon-outline" fill="#4A4A4A" fill-rule="nonzero" d="M86 92v2h2a2 2 0 0 1 2 2v2a2 2 0 0 1-2 2H12a2 2 0 0 1-2-2v-2c0-1.1.9-2 2-2h2v-2h-1a3 3 0 0 1-3-3V3a3 3 0 0 1 3-3h74a3 3 0 0 1 3 3v86a3 3 0 0 1-3 3h-1zm1-90H13a1 1 0 0 0-1 1v86a1 1 0 0 0 1 1h74a1 1 0 0 0 1-1V3a1 1 0 0 0-1-1zM15 4h70a1 1 0 0 1 1 1v16a1 1 0 0 1-1 1H15a1 1 0 0 1-1-1V5a1 1 0 0 1 1-1zm70 1H15v16h70V5zm-1 89v-2H16v2h68zm4 4v-2H12v2h76zM50 17a4 4 0 1 1 0-8 4 4 0 0 1 0 8zm3-4a3 3 0 1 0-6 0 3 3 0 0 0 6 0zM20 9h19v8H19V9h1zm18 1H20v6h18v-6zm21-3h3v12h-3V7zm1 1v10h1V8h-1zm4-1h2v12h-3V7h1zm1 1h-1v10h1V8zm2-1h3v12h-3V7zm1 1v10h1V8h-1zm4-1h2v12h-3V7h1zm1 1h-1v10h1V8zm2-1h3v12h-3V7zm1 1v10h1V8h-1zm5 4h2v3h-3v-3h1zm1 1h-1v1h1v-1zm-2 3h3v3h-3v-3zm1 1v1h1v-1h-1zm-66 7h70a1 1 0 0 1 1 1v16a1 1 0 0 1-1 1H15a1 1 0 0 1-1-1V25a1 1 0 0 1 1-1zm0 1v16h70V25H15zm35 12a4 4 0 1 1 0-8 4 4 0 0 1 0 8zm3-4a3 3 0 1 0-6 0 3 3 0 0 0 6 0zm-33-4h19v8H19v-8h1zm18 1H20v6h18v-6zm21-3h3v12h-3V27zm1 1v10h1V28h-1zm4-1h2v12h-3V27h1zm1 1h-1v10h1V28zm2-1h3v12h-3V27zm1 1v10h1V28h-1zm4-1h2v12h-3V27h1zm1 1h-1v10h1V28zm2-1h3v12h-3V27zm1 1v10h1V28h-1zm5 4h2v3h-3v-3h1zm1 1h-1v1h1v-1zm-2 3h3v3h-3v-3zm1 1v1h1v-1h-1zm-66 7h70a1 1 0 0 1 1 1v16a1 1 0 0 1-1 1H15a1 1 0 0 1-1-1V45a1 1 0 0 1 1-1zm0 1v16h70V45H15zm35 12a4 4 0 1 1 0-8 4 4 0 0 1 0 8zm3-4a3 3 0 1 0-6 0 3 3 0 0 0 6 0zm-33-4h19v8H19v-8h1zm18 1H20v6h18v-6zm21-3h3v12h-3V47zm1 1v10h1V48h-1zm4-1h2v12h-3V47h1zm1 1h-1v10h1V48zm2-1h3v12h-3V47zm1 1v10h1V48h-1zm4-1h2v12h-3V47h1zm1 1h-1v10h1V48zm2-1h3v12h-3V47zm1 1v10h1V48h-1zm5 4h2v3h-3v-3h1zm1 1h-1v1h1v-1zm-2 3h3v3h-3v-3zm1 1v1h1v-1h-1zm-66 7h70a1 1 0 0 1 1 1v16a1 1 0 0 1-1 1H15a1 1 0 0 1-1-1V65a1 1 0 0 1 1-1zm0 1v16h70V65H15zm35 12a4 4 0 1 1 0-8 4 4 0 0 1 0 8zm3-4a3 3 0 1 0-6 0 3 3 0 0 0 6 0zm-33-4h19v8H19v-8h1zm18 1H20v6h18v-6zm21-3h3v12h-3V67zm1 1v10h1V68h-1zm4-1h2v12h-3V67h1zm1 1h-1v10h1V68zm2-1h3v12h-3V67zm1 1v10h1V68h-1zm4-1h2v12h-3V67h1zm1 1h-1v10h1V68zm2-1h3v12h-3V67zm1 1v10h1V68h-1zm5 4h2v3h-3v-3h1zm1 1h-1v1h1v-1zm-2 3h3v3h-3v-3zm1 1v1h1v-1h-1z"></path>
</svg>
