<svg xmlns="http://www.w3.org/2000/svg" width="100" height="100" viewBox="0 0 100 100" class="heroicon-folder-lock heroicon heroicon-lg">
    <path class="heroicon-folder-lock-tab heroicon-component-accent heroicon-component-fill" fill="#7ACFC0" d="M0 6.003C0 3.793 1.792 2 3.993 2H45l10 10h41.007c2.205 0 3.993 1.797 3.993 3.993v4.004L0 20V6.003z"></path>
    <rect class="heroicon-folder-lock-cover heroicon-component-fill" fill="#ffffff" y="18" width="100" height="64" rx="4"></rect>
    <circle class="heroicon-folder-lock-circle heroicon-component-accent heroicon-component-fill" fill="#7ACFC0" cx="82" cy="81" r="18"></circle>
    <path class="heroicon-folder-lock-symbol heroicon-component-fill" fill="#ffffff" d="M88 79h3v10H73V79h3v-2c0-3.314 2.686-6 6-6s6 2.686 6 6v2zm-4 0v-2c0-1.105-.895-2-2-2s-2 .895-2 2v2h4z"></path>
    <path class="heroicon-shadows" fill="#000000" d="M100 20.003C100 17.795 98.21 16 96.003 16H3.997C1.8 16 0 17.792 0 20.003v2C0 19.793 1.8 18 3.997 18h92.006C98.21 18 100 19.795 100 22.003v-2z" opacity=".2"></path>
    <path class="heroicon-outline" fill="#4A4A4A" fill-rule="nonzero" d="M55 12h41c2.21 0 4 1.79 4 4v62c0 .33-.04.65-.115.955.076.67.115 1.354.115 2.045 0 9.94-8.06 18-18 18-9.606 0-17.454-7.524-17.973-17H4c-2.21 0-4-1.79-4-4V6c0-2.21 1.79-4 4-4h41l10 10zm43 60.746V23.764c-.53-.475-1.232-.764-2-.764H4c-.768 0-1.47.29-2 .764V78c0 1.105.895 2 2 2h60.027c.52-9.476 8.367-17 17.973-17 6.966 0 13.007 3.957 16 9.746zM4 22h92c.73 0 1.412.195 2 .535V22c0-1.105-.895-2-2-2H4c-1.105 0-2 .895-2 2v.535c.588-.34 1.27-.535 2-.535zm94-3.465V16c0-1.105-.895-2-2-2H54.172l-.586-.586L44.172 4H4c-1.105 0-2 .895-2 2v12.535c.588-.34 1.27-.535 2-.535h92c.73 0 1.412.195 2 .535zM98 81c0-8.837-7.163-16-16-16s-16 7.163-16 16 7.163 16 16 16 16-7.163 16-16zM42 8v1H6V8h36zM6 13h32v1H6v-1zm62.962 73.11C68.342 84.53 68 82.805 68 81c0-7.732 6.268-14 14-14v1c-7.18 0-13 5.82-13 13 0 1.652.308 3.232.87 4.686l-.908.425zM88 79h3v10H73V79h3v-2c0-3.314 2.686-6 6-6s6 2.686 6 6v2zm-14 9h16v-6H74v6zm16-8H74v1h16v-1zm-3-1v-2c0-2.76-2.24-5-5-5s-5 2.24-5 5v2h2v-2c0-1.657 1.343-3 3-3s3 1.343 3 3v2h2zm-3 0v-2c0-1.105-.895-2-2-2s-2 .895-2 2v2h4z"></path>
</svg>
