<svg xmlns="http://www.w3.org/2000/svg" width="100" height="100" viewBox="0 0 100 100" class="heroicon-tools heroicon heroicons-lg">
    <path class="heroicon-tools-screwdriver-handle heroicon-component-accent heroicon-component-fill" fill="#7ACFC0" d="M20 48h10v3.17L26.17 55 30 58.83V92a6 6 0 0 1-6 6h-2a6 6 0 0 1-6-6V58.83L19.83 55 16 51.17V48h4z"></path>
    <path class="heroicon-tools-hammer-handle heroicon-component-accent heroicon-component-fill" fill="#7ACFC0" d="M66 20H56l2 25.98-2.93 50.85A15.14 15.14 0 0 0 61 98a15.14 15.14 0 0 0 5.93-1.17L64 45.98 66 20z"></path>
    <polygon class="heroicon-tools-screwdriver-head heroicon-component-fill" fill="#FFFFFF" points="24 46 22 46 22 13.528 20.144 9.815 22.488 2 23.512 2 25.856 9.815 24 13.528"></polygon>
    <path class="heroicon-tools-hammer-head heroicon-component-fill" fill="#FFFFFF" d="M66.6 18H55.75A8 8 0 0 0 48 12V3.46A3.98 3.98 0 0 0 53.46 2H68a16 16 0 0 1 15.88 14H81.8a10 10 0 0 0-10.26-7.99l-1.33.06L66.6 18zM46 14h-6V2h6v12z"></path>
    <path class="heroicon-shadows" fill="#000000" d="M18 63a2 2 0 1 1 4 0v28a2 2 0 1 1-4 0V63zm6 0a2 2 0 1 1 4 0v28a2 2 0 1 1-4 0V63zm-9-12h16l-4 4h-8l-4-4z" opacity=".2"></path>
    <path class="heroicon-outline" fill="#4A4A4A" fill-rule="nonzero" d="M26 46h6v6l-3 3 3 3v34a8 8 0 0 1-8 8h-2a8 8 0 0 1-8-8V58l3-3-3-3v-6h6V14l-2-4 3-10h4l3 10-2 4v32zm-2 0V13.53l1.86-3.72L23.5 2H22.5l-2.35 7.81L22 13.53V46h2zm-4 2h-4v3.17L19.83 55 16 58.83V92a6 6 0 0 0 6 6h2a6 6 0 0 0 6-6V58.83L26.17 55 30 51.17V48H20zm0 13a2 2 0 0 1 2 2v28a2 2 0 1 1-4 0V63a2 2 0 0 1 2-2zm-1 30a1 1 0 0 0 1 1 1 1 0 0 0 1-1V63a1 1 0 0 0-1-1 1 1 0 0 0-1 1v28zm5-28a2 2 0 1 1 4 0v28a2 2 0 1 1-4 0V63zm1 0v28a1 1 0 0 0 1 1 1 1 0 0 0 1-1V63a1 1 0 0 0-1-1 1 1 0 0 0-1 1zM40 0h8a2 2 0 0 0 2 2 2 2 0 0 0 2-2h16a18 18 0 0 1 18 18h-6a8 8 0 0 0-8.37-8L68 20l-2 26 3 52s-3 2-8 2-8-2-8-2l3-52-2-26a6 6 0 0 0-6-6 2 2 0 0 1-2 2h-6a2 2 0 0 1-2-2V2a2 2 0 0 1 2-2zm26 20H56l2 25.98-2.93 50.85A15.14 15.14 0 0 0 61 98a15.14 15.14 0 0 0 5.93-1.17L64 45.98 66 20zm-2.23 3h-4.54L61 46l-2.8 48.67a12.03 12.03 0 0 0 5.6 0L62.45 71h1l1.41 24.42a13 13 0 0 1-7.7 0L60 46l-1.85-24h5.7l-.08 1zm2.83-5l3.61-9.93 1.33-.06L72 8a10 10 0 0 1 9.8 8h2.08A16 16 0 0 0 68 2H53.46A4 4 0 0 1 48 3.46V12a8 8 0 0 1 7.75 6H66.6zM46 14V2h-6v12h6z"></path>
</svg>
