<svg xmlns="http://www.w3.org/2000/svg" width="100" height="100" viewBox="0 0 100 100" class="heroicon-thermometer heroicon heroicons-lg">
    <path class="heroicon-thermometer-reading heroicon-component-fill" fill="#FFFFFF" d="M24 0a4 4 0 0 0-4 4v92a4 4 0 0 0 4 4h52a4 4 0 0 0 4-4V4a4 4 0 0 0-4-4H24z"></path>
    <path class="heroicon-thermometer-tube heroicon-component-fill" fill="#FFFFFF" d="M45 69.28l-.83.6A9.98 9.98 0 0 0 50 88a10 10 0 0 0 5.83-18.12l-.83-.6V17a5 5 0 1 0-10 0v52.28z"></path>
    <path class="heroicon-thermometer-liquid-heroicon-property-accent heroicon-component-fill" fill="#7ACFC0" d="M52 70.58v.68l.62.25a7 7 0 1 1-5.24 0l.62-.25V43a2 2 0 0 1 4 0v27.58z"></path>
    <path class="heroicon-shadows" fill="#000000" d="M57.75 76A8.01 8.01 0 0 1 50 86a8 8 0 0 1-7.75-10 8 8 0 0 0 15.5 0zm4.08 4a12 12 0 1 1-23.67 0 12 12 0 0 0 23.67 0z" opacity=".2"></path>
    <path class="heroicon-outline" fill="#4A4A4A" fill-rule="nonzero" d="M24 0h52a4 4 0 0 1 4 4v92a4 4 0 0 1-4 4H24a4 4 0 0 1-4-4V4a4 4 0 0 1 4-4zm52 2H24a2 2 0 0 0-2 2v92c0 1.1.9 2 2 2h52a2 2 0 0 0 2-2V4a2 2 0 0 0-2-2zM27 8a1 1 0 1 1 0-2 1 1 0 0 1 0 2zm47-1a1 1 0 1 1-2 0 1 1 0 0 1 2 0zM27 94a1 1 0 1 1 0-2 1 1 0 0 1 0 2zm47-1a1 1 0 1 1-2 0 1 1 0 0 1 2 0zM57 68.25A11.98 11.98 0 0 1 50 90a12 12 0 0 1-7-21.75V17a7 7 0 0 1 14 0v51.25zm-12 1.03l-.83.6A9.98 9.98 0 0 0 50 88a10 10 0 0 0 5.83-18.12l-.83-.6V17a5 5 0 1 0-10 0v52.28zm8 1.3a8 8 0 1 1-6 0V43a3 3 0 0 1 6 0v27.58zm-1 0V43a2 2 0 0 0-4 0V71.26l-.62.25a7 7 0 1 0 5.24 0l-.62-.25v-.68zM31 14h8v1h-8v-1zm8 53h-8v-1h8v1zm0-27v1h-8v-1h8zm0 13v1h-4v-1h4zm-4-26h4v1h-4v-1zm34-13v1h-8v-1h8zm0 52v1h-8v-1h8zm0-25h-8v-1h8v1zm-8 12h4v1h-4v-1zm4-26v1h-4v-1h4z"></path>
</svg>
