<svg xmlns="http://www.w3.org/2000/svg" width="100" height="100" viewBox="0 0 100 100" class="heroicon-hourglass heroicon heroicons-lg" fill-rule="nonzero">
    <path class="heroicon-hourglass-frame heroicon-component-accent heroicon-component-fill" fill="#7ACFC0" d="M15 7h-4V1h78v6h-4v86h4v6H11v-6h4V7zm4 0v86h62V7H19z"></path>
    <path class="heroicon-hourglass-glass heroicon-component-fill" fill="#FFFFFF" d="M26 92V78c0-2.79 1.69-6.86 3.66-8.83L48.83 50 29.66 30.83C27.69 28.86 26 24.79 26 22V8h48v14c0 2.79-1.69 6.86-3.66 8.83L51.1 50.07l19.12 17.37C72.25 69.3 74 73.24 74 76v16H26z"></path>
    <path class="heroicon-hourglass-sand heroicon-component-accent heroicon-component-fill" fill="#7ACFC0" d="M71 78.04V92H29v-9.73l4.17-2.4c4.47-2.59 11.85-2.59 16.33 0 5.1 2.94 13.24 2.94 18.33 0L71 78.04zm-3.17-54.17L71 22.04a10.14 10.14 0 0 1-2.54 6.08L50 46.6 31.54 28.12a8.6 8.6 0 0 1-1.59-2.4l3.22-1.85c4.47-2.59 11.85-2.59 16.33 0 5.1 2.94 13.24 2.94 18.33 0z"></path>
    <path class="heroicon-shadows" fill="#000000" d="M26 8h48v4H26V8zM16 8h2v4h-2V8zm66 0h2v4h-2V8z" opacity=".2"></path>
    <path class="heroicon-outline" fill="#4A4A4A" d="M10 4V0h80v8h-4v37c0 .68-.22 1.3-.6 1.8a4 4 0 0 1 0 6.4c.38.5.6 1.12.6 1.8v37h4v8H10v-8h4V55c0-.68.22-1.3.6-1.8a4 4 0 0 1 0-6.4c-.38-.5-.6-1.12-.6-1.8V8h-4V4zm78-2H12v2h76V2zm0 93v-1H12v1h76zm-76 1v2h76v-2H12zM88 6V5H12v1h76zm-4 86V55a1 1 0 1 0-2 0v37h2zm-4 0V55c0-.68.22-1.3.6-1.8a4 4 0 0 1 0-6.4c-.38-.5-.6-1.12-.6-1.8V8h-4v14c0 3.32-1.9 7.9-4.24 10.24L55.42 48.58 54 50l1.41 1.28 16.15 14.68C74.01 68.2 76 72.68 76 76v16h4zm-6 0V76c0-2.75-1.75-6.7-3.78-8.56L51.1 50.07l19.24-19.24A14.66 14.66 0 0 0 74 22V8H26v14c0 2.79 1.69 6.86 3.66 8.83L48.83 50 29.66 69.17A14.66 14.66 0 0 0 26 78V92h2V81.7l4.67-2.7c4.78-2.76 12.54-2.76 17.33 0 4.79 2.76 12.55 2.76 17.33 0L72 76.3V92h2zm-3 0V78.04l-3.17 1.83c-5.1 2.94-13.23 2.94-18.33 0-4.48-2.59-11.86-2.59-16.33 0L29 82.27V92h42zm-47 0V78c0-3.32 1.9-7.9 4.24-10.24L46 50 28.24 32.24C25.9 29.9 24 25.32 24 22.01V8h-4v37c0 .68-.22 1.3-.6 1.8a4 4 0 0 1 0 6.4c.38.5.6 1.12.6 1.8v37h4zm-6 0V55a1 1 0 1 0-2 0v37h2zm-2-47a1 1 0 1 0 2 0V8h-2v37zm66 0a1 1 0 1 0 2 0V8h-2v37zm-65 7a2 2 0 1 0 0-4 2 2 0 0 0 0 4zm64-2a2 2 0 1 0 4 0 2 2 0 0 0-4 0zm-9-29.7V22c0 2.21-1.26 5.27-2.83 6.84L50 48 30.83 28.83a10.34 10.34 0 0 1-2.14-3.53l3.98-2.3c4.78-2.76 12.54-2.76 17.33 0 4.79 2.76 12.55 2.76 17.33 0L72 20.3zm-4.17 3.57c-5.1 2.94-13.23 2.94-18.33 0-4.48-2.59-11.86-2.59-16.33 0l-3.22 1.85a8.6 8.6 0 0 0 1.59 2.4L50 46.6l18.46-18.47A10.14 10.14 0 0 0 71 22.04l-3.17 1.83z"></path>
</svg>
