<svg xmlns="http://www.w3.org/2000/svg" width="100" height="100" viewBox="0 0 100 100" class="heroicon-announcement heroicon heroicons-lg">
    <path class="heroicon-announcement-bowl heroicon-component-fill" fill="#FFFFFF" d="M88 9.98A82.6 82.6 0 0 1 46 26.6v28.78a82.6 82.6 0 0 1 42 16.63V9.98z"></path>
    <path class="heroicon-announcement-front heroicon-component-accent heroicon-component-fill" fill="#7ACFC0" d="M94 36V4a2 2 0 0 0-2-2h-2v78h2a2 2 0 0 0 2-2V46h2a2 2 0 0 0 2-2v-6a2 2 0 0 0-2-2h-2z"></path>
    <polygon class="heroicon-announcement-middle heroicon-component-accent heroicon-component-fill" fill="#7ACFC0" points="11 57 11 25 44 25 44 57 42 57 42 53 18 53 18.4 57"></polygon>
    <path class="heroicon-announcement-handle heroicon-component-accent heroicon-component-fill" fill="#7ACFC0" d="M37.55 71h2.54a2 2 0 0 0 1.86-2.74l-1.77-7.43-.18.03V55H20.21l.98 9.84c.14 1.33.63 2.31 1.37 2.9a2.9 2.9 0 0 0 1.64.6l.13.01c.25.01.52 0 .8-.06l6.05 27.4A3.1 3.1 0 0 0 34 98h4.98c1.01 0 1.65-.72 1.53-1.72L37.55 71z"></path>
    <path class="heroicon-announcement-back heroicon-component-fill" fill="#FFFFFF" d="M3 30H1v22h2v1a3 3 0 0 0 3 3h5V26H6a3 3 0 0 0-3 3v1z"></path>
    <path class="heroicon-shadows" fill="#000000" d="M46 55.4v-14a82.6 82.6 0 0 1 42 16.62v14A82.6 82.6 0 0 0 46 55.4zM26.99 74.72l-1.12-5.58c.33-.1.66-.22 1-.37l9.66-4.4.71 5.7L27 74.72zM10 31v2H8a1 1 0 1 1 0-2h2zm0 6v2H8a1 1 0 1 1 0-2h2zm0 6v2H8a1 1 0 1 1 0-2h2zm0 6v2H8a1 1 0 1 1 0-2h2zm30 8v4H20v-4h-8V41h32v16h-4zm49-16h6v37a3 3 0 0 1-3 3h-3V41z" opacity=".2"></path>
    <path class="heroicon-outline" fill="#4A4A4A" fill-rule="nonzero" d="M88 0h4a4 4 0 0 1 4 4v30a4 4 0 0 1 4 4v6a4 4 0 0 1-4 4v30a4 4 0 0 1-4 4h-4v-7.45A79.62 79.62 0 0 0 46 57.4V59h-4v4l1.8 4.51A4 4 0 0 1 40.1 73h-.48l2.88 23.04A3.44 3.44 0 0 1 39 100h-5a5.09 5.09 0 0 1-4.79-3.93l-5.14-25.73c-2.58-.16-4.55-2.13-4.87-5.3L18.6 59H10v-2H6a4 4 0 0 1-4-4H0V29h2a4 4 0 0 1 4-4h4v-2h36v1.6A79.62 79.62 0 0 0 88 7.46V0zm2 2v78h2a2 2 0 0 0 2-2V4a2 2 0 0 0-2-2h-2zm6 44a2 2 0 0 0 2-2v-6a2 2 0 0 0-2-2v10zM10 27H6a2 2 0 0 0-2 2v24c0 1.1.9 2 2 2h4v-3H8a2 2 0 1 1 0-4h2v-2H8a2 2 0 1 1 0-4h2v-2H8a2 2 0 1 1 0-4h2v-2H8a2 2 0 1 1 0-4h2v-3zm0 4H8a1 1 0 1 0 0 2h2v-2zM88 9.98A82.6 82.6 0 0 1 46 26.6v28.78a82.6 82.6 0 0 1 42 16.63V9.98zm-38 20.7v-1.02a84.98 84.98 0 0 0 34-12.58v1.19a85.96 85.96 0 0 1-34 12.4zM10 37H8a1 1 0 1 0 0 2h2v-2zm0 6H8a1 1 0 1 0 0 2h2v-2zm0 6H8a1 1 0 1 0 0 2h2v-2zm-8 2h1V31H2v20zm10-26v32h2V25h-2zm3 32h3.4l-.4-4h24v4h2V25H15v32zm24.38 14h.71a2 2 0 0 0 1.86-2.74l-1.77-4.43-1.61.73.8 6.44zM24.2 68.35h.13c.64.02 1.36-.13 2.12-.48l9.95-4.52L40 61.7V55H20.21l.98 9.84c.14 1.33.63 2.31 1.37 2.9a2.9 2.9 0 0 0 1.64.6zm6.98 27.33A3.1 3.1 0 0 0 34 98h4.98c1.01 0 1.65-.72 1.53-1.72l-3.99-31.9-9.66 4.4c-.34.15-.67.28-1 .37l5.3 26.53zM23 59a1 1 0 1 1 0-2 1 1 0 0 1 0 2zm15-1a1 1 0 1 1-2 0 1 1 0 0 1 2 0z"></path>
</svg>
