<svg xmlns="http://www.w3.org/2000/svg" width="100" height="100" viewBox="0 0 100 100" class="heroicon-headphones heroicon heroicons-lg">
    <path class="heroicon-headphones-strap heroicon-component-fill" fill="#FFFFFF" d="M50 2a38 38 0 0 1 38 38v13.1a5.02 5.02 0 0 0-2 0V40a36 36 0 1 0-72 0v13.1a5.02 5.02 0 0 0-2 0V40A38 38 0 0 1 50 2zm33.68 59.74a5 5 0 0 0 1.74 1L80 72.12v-4l1.73-3 1.95-3.38zM20 72.12l-5.42-9.38a5 5 0 0 0 1.74-1l1.95 3.38 1.73 3v4z"></path>
    <path class="heroicon-headphones-strap-cushion heroicon-component-accent heroicon-component-fill" fill="#7ACFC0" d="M79.9 23.81a34 34 0 0 0-59.8 0l1.78.9a32 32 0 0 1 56.24 0l1.79-.9z"></path>
    <path class="heroicon-headphones-hinges heroicon-component-accent heroicon-component-fill" fill="#7ACFC0" d="M13 62a4 4 0 1 1 0-8 4 4 0 0 1 0 8zm74 0a4 4 0 1 1 0-8 4 4 0 0 1 0 8z"></path>
    <path class="heroicon-headphones-ear-covers heroicon-component-fill" fill="#FFFFFF" d="M21 93V63h3l4-8h7v1h3a3 3 0 0 1 3 3v36a3 3 0 0 1-3 3h-3v1h-7l-4-6h-3zm58 0h-3l-4 6h-7v-1h-3a3 3 0 0 1-3-3V59a3 3 0 0 1 3-3h3v-1h7l4 8h3v30z"></path>
    <path class="heroicon-headphones-muffs heroicon-component-accent heroicon-component-fill" fill="#7ACFC0" d="M35 56h3a3 3 0 0 1 3 3v36a3 3 0 0 1-3 3h-3V56zm30 0v42h-3a3 3 0 0 1-3-3V59a3 3 0 0 1 3-3h3z"></path>
    <path class="heroicon-shadows" fill="#000000" d="M30 80v-2h11v17a3 3 0 0 1-3 3h-3v1h-6.5L25 94v-1h-4V78h4v-3l5 5zm40 0l5-5v3h4v15h-4v1l-3.5 5H65v-1h-3a3 3 0 0 1-3-3V78h11v2zm9.9-56.19l-1.78.9a32 32 0 0 0-56.24 0l-1.79-.9-.05.1a34 34 0 0 1 59.87-.1z" opacity=".2"></path>
    <path class="heroicon-outline" fill="#4A4A4A" fill-rule="nonzero" d="M90 40v14a5 5 0 0 1-2.4 8.96L80 76.12V94h-4l-3.4 5.1a2 2 0 0 1-1.67.9H65a1 1 0 0 1-1-1h-2a4 4 0 0 1-4-4V59a4 4 0 0 1 4-4h2a1 1 0 0 1 1-1h5.76a2 2 0 0 1 1.8 1.1L76 62h4v2.12L81.23 62l.77-1.34.4-.7A4.98 4.98 0 0 1 84 54V40c0-5.15-1.14-10.03-3.2-14.4l-1.78.9-1.8.89a30 30 0 0 0-54.45 0l-1.79-.9-1.79-.9A33.87 33.87 0 0 0 16 40v14a5 5 0 0 1 1.6 5.97l.4.69.77 1.34L20 64.12V62h4l3.45-6.9a2 2 0 0 1 1.79-1.1H35a1 1 0 0 1 1 1h2a4 4 0 0 1 4 4v36a4 4 0 0 1-4 4h-2a1 1 0 0 1-1 1h-5.93a2 2 0 0 1-1.66-.9L24 94h-4V76.12l-7.6-13.16A5 5 0 0 1 10 54V40a40 40 0 1 1 80 0zM50 2a38 38 0 0 0-38 38v13.1a5.02 5.02 0 0 1 2 0V40a36 36 0 1 1 72 0v13.1a5.02 5.02 0 0 1 2 0V40A38 38 0 0 0 50 2zm33.68 59.74l-1.95 3.38-1.73 3v4l5.42-9.38a5 5 0 0 1-1.74-1zm-3.77-37.93a34 34 0 0 0-59.82 0l1.8.9a32 32 0 0 1 56.23 0l1.79-.9zM30 56h-.76L26 62.47V93.4L29.07 98H30V56zm1 42h3V56h-3v42zM20 72.12v-4l-1.73-3-1.95-3.38a5 5 0 0 1-1.74 1L20 72.12zM36 57v40h2a2 2 0 0 0 2-2V59a2 2 0 0 0-2-2h-2zm-12 7h-2v28h2V64zm38-7a2 2 0 0 0-2 2v36c0 1.1.9 2 2 2h2V57h-2zm4 0v41h3V56h-3v1zm4 41h.93L74 93.4V62.46L70.76 56H70v42zm8-6V64h-2v28h2zM13 61a3 3 0 1 0 0-6 3 3 0 0 0 0 6zm74 0a3 3 0 1 0 0-6 3 3 0 0 0 0 6z"></path>
</svg>
