<svg xmlns="http://www.w3.org/2000/svg" width="100" height="100" viewBox="0 0 100 100" class="heroicon-repair heroicon heroicons-lg">
    <path class="heroicon-repair-bottom heroicon-component-accent heroicon-component-fill" fill="#7ACFC0" d="M32.73 7.27l15.86 15.86-25.46 25.46L7.27 32.73A18 18 0 1 1 32.73 7.27zm18.68 69.6l25.46-25.46 15.86 15.86a18 18 0 1 1-25.46 25.46L51.41 76.87z"></path>
    <path class="heroicon-repair-top heroicon-component-fill" fill="#FFFFFF" d="M65.86 5.86a20 20 0 1 1 28.28 28.28l-60 60A20 20 0 1 1 5.86 65.86l60-60z"></path>
    <polygon class="heroicon-shadows" fill="#000000" points="51.414 76.87 76.87 51.414 78.728 53.272 53.272 78.728" opacity=".2"></polygon>
    <path class="heroicon-outline" fill="#4A4A4A" fill-rule="nonzero" d="M34.14 5.86L50 21.72 65.86 5.86a20 20 0 1 1 28.28 28.28L78.28 50l15.86 15.86a20 20 0 1 1-28.28 28.28L50 78.28 34.14 94.14A20 20 0 1 1 5.86 65.86L21.72 50 5.86 34.14A20 20 0 0 1 34.14 5.86zm-1.41 1.41A18 18 0 0 0 7.27 32.73l15.86 15.86 25.46-25.46L32.73 7.27zm18.68 69.6l15.86 15.86a18 18 0 1 0 25.46-25.46L76.87 51.41 51.41 76.87zM2 80a18 18 0 0 0 30.73 12.73l16.56-16.57L42 68.87l.7-.7 7.3 7.29L75.46 50l-7.3-7.3.71-.7 7.3 7.3 16.56-16.57A18 18 0 1 0 67.27 7.27L50.71 23.84 62 35.13l-.7.7L50 24.55 24.54 50l11.3 11.3-.71.7-11.3-11.3L7.28 67.28A17.93 17.93 0 0 0 2 80zM26 7a1 1 0 1 1-2 0 1 1 0 0 1 2 0zm-13 7a1 1 0 1 1 0-2 1 1 0 0 1 0 2zm-6 6a1 1 0 1 1 0-2 1 1 0 0 1 0 2zm13-7a1 1 0 1 1-2 0 1 1 0 0 1 2 0zm5 7a1 1 0 1 1 0-2 1 1 0 0 1 0 2zm7 5a1 1 0 1 1-2 0 1 1 0 0 1 2 0zm5 7a1 1 0 1 1 0-2 1 1 0 0 1 0 2zm-6-18a1 1 0 1 1 0-2 1 1 0 0 1 0 2zm7 5a1 1 0 1 1-2 0 1 1 0 0 1 2 0zm5 7a1 1 0 1 1 0-2 1 1 0 0 1 0 2zm-29-7a1 1 0 1 1-2 0 1 1 0 0 1 2 0zM13 8a1 1 0 1 1 0-2 1 1 0 0 1 0 2zm-5 5a1 1 0 1 1-2 0 1 1 0 0 1 2 0zm11 13a1 1 0 1 1 0-2 1 1 0 0 1 0 2zm7 5a1 1 0 1 1-2 0 1 1 0 0 1 2 0zm5 7a1 1 0 1 1 0-2 1 1 0 0 1 0 2zM8 25a1 1 0 1 1-2 0 1 1 0 0 1 2 0zm5 7a1 1 0 1 1 0-2 1 1 0 0 1 0 2zm7 5a1 1 0 1 1-2 0 1 1 0 0 1 2 0zm5 7a1 1 0 1 1 0-2 1 1 0 0 1 0 2zm-5-25a1 1 0 1 1-2 0 1 1 0 0 1 2 0zm5 7a1 1 0 1 1 0-2 1 1 0 0 1 0 2zm7 5a1 1 0 1 1-2 0 1 1 0 0 1 2 0zM19 8a1 1 0 1 1 0-2 1 1 0 0 1 0 2zm7 5a1 1 0 1 1-2 0 1 1 0 0 1 2 0zm5 7a1 1 0 1 1 0-2 1 1 0 0 1 0 2zm7 5a1 1 0 1 1-2 0 1 1 0 0 1 2 0zm-25 1a1 1 0 1 1 0-2 1 1 0 0 1 0 2zm7 5a1 1 0 1 1-2 0 1 1 0 0 1 2 0zm5 7a1 1 0 1 1 0-2 1 1 0 0 1 0 2zm62 48a1 1 0 1 1 0 2 1 1 0 0 1 0-2zm5-5a1 1 0 1 1 2 0 1 1 0 0 1-2 0zm-11 5a1 1 0 1 1 0 2 1 1 0 0 1 0-2zm-7-5a1 1 0 1 1 2 0 1 1 0 0 1-2 0zm-5-7a1 1 0 1 1 0 2 1 1 0 0 1 0-2zm-7-5a1 1 0 1 1 2 0 1 1 0 0 1-2 0zm13 23a1 1 0 1 1 0 2 1 1 0 0 1 0-2zm-7-5a1 1 0 1 1 2 0 1 1 0 0 1-2 0zm-5-7a1 1 0 1 1 0 2 1 1 0 0 1 0-2zm-7-5a1 1 0 1 1 2 0 1 1 0 0 1-2 0zm31 5a1 1 0 1 1 0 2 1 1 0 0 1 0-2zm-1 13a1 1 0 1 1 2 0 1 1 0 0 1-2 0zm7-7a1 1 0 1 1 0 2 1 1 0 0 1 0-2zM80 75a1 1 0 1 1 2 0 1 1 0 0 1-2 0zm-5-7a1 1 0 1 1 0 2 1 1 0 0 1 0-2zm-7-5a1 1 0 1 1 2 0 1 1 0 0 1-2 0zm25 11a1 1 0 1 1 0 2 1 1 0 0 1 0-2zm-7-5a1 1 0 1 1 2 0 1 1 0 0 1-2 0zm-5-7a1 1 0 1 1 0 2 1 1 0 0 1 0-2zm-7-5a1 1 0 1 1 2 0 1 1 0 0 1-2 0zm7 23a1 1 0 1 1 0 2 1 1 0 0 1 0-2zm-7-5a1 1 0 1 1 2 0 1 1 0 0 1-2 0zm-5-7a1 1 0 1 1 0 2 1 1 0 0 1 0-2zm11 25a1 1 0 1 1 2 0 1 1 0 0 1-2 0zm-5-7a1 1 0 1 1 0 2 1 1 0 0 1 0-2zm-7-5a1 1 0 1 1 2 0 1 1 0 0 1-2 0zm-5-7a1 1 0 1 1 0 2 1 1 0 0 1 0-2zm23 1a1 1 0 1 1 2 0 1 1 0 0 1-2 0zm-5-7a1 1 0 1 1 0 2 1 1 0 0 1 0-2zm-7-5a1 1 0 1 1 2 0 1 1 0 0 1-2 0zm-29.55-4.78l-.9-.44 10-20 .9.44-10 20zm5-2l-.9-.44 6-12 .9.44-6 12zM67 40.13l-.7.7-2.14-2.12.71-.71L67 40.13zM40.13 67L38 64.87l.7-.7 2.14 2.12-.71.71zM87 14a1 1 0 1 1 0-2 1 1 0 0 1 0 2zM13 86a1 1 0 1 1 0 2 1 1 0 0 1 0-2zM80 7a1 1 0 1 1 2 0 1 1 0 0 1-2 0zM20 93a1 1 0 1 1-2 0 1 1 0 0 1 2 0zm67-73a1 1 0 1 1 0-2 1 1 0 0 1 0 2zM13 80a1 1 0 1 1 0 2 1 1 0 0 1 0-2zm67-55a1 1 0 1 1 2 0 1 1 0 0 1-2 0zM20 75a1 1 0 1 1-2 0 1 1 0 0 1 2 0zm55-43a1 1 0 1 1 0-2 1 1 0 0 1 0 2zM25 68a1 1 0 1 1 0 2 1 1 0 0 1 0-2zm43-31a1 1 0 1 1 2 0 1 1 0 0 1-2 0zM32 63a1 1 0 1 1-2 0 1 1 0 0 1 2 0zm61-37a1 1 0 1 1 0-2 1 1 0 0 1 0 2zM7 74a1 1 0 1 1 0 2 1 1 0 0 1 0-2zm79-43a1 1 0 1 1 2 0 1 1 0 0 1-2 0zM14 69a1 1 0 1 1-2 0 1 1 0 0 1 2 0zm67-31a1 1 0 1 1 0-2 1 1 0 0 1 0 2zM19 62a1 1 0 1 1 0 2 1 1 0 0 1 0-2zm55-19a1 1 0 1 1 2 0 1 1 0 0 1-2 0zM26 57a1 1 0 1 1-2 0 1 1 0 0 1 2 0zm55-43a1 1 0 1 1 0-2 1 1 0 0 1 0 2zM19 86a1 1 0 1 1 0 2 1 1 0 0 1 0-2zm73-73a1 1 0 1 1 2 0 1 1 0 0 1-2 0zM8 87a1 1 0 1 1-2 0 1 1 0 0 1 2 0zM87 8a1 1 0 1 1 0-2 1 1 0 0 1 0 2zM13 92a1 1 0 1 1 0 2 1 1 0 0 1 0-2zm61-73a1 1 0 1 1 2 0 1 1 0 0 1-2 0zM26 81a1 1 0 1 1-2 0 1 1 0 0 1 2 0zm43-55a1 1 0 1 1 0-2 1 1 0 0 1 0 2zM31 74a1 1 0 1 1 0 2 1 1 0 0 1 0-2zm31-43a1 1 0 1 1 2 0 1 1 0 0 1-2 0zM38 69a1 1 0 1 1-2 0 1 1 0 0 1 2 0zM75 8a1 1 0 1 1 0-2 1 1 0 0 1 0 2zM25 92a1 1 0 1 1 0 2 1 1 0 0 1 0-2zm43-79a1 1 0 1 1 2 0 1 1 0 0 1-2 0zM32 87a1 1 0 1 1-2 0 1 1 0 0 1 2 0zm31-67a1 1 0 1 1 0-2 1 1 0 0 1 0 2zM37 80a1 1 0 1 1 0 2 1 1 0 0 1 0-2zm19-55a1 1 0 1 1 2 0 1 1 0 0 1-2 0zM44 75a1 1 0 1 1-2 0 1 1 0 0 1 2 0zm37-55a1 1 0 1 1 0-2 1 1 0 0 1 0 2zM19 80a1 1 0 1 1 0 2 1 1 0 0 1 0-2zm55-55a1 1 0 1 1 2 0 1 1 0 0 1-2 0zM26 75a1 1 0 1 1-2 0 1 1 0 0 1 2 0zm43-43a1 1 0 1 1 0-2 1 1 0 0 1 0 2zM31 68a1 1 0 1 1 0 2 1 1 0 0 1 0-2zm61-49a1 1 0 1 1 2 0 1 1 0 0 1-2 0zM8 81a1 1 0 1 1-2 0 1 1 0 0 1 2 0zm79-55a1 1 0 1 1 0-2 1 1 0 0 1 0 2zM13 74a1 1 0 1 1 0 2 1 1 0 0 1 0-2zm67-43a1 1 0 1 1 2 0 1 1 0 0 1-2 0zM20 69a1 1 0 1 1-2 0 1 1 0 0 1 2 0zm55-31a1 1 0 1 1 0-2 1 1 0 0 1 0 2zM25 62a1 1 0 1 1 0 2 1 1 0 0 1 0-2zm49-49a1 1 0 1 1 2 0 1 1 0 0 1-2 0zM26 87a1 1 0 1 1-2 0 1 1 0 0 1 2 0zm43-67a1 1 0 1 1 0-2 1 1 0 0 1 0 2zM31 80a1 1 0 1 1 0 2 1 1 0 0 1 0-2zm31-55a1 1 0 1 1 2 0 1 1 0 0 1-2 0zM38 75a1 1 0 1 1-2 0 1 1 0 0 1 2 0z"></path>
</svg>
