<svg xmlns="http://www.w3.org/2000/svg" width="100" height="100" viewBox="0 0 100 100" class="heroicon-shredder heroicon heroicons-lg">
    <rect class="heroicon-shredder-body heroicon-component-fill" width="100" height="38" y="35" fill="#FFFFFF"></rect>
    <rect class="heroicon-shredder-top heroicon-component-accent heroicon-component-fill" width="100" height="6" y="35" fill="#7ACFC0"></rect>
    <path class="heroicon-shredder-lights heroicon-component-accent heroicon-component-fill" fill="#7ACFC0" d="M8 47h4v4H8v-4zm6 0h4v4h-4v-4zm6 0h4v4h-4v-4z"></path>
    <path class="heroicon-shredder-page heroicon-component-fill" fill="#FFFFFF" d="M85 37H15V0h50.5A19.5 19.5 0 0 1 85 19.5V37zM27 57h10v43H27V57zm12 0h10v43H39V57zm12 0h10v43H51V57zm12 0h10v43H63V57zm12 0h10v43H75V57zm-60 0h10v43H15V57z"></path>
    <path class="heroicon-shadows" fill="#000000" d="M85 28v4a8 8 0 0 0-8-8H63v-4h14a8 8 0 0 1 8 8zm2 37v6h-2v-8H75v8h-2v-8H63v8h-2v-8H51v8h-2v-8H39v8h-2v-8H27v8h-2v-8H15v8h-2v-6h-1a4 4 0 0 1 0-8h76a4 4 0 0 1 0 8h-1z" opacity=".2"></path>
    <path class="heroicon-outline" fill="#4A4A4A" fill-rule="nonzero" d="M15 0h50a20.03 20.03 0 0 1 20 20v15h15v38H85v27H75V73h-2v27H63V73h-2v27H51V73h-2v27H39V73h-2v27H27V73h-2v27H15V73H0V35h15V0zM2 41v30h13v-6h-3a4 4 0 0 1 0-8h76a4 4 0 0 1 0 8h-3v6h13V41H2zm96-1v-3H2v3h96zM88 63a2 2 0 1 0 0-4h-3v4h3zm-15 8h2v-6h-2v6zM17 35h66V22.7a7.98 7.98 0 0 0-6-2.7H63v-1H25v-1h38v-2H25v-1h38v-2H25v-1h38V2H17v33zm56 24v4h2v-4h-2zM25 71h2v-6h-2v6zm12 0h2v-6h-2v6zm12 0h2v-6h-2v6zm12 0h2v-6h-2v6zm4-53h12c2.25 0 4.33.74 6 2A18 18 0 0 0 65 2v16zM17 98h6V59h-6v39zm22-35v-4h-2v4h2zm24 0v-4h-2v4h2zm-14-4v4h2v-4h-2zm-24 0v4h2v-4h-2zm-13 0a2 2 0 1 0 0 4h3v-4h-3zm23 0h-6v39h6V59zm6 0v39h6V59h-6zm18 0h-6v39h6V59zm6 0v39h6V59h-6zm18 0h-6v39h6V59zM9 47h3v4H8v-4h1zm2 1H9v2h2v-2zm4-1h3v4h-4v-4h1zm2 1h-2v2h2v-2zm3-1h4v4h-4v-4zm1 1v2h2v-2h-2zm53-27v1H25v-1h49zm-19 3v1H25v-1h30zm18 5v1H25v-1h48zm2 3v1H25v-1h50z"></path>
</svg>
