<svg xmlns="http://www.w3.org/2000/svg" width="100" height="100" viewBox="0 0 100 100" class="heroicon-headset heroicon heroicons-lg">
    <path class="heroicon-headset-muffs heroicon-component-accent heroicon-component-fill" fill="#7ACFC0" d="M24 50a4 4 0 0 1 8 0v24a4 4 0 0 1-8 0V50zm44 0a4 4 0 0 1 8 0v24a4 4 0 0 1-8 0V50z"></path>
    <path class="heroicon-headset-hinges heroicon-component-accent heroicon-component-fill" fill="#7ACFC0" d="M8 56h10v12H8V56zm74 0h10v12H82V56z"></path>
    <path class="heroicon-headset-strap-cushion heroicon-component-accent heroicon-component-fill" fill="#7ACFC0" d="M20.1 23.81l1.78.9a32 32 0 0 1 56.24 0l1.79-.9a34 34 0 0 0-59.82 0z"></path>
    <path class="heroicon-headset-microphone heroicon-component-accent heroicon-component-fill" fill="#7ACFC0" d="M44 95a3 3 0 0 0 3 3h6a3 3 0 0 0 0-6h-6a3 3 0 0 0-3 3z"></path>
    <path class="heroicon-headset-strap heroicon-component-fill" fill="#FFFFFF" d="M50 2a38 38 0 0 1 38 38v16h-2V40a36 36 0 1 0-72 0v16h-2V40A38 38 0 0 1 50 2zm-7.9 94H26a14 14 0 0 1-14-14V68h2v14a12 12 0 0 0 12 12h16.1a5.02 5.02 0 0 0 0 2z"></path>
    <path class="heroicon-headset-ear-covers heroicon-component-fill" fill="#FFFFFF" d="M18 52l4-4h2v28h-2l-4-4V52zm64 0v20l-4 4h-2V48h2l4 4z"></path>
    <path class="heroicon-shadows" fill="#000000" d="M69 62h9v1l2-2v11.5L78 74h-3a3 3 0 0 1-6 0V62zm-38 0v12a3 3 0 0 1-6 0h-3l-2-1.5V61l2 2v-1h9zM20.1 23.81a34 34 0 0 1 59.8 0l-1.78.9a32 32 0 0 0-56.24 0l-1.79-.9z" opacity=".2"></path>
    <path class="heroicon-outline" fill="#4A4A4A" fill-rule="nonzero" d="M84 56V40c0-5.15-1.14-10.03-3.2-14.4l-1.78.9-1.8.89a30 30 0 0 0-54.45 0l-1.79-.9-1.79-.9A33.87 33.87 0 0 0 16 40v16h2v-4l4-4h2.54A4 4 0 0 1 32 50v24a4 4 0 0 1-7.46 2H22l-4-4v-4h-2v14a10 10 0 0 0 10 10h17a5 5 0 0 1 4-2h6a5 5 0 0 1 0 10h-6a4.99 4.99 0 0 1-4-2H26a16 16 0 0 1-16-16V68H8V56h2V40a39.82 39.82 0 0 1 4.8-19.02A40 40 0 0 1 90 40v16h2v12H82v4l-4 4h-2.54A4 4 0 0 1 68 74V50a4 4 0 0 1 7.46-2H78l4 4v4h2zM50 2a38 38 0 0 0-38 38v16h2V40a36 36 0 1 1 72 0v16h2V40A38 38 0 0 0 50 2zm-7.9 94a5 5 0 0 1 0-2H26a12 12 0 0 1-12-12V68h-2v14a14 14 0 0 0 14 14h16.1zM18 66v-8h-8v8h8zm64-8v8h8v-8h-8zm-8 16V50a2 2 0 1 0-4 0v24a2 2 0 1 0 4 0zm2 0h1V50h-1v24zm2-23.17v22.34l2-2V52.83l-2-2zM26 74a2 2 0 1 0 4 0V50a2 2 0 1 0-4 0v24zm-2-24h-1v24h1V50zm-4 21.17l2 2V50.83l-2 2v18.34zm.1-47.36l1.78.9a32 32 0 0 1 56.24 0l1.79-.9a34 34 0 0 0-59.82 0zM44 95a3 3 0 0 0 3 3h6a3 3 0 0 0 0-6h-6a3 3 0 0 0-3 3zM13 63a1 1 0 1 1 0-2 1 1 0 0 1 0 2zm75-1a1 1 0 1 1-2 0 1 1 0 0 1 2 0z"></path>
</svg>
