<svg xmlns="http://www.w3.org/2000/svg" width="100" height="100" viewBox="0 0 100 100" class="heroicon-landmark heroicon heroicons-lg">
    <rect class="heroicon-landmark-background heroicon-component-fill" width="96" height="87" x="2" y="12" fill="#FFFFFF"></rect>
    <path class="heroicon-landmark-peak-outer heroicon-component-accent heroicon-component-fill" fill="#7ACFC0" d="M75.98 19L98 33.1V36H2v-2.9L24.02 19H3v-6h30.4L50 2.37 66.6 13H97v6H75.98z"></path>
    <polygon class="heroicon-landmark-peak-inner heroicon-component-fill" fill="#FFFFFF" points="50 8.311 85.452 31 14.548 31"></polygon>
    <polygon class="heroicon-landmark-stairs heroicon-component-fill" fill="#FFFFFF" points="7 87 5 87 5 91 3 91 3 95 1 95 1 99 99 99 99 95 97 95 97 91 95 91 95 87 93 87 93 83 7 83"></polygon>
    <path class="heroicon-landmark-column-base heroicon-component-accent heroicon-component-fill" fill="#7ACFC0" d="M15 73h10v10H15V73zm20 0h10v10H35V73zm20 0h10v10H55V73zm20 0h10v10H75V73zm0-29h10v5H75v-5zm-20 0h10v5H55v-5zm-20 0h10v5H35v-5zm-20 0h10v5H15v-5z"></path>
    <path class="heroicon-landmark-column heroicon-component-fill" fill="#FFFFFF" d="M17 48h6v26h-6V48zm20 0h6v26h-6V48zm20 0h6v26h-6V48zm20 0h6v26h-6V48z"></path>
    <path class="heroicon-shadows" fill="#000000" d="M4 38h92v2H4v-2zm81.45-7h-3.12L50 10.31 17.67 31h-3.12L50 8.31 85.45 31zM20.31 19l-3.12 2H4v-2h16.31zm59.38 0H96v2H82.81l-3.12-2zM15 44h10v6h-2v1h-6v-1h-2v-6zm20 0h10v6h-2v1h-6v-1h-2v-6zm20 0h10v6h-2v1h-6v-1h-2v-6zm20 0h10v6h-2v1h-6v-1h-2v-6z" opacity=".2"></path>
    <path class="heroicon-outline" fill="#4A4A4A" fill-rule="nonzero" d="M98 38v56h2v6H0v-6h2V38H0v-6l2-1.28V12h29.25L50 0l18.75 12H98v18.72l2 1.28v6h-2zM50 2.37L2 33.1V36h96v-2.9L50 2.36zM96 40v-2H4v2h92zM4 41v1h92v-1H4zm87 3h-4v4h-2v2h-1v22h2v10h5V44zm1 0v38h1V44h-1zm2 38v4h2V44h-2v38zM8 44H7v38h1V44zm1 38h5V72h2V50h-1v-2h-2v-4H9v38zM4 44v42h2V44H4zm14 6v23h2v-8h1v8h1V49h-2v10h-1V49h-1v1zm7 0h-1v22h2v10h8V72h2V50h-1v-2h-2v-4h-6v4h-2v2zm13-1v24h2v-8h1v8h1V49h-2v10h-1V49h-1zm7 0v1h-1v22h2v10h8V72h2V50h-1v-2h-2v-4h-6v4h-2v1zm13 1v23h2v-8h1v8h1V49h-2v10h-1V49h-1v1zm7 0h-1v22h2v10h8V72h2V50h-1v-2h-2v-4h-6v4h-2v2zm13-1v24h2v-8h1v8h1V49h-2v10h-1V49h-1zm5-1v-1h-6v1h6zm1 34v-1h-8v1h8zm-8-2h8v-6h-8v6zm1-34h8v-2H75v2h2zm-3 38H8v2h84v-2H74zM63 47h-6v1h6v-1zm1 34h-8v1h8v-1zm-8-7v6h8v-6h-8zm7-28h2v-2H55v2h8zm-20 2v-1h-6v1h6zm1 34v-1h-8v1h8zm-8-2h8v-6h-8v6zm1-34h8v-2H35v2h2zm-14 1h-6v1h6v-1zm1 34h-8v1h8v-1zm-8-7v6h8v-6h-8zm7-28h2v-2H15v2h8zM4 94h92v-2H4v2zm2-4h88v-2H6v2zm-4 8h96v-2H2v2zm94-79H79.69L96 29.44V19zm0-5H71.87l6.25 4H96v-4zm-74.13 4l6.25-4H4v4h17.88zM4 29.44L20.31 19H4v10.44zM12.99 32h-1.86l1.56-1L50 7.12 87.3 31l1.57 1H12.99zM50 8.31L14.55 31h70.9L50 8.31z"></path>
</svg>
