<svg xmlns="http://www.w3.org/2000/svg" width="100" height="100" viewBox="0 0 100 100" class="heroicon-api heroicon heroicons-lg">
    <polygon class="heroicon-api-block-sides heroicon-component-fill" fill="#FFFFFF" points="50 0 25 13 25 43.52 1 56 1 87 26 100 50 87.52 74 100 99 87 99 86 99 57 99 56 75 43.52 75 13"></polygon>
    <polygon class="heroicon-api-block-top-bottom-right heroicon-component-accent heroicon-component-fill" fill="#7ACFC0" points="74 45.254 94.665 56 74 66.746 53.335 56"></polygon>
    <polygon class="heroicon-api-block-top-bottom-left heroicon-component-accent heroicon-component-fill" fill="#7ACFC0" points="46.665 56 26 45.254 5.335 56 26 66.746"></polygon>
    <polygon class="heroicon-api-block-top-top heroicon-component-accent heroicon-component-fill" fill="#7ACFC0" points="70.665 13 50 2.254 29.335 13 50 23.746"></polygon>
    <path class="heroicon-shadows" fill="#000000" d="M97 57.21V85.8L75 97.23V68.48l21.83-11.35.17.08zM49 85.8L27 97.23V68.48l21.83-11.35.17.08V85.8zm24-42.27L51 54.96V25.48l21.83-11.35.17.08v29.31z" opacity=".2"></path>
    <path class="heroicon-outline" fill="#4A4A4A" fill-rule="nonzero" d="M50 0l25 13v30.52L99 56v31l-25 13-24-12.48L26 100 1 87V56l24-12.48V13L50 0zm47 57.21l-.17-.08L75 68.48v28.75l22-11.44V57.2zm-45.83-.08l-.17.08V85.8l22 11.44V68.48L51.17 57.13zM74 45.25L53.34 56 74 66.75 94.66 56 74 45.25zM49 85.8V57.2l-.17-.08L27 68.48v28.75l22-11.44zM25 97.23V68.48L3.17 57.13 3 57.2V85.8l22 11.44zm48-53.71v-29.3l-.17-.1L51 25.49v29.48l22-11.44zM49 25.48L27.17 14.13l-.17.08v29.31l22 11.44V25.48zM46.66 56L26 45.25 5.34 56 26 66.75 46.66 56zm24-43L50 2.25 29.34 13 50 23.75 70.66 13zm-5.58 41.76L64 54.2 74 49l5 2.6-1.08.56L74 50.13l-8.92 4.63zM26 50.13l-8.92 4.63L16 54.2 26 49l5 2.6-1.08.56L26 50.13zm15.08-38.37L40 11.2 50 6l5 2.6-1.08.56L50 7.13l-8.92 4.63z"></path>
</svg>
