<svg xmlns="http://www.w3.org/2000/svg" width="100" height="100" viewBox="0 0 100 100" class="heroicon-ticket heroicon heroicons-lg">
    <path class="heroicon-ticket-outer heroicon-component-accent heroicon-component-fill" fill="#7ACFC0" d="M98 70.76a3 3 0 0 0-.15 4.33A4 4 0 0 1 94 78H5.99a4 4 0 0 1-3.84-2.9A2.99 2.99 0 0 0 2 70.75v-.52a3 3 0 0 0 0-4.48v-.52a3 3 0 0 0 0-4.48v-1.01a11.99 11.99 0 0 0 0-19.5v-1.01a3 3 0 0 0 0-4.48v-.52a3 3 0 0 0 0-4.48v-.52a3 3 0 0 0 .15-4.33A4 4 0 0 1 6 22h88.02a4 4 0 0 1 3.84 2.9 2.99 2.99 0 0 0 .15 4.34v.52a3 3 0 0 0 0 4.48v.52a3 3 0 0 0 0 4.48v1.01a11.99 11.99 0 0 0 0 19.5v1.01a3 3 0 0 0 0 4.48v.52a3 3 0 0 0 0 4.48v.52z"></path>
    <polygon class="heroicon-ticket-inner heroicon-component-fill" fill="#FFFFFF" points="12 26 11 26 11 27 11 73 11 74 12 74 88 74 89 74 89 73 89 27 89 26 88 26"></polygon>
    <polygon class="heroicon-ticket-star heroicon-component-accent heroicon-component-fill" fill="#7ACFC0" points="50 58 40.595 62.944 42.392 52.472 34.783 45.056 45.298 43.528 50 34 54.702 43.528 65.217 45.056 57.608 52.472 59.405 62.944"></polygon>
    <path class="heroicon-outline" fill="#4A4A4A" fill-rule="nonzero" d="M100 74a5.99 5.99 0 0 1-6 6H6a6 6 0 0 1-6-6 1 1 0 1 0 0-2v-3a1 1 0 1 0 0-2v-3a1 1 0 1 0 0-2v-3.34a10 10 0 0 0 0-17.32V38a1 1 0 1 0 0-2v-3a1 1 0 1 0 0-2v-3a1 1 0 0 0 0-2 6 6 0 0 1 6-6h88a6 6 0 0 1 6 6 1 1 0 1 0 0 2v3a1 1 0 1 0 0 2v3a1 1 0 1 0 0 2v3.34a10 10 0 0 0 0 17.32V62a1 1 0 1 0 0 2v3a1 1 0 1 0 0 2v3a1 1 0 1 0 0 2zm-2-3.24v-.52a3 3 0 0 1 0-4.48v-.52a3 3 0 0 1 0-4.48v-1.01a11.99 11.99 0 0 1 0-19.5v-1.01a3 3 0 0 1 0-4.48v-.52a3 3 0 0 1 0-4.48v-.52a3 3 0 0 1-.15-4.33A4 4 0 0 0 94 22H5.99a4 4 0 0 0-3.84 2.9A2.99 2.99 0 0 1 2 29.25v.52a3 3 0 0 1 0 4.48v.52a3 3 0 0 1 0 4.48v1.01a11.99 11.99 0 0 1 0 19.5v1.01a3 3 0 0 1 0 4.48v.52a3 3 0 0 1 0 4.48v.52a3 3 0 0 1 .15 4.33A4 4 0 0 0 6 78h88.02a4 4 0 0 0 3.84-2.9 2.99 2.99 0 0 1 .15-4.34zM12 26h77v48H11V26h1zm76 1H12v46h76V27zm-74 1h73v44H13V28h1zm0 1v42h11V29H14zm12 0v42h48V29H26zm60 42V29H75v42h11zM50 58l-9.4 4.94 1.8-10.47-7.62-7.41 10.52-1.53L50 34l4.7 9.53 10.52 1.53-7.61 7.41 1.8 10.47L50 58zm0-1.13l8.08 4.25-1.55-9 6.54-6.37-9.03-1.3L50 36.25l-4.04 8.18-9.03 1.31 6.54 6.37-1.55 9L50 56.87z"></path>
</svg>
