<svg xmlns="http://www.w3.org/2000/svg" width="100" height="100" viewBox="0 0 100 100" class="heroicon-devices heroicon heroicons-lg">
    <path class="heroicon-devices-tablet-edge-outer heroicon-component-accent heroicon-component-fill" fill="#7ACFC0" d="M6 2h68a4 4 0 0 1 4 4v22h-1V6a3 3 0 0 0-3-3H6a3 3 0 0 0-3 3v88a3 3 0 0 0 3 3h52.8c.21.36.45.7.73 1H6a4 4 0 0 1-4-4V6a4 4 0 0 1 4-4z"></path>
    <path class="heroicon-devices-tablet-edge-inner heroicon-component-accent heroicon-component-fill" fill="#7ACFC0" d="M58.34 96a5.99 5.99 0 0 1-.34-2v-5H7V11h66v17h3V6a2 2 0 0 0-2-2H6a2 2 0 0 0-2 2v88c0 1.1.9 2 2 2h52.34z"></path>
    <path class="heroicon-devices-tablet-screen heroicon-component-fill" fill="#FFFFFF" d="M72 28V12H8v76h50V34a6 6 0 0 1 6-6h8z"></path>
    <path class="heroicon-devices-tablet-button heroicon-component-fill" fill="#FFFFFF" d="M43.5 92h-7a.5.5 0 0 0 0 1h7a.5.5 0 0 0 0-1z"></path>
    <path class="heroicon-devices-phone-edge-outer heroicon-component-accent heroicon-component-fill" fill="#7ACFC0" d="M64 30h30a4 4 0 0 1 4 4v60a4 4 0 0 1-4 4H64a4 4 0 0 1-4-4V34a4 4 0 0 1 4-4z"></path>
    <path class="heroicon-devices-phone-edge-inner heroicon-component-accent heroicon-component-fill" fill="#7ACFC0" d="M94 32H64a2 2 0 0 0-2 2v60c0 1.1.9 2 2 2h30a2 2 0 0 0 2-2V34a2 2 0 0 0-2-2z"></path>
    <polygon class="heroicon-devices-phone-screen heroicon-component-fill" fill="#FFFFFF" points="64 40 94 40 94 88 64 88"></polygon>
    <path class="heroicon-devices-phone-button heroicon-component-fill" fill="#FFFFFF" d="M75.5 92h7a.5.5 0 0 1 0 1h-7a.5.5 0 0 1 0-1z"></path>
    <path class="heroicon-shadows" fill="#000000" d="M64 28h-5a6 6 0 0 0-6 6v66h11v-.08A6 6 0 0 1 59 94V34a6 6 0 0 1 5-5.92V28z" opacity=".2"></path>
    <path class="heroicon-outline" fill="#4A4A4A" fill-rule="nonzero" d="M64 100H6a6 6 0 0 1-6-6V6a6 6 0 0 1 6-6h68a6 6 0 0 1 6 6v22h14a6 6 0 0 1 6 6v60a6 6 0 0 1-6 6H64zM6 2a4 4 0 0 0-4 4v88a4 4 0 0 0 4 4h53.53c-.28-.3-.52-.64-.73-1H6a3 3 0 0 1-3-3V6a3 3 0 0 1 3-3h68a3 3 0 0 1 3 3v22h1V6a4 4 0 0 0-4-4H6zm52.34 94a5.99 5.99 0 0 1-.34-2v-5H7V11h66v17h3V6a2 2 0 0 0-2-2H6a2 2 0 0 0-2 2v88c0 1.1.9 2 2 2h52.34zM72 28V12H8v76h50V34a6 6 0 0 1 6-6h8zm-8 2a4 4 0 0 0-4 4v60a4 4 0 0 0 4 4h30a4 4 0 0 0 4-4V34a4 4 0 0 0-4-4H64zm0 1h30a3 3 0 0 1 3 3v60a3 3 0 0 1-3 3H64a3 3 0 0 1-3-3V34a3 3 0 0 1 3-3zm30 1H64a2 2 0 0 0-2 2v60c0 1.1.9 2 2 2h30a2 2 0 0 0 2-2V34a2 2 0 0 0-2-2zm-31 7h32v50H63V39zm1 1v48h30V40H64zM37 7h6v1h-6V7zm-.5 84h7a1.5 1.5 0 0 1 0 3h-7a1.5 1.5 0 0 1 0-3zm7 1h-7a.5.5 0 0 0 0 1h7a.5.5 0 0 0 0-1zm.95-54.78l-10 20-.9-.44 10-20 .9.44zm1 6l-6 12-.9-.44 6-12 .9.44zm27.1 28.56l10-20 .9.44-10 20-.9-.44zm5.9-1.56l-.9-.44 6-12 .9.44-6 12zM74 92.5c0-.83.67-1.5 1.5-1.5h7a1.5 1.5 0 0 1 0 3h-7a1.5 1.5 0 0 1-1.5-1.5zm1.5-.5a.5.5 0 0 0 0 1h7a.5.5 0 0 0 0-1h-7zM82 35v1h-6v-1h6z"></path>
</svg>
