<svg xmlns="http://www.w3.org/2000/svg" width="100" height="100" viewBox="0 0 100 100" class="heroicon-male2 heroicon heroicons-lg">
    <path class="heroicon-male2-top heroicon-component-accent heroicon-component-fill" fill="#7ACFC0" d="M40 69L15.37 81.31C12.4 82.81 10 86.7 10 90.01V100h80V90c0-3.32-2.4-7.2-5.37-8.69L60 69v2L50 81 40 71v-2z"></path>
    <path class="heroicon-male2-collar heroicon-component-accent heroicon-component-fill" fill="#7ACFC0" d="M51.41 79.59L59 72v13c0 2.43-.82 2.77-2.53 1.05L50.7 80.3l.7-.7zm-2.82 0l.7.7-5.76 5.76C41.82 87.77 41 87.43 41 85V72l7.59 7.59z"></path>
    <path class="heroicon-male2-face heroicon-component-fill" fill="#FFFFFF" d="M74 34v-8a6 6 0 0 0-6-6H26v14a5 5 0 0 0 0 10 24 24 0 0 0 14 21.82V71l10 10 10-10v-5.18A24 24 0 0 0 74 44a5 5 0 0 0 0-10z"></path>
    <path class="heroicon-male2-hair heroicon-component-fill" fill="#FFFFFF" d="M26 17.75c.64.16 1.3.25 2 .25h40a6 6 0 0 1 6 6v10c.71 0 1.39.15 2 .42V12a6 6 0 0 0-6-6h-1l-.6-.8A7.98 7.98 0 0 0 62 2H28a8 8 0 0 0-4 14.93v17.49a4.98 4.98 0 0 1 2-.42V17.75z"></path>
    <path class="heroicon-male2-tongue heroicon-component-fill" fill="#FFFFFF" d="M50 58a8.96 8.96 0 0 1-4.99-1.5A8.53 8.53 0 0 1 50 55c1.9-.02 3.56.52 4.99 1.5A8.96 8.96 0 0 1 50 58z"></path>
    <path class="heroicon-male2-mouth heroicon-component-fill" fill="#FFFFFF" d="M50 54c-2.17 0-4.18.7-5.82 1.87A9.04 9.04 0 0 1 41.94 53h16.12a9.04 9.04 0 0 1-2.24 2.87A9.95 9.95 0 0 0 50 54z"></path>
    <path class="heroicon-male2-teeth heroicon-component-fill" fill="#FFFFFF" d="M58.49 52H41.5a8.94 8.94 0 0 1-.29-1h17.56c-.08.34-.18.67-.3 1z"></path>
    <path class="heroicon-shadows" fill="#000000" d="M40 65.82V69l-8.74 4.37A33.84 33.84 0 0 0 50 79c6.93 0 13.37-2.07 18.74-5.63L60 69v-3.18A23.91 23.91 0 0 1 50 68c-3.57 0-6.96-.78-10-2.18zM23 19h47l2 3H23v-3z" opacity=".2"></path>
    <path class="heroicon-outline" fill="#4A4A4A" d="M74 44a24 24 0 0 1-14 21.82V69l24.63 12.31c2.96 1.49 5.37 5.37 5.37 8.7V100H10V90c0-3.31 2.4-7.2 5.37-8.69L40 69v-3.18A24 24 0 0 1 26 44a5 5 0 0 1-4-8V18a9.98 9.98 0 0 1 6-18h34a9.98 9.98 0 0 1 8 4 8 8 0 0 1 8 8v24a5 5 0 0 1-4 8zM68.4 5.2A7.98 7.98 0 0 0 62 2H28a8 8 0 1 0 0 16h40a6 6 0 0 1 6 6v10c.71 0 1.39.15 2 .42V12a6 6 0 0 0-6-6h-1l-.6-.8zM72 34.42V24a4 4 0 0 0-4-4H28v24a22 22 0 1 0 44 0v-9.58zM80 98h8v-8a8.65 8.65 0 0 0-4.27-6.9L60 71.24V85c0 3.32-1.9 4.1-4.24 1.76L50 81l-5.76 5.76C41.9 89.1 40 88.32 40 85V71.24L16.27 83.1A8.65 8.65 0 0 0 12 90v8h8v-6h1v6h58v-6h1v6zM24 34.42a4.98 4.98 0 0 1 2-.42V19.8a9.92 9.92 0 0 1-2-.63v15.25zM23 39a3 3 0 0 0 3 3v-6a3 3 0 0 0-3 3zm19 31.17l8 8 8-8v-3.54a23.96 23.96 0 0 1-16 0v3.54zm9.41 9.42l-.7.7 5.76 5.76C58.18 87.77 59 87.43 59 85V72l-7.59 7.59zm-2.82 0L41 72v13c0 2.43.82 2.77 2.53 1.05l5.76-5.76-.7-.7zM77 39a3 3 0 0 0-3-3v6a3 3 0 0 0 3-3zM32 4h24v1H32V4zm34 11v1H54v-1h12zM43 36a2 2 0 1 1-4 0 2 2 0 0 1 4 0zm-9.16-3.58A8 8 0 0 1 41 28v1a7 7 0 0 0-6.26 3.87l-.9-.45zm32.32 0l-.9.45A7 7 0 0 0 59 29v-1a8 8 0 0 1 7.16 4.42zM61 36a2 2 0 1 1-4 0 2 2 0 0 1 4 0zm-14.54 7.54l.71-.71a3.99 3.99 0 0 0 5.66 0l.7.7a4.98 4.98 0 0 1-7.07 0zM43.4 56.5a10 10 0 0 1-3.34-6.5h19.9a10 10 0 0 1-3.34 6.5A10.05 10.05 0 0 1 50 59c-2.17 0-4.18-.7-5.82-1.87l-.05-.03c-.26-.19-.5-.39-.74-.6zM50 58c1.84 0 3.56-.56 4.99-1.5A8.53 8.53 0 0 0 50 55a8.53 8.53 0 0 0-4.99 1.5A8.96 8.96 0 0 0 50 58zm0-4c2.17 0 4.18.7 5.82 1.87A9.04 9.04 0 0 0 58.06 53H41.94a9.04 9.04 0 0 0 2.24 2.87A9.95 9.95 0 0 1 50 54zm8.49-2c.11-.33.21-.66.29-1H41.22c.08.34.18.67.3 1h16.97zM50 89a1 1 0 1 1 0-2 1 1 0 0 1 0 2zm1 5a1 1 0 1 1-2 0 1 1 0 0 1 2 0z"></path>
</svg>
