<svg xmlns="http://www.w3.org/2000/svg" width="100" height="100" viewBox="0 0 100 100" class="heroicon-stethoscope heroicon heroicons-lg">
    <path class="heroicon-stethoscope-eartips heroicon-component-accent heroicon-component-fill" fill="#7ACFC0" d="M40 1h3.99A4 4 0 0 1 48 5v25h-6V7h-2v1h-4a4 4 0 0 1 0-8h4v1zM8 1H4.01A4 4 0 0 0 0 5v25h6V7h2v1h4a4 4 0 0 0 0-8H8v1z"></path>
    <circle class="heroicon-stethoscope-chestpiece heroicon-component-accent heroicon-component-fill" cx="92" cy="50" r="8" fill="#7ACFC0"></circle>
    <path class="heroicon-stethoscope-tube heroicon-component-fill" fill="#FFFFFF" d="M2 38v-8h2v8a20 20 0 1 0 40 0v-8h2v8a22 22 0 0 1-19.25 21.83l-1.75.22V80a16 16 0 0 0 32 0V20a18 18 0 0 1 36 0v22.06a8.09 8.09 0 0 0-2 0V20a16 16 0 0 0-32 0v60a18 18 0 0 1-36 0V60.05l-1.75-.22A22 22 0 0 1 2 38z"></path>
    <path class="heroicon-outline" fill="#4A4A4A" fill-rule="nonzero" d="M40 7v1h-4a4 4 0 1 1 0-8h4v1h4a4 4 0 0 1 4 4v33a24 24 0 0 1-21 23.81V80a14 14 0 1 0 28 0V20a20 20 0 1 1 40 0v22.58a8 8 0 1 1-6 0V20a14 14 0 1 0-28 0v60a20 20 0 1 1-40 0V61.81A24 24 0 0 1 0 38V5a4 4 0 0 1 4-4h4V0h4a4 4 0 1 1 0 8H8V7H6v31a18 18 0 0 0 36 0V7h-2zM4 5h4V3H4a2 2 0 0 0-2 2v24h2V5zM2 38a22 22 0 0 0 19.25 21.83l1.75.22V80a18 18 0 0 0 36 0V20a16 16 0 0 1 32 0v22.06a8.09 8.09 0 0 1 2 0V20a18 18 0 0 0-36 0v60a16 16 0 0 1-32 0V60.05l1.75-.22A22 22 0 0 0 46 38v-8h-2v8a20 20 0 1 1-40 0v-8H2v8zm44-9V5a2 2 0 0 0-2-2h-4v2h4v24h2zM38 6V2h-2a2 2 0 1 0 0 4h2zM12 6a2 2 0 1 0 0-4h-2v4h2zm86 44a6 6 0 1 0-12 0 6 6 0 0 0 12 0zm-2 0a4 4 0 1 1-8 0 4 4 0 0 1 8 0zm-4 3a3 3 0 1 0 0-6 3 3 0 0 0 0 6zm1-3a1 1 0 1 1-2 0 1 1 0 0 1 2 0z"></path>
</svg>
