<svg xmlns="http://www.w3.org/2000/svg" width="100" height="100" viewBox="0 0 100 100" class="heroicon-envelope-open heroicon heroicons-lg">
    <path class="heroicon-envelope-open-body heroicon-component-fill" fill="#FFFFFF" d="M52.5 2a4 4 0 0 0-5 0L0 40v56a3.98 3.98 0 0 0 4 4h92a3.97 3.97 0 0 0 3.46-2c.35-.6.54-1.27.54-2V40L52.5 2z"></path>
    <polygon class="heroicon-envelope-open-document heroicon-component-fill" fill="#FFFFFF" points="21 15 79 15 79 57 63 70 37 70 21 57"></polygon>
    <path class="heroicon-envelope-open-sides-heroicon-property-accent heroicon-component-accent heroicon-component-fill" fill="#7ACFC0" d="M6 94l-5 4V41l5 4v49zm88 0V45l5-4v57l-5-4z"></path>
    <polygon class="heroicon-shadows" fill="#000000" points="3 41 37 63 63 63 97 41 98 41 63 70 37 70 2 41" opacity=".2"></polygon>
    <path class="heroicon-outline" fill="#4A4A4A" fill-rule="nonzero" d="M67.5 14H80v10l20 16v56a3.95 3.95 0 0 1-1.65 3.23c-.66.48-1.47.77-2.35.77H4a4.06 4.06 0 0 1-3.46-2A3.98 3.98 0 0 1 0 96V40l20-16V14h12.5l15-12a4 4 0 0 1 5 0l15 12zM96 98a2.02 2.02 0 0 0 .66-.11l-3.61-2.9H93v-.03L63.05 71h-26.1L7 94.96V95h-.05l-3.6 2.89a2 2 0 0 0 .65.1h92zM2.03 96.37L6 93.2V45.93L2 42.6V96c0 .12.01.24.03.35v.02zM7 92.4l27.94-22.35L7 46.77V92.4zM36.8 69h26.4l2.4-2H34.4l2.4 2zm28.26 1.05L93 92.4V46.77L65.06 70.05zM94 93.2l3.97 3.17c.02-.12.03-.25.03-.37V42.6l-4 3.33V93.2zM96.8 40L80 26.56V40h16.8zM80 41v14l16.8-14H80zM3.2 41L20 55V41H3.2zM20 40V26.56L3.2 40H20zm58 16.66V16H22v40.66L29.6 63H68v1H30.8l2.4 2h33.6L78 56.66zM64.3 14L51.25 3.56a2 2 0 0 0-2.5 0L35.7 14h28.6zM28 26h44v1H28v-1zm0 3h42v1H28v-1zm0 3h41v1H28v-1zm0 3h43v1H28v-1zm0 3h24v1H28v-1zm0 5h42v1H28v-1zm0 4v-1h44v1H28zm0 2h43v1H28v-1zm0 3h34v1H28v-1zm44 5v1H28v-1h44zm-44 3h40v1H28v-1z"></path>
</svg>
