<svg xmlns="http://www.w3.org/2000/svg" width="100" height="100" viewBox="0 0 100 100" class="heroicon-bell heroicon heroicons-lg">
    <path class="heroicon-bell-bowl heroicon-component-fill" fill="#FFFFFF" d="M86 79c.57.76 1.24 1.43 2 2H12a9.97 9.97 0 0 0 4-8V42a34 34 0 1 1 68 0v31c0 1.83.49 3.53 1.34 5l.66 1z"></path>
    <path class="heroicon-bell-lip heroicon-component-accent heroicon-component-fill" fill="#7ACFC0" d="M6 83h92v3a3 3 0 0 1-3 3H5a3 3 0 0 1-3-3v-3h4z"></path>
    <path class="heroicon-bell-top heroicon-component-accent heroicon-component-fill" fill="#7ACFC0" d="M46 6.22a36.4 36.4 0 0 1 8 0V6a4 4 0 1 0-8 .22z"></path>
    <path class="heroicon-bell-clapper heroicon-component-accent heroicon-component-fill" fill="#7ACFC0" d="M43 91a7 7 0 1 0 14 0H43z"></path>
    <path class="heroicon-shadows" fill="#000000" d="M55.75 95h-11.5A6.97 6.97 0 0 1 43 91h14c0 1.49-.46 2.87-1.25 4z" opacity=".2"></path>
    <path class="heroicon-outline" fill="#4A4A4A" fill-rule="nonzero" d="M44.02 6.5a6 6 0 1 1 11.96 0A36 36 0 0 1 86 42v31a8 8 0 0 0 8 8h6v5a5 5 0 0 1-5 5H59a9 9 0 1 1-18 0H5a5 5 0 0 1-5-5v-5h6a8 8 0 0 0 8-8V42A36 36 0 0 1 44.02 6.5zM86 79H57v-1h28.34A9.93 9.93 0 0 1 84 73V42a34 34 0 1 0-68 0v31a9.97 9.97 0 0 1-4 8h76a10.06 10.06 0 0 1-2-2zM6 83H2v3a3 3 0 0 0 3 3h90a3 3 0 0 0 3-3v-3H6zM46 6.22a36.4 36.4 0 0 1 8 0V6a4 4 0 1 0-8 .22zM43 91a7 7 0 1 0 14 0H43zm7-77v1a27 27 0 0 0-23.83 14.3l-.88-.48A28 28 0 0 1 50 14zM22.94 34.78c.29-1.09.64-2.15 1.06-3.18l.92.37c-.4 1-.74 2.02-1.01 3.07l-.97-.26zm-.7 3.52l1 .13A27.25 27.25 0 0 0 23 42v12h-1V42c0-1.25.08-2.49.24-3.7z"></path>
</svg>
