<svg xmlns="http://www.w3.org/2000/svg" width="100" height="100" viewBox="0 0 100 100" class="heroicon-map heroicon heroicons-lg">
    <polygon class="heroicon-map-outer heroicon-component-accent heroicon-component-fill" fill="#7ACFC0" points="0 29 25 19 50 29 75 19 100 29 100 93 75 83 50 93 25 83 0 93"></polygon>
    <polygon class="heroicon-map-inner heroicon-component-fill" fill="#FFFFFF" points="5 33 25 25 50 35 75 25 95 33 95 85 75 77 50 87 25 77 5 85"></polygon>
    <path class="heroicon-map-pin heroicon-component-accent heroicon-component-fill" fill="#7ACFC0" d="M50.82 50.15L50 51.41a221.2 221.2 0 0 1-6.27-10.1 107.93 107.93 0 0 1-5.4-10.39C36.83 27.52 36 24.75 36 23a14 14 0 1 1 28 0c0 1.75-.84 4.52-2.33 7.92a107.93 107.93 0 0 1-5.4 10.39 209.62 209.62 0 0 1-5.45 8.84zM53 23a3 3 0 1 0-6 0 3 3 0 0 0 6 0z"></path>
    <path class="heroicon-shadows" fill="#000000" d="M50 61S34 37.84 34 29c0-1.15.12-2.27.35-3.35C36.7 35.75 50 55 50 55s3.33-4.81 6.94-10.89C61.26 36.86 66 27.81 66 23v-.4l9-3.6v64L50 93V61zM0 29l25-10v64L0 93V29z" opacity=".2"></path>
    <path class="heroicon-outline" fill="#4A4A4A" fill-rule="nonzero" d="M34 22.6v.01a16 16 0 0 1 32 0L75 19l25 10v64L75 83 50 93 25 83 0 93V29l25-10 9 3.6zm1.96 7.86L26 26.48V50.4l23 9.2v-6.08l-.2-.3c-2.75-4.13-9.49-14.6-12.84-22.76zm-.5-1.27c-.6-1.59-1.05-3.07-1.28-4.36L26 21.55v3.85l9.46 3.78v.01zm29.08 0L74 25.4v-3.85l-8.18 3.28c-.23 1.29-.68 2.77-1.28 4.35zM76 25.4L95 33v25l3 1.2V30.35l-22-8.8v3.85zM95 60v25l-19-7.6v3.85l22 8.8V61.2L95 60zM74 77.4l-23 9.2v3.85l23-9.2V77.4zm-25 9.2l-23-9.2v3.85l23 9.2V86.6zm-25-9.2L5 85V60l-3 1.2v28.85l22-8.8V77.4zM5 58V33l19-7.6v-3.85l-22 8.8V59.2L5 58zm19-31.52l-18 7.2V57.6l18-7.2V26.48zM6 59.6v23.92l18-7.2V52.4L6 59.6zm20 16.72l23 9.2V61.6l-23-9.2v23.92zm25 9.2l23-9.2V52.4l-23 9.2v23.92zm25-9.2l18 7.2V59.6l-18-7.2v23.92zM94 57.6V33.68l-18-7.2V50.4l18 7.2zM74 26.48l-9.96 3.98c-3.35 8.16-10.1 18.63-12.84 22.76l-.21.32.01-.02v6.08l23-9.2V26.48zM50.82 50.15c1.5-2.3 3.47-5.42 5.45-8.84s3.93-7.04 5.4-10.39C63.17 27.52 64 24.75 64 23a14 14 0 1 0-28 0c0 1.75.84 4.52 2.33 7.92 1.47 3.35 3.42 6.97 5.4 10.39A209.62 209.62 0 0 0 50 51.41l.82-1.26zM50 33a10 10 0 1 1 0-20 10 10 0 0 1 0 20zm9-10a9 9 0 1 0-18 0 9 9 0 0 0 18 0zm-9 5a5 5 0 1 1 0-10 5 5 0 0 1 0 10zm3-5a3 3 0 1 0-6 0 3 3 0 0 0 6 0z"></path>
</svg>
