<svg xmlns="http://www.w3.org/2000/svg" width="100" height="100" viewBox="0 0 100 100" class="heroicon-multitask-knife heroicon heroicons-lg">
    <rect class="heroicon-multitask-knife-housing heroicon-component-accent heroicon-component-fill" width="98" height="28" x="1" y="62" fill="#7ACFC0" rx="14"></rect>
    <path class="heroicon-multitask-knife-knives heroicon-component-fill" fill="#FFFFFF" d="M85.14 61.17l-.14-.14V55.4l4-2v1.53l-.9.44-1.1.56V61.3a15.1 15.1 0 0 0-1.86-.13zm.75-38.21l1.11-.55V16l2-2v8.94l-.9.44-3.1 1.56V23.4l.9-.45zm-.65 28.1l1.52-.77 2 1-1.52.76-2-1zm0-24l1.52-.77 2 1-1.52.76-2-1zm0 8l1.52-.77 2 1-1.52.76-2-1zM89 30.93l-4 2V31.4l4-2v1.53zm-4 8.47l4-2v1.53l-4 2V39.4zm2.24 4.64l-2-1 1.52-.76 2 1-1.52.76zM89 46.94l-4 2V47.4l4-2v1.53zM21 61h-6c-2.13 0-4.16.45-6 1.25V21h2.65l6.4 16H11v14a4 4 0 0 0 8 0v-1.17l2 2V61zm38.69 0L41.45 42.77a27.98 27.98 0 0 1-7.6-25.54l1.42.96a28.46 28.46 0 0 0 7.95 24.93L61.1 61h-1.41zm2.82 0L43.93 42.41a27.46 27.46 0 0 1-7.74-23.61l11.77 7.84L82.3 61h-19.8z"></path>
    <path class="heroicon-multitask-knife-front-details heroicon-component-fill" fill="#FFFFFF" d="M84 74h-4v4h4v4h4v-4h4v-4h-4v-4h-4v4zM0 73h12v6H0v-6z"></path>
    <path class="heroicon-outline" fill="#4A4A4A" fill-rule="nonzero" d="M85 15l4-4 2-2v13.76a2 2 0 0 1-1.1 1.8L89 25l2 1v6l-2 1 2 1v6l-2 1 2 1v6l-2 1 2 1v6l-2 1v4.54A15 15 0 0 1 85 91H15A15 15 0 0 1 .3 79H0v-6h.3c.83-4.07 3.3-7.54 6.7-9.7V19h6l7.2 18 .8 2h-8v12a2 2 0 1 0 4 0v-6l2 2 4 4v10h33.86L40.04 44.18a29.98 29.98 0 0 1-7.43-30.17l1.74 1.16 1.36.9.89.6 12.63 8.42L83 58.86V54l2-1-2-1v-6l2-1-2-1v-6l2-1-2-1v-6l2-1-2-1v-6l2-1v-6zM15 89h70a13 13 0 0 0 0-26H15A13 13 0 0 0 2.35 73H12v6H2.35A13 13 0 0 0 15 89zm44.69-28h1.41L43.22 43.12a28.46 28.46 0 0 1-7.95-24.93l-1.43-.96a27.98 27.98 0 0 0 7.61 25.54L59.7 61zm3.13 0l9.04-9.04.7.7L64.23 61h18.08L47.96 26.64 36.19 18.8a27.46 27.46 0 0 0 7.74 23.61L62.5 61h.3zm22.32 0c.63 0 1.25.05 1.86.13v-5.37l1.1-.55.9-.45v-1.52l-4 2v5.62l.14.14zM21 61v-9.17l-2-2V51a4 4 0 0 1-8 0V37h7.05l-6.4-16H9v41.25c1.84-.8 3.87-1.25 6-1.25h6zm64.9-38.21l-.9.45v1.52l3.1-1.55.9-.45v-8.93l-2 2v6.41l-1.1.55zm-.66 28.1l2 1 1.52-.77-2-1-1.52.76zm0-24l2 1 1.52-.77-2-1-1.52.76zm0 8l2 1 1.52-.77-2-1-1.52.76zM89 30.75v-1.52l-4 2v1.52l4-2zm-4 8.48v1.52l4-2v-1.52l-4 2zm2.24 4.64l1.52-.76-2-1-1.52.76 2 1zM89 46.76v-1.52l-4 2v1.52l4-2zM11 74H1v4h10v-4zm73 0v-4h4v4h4v4h-4v4h-4v-4h-4v-4h4zm1 0v1h-4v2h4v4h2v-4h4v-2h-4v-4h-2v3zM18 64h24v1H18v-1zm0 23h64v1H18v-1zm28-23h4v1h-4v-1zm16 0v1h-8v-1h8zm-4.28-24.77l-.71.7-8.49-8.48.71-.7 8.49 8.48z"></path>
</svg>
