<svg xmlns="http://www.w3.org/2000/svg" width="100" height="100" viewBox="0 0 100 100" class="heroicon-phone-wifi heroicon heroicons-lg">
    <rect class="heroicon-phone-wifi-edge-outer heroicon-component-accent heroicon-component-fill" width="56" height="98" x="22" y="1" fill="#7ACFC0" rx="5"></rect>
    <rect class="heroicon-phone-wifi-edge-inner heroicon-component-accent heroicon-component-fill" width="52" height="94" x="24" y="3" fill="#7ACFC0" rx="3"></rect>
    <rect class="heroicon-phone-wifi-screen heroicon-component-fill" width="46" height="74" x="27" y="13" fill="#FFFFFF"></rect>
    <rect class="heroicon-phone-wifi-button heroicon-component-fill" width="10" height="3" x="45" y="90" fill="#FFFFFF" rx="1.5"></rect>
    <path class="heroicon-phone-wifi-symbol heroicon-component-accent heroicon-component-fill" fill="#7ACFC0" d="M50 40a19.93 19.93 0 0 1 14.14 5.86l-.7.7-1.42 1.42-.7.7C58.41 45.8 54.41 44 50 44s-8.42 1.8-11.31 4.69l-2.13-2.12-.7-.71A20.08 20.08 0 0 1 50 40zm7.75 10.84c.25.21.5.44.74.67l-.71.71-1.42 1.42-.7.7a7.97 7.97 0 0 0-11.32 0l-.7-.7-1.42-1.42-.7-.7a12.02 12.02 0 0 1 16.23-.68zm-5.72 5.71c.3.18.56.38.8.62l-.7.7L50 60l-2.12-2.12-.7-.7a4.02 4.02 0 0 1 4.85-.63z"></path>
    <path class="heroicon-outline" fill="#4A4A4A" fill-rule="nonzero" d="M21 6a6 6 0 0 1 6-6h46a6 6 0 0 1 6 6v88a6 6 0 0 1-6 6H27a6 6 0 0 1-6-6V6zm6-4a4 4 0 0 0-4 4v88a4 4 0 0 0 4 4h46a4 4 0 0 0 4-4V6a4 4 0 0 0-4-4H27zm-3 4a3 3 0 0 1 3-3h46a3 3 0 0 1 3 3v88a3 3 0 0 1-3 3H27a3 3 0 0 1-3-3V6zm3-2a2 2 0 0 0-2 2v88c0 1.1.9 2 2 2h46a2 2 0 0 0 2-2V6a2 2 0 0 0-2-2H27zm1 9h45v74H27V13h1zm44 1H28v72h44V14zM50 40a19.93 19.93 0 0 1 14.14 5.86l-.7.7-1.42 1.42-.7.7C58.41 45.8 54.41 44 50 44s-8.42 1.8-11.31 4.69l-2.13-2.12-.7-.71A20.08 20.08 0 0 1 50 40zm0 1c-4.89 0-9.34 1.84-12.7 4.88l1.4 1.41C41.7 44.62 45.68 43 50 43c4.33 0 8.3 1.62 11.3 4.3l1.4-1.42A18.93 18.93 0 0 0 50 41zm7.75 9.84c.25.21.5.44.74.67l-.71.71-1.42 1.42-.7.7a7.97 7.97 0 0 0-11.32 0l-.7-.7-1.42-1.42-.7-.7a12.02 12.02 0 0 1 16.23-.68zm-.71.7a10.95 10.95 0 0 0-14.08 0l1.42 1.43a8.97 8.97 0 0 1 11.24 0l1.42-1.42zm-5 5.01c.28.18.55.38.79.62l-.7.7L50 60l-2.12-2.12-.7-.7a4.02 4.02 0 0 1 4.85-.63zM50 57c-.46 0-.9.1-1.3.3l1.3 1.29 1.3-1.3c-.4-.19-.84-.29-1.3-.29zm3-49v1h-6V8h6zm-6.5 82h7a1.5 1.5 0 0 1 0 3h-7a1.5 1.5 0 0 1 0-3zm7 1h-7a.5.5 0 0 0 0 1h7a.5.5 0 0 0 0-1z"></path>
</svg>
