<svg xmlns="http://www.w3.org/2000/svg" width="100" height="100" viewBox="0 0 100 100" class="heroicon-network heroicon heroicons-lg">
    <circle class="heroicon-network-interior heroicon-component-accent heroicon-component-fill-" cx="50" cy="50" r="48" fill="#7ACFC0"></circle>
    <path class="heroicon-network-exterior heroicon-component-fill" fill="#FFFFFF" fill-rule="nonzero" d="M100 50A50 50 0 1 1 0 50a50 50 0 0 1 100 0zM35.3 90.42c-3.1-4.02-5.73-9.28-7.66-15.4a103.7 103.7 0 0 1-15.12-3.92c5.01 8.88 13.08 15.8 22.78 19.32zM9.12 63.37c5 2.14 10.66 3.9 16.81 5.2a86.85 86.85 0 0 1-1.9-16.22A82.6 82.6 0 0 1 7.1 46.88a43.6 43.6 0 0 0 2 16.49zm-1.1-22.7a74.85 74.85 0 0 0 16.06 5.6c.2-5.36.88-10.49 1.94-15.23a83.13 83.13 0 0 1-12.86-3.22 42.73 42.73 0 0 0-5.14 12.84zm8.76-17.97a81.38 81.38 0 0 0 10.78 2.55c1.94-6.24 4.59-11.6 7.74-15.67A43.09 43.09 0 0 0 16.78 22.7zm70.7 48.4a103.7 103.7 0 0 1-15.12 3.92c-1.93 6.12-4.55 11.38-7.66 15.4A43.14 43.14 0 0 0 87.47 71.1zm3.4-7.73a42.96 42.96 0 0 0 2-16.49 82.6 82.6 0 0 1-16.9 5.47 86.85 86.85 0 0 1-1.91 16.22 90.46 90.46 0 0 0 16.81-5.2zm1.1-22.7a42.73 42.73 0 0 0-5.14-12.85 83.13 83.13 0 0 1-12.86 3.22 86.03 86.03 0 0 1 1.95 15.23 74.85 74.85 0 0 0 16.05-5.6zM83.22 22.7A43.09 43.09 0 0 0 64.7 9.58c3.15 4.08 5.8 9.43 7.74 15.67a81.38 81.38 0 0 0 10.78-2.55zM69.93 53.47c-5.34.85-11.02 1.37-16.93 1.5v16c5.07-.13 9.96-.55 14.63-1.25a78.67 78.67 0 0 0 2.3-16.25zm-6.85-35.3C59.83 12.03 56.23 8.8 53 7.56v19.4c4.74-.08 9.23-.38 13.42-.86a50.9 50.9 0 0 0-3.34-7.95zm4.95 13.76c-4.7.58-9.76.94-15.03 1.04v16c6.02-.12 11.7-.65 16.96-1.52a80.17 80.17 0 0 0-1.93-15.52zM47 7.58c-3.23 1.22-6.83 4.46-10.08 10.58a50.9 50.9 0 0 0-3.34 7.95c4.19.48 8.68.78 13.42.87V7.58zm0 25.4c-5.27-.1-10.32-.47-15.03-1.05a80.17 80.17 0 0 0-1.93 15.52c5.26.87 10.94 1.4 16.96 1.52v-16zm-16.93 20.5a78.67 78.67 0 0 0 2.3 16.24c4.67.7 9.56 1.12 14.63 1.24v-16c-5.9-.12-11.6-.64-16.93-1.49zM53 76.96v15.45c3.23-1.22 6.83-4.46 10.08-10.58a48.6 48.6 0 0 0 2.59-5.8c-4.1.51-8.33.83-12.67.93zm-6 0c-4.34-.1-8.57-.42-12.67-.93a48.6 48.6 0 0 0 2.59 5.8c3.25 6.12 6.85 9.36 10.08 10.58V76.97z"></path>
    <path class="heroicon-shadows" fill="#000000" fill-rule="nonzero" d="M35.3 90.42c-1.2-.43-2.37-.92-3.52-1.46-1.6-2.95-2.99-6.3-4.14-9.94-4.1-.75-8.03-1.7-11.74-2.83a43.07 43.07 0 0 1-3.38-5.09c4.7 1.62 9.76 2.94 15.12 3.92 1.93 6.12 4.55 11.38 7.66 15.4zM7.11 50.88c-.03.37-.05.75-.06 1.12a43.74 43.74 0 0 1 .06-5.12 82.6 82.6 0 0 0 16.92 5.47c.14 5.72.8 11.18 1.9 16.22l-.79-.17c-.62-3.84-1-7.88-1.11-12.05A82.6 82.6 0 0 1 7.1 50.88zm.9-10.22a42.73 42.73 0 0 1 5.15-12.84 83.13 83.13 0 0 0 12.86 3.22 79.98 79.98 0 0 0-.76 3.87 81.77 81.77 0 0 1-12.1-3.1 42.78 42.78 0 0 0-4.2 9.31c-.32-.15-.64-.3-.94-.46zm8.77-17.96A43.09 43.09 0 0 1 35.3 9.58a40.12 40.12 0 0 0-3.52 5.46 43.1 43.1 0 0 0-12.13 8.5c-.99-.27-1.95-.55-2.87-.84zm70.7 48.4c-1 1.78-2.14 3.48-3.38 5.1a106.42 106.42 0 0 1-11.74 2.82 57.18 57.18 0 0 1-4.14 9.94 42.75 42.75 0 0 1-3.52 1.46c3.1-4.02 5.73-9.28 7.66-15.4a103.7 103.7 0 0 0 15.11-3.92zm5.4-20.22a82.6 82.6 0 0 1-16.9 5.47c-.11 4.17-.5 8.21-1.12 12.05l-.8.17a86.85 86.85 0 0 0 1.91-16.22 82.6 82.6 0 0 0 16.92-5.47 43.56 43.56 0 0 1 .06 5.12 43 43 0 0 0-.06-1.12zm-.9-10.22c-.3.16-.62.31-.94.46a42.77 42.77 0 0 0-4.2-9.3 81.77 81.77 0 0 1-12.1 3.09c-.22-1.32-.48-2.6-.76-3.87a83.13 83.13 0 0 0 12.86-3.22 42.73 42.73 0 0 1 5.14 12.84zM83.22 22.7c-.92.29-1.88.57-2.87.84a43.1 43.1 0 0 0-12.13-8.5c-1.09-2-2.26-3.84-3.52-5.46A43.09 43.09 0 0 1 83.22 22.7zM69.93 53.47a84.98 84.98 0 0 1-.26 4.04A126.6 126.6 0 0 1 53 58.97v-4c5.9-.13 11.6-.65 16.93-1.5zm-6.85-35.3a50.9 50.9 0 0 1 3.34 7.94l-1.42.15a46.67 46.67 0 0 0-1.92-4.1C59.83 16.04 56.23 12.8 53 11.58v-4c3.23 1.22 6.83 4.46 10.08 10.58zm4.95 13.76a80.17 80.17 0 0 1 1.93 15.52l-.2.03c-.31-4.08-.9-7.95-1.73-11.55-4.7.58-9.76.94-15.03 1.04v-4c5.27-.1 10.32-.46 15.03-1.04zM47 7.58v4c-3.23 1.22-6.83 4.46-10.08 10.58a46.67 46.67 0 0 0-1.92 4.1c-.48-.04-.95-.1-1.42-.15a50.9 50.9 0 0 1 3.34-7.95C40.17 12.04 43.77 8.8 47 7.58zm0 25.4v4c-5.27-.1-10.32-.47-15.03-1.05a78.22 78.22 0 0 0-1.73 11.55l-.2-.03c.16-5.55.84-10.78 1.93-15.52 4.7.58 9.76.94 15.03 1.04zm-16.93 20.5c5.34.84 11.02 1.36 16.93 1.49v4a126.6 126.6 0 0 1-16.67-1.46c-.12-1.32-.2-2.67-.26-4.04zM53 76.96c4.34-.1 8.57-.42 12.67-.93a50.72 50.72 0 0 1-1.79 4.21c-3.54.39-7.17.63-10.88.72v-4zm-6 0v4c-3.71-.09-7.34-.33-10.88-.72a50.66 50.66 0 0 1-1.79-4.2c4.1.5 8.33.82 12.67.92z" opacity=".2"></path>
    <path class="heroicon-outline" fill="#4A4A4A" fill-rule="nonzero" d="M100 50A50 50 0 1 1 0 50a50 50 0 0 1 100 0zm-2 0a48 48 0 1 0-96 0 48 48 0 0 0 96 0zM34.96 91.36a44.56 44.56 0 0 1-23.3-19.77l-1.3-2.3 2.5.87c4.64 1.6 9.64 2.9 14.96 3.88l.6.1.17.58c1.91 6.05 4.45 11.15 7.5 15.09l2.11 2.73-3.24-1.18zm-7.32-16.34a104.9 104.9 0 0 1-15.12-3.92l.78 1.32a43.16 43.16 0 0 0 22 18c-.37-.48-.73-.97-1.09-1.48a52 52 0 0 1-6.57-13.92zM8.17 63.68A44.4 44.4 0 0 1 6.1 46.8l.1-1.44 1.32.6a81.17 81.17 0 0 0 16.71 5.4l.77.17.02.78a85.4 85.4 0 0 0 1.88 16.04l.33 1.5-1.51-.31a91.9 91.9 0 0 1-17-5.26l-.42-.18-.14-.43zM25.7 67.5a87.42 87.42 0 0 1-1.68-15.15A84.12 84.12 0 0 1 7.1 46.88a43.47 43.47 0 0 0 2 16.49 89.61 89.61 0 0 0 16.82 5.2l-.22-1.07zM7.04 40.45A44.17 44.17 0 0 1 12.3 27.3l.42-.7.77.27a81.69 81.69 0 0 0 12.7 3.19l1.03.18-.23 1.02a84.6 84.6 0 0 0-1.92 15.05l-.04 1.2-1.18-.27a76.3 76.3 0 0 1-16.28-5.68l-.7-.35.17-.76zm16.04 5.58l1 .24a86.13 86.13 0 0 1 1.94-15.23l-.99-.17a81.38 81.38 0 0 1-11.87-3.05 42.73 42.73 0 0 0-5.14 12.84 73.86 73.86 0 0 0 15.07 5.37zm-7.07-23.97A44.52 44.52 0 0 1 34.96 8.64l3.24-1.18-2.1 2.73c-3.1 4-5.68 9.2-7.59 15.36l-.26.83-.86-.14c-4-.69-7.68-1.57-10.91-2.59l-1.41-.45.94-1.14zm17.55-11.8A43.1 43.1 0 0 0 16.78 22.7l1.03.32c2.94.87 6.2 1.62 9.75 2.23a52.25 52.25 0 0 1 6.65-14.18c.36-.52.72-1.01 1.09-1.5l-1.74.68zM63.91 89.8c3.05-3.94 5.59-9.04 7.5-15.1l.18-.57.59-.1a102.3 102.3 0 0 0 14.97-3.88l2.5-.86-1.3 2.3a44.56 44.56 0 0 1-23.3 19.76l-3.25 1.18 2.1-2.73zm22.13-18.23a104.9 104.9 0 0 1-13.68 3.44 52 52 0 0 1-6.57 13.92c-.36.5-.72 1-1.09 1.48A43.16 43.16 0 0 0 87.47 71.1c-.47.17-.95.33-1.43.48zm-12.95-3.22a85.4 85.4 0 0 0 1.88-16.04l.02-.78.77-.17a81.17 81.17 0 0 0 16.71-5.4l1.31-.6.1 1.44a44.4 44.4 0 0 1-2.05 16.87l-.14.43-.42.18a91.9 91.9 0 0 1-17 5.26l-1.5.32.32-1.51zm2.88-16.01a87.42 87.42 0 0 1-1.9 16.22l1.07-.23a89.61 89.61 0 0 0 15.74-4.97 42.96 42.96 0 0 0 2-16.49l-.96.44a84.11 84.11 0 0 1-15.95 5.03zm16.46-10.8c-.65.33-1.34.66-2.05.98a76.3 76.3 0 0 1-14.23 4.71l-1.18.27-.04-1.2A84.6 84.6 0 0 0 73 31.26l-.23-1.02 1.03-.18a81.69 81.69 0 0 0 12.7-3.19l.77-.26.42.69a44.17 44.17 0 0 1 5.26 13.15l.17.76-.7.35zm-5.59-13.73a81.38 81.38 0 0 1-12.86 3.22c.07.33.15.65.21.98a86.13 86.13 0 0 1 1.74 14.25l.99-.24a73.86 73.86 0 0 0 15.06-5.37 42.73 42.73 0 0 0-5.14-12.84zM71.5 25.55c-1.91-6.16-4.48-11.36-7.58-15.36L61.8 7.46l3.24 1.18A44.52 44.52 0 0 1 84 22.06l.94 1.14-1.4.45a82.82 82.82 0 0 1-10.92 2.59l-.86.14-.26-.83zm11.03-3.68A43.1 43.1 0 0 0 64.7 9.57c.37.49.73.98 1.09 1.5a52.25 52.25 0 0 1 6.65 14.18 83.58 83.58 0 0 0 10.78-2.55l-.7-.83zM67.78 70.7c-4.7.7-9.66 1.13-14.76 1.25L52 72v-18l.98-.02a125 125 0 0 0 16.8-1.48l1.2-.2-.05 1.22a80.1 80.1 0 0 1-2.33 16.46l-.16.64-.66.1zm1.14-17.08c-5.04.75-10.38 1.21-15.92 1.34v16a121.7 121.7 0 0 0 14.63-1.25 78.15 78.15 0 0 0 2.3-16.25l-1 .16zM66.53 27.1c-4.2.49-8.75.79-13.51.88l-1.02.01V6.13l1.35.51c3.55 1.34 7.3 4.81 10.62 11.06a52.35 52.35 0 0 1 3.4 8.1l.38 1.16-1.22.14zm-.11-1l-.33-.96a49.87 49.87 0 0 0-3-6.98C60.16 12.66 56.96 9.5 54 8.01c-.34-.16-.67-.3-1-.43v19.4l1-.03a139.14 139.14 0 0 0 12.42-.84zm-13.44 5.87c5.25-.1 10.25-.45 14.93-1.03l.9-.12.2.88c1.1 4.8 1.79 10.12 1.95 15.72l.03.87-.86.15c-5.3.88-11.06 1.4-17.11 1.53L52 50V32l.98-.02zm.02 1v16l1-.02a117.5 117.5 0 0 0 15.96-1.5 80.17 80.17 0 0 0-1.93-15.52c-4.7.58-9.76.94-15.03 1.04zm-6.02-5c-4.76-.08-9.3-.38-13.51-.87l-1.22-.14.38-1.16c.97-2.96 2.13-5.7 3.4-8.1 3.32-6.25 7.07-9.72 10.62-11.06l1.35-.5v21.85l-1.02-.01zM34.6 26.23a139.14 139.14 0 0 0 12.4.76V7.58c-.33.12-.66.27-1 .43-2.97 1.48-6.17 4.65-9.08 10.15a49.87 49.87 0 0 0-3.34 7.95l1.02.11zm-2.5 4.72c4.67.58 9.67.93 14.92 1.03L48 32v18l-1.02-.02c-6.05-.12-11.8-.65-17.1-1.53l-.87-.15.03-.87c.16-5.6.86-10.92 1.95-15.72l.2-.88.9.12zm-2.06 16.5A117.5 117.5 0 0 0 47 48.98v-16c-5.27-.1-10.32-.46-15.03-1.04a80.17 80.17 0 0 0-1.93 15.52zm1.36 22.53a80.1 80.1 0 0 1-2.33-16.46l-.05-1.21 1.2.19a125 125 0 0 0 16.8 1.48l.98.02v18l-1.02-.03c-5.1-.12-10.06-.55-14.76-1.25l-.66-.1-.16-.64zm.97-.25A118.84 118.84 0 0 0 47 70.96v-16a127.07 127.07 0 0 1-16.93-1.49l.05 1.02a78.15 78.15 0 0 0 2.25 15.23zM66.6 76.4a50.02 50.02 0 0 1-2.63 5.91c-3.32 6.25-7.07 9.72-10.62 11.06l-1.35.5V76l.98-.02c4.3-.1 8.49-.41 12.56-.92l1.64-.2-.58 1.54zm-13.6.58V92.42c.33-.12.66-.27 1-.43 2.97-1.48 6.17-4.65 9.08-10.15a47.39 47.39 0 0 0 2.59-5.8l-1.12.14c-3.75.43-7.6.7-11.55.79zm-18.54-1.92c4.07.5 8.25.82 12.56.92l.98.02v17.88l-1.35-.51c-3.55-1.34-7.3-4.81-10.62-11.06-.95-1.8-1.84-3.79-2.63-5.9l-.58-1.55 1.64.2zm-.13 1a54.12 54.12 0 0 0 2.59 5.79c2.91 5.5 6.11 8.67 9.08 10.15.34.16.67.3 1 .43V76.97a126.85 126.85 0 0 1-12.67-.93z"></path>
</svg>
