<svg xmlns="http://www.w3.org/2000/svg" width="100" height="100" viewBox="0 0 100 100" class="heroicon-chat heroicon heroicons-lg">
    <path class="heroicon-chat-bubble-back heroicon-component-accent heroicon-component-fill" fill="#7ACFC0" d="M62 12v16H47a3 3 0 1 0-6 0h-3c-1.06 0-2.08.16-3.04.47a3 3 0 1 0-3.94 2.37A9.97 9.97 0 0 0 28 38v17.17l-4 4V50H8c-3.3 0-6-2.7-6-6V12a6 6 0 0 1 6-6h48c3.3 0 6 2.7 6 6z"></path>
    <path class="heroicon-chat-bubble-front heroicon-component-fill" fill="#FFFFFF" d="M90 78H72v13.17L58.83 78H37.99A8 8 0 0 1 30 70V38a8 8 0 0 1 8-8h52a8 8 0 0 1 8 8v32a8 8 0 0 1-8 8z"></path>
    <path class="heroicon-chat-dots-back heroicon-component-fill" fill="#FFFFFF" d="M20 30a2 2 0 1 1 0-4 2 2 0 0 1 0 4zm24-4a2 2 0 0 1 2 2h-4c0-1.1.9-2 2-2zm-10 2a2 2 0 0 1-.23.93A10 10 0 0 0 32 30a2 2 0 1 1 2-2z"></path>
    <path class="heroicon-chat-dots-front heroicon-component-accent heroicon-component-fill" fill="#7ACFC0" d="M51 54a3 3 0 1 1-6 0 3 3 0 0 1 6 0zm16 0a3 3 0 1 1-6 0 3 3 0 0 1 6 0zm16 0a3 3 0 1 1-6 0 3 3 0 0 1 6 0z"></path>
    <path class="heroicon-shadows" fill="#000000" d="M30 70a9.98 9.98 0 0 0 8 4h52a9.98 9.98 0 0 0 8-4 8 8 0 0 1-8 8H72v13.17L58.83 78H37.99A8 8 0 0 1 30 70zm-2-32v17.17l-4 4V50H8c-3.3 0-6-2.7-6-6v-.71A8 8 0 0 0 8 46h16v-8a10 10 0 0 1 10-10h4a10 10 0 0 0-10 10z" opacity=".2"></path>
    <path class="heroicon-outline" fill="#4A4A4A" fill-rule="nonzero" d="M28 58l-6 6V52H8c-4.41 0-8-3.59-8-8V12a8 8 0 0 1 8-8h48c4.41 0 8 3.59 8 8v16h26a10 10 0 0 1 10 10v32a10 10 0 0 1-10 10H74v16L58 80H38a10 10 0 0 1-10-10V58zm34-46c0-3.3-2.7-6-6-6H8a6 6 0 0 0-6 6v32c0 3.3 2.7 6 6 6h16v9.17l4-4V38c0-2.81 1.16-5.35 3.02-7.16a3 3 0 1 1 3.94-2.37c.96-.3 1.98-.47 3.03-.47H41a3 3 0 1 1 6 0h15V12zM44 26a2 2 0 0 0-2 2h4a2 2 0 0 0-2-2zm-10 2a2 2 0 1 0-2 2 10 10 0 0 1 1.77-1.07A2 2 0 0 0 34 28zm56 50a8 8 0 0 0 8-8V38a8 8 0 0 0-8-8H38a8 8 0 0 0-8 8v32a8 8 0 0 0 8 8h20.83L72 91.17V78h18zM6 12c0-1.1.9-2 2-2h12v1H8a1 1 0 0 0-1 1v6H6v-6zm11 16a3 3 0 1 1 6 0 3 3 0 0 1-6 0zm3 2a2 2 0 1 0 0-4 2 2 0 0 0 0 4zm28 28a4 4 0 1 1 0-8 4 4 0 0 1 0 8zm3-4a3 3 0 1 0-6 0 3 3 0 0 0 6 0zm13 4a4 4 0 1 1 0-8 4 4 0 0 1 0 8zm3-4a3 3 0 1 0-6 0 3 3 0 0 0 6 0zm17 0a4 4 0 1 1-8 0 4 4 0 0 1 8 0zm-1 0a3 3 0 1 0-6 0 3 3 0 0 0 6 0zm7 19a3 3 0 0 0 3-3V58h1v12a4 4 0 0 1-4 4H66v-1h24zM70 34v1H38v-1h32z"></path>
</svg>
