<svg xmlns="http://www.w3.org/2000/svg" width="100" height="100" viewBox="0 0 100 100" class="heroicon-folder-user heroicon heroicon-lg">
    <path class="heroicon-folder-user-tab heroicon-component-accent heroicon-component-fill" fill="#7ACFC0" d="M0 6.003C0 3.793 1.792 2 3.993 2H45l10 10h41.007c2.205 0 3.993 1.797 3.993 3.993v4.004L0 20V6.003z"></path>
    <rect class="heroicon-folder-user-cover heroicon-component-fill" fill="#ffffff" y="18" width="100" height="64" rx="4"></rect>
    <circle class="heroicon-folder-user-circle heroicon-component-accent heroicon-component-fill" fill="#7ACFC0" cx="82" cy="81" r="18"></circle>
    <path class="heroicon-folder-user-top heroicon-component-fill" fill="#ffffff" d="M72 95.97v-7.967c0-1.106.8-2.404 1.788-2.897L79 82.5v.5c0 1.653 1.343 3 3 3 1.653 0 3-1.343 3-3v-.5l5.212 2.606C91.2 85.6 92 86.894 92 88.003v7.966C89.14 97.882 85.7 99 82 99s-7.14-1.117-10-3.03z"></path>
    <path class="heroicon-folder-user-face heroicon-component-fill" fill="#ffffff" d="M85 81.998c1.214-.913 2-2.365 2-4v-1.996C87 73.23 84.76 71 82 71c-2.756 0-5 2.24-5 5.002v1.996c0 1.643.786 3.094 2 4.005V83c0 1.653 1.343 3 3 3 1.653 0 3-1.343 3-3v-1.002z"></path>
    <path class="heroicon-shadows" fill="#000000" d="M100 20.003C100 17.795 98.21 16 96.003 16H3.997C1.8 16 0 17.792 0 20.003v2C0 19.793 1.8 18 3.997 18h92.006C98.21 18 100 19.795 100 22.003v-2z" opacity=".2"></path>
    <path class="heroicon-outline" fill="#4A4A4A" fill-rule="nonzero" d="M45 2l10 10h41c2.21 0 4 1.79 4 4v62c0 .33-.04.65-.11.96.8 6.83-2.368 13.52-8.158 17.23-5.79 3.71-13.19 3.79-19.062.21-5.08-3.08-8.313-8.468-8.64-14.4H4c-2.21 0-4-1.79-4-4V6c0-2.21 1.79-4 4-4h41zm19.03 78c.45-8.107 6.274-14.908 14.215-16.603 7.94-1.695 16.033 2.137 19.755 9.353V23.76c-.55-.49-1.262-.762-2-.76H4c-.77 0-1.47.29-2 .76V78c0 1.1.9 2 2 2h60.03zM2 22v.54c.607-.353 1.297-.54 2-.54h92c.73 0 1.41.2 2 .54V22c0-1.105-.895-2-2-2H4c-1.105 0-2 .895-2 2zm96-3.46V16c0-1.105-.895-2-2-2H54.17l-.58-.59L44.17 4H4c-1.105 0-2 .895-2 2v12.54c.607-.353 1.297-.54 2-.54h92c.73 0 1.41.2 2 .54zm-7 75.7V88c0-.73-.59-1.67-1.23-2l-4.83-2.41c-.284 1.398-1.513 2.403-2.94 2.403s-2.656-1.005-2.94-2.403L74.23 86c-.71.428-1.168 1.174-1.23 2v6.23c.64.43 1.3.82 2 1.16V91h1v4.84c3.848 1.56 8.152 1.56 12 0V91h1v4.4c.7-.35 1.36-.74 2-1.17v.01zM85 82.5l5.21 2.6c.99.5 1.79 1.8 1.79 2.9v5.5c5.303-4.246 7.347-11.38 5.097-17.79-2.25-6.41-8.303-10.7-15.097-10.7-6.794 0-12.847 4.29-15.097 10.7-2.25 6.41-.206 13.544 5.097 17.79V88c0-1.1.8-2.4 1.79-2.9L79 82.5V82c-1.26-.944-2-2.426-2-4v-2c0-2.76 2.24-5 5-5s5 2.24 5 5v2c0 1.574-.74 3.056-2 4v.5zm-5 .5c0 1.105.895 2 2 2s2-.895 2-2v-.42c-1.275.56-2.725.56-4 0V83zm6-5v-2c0-2.21-1.79-4-4-4s-4 1.79-4 4v2c0 2.21 1.79 4 4 4s4-1.79 4-4zM6 13h32v1H6v-1zm36-5v1H6V8h36zm26.96 78.11c-1.69-4.31-1.14-9.177 1.47-13C73.04 69.284 77.37 66.997 82 67v1c-4.288-.002-8.302 2.11-10.727 5.648-2.425 3.537-2.95 8.042-1.403 12.042l-.9.42h-.01z"></path>
</svg>
