<svg xmlns="http://www.w3.org/2000/svg" width="100" height="100" viewBox="0 0 100 100" class="heroicon-hand-open heroicon heroicons-lg">
    <path class="heroicon-hand-open-hand heroicon-component-fill" fill="#FFFFFF" d="M25 62c0 8.58 5.4 15.9 13 18.74V88h24v-7.26A20 20 0 0 0 75 62V35a3 3 0 0 0-3-3h-3c-.7 0-1.37.12-2 .34V10.01a6 6 0 0 0-10.02-4.46 6 6 0 0 0-11.96 0A6 6 0 0 0 35 10v3.52a6 6 0 0 0-10 4.48V62z"></path>
    <polygon class="heroicon-hand-open-sleeve heroicon-component-accent heroicon-component-fill" fill="#7ACFC0" points="32 90 64 90 64 98 32 98"></polygon>
    <path class="heroicon-shadows" fill="#000000" d="M38 84.74c2.18.82 4.53 1.26 7 1.26h10c2.47 0 4.82-.44 7-1.26v-6A19.95 19.95 0 0 1 55 80H45c-2.47 0-4.82-.44-7-1.26v6z" opacity=".2"></path>
    <path class="heroicon-outline" fill="#4A4A4A" fill-rule="nonzero" d="M25 62v-8c0-.34.01-.67.04-1H25V18a6 6 0 0 1 10-4.47v-3.52a6 6 0 0 1 10.02-4.46 6 6 0 0 1 11.96 0A6 6 0 0 1 67 10v22.33c.63-.22 1.3-.34 2-.34h3a3 3 0 0 1 3 3v27a20 20 0 0 1-13 18.74V88h4v12H30V88h8v-7.26A20.01 20.01 0 0 1 25 62zm30-52V6a4 4 0 1 0-8 0v34h4v1H40a13 13 0 0 0-13 13v8a18 18 0 0 0 18 18v2c-1.73 0-3.4-.22-5-.63V88h20v-6.63c-1.6.41-3.27.63-5 .63v-2a18 18 0 0 0 18-18V35a1 1 0 0 0-1-1h-3a4 4 0 0 0-4 4v16h5v1h-7a13 13 0 0 0-13 13h-1a14 14 0 0 1 14-14V41h-4v-1h4v-2c0-1.78.77-3.37 2-4.47V10.01a4 4 0 1 0-8 0V41h-2V10zM35 40.93V18a4 4 0 1 0-8 0v30.78a14.05 14.05 0 0 1 8-7.87zm2-.6c.97-.2 1.97-.32 3-.32h5V10a4 4 0 1 0-8 0v30.32zM32 90v8h32v-5H46v-1h18v-2H32z"></path>
</svg>
