<svg xmlns="http://www.w3.org/2000/svg" width="100" height="100" viewBox="0 0 100 100" class="heroicon-document-search heroicon heroicons-lg">
    <path class="heroicon-document-search-page heroicon-component-fill" fill="#FFFFFF" d="M3 0v100h78V20A20 20 0 0 0 61 0H3z"></path>
    <path class="heroicon-document-search-fold heroicon-component-accent heroicon-component-fill" fill="#7ACFC0" d="M79 20A18 18 0 0 0 61 2v16h12c2.25 0 4.33.74 6 2z"></path>
    <circle class="heroicon-document-search-circle heroicon-component-accent heroicon-component-fill" cx="80" cy="82" r="18" fill="#7ACFC0"></circle>
    <path class="heroicon-document-search-symbol heroicon-component-fill" fill="#FFFFFF" d="M88.6 87.78l-.7.7-1.41 1.42-.71.7-.7-.7-3.75-3.74a7 7 0 1 1 2.83-2.83l3.74 3.74.7.7zm-8.48-9.9a3 3 0 1 0-4.24 4.24 3 3 0 0 0 4.24-4.24z"></path>
    <path class="heroicon-shadows" fill="#000000" d="M81 28v4a8 8 0 0 0-8-8H59v-4h14a8 8 0 0 1 8 8z" opacity=".2"></path>
    <path class="heroicon-outline" fill="#4A4A4A" fill-rule="nonzero" d="M5 0h56a20 20 0 0 1 20 20v44.03a18 18 0 0 1 0 35.94v.03H3V0h2zm66.75 98a18 18 0 0 1-5.17-28H15v-1h52.55c3-2.88 7.02-4.73 11.45-4.97V22.7A7.98 7.98 0 0 0 73 20H59v-1H15v-1h44v-2H15v-1h44V2H5v96h66.75zM61 18h12c2.25 0 4.33.74 6 2A18 18 0 0 0 61 2v16zm35 64a16 16 0 1 0-32 0 16 16 0 0 0 32 0zM66 21v1H15v-1h51zm2 3v1H15v-1h53zm-19 3v1H15v-1h34zm20 33v1H15v-1h54zm-2 3v1H15v-1h52zm-1 3v1H15v-1h51zm-17 6v1H15v-1h34zm18-40v1H15v-1h52zm2 3v1H15v-1h54zm-1 3v1H15v-1h53zm-9 3v1H15v-1h44zm10 5v1H15v-1h54zm-4 3v1H15v-1h50zm0 3v1H15v-1h50zm4 3v1H15v-1h54zm-2.04 32.11A14 14 0 0 1 80 68v1a13 13 0 0 0-12.13 17.69l-.9.42zm14.37-.95a7 7 0 1 1 2.83-2.83l3.74 3.74.7.7-.7.72-1.41 1.4-.71.72-4.45-4.45zm1.95-3.3a6 6 0 1 0-2.43 2.42l.66-.36.53.53 3.74 3.74 1.41-1.41-3.74-3.74-.53-.53.36-.66zm-2.45-.03a4 4 0 1 1-5.66-5.66 4 4 0 0 1 5.66 5.66zm-.7-.7a3 3 0 1 0-4.25-4.25 3 3 0 0 0 4.24 4.24z"></path>
</svg>
