<svg xmlns="http://www.w3.org/2000/svg" width="100" height="100" viewBox="0 0 100 100" class="heroicon-document-edit heroicon heroicons-lg">
    <path class="heroicon-document-edit-page heroicon-component-fill" fill="#FFFFFF" d="M3 0v100h78V20A20 20 0 0 0 61 0H3z"></path>
    <path class="heroicon-document-edit-fold heroicon-component-accent heroicon-component-fill" fill="#7ACFC0" d="M79 20A18 18 0 0 0 61 2v16h12c2.25 0 4.33.74 6 2z"></path>
    <circle class="heroicon-document-edit-circle heroicon-component-accent heroicon-component-fill" cx="80" cy="82" r="18" fill="#7ACFC0"></circle>
    <path class="heroicon-document-edit-symbol heroicon-component-fill" fill="#FFFFFF" d="M74 84l10.59-10.59a2 2 0 0 1 2.82 0l1.18 1.18a2 2 0 0 1 0 2.82L78 88l-6 2 2-6z"></path>
    <path class="heroicon-shadows" fill="#000000" d="M81 28v4a8 8 0 0 0-8-8H59v-4h14a8 8 0 0 1 8 8z" opacity=".2"></path>
    <path class="heroicon-outline" fill="#4A4A4A" fill-rule="nonzero" d="M5 0h56a20 20 0 0 1 20 20v44.03a18 18 0 0 1 0 35.94v.03H3V0h2zm66.75 98a18 18 0 0 1-5.17-28H15v-1h52.55c3-2.88 7.02-4.73 11.45-4.97V22.7A7.98 7.98 0 0 0 73 20H59v-1H15v-1h44v-2H15v-1h44V2H5v96h66.75zM66 21v1H15v-1h51zm2 3v1H15v-1h53zm-19 3v1H15v-1h34zm20 33v1H15v-1h54zm-2 3v1H15v-1h52zm-1 3v1H15v-1h51zm-17 6v1H15v-1h34zm18-40v1H15v-1h52zm2 3v1H15v-1h54zm-1 3v1H15v-1h53zm-9 3v1H15v-1h44zm10 5v1H15v-1h54zm-4 3v1H15v-1h50zm0 3v1H15v-1h50zm4 3v1H15v-1h54zm27 27a16 16 0 1 0-32 0 16 16 0 0 0 32 0zm-29.04 5.11A14 14 0 0 1 80 68v1a13 13 0 0 0-12.13 17.69l-.9.42zM61 18h12c2.25 0 4.33.74 6 2A18 18 0 0 0 61 2v16zm13 66l10.59-10.59a2 2 0 0 1 2.82 0l1.18 1.18a2 2 0 0 1 0 2.82L78 88l-6 2 2-6zm10.46-9.04l2.58 2.58.84-.84a1 1 0 0 0 0-1.4l-1.18-1.18a1 1 0 0 0-1.4 0l-.84.84zm.94 2.35l-8.55 8.54-.7-.7 8.54-8.55-.94-.94-8.88 8.88-1.29 3.88 3.88-1.3 8.88-8.87-.94-.94z"></path>
</svg>
