<svg xmlns="http://www.w3.org/2000/svg" width="100" height="100" viewBox="0 0 100 100" class="heroicon-paint-brush heroicon heroicons-lg">
    <path class="heroicon-paint-brush-bristles heroicon-component-fill" fill="#FFFFFF" d="M58 23a3 3 0 0 1-6 0v-8a1 1 0 0 0-1-1H20v26h60V14H69a1 1 0 0 0-1 1v13a4 4 0 0 1-8 0V15a1 1 0 0 0-1-1 1 1 0 0 0-1 1v8z"></path>
    <path class="heroicon-paint-brush-paint-heroicon-paint heroicon-component-accent heroicon-component-fill" fill="#7ACFC0" d="M51 12H20V4a2 2 0 0 1 2-2h56a2 2 0 0 1 2 2v8H69a3 3 0 0 0-3 3v13a2 2 0 0 1-4 0V15a3 3 0 1 0-6 0v8a1 1 0 0 1-2 0v-8a3 3 0 0 0-3-3z"></path>
    <polygon class="heroicon-paint-brush-ferrule heroicon-component-fill" fill="#FFFFFF" points="80 42 80 54 20 54 20 42"></polygon>
    <path class="heroicon-paint-brush-handle heroicon-component-fill" fill="#FFFFFF" d="M20 60v-4h60v4a6.1 6.1 0 0 1-4.31 5.52L63.34 68.6A10.07 10.07 0 0 0 56 78v14a6 6 0 0 1-12 0V78c0-4.23-3.24-8.37-7.34-9.4l-12.35-3.08A6.09 6.09 0 0 1 20 60zm30 31a2 2 0 1 0 0-4 2 2 0 0 0 0 4z"></path>
    <path class="heroicon-shadows" fill="#000000" d="M20 14h31a1 1 0 0 1 1 1v8a3 3 0 0 0 6 0v-8a1 1 0 0 1 1-1 1 1 0 0 1 1 1v13a4 4 0 0 0 8 0V15a1 1 0 0 1 1-1h11v2H69a1 1 0 0 0-1 1v13a4 4 0 0 1-8 0V17a1 1 0 0 0-1-1 1 1 0 0 0-1 1v8a3 3 0 0 1-6 0v-8a1 1 0 0 0-1-1H20v-2zm0 42h60v2H20v-2z" opacity=".2"></path>
    <path class="heroicon-outline" fill="#4A4A4A" fill-rule="nonzero" d="M18 14V4a4 4 0 0 1 4-4h56a4 4 0 0 1 4 4v56a8.08 8.08 0 0 1-5.83 7.46l-12.34 3.08A8.08 8.08 0 0 0 58 78.01V92a8 8 0 0 1-16 0V78a8.09 8.09 0 0 0-5.83-7.46l-12.34-3.08A8.08 8.08 0 0 1 18 60V14zm40 9a3 3 0 0 1-6 0v-8a1 1 0 0 0-1-1h-1v20h-1V14h-8v4h-1v-4h-6v18h-1V14h-2v10h-1V14h-4v22h-1V14h-2v10h-1V14h-2v26h2v-4h1v4h21V20h1v20h12V30h1v10h11V30h1v10h7V20h1v20h2V14h-5v5h-1v-5h-5a1 1 0 0 0-1 1v13a4 4 0 0 1-8 0V15a1 1 0 0 0-1-1 1 1 0 0 0-1 1v8zm-7-11a3 3 0 0 1 3 3v8a1 1 0 0 0 2 0v-8a3 3 0 0 1 6 0v13a2 2 0 0 0 4 0V15a3 3 0 0 1 3-3h11V4a2 2 0 0 0-2-2H21.82A2 2 0 0 0 20 4v8h31zM20 45v9h60v-9H20zm60-3H20v2h60v-2zM20 60c0 2.4 1.98 4.93 4.31 5.52l12.35 3.08A10.08 10.08 0 0 1 44 78v14a6 6 0 1 0 12 0V78c0-4.23 3.23-8.37 7.34-9.4l12.35-3.08A6.1 6.1 0 0 0 80 60v-4H20v4zm11-34v4h-1v-4h1zm10-6v8h-1v-8h1zm34 1v10h-1V21h1zm3-18v1H22V3h56zM24 48a1 1 0 1 1-2 0 1 1 0 0 1 2 0zm53 1a1 1 0 1 1 0-2 1 1 0 0 1 0 2zm-17-1a1 1 0 1 1-2 0 1 1 0 0 1 2 0zm-19 1a1 1 0 1 1 0-2 1 1 0 0 1 0 2zm13 40a4 4 0 1 1-8 0 4 4 0 0 1 8 0zm-4 2a2 2 0 1 0 0-4 2 2 0 0 0 0 4z"></path>
</svg>
