<svg width="100" height="100" viewBox="0 0 100 100" xmlns="http://www.w3.org/2000/svg" class="heroicon-folder-plus heroicon heroicon-lg">
    <path class="heroicon-folder-plus-tab-heroicon-component-accent-heroicon-component-fill" fill="#7ACFC0" d="M0 7.003C0 4.793 1.792 3 3.993 3H45l10 10h41.007c2.205 0 3.993 1.797 3.993 3.993v4.004L0 21V7.003z"></path>
    <rect class="heroicon-folder-plus-cover-heroicon-component-fill" fill="#ffffff" y="19" width="100" height="64" rx="4"></rect>
    <circle class="heroicon-folder-plus-circle-heroicon-component-accent-heroicon-component-fill" fill="#7ACFC0" cx="82" cy="82" r="18"></circle>
    <path class="heroicon-folder-plus-symbol-heroicon-component-fill" fill="#ffffff" d="M84 80v-7h-4v7h-7v4h7v7h4v-7h7v-4z"></path>
    <path class="heroicon-shadows" fill="#000000" d="M100 21.003C100 18.795 98.21 17 96.003 17H3.997C1.8 17 0 18.792 0 21.003v2C0 20.793 1.8 19 3.997 19h92.006C98.21 19 100 20.795 100 23.003v-2z" opacity=".2"></path>
    <path class="heroicon-outline" fill="#4A4A4A" fill-rule="nonzero" d="M55 13h41c2.21 0 4 1.79 4 4v62c0 .33-.04.65-.115.954.076.672.115 1.354.115 2.046 0 9.94-8.06 18-18 18-9.606 0-17.454-7.524-17.973-17H4c-2.21 0-4-1.79-4-4V7c0-2.21 1.79-4 4-4h41l10 10zm43 10.535V23c0-1.105-.895-2-2-2H4c-1.105 0-2 .895-2 2v.535c.588-.34 1.27-.535 2-.535h92c.73 0 1.412.195 2 .535zm-96 1.23V79c0 1.105.895 2 2 2h60.027c.52-9.476 8.367-17 17.973-17 6.966 0 13.007 3.957 16 9.746V24.764c-.53-.475-1.232-.764-2-.764H4c-.768 0-1.47.29-2 .764zM4 19h92c.73 0 1.412.195 2 .535V17c0-1.105-.895-2-2-2H54.172l-.586-.586L44.172 5H4c-1.105 0-2 .895-2 2v12.535c.588-.34 1.27-.535 2-.535zm94 63c0-8.837-7.163-16-16-16s-16 7.163-16 16 7.163 16 16 16 16-7.163 16-16zM42 9v1H6V9h36zM6 14h32v1H6v-1zm62.962 73.11C68.342 85.53 68 83.805 68 82c0-7.732 6.268-14 14-14v1c-7.18 0-13 5.82-13 13 0 1.652.308 3.232.87 4.686l-.908.425zM80 80v-7h4v7h7v4h-7v7h-4v-7h-7v-4h7zm1 0v1h-7v2h7v7h2v-7h7v-2h-7v-7h-2v6z"></path>
</svg>
