<svg xmlns="http://www.w3.org/2000/svg" width="100" height="100" viewBox="0 0 100 100" class="heroicon-cart heroicon heroicons-lg">
    <path class="heroicon-cart-frame heroicon-component-fill" fill="#FFFFFF" d="M10 11V9h3.88a2 2 0 0 1 1.94 1.51L27.56 57.5l.38 1.51h59l-.5 2H23a8 8 0 1 0 0 16h62a1 1 0 0 1 0 2H23a10 10 0 0 1-10-10c0-5.18 5.04-9.77 10.58-10l2.46-.1-.6-2.37-10.9-43.64A2.5 2.5 0 0 0 12.1 11H10zm20 70h9.17l-8 8H30v-8zm42 0h9.17l-8 8H72v-8z"></path>
    <path class="heroicon-cart-basket heroicon-component-accent heroicon-component-fill" fill="#7ACFC0" d="M87.44 57H29.56l-8.75-35h3.94L27 31h6v-9h1v9h9v-9h1v9h9v-9h1v9h9v-9h1v9h9v-9h1v9h9v-9h1v9h6l2.25-9h3.94l-.13.51L87.44 57zm1.28-25H84v10h3.25l2.25-9 .25-1h-1.03zM29.75 42H33V32H27.25l.25 1 2.25 9zm56.22 1H84v10h.5l.5-2 1.75-7 .25-1h-1.03zM30 43l.25 1L32 51l.5 2h.5V43h-3zm42-11h-8v10h9V32h-1zm0 11h-8v10h9V43h-1zm-9-2v-9h-9v10h9v-1zm-8 2h-1v10h9V43h-8zm-2-2v-9h-9v10h9v-1zm-8 2h-1v10h9V43h-8zm-2-2v-9h-9v10h9v-1zm-8 2h-1v10h9V43h-8zm40 0h-1v10h9V43h-8zm7-1h1V32h-9v10h8zm16-21H20.55l-1-4H98v4z"></path>
    <path class="heroicon-cart-handle heroicon-component-accent heroicon-component-fill" fill="#7ACFC0" d="M4 8h4v4H4a2 2 0 1 1 0-4z"></path>
    <path class="heroicon-cart-wheels heroicon-component-accent heroicon-component-fill" fill="#7ACFC0" d="M79 87a6 6 0 1 1-9-5.2V91h4l4.93-4.93c.05.3.07.61.07.93zm-42 0a6 6 0 1 1-9-5.2V91h4l4.93-4.93c.05.3.07.61.07.93z"></path>
    <path class="heroicon-shadows" fill="#000000" d="M72 81h10l-3 3h-7v-3zm23.69-57h-3.94l.5-2h3.94l-.13.51-.37 1.49zM84 24h-1v-2h1v2zm-10 0h-1v-2h1v2zm-10 0h-1v-2h1v2zm-10 0h-1v-2h1v2zm-10 0h-1v-2h1v2zm-10 0h-1v-2h1v2zm-8.75 0h-3.94l-.5-2h3.94l.5 2zM30 81h10l-3 3h-7v-3z" opacity=".2"></path>
    <path class="heroicon-outline" fill="#4A4A4A" fill-rule="nonzero" d="M0 10a4 4 0 0 1 4-4h6v1h3.88a4 4 0 0 1 3.88 3.03L19 15H97.99a2 2 0 0 1 2.01 2v4a2 2 0 0 1-2 2l-8.5 34-.5 2-1 4H23a6 6 0 0 0 0 12h62a3 3 0 1 1 0 6h-1l-3.42 3.42A7.99 7.99 0 1 1 67.7 81H42l-3.42 3.42A7.99 7.99 0 1 1 25.7 81H23a12 12 0 0 1-12-12c0-5.78 4.89-10.6 10.5-11.75.66-.13 1.33-.21 2-.24l-.5-1.98-10.4-41.65a.5.5 0 0 0-.49-.38H10v1H4a4 4 0 0 1-4-4zm4-2a2 2 0 1 0 0 4h4V8H4zm6 3h2.11a2.5 2.5 0 0 1 2.42 1.9l10.91 43.63.6 2.38-2.46.1C18.04 59.23 13 63.82 13 69a10 10 0 0 0 10 10h62a1 1 0 0 0 0-2H23a8 8 0 1 1 0-16h63.44l.5-2h-59l-.38-1.51L15.82 10.5A2 2 0 0 0 13.88 9H10v2zm20 70v8h1.17l8-8H30zm42 0v8h1.17l8-8H72zm15.44-24l8.62-34.49.13-.51h-3.94L90 31h-6v-9h-1v9h-9v-9h-1v9h-9v-9h-1v9h-9v-9h-1v9h-9v-9h-1v9h-9v-9h-1v9h-6l-2.25-9h-3.94l8.75 35h57.88zm1.28-25h1.03l-.25 1-2.25 9H84V32H88.72zm-.25 1H85v8h1.47l2-8zm-58.72 9l-2.25-9-.25-1H33v10h-3.25zm-1.22-9l2 8H32v-8h-3.47zm57.44 10H87l-.25 1L85 51l-.5 2H84V43h1.97zm-.25 1H85v2.88l.72-2.88zM30 43h3v10h-.5l-.5-2-1.75-7-.25-1zm1.28 1l.72 2.88V44h-.72zM72 32h1v10h-9V32h8zm0 1h-7v8h7v-8zm0 10h1v10h-9V43h8zm0 1h-7v8h7v-8zm-9-3v1h-9V32h9v9zm-1 0v-8h-7v8h7zm-7 2h8v10h-9V43h1zm7 1h-7v8h7v-8zm-9-3v1h-9V32h9v9zm-1 0v-8h-7v8h7zm-7 2h8v10h-9V43h1zm7 1h-7v8h7v-8zm-9-3v1h-9V32h9v9zm-1 0v-8h-7v8h7zm-7 2h8v10h-9V43h1zm7 1h-7v8h7v-8zm33-1h8v10h-9V43h1zm7 1h-7v8h7v-8zm0-2h-8V32h9v10h-1zm-7-1h7v-8h-7v8zm23-20v-4H19.55l1 4H98zm-8.78 9l2-8H85v8h4.22zM75 22v8h7v-8h-7zm-3 8v-8h-7v8h7zm-17-8v8h7v-8h-7zm-10 0v8h7v-8h-7zm-10 0v8h7v-8h-7zm-9.22 0l2 8H32v-8h-6.22zM79 87c0-.32-.02-.63-.07-.93L74 91h-4v-9.2a6 6 0 1 0 9 5.2zm-42 0c0-.32-.02-.63-.07-.93L32 91h-4v-9.2a6 6 0 1 0 9 5.2z"></path>
</svg>
