<svg xmlns="http://www.w3.org/2000/svg" width="100" height="100" viewBox="0 0 100 100" class="heroicon-speedometer heroicon heroicons-lg">
    <path class="heroicon-speedometer-edge heroicon-component-accent heroicon-component-fill" fill="#7ACFC0" d="M50 99a49 49 0 1 1 0-98 49 49 0 0 1 0 98zm0-8a41 41 0 1 0 0-82 41 41 0 0 0 0 82z"></path>
    <circle class="heroicon-speedometer-background heroicon-component-fill-copy" cx="50" cy="50" r="41" fill="#FFFFFF"></circle>
    <path class="heroicon-speedometer-gauge heroicon-component-fill" fill="#FFFFFF" d="M79 52a28.9 28.9 0 0 0-7.8-19.79l3.55-4.04A32.87 32.87 0 0 1 83 50c0 8.75-3.4 16.7-8.97 22.62l-1.89-1.9A29.32 29.32 0 0 0 79 52zM50 17c8.37 0 16 3.11 21.83 8.25l-4.22 3.7a29 29 0 0 0-39.75 41.77l-1.9 1.9A33 33 0 0 1 50 17z"></path>
    <path class="heroicon-speedometer-needle heroicon-component-accent heroicon-component-fill" fill="#7ACFC0" d="M52.84 44.6l-1.07-.33a6 6 0 1 0 3.96 3.96l-.32-1.07.73-.84 16.58-18.86-.18-.18-18.86 16.58-.84.73z"></path>
    <path class="heroicon-speedometer-reading heroicon-component-fill" fill="#FFFFFF" d="M57.65 47.64l1.5-1.7a10 10 0 1 1-5.08-5.08l-1.7 1.5a8 8 0 1 0 5.28 5.28zM52 50a2 2 0 1 1-4 0 2 2 0 0 1 4 0zM39 72h22v4H39v-4z"></path>
    <path class="heroicon-shadows" fill="#000000" d="M98.91 47a49 49 0 1 1-97.82 0 49 49 0 0 0 97.82 0zm-4.98 5.5a44 44 0 0 0-87.86 0 44 44 0 1 1 87.86 0z" opacity=".2"></path>
    <path class="heroicon-outline" fill="#4A4A4A" fill-rule="nonzero" d="M100 50A50 50 0 1 1 0 50a50 50 0 0 1 100 0zM50 98a48 48 0 1 0 0-96 48 48 0 0 0 0 96zm44-48a44 44 0 1 1-88 0 44 44 0 0 1 88 0zM50 93a43 43 0 1 0 0-86 43 43 0 0 0 0 86zm0-2a41 41 0 1 1 0-82 41 41 0 0 1 0 82zm39-41a39 39 0 1 0-78 0 39 39 0 0 0 78 0zm-34.12-9.86l11.96-10.51a28 28 0 0 0-37.62 41.14l-2.55 2.56-.71.71A33.88 33.88 0 0 1 16 50a34 34 0 0 1 56.58-25.42l.05-.04 2.83 2.83-.04.05C80.76 33.42 84 41.33 84 50a33.88 33.88 0 0 1-9.96 24.04l-.7-.7-2.57-2.57A27.9 27.9 0 0 0 78 52a27.9 27.9 0 0 0-7.46-19.03L59.86 45.12a11 11 0 1 1-4.98-4.98zm2.77 7.5a8 8 0 1 1-5.29-5.29l1.7-1.5a10 10 0 1 0 5.08 5.08l-1.5 1.7zM79 52a29.32 29.32 0 0 1-6.86 18.73l1.9 1.89A32.88 32.88 0 0 0 83 50c0-8.37-3.11-16-8.25-21.83l-3.55 4.04A28.9 28.9 0 0 1 79 52zM50 17a33 33 0 0 0-24.03 55.62l1.89-1.9A29 29 0 0 1 67.6 28.96l4.22-3.7A32.87 32.87 0 0 0 50 17zm2.84 27.6l-1.07-.33a6 6 0 1 0 3.96 3.96l-.32-1.07.73-.84 16.58-18.86-.18-.18-18.86 16.58-.84.73zM50 53a3 3 0 1 1 0-6 3 3 0 0 1 0 6zm2-3a2 2 0 1 0-4 0 2 2 0 0 0 4 0zM39 71h23v6H38v-6h1zm0 1v4h22v-4H39zm3 1v2h-2v-2h2zm1 0h2v2h-2v-2zm5 2h-2v-2h2v2zm3-2v2h-2v-2h2zm3 2h-2v-2h2v2zm1-2h2v2h-2v-2zm5 0v2h-2v-2h2z"></path>
</svg>
