<svg xmlns="http://www.w3.org/2000/svg" width="100" height="100" viewBox="0 0 100 100" class="heroicon-launch heroicon heroicons-lg">
    <path class="heroicon-launch-ship heroicon-component-fill" fill="#FFFFFF" d="M60 90H40V39.01c1.2-3.94 3.35-7.94 5.78-10.38L49 25.41c.2-.2.71-.41 1-.41.29 0 .8.21 1 .41l3.22 3.22c2.43 2.44 4.58 6.44 5.78 10.38V90z"></path>
    <path class="heroicon-launch-ship-wings heroicon-component-fill" fill="#FFFFFF" d="M62 90V46.85A9.33 9.33 0 0 1 64 52v8c0 2.74 1.48 6.3 3.42 8.25l12.33 12.33A9.16 9.16 0 0 1 82 86.01V90H62zM36 52c0-1.56.92-3.89 2-5.15V90H18v-3.99a9.16 9.16 0 0 1 2.25-5.43l12.33-12.33A13.05 13.05 0 0 0 36 60v-8z"></path>
    <path class="heroicon-launch-rocket-tank heroicon-component-fill" fill="#FFFFFF" d="M36 66.17V25c0-2.68.85-5.97 2.19-9H61.8c1.34 3.03 2.19 6.32 2.19 9v41.17H36zM39.73 13a18.8 18.8 0 0 1 2.76-3.66l7.22-7.22c.01-.02.27-.12.29-.12.02 0 .28.1.29.12l7.22 7.22c.99.98 1.92 2.24 2.77 3.66H39.72z"></path>
    <path class="heroicon-launch-boosters heroicon-component-accent heroicon-component-fill" fill="#7ACFC0" d="M24 74V33c0-3.34 2-8.18 4.37-10.54l.33-.33c.02-.02.28-.13.3-.13.02 0 .28.1.3.13l.33.33C32 24.82 34 29.67 34 33v27c0 2.2-1.27 5.27-2.83 6.83L24 74zm52 0l-7.17-7.17A11.1 11.1 0 0 1 66 59.99V33c0-3.33 2.01-8.18 4.37-10.54l.33-.33c.02-.02.28-.13.3-.13.02 0 .28.1.3.13l.33.33C74 24.82 76 29.66 76 33v41zM59 94h-6v-.4l1.07-1.6h3.86L59 93.6v.4zm-13.07-2L47 93.6v.4h-6v-.4l1.07-1.6h3.86zM74 94h-8v-2h10v2h-2zm-50 0v-2h10v2H24zm3.07 2h3.86L32 97.6v.4h-6v-.4l1.07-1.6zM68 97.6l1.07-1.6h3.86L74 97.6v.4h-6v-.4z"></path>
    <path class="heroicon-launch-tank-nose heroicon-component-accent heroicon-component-fill" fill="#7ACFC0" d="M61.35 15c-.16-.34-.33-.67-.51-1H39.16c-.18.33-.35.66-.51 1h22.7z"></path>
    <path class="heroicon-launch-ship-nose heroicon-component-accent heroicon-component-fill" fill="#7ACFC0" d="M53.51 23.34c2.6 2.6 4.9 7.16 5.92 11.37a24.01 24.01 0 0 0-4.5-6.79L51.7 24.7A2.77 2.77 0 0 0 50 24c-.56 0-1.32.32-1.7.7l-3.22 3.22a24.01 24.01 0 0 0-4.5 6.8c1.02-4.22 3.3-8.78 5.91-11.38l3.22-3.22c.01-.02.27-.12.29-.12.02 0 .28.1.3.12l3.21 3.22z"></path>
    <polygon class="heroicon-launch-ship-stabilizer heroicon-component-accent heroicon-component-fill" fill="#7ACFC0" points="51 93 51 94 49 94 49 93 49 80.828 50 79.828 51 80.828"></polygon>
    <path class="heroicon-shadows" fill="#000000" d="M59 94h-6v-.4l1.07-1.6h3.86L59 93.6v.4zm-13.07-2L47 93.6v.4h-6v-.4l1.07-1.6h3.86zM74 94h-8v-2h10v2h-2zm-50 0v-2h10v2H24zm3.07 2h3.86L32 97.6v.4h-6v-.4l1.07-1.6zM68 97.6l1.07-1.6h3.86L74 97.6v.4h-6v-.4zM36 47l3-3v46h-3V47zm25-3l3 3v43h-3V44zm3 3l-2-2v-6c0-5.51-3.17-13.17-7.08-17.08L51.7 18.7A2.77 2.77 0 0 0 50 18c-.56 0-1.32.32-1.7.7l-3.22 3.22C41.17 25.83 38 33.48 38 39v6l-2 2v-8c0-5.52 3.42-12.89 7.64-16.46l4.6-3.9c.42-.35 1.2-.64 1.76-.64.55 0 1.35.3 1.76.65l4.6 3.89C60.58 26.1 64 33.49 64 39v8z" opacity=".2"></path>
    <path class="heroicon-outline" fill="#4A4A4A" fill-rule="nonzero" d="M34 25c0-5.52 3.16-13.16 7.07-17.07L48.3.7C48.69.31 49.44 0 50 0c.55 0 1.31.31 1.7.7l7.23 7.23C62.83 11.83 66 19.47 66 25v.37c.82-1.7 1.85-3.23 2.95-4.33l.34-.34c.4-.4 1.15-.71 1.71-.71.55 0 1.32.32 1.71.71l.34.34C75.78 23.78 78 29.15 78 33v43l3.17 3.17A11.1 11.1 0 0 1 84 86V92h-6v4h-2.67l.67 1v3H66v-3l.67-1H64v-4h-3.67l.67 1v3H39v-3l.67-1H36v4h-2.67l.67 1v3H24v-3l.67-1H22v-4h-6v-5.99a11.1 11.1 0 0 1 2.83-6.84L22 76V33c0-3.87 2.22-9.22 4.95-11.95l.34-.34c.4-.4 1.15-.71 1.71-.71.55 0 1.32.32 1.71.71l.34.34c1.1 1.1 2.12 2.64 2.95 4.33v-.37zm42 40h-8.52c.4.7.86 1.34 1.35 1.83L76 74v-9zm-9.02-1H76v-9H66v5c0 1.21.38 2.67.98 4zM66 54h10v-9H66v9zm0-10h10v-9H66v9zm0-10h10v-1c0-3.33-2.01-8.18-4.37-10.54l-.33-.33A2.18 2.18 0 0 0 71 22c-.02 0-.28.1-.3.13l-.33.33C68 24.82 66 29.66 66 33v1zM24 64h9.02c.6-1.33.98-2.79.98-4v-5H24v9zm8.52 1H24v9l7.17-7.17c.49-.49.95-1.12 1.35-1.83zM24 54h10v-9H24v9zm0-10h10v-9H24v9zm0-10h10v-1c0-3.33-2.01-8.18-4.37-10.54l-.33-.33A2.18 2.18 0 0 0 29 22c-.02 0-.28.1-.3.13l-.33.33C26 24.82 24 29.66 24 33v1zm35 60v-.4L57.93 92h-3.86L53 93.6v.4h6zm0-4h1v-2h-7v2h6zm1-3V43H40v44h7v-7l3-3 3 3v7h7zm0-45v-2.99c-1.2-3.94-3.35-7.94-5.78-10.38L51 25.41c-.2-.2-.71-.41-1-.41-.29 0-.8.2-1 .41l-3.22 3.22c-2.43 2.44-4.58 6.44-5.78 10.38V42h20zM40 88v2h7v-2h-7zm5.93 4h-3.86L41 93.6v.4h6v-.4L45.93 92zM51 93V80.83l-1-1-1 1V94h2v-1zm11-5v2h20v-2H62zm11-1h9v-.99a9.16 9.16 0 0 0-2.25-5.43L67.42 68.25A13.05 13.05 0 0 1 64 60v-8c0-1.56-.92-3.89-2-5.15V80h11v7zm-1 0v-6H62v6h10zM62 44l1.18 1.18c.28.28.56.62.82 1V25c0-2.68-.85-5.97-2.19-9H38.2C36.85 19.03 36 22.32 36 25v21.17c.26-.37.54-.7.82-1L38 44v-5c0-5.52 3.17-13.17 7.08-17.08l3.22-3.22c.38-.38 1.14-.7 1.7-.7.55 0 1.32.32 1.7.7l3.22 3.22C58.83 25.83 62 33.48 62 39v5zm-.65-29c-.16-.34-.33-.67-.51-1H39.16c-.18.33-.35.66-.51 1h22.7zm-21.62-2h20.55a18.79 18.79 0 0 0-2.77-3.66L50.3 2.12A1.98 1.98 0 0 0 50 2c-.02 0-.28.1-.29.12L42.5 9.34A18.8 18.8 0 0 0 39.73 13zM74 94h2v-2H66v2h8zM36 52v8c0 2.74-1.48 6.3-3.42 8.25L20.25 80.58A9.16 9.16 0 0 0 18 86.01V87h9v-7h11V46.85A9.33 9.33 0 0 0 36 52zm-8 29v6h10v-6H28zm0 7H18v2h20v-2H28zm-4 6h10v-2H24v2zm29.51-70.66l-3.22-3.22A2.2 2.2 0 0 0 50 20c-.02 0-.28.1-.3.12l-3.21 3.22c-2.6 2.6-4.9 7.16-5.92 11.37a24.01 24.01 0 0 1 4.5-6.79l3.23-3.22c.38-.38 1.14-.7 1.7-.7.55 0 1.32.32 1.7.7l3.22 3.22a24.01 24.01 0 0 1 4.5 6.8c-1.02-4.22-3.3-8.78-5.91-11.38zM27.07 96L26 97.6v.4h6v-.4L30.93 96h-3.86zM68 97.6v.4h6v-.4L72.93 96h-3.86L68 97.6zM49 75h-7V46h16v29h-9zm-6-28v27h6V47h-6zm8 27h6V47h-6v27zm-6-40h4v2h-4v-2zm10 0v2h-4v-2h4z"></path>
</svg>
