<svg xmlns="http://www.w3.org/2000/svg" width="100" height="100" viewBox="0 0 100 100" class="heroicon-document-plus heroicon heroicons-lg">
    <path class="heroicon-document-plus-page heroicon-component-fill" fill="#FFFFFF" d="M3 0v100h78V20A20 20 0 0 0 61 0H3z"></path>
    <path class="heroicon-document-plus-fold heroicon-component-accent heroicon-component-fill" fill="#7ACFC0" d="M79 20A18 18 0 0 0 61 2v16h12c2.25 0 4.33.74 6 2z"></path>
    <circle class="heroicon-document-plus-circle heroicon-component-accent heroicon-component-fill" cx="80" cy="82" r="18" fill="#7ACFC0"></circle>
    <polygon class="heroicon-document-plus-symbol heroicon-component-fill" fill="#FFFFFF" points="78 80 71 80 71 84 78 84 78 91 82 91 82 84 89 84 89 80 82 80 82 73 78 73"></polygon>
    <path class="heroicon-shadows" fill="#000000" d="M81 28v4a8 8 0 0 0-8-8H59v-4h14a8 8 0 0 1 8 8z" opacity=".2"></path>
    <path class="heroicon-outline" fill="#4A4A4A" fill-rule="nonzero" d="M5 0h56a20 20 0 0 1 20 20v44.03a18 18 0 0 1 0 35.94v.03H3V0h2zm66.75 98a18 18 0 0 1-5.17-28H15v-1h52.55c3-2.88 7.02-4.73 11.45-4.97V22.7A7.98 7.98 0 0 0 73 20H59v-1H15v-1h44v-2H15v-1h44V2H5v96h66.75zM61 18h12c2.25 0 4.33.74 6 2A18 18 0 0 0 61 2v16zm35 64a16 16 0 1 0-32 0 16 16 0 0 0 32 0zM66 21v1H15v-1h51zm2 3v1H15v-1h53zm-19 3v1H15v-1h34zm20 33v1H15v-1h54zm-2 3v1H15v-1h52zm-1 3v1H15v-1h51zm-17 6v1H15v-1h34zm18-40v1H15v-1h52zm2 3v1H15v-1h54zm-1 3v1H15v-1h53zm-9 3v1H15v-1h44zm10 5v1H15v-1h54zm-4 3v1H15v-1h50zm0 3v1H15v-1h50zm4 3v1H15v-1h54zm-2.04 32.11A14 14 0 0 1 80 68v1a13 13 0 0 0-12.13 17.69l-.9.42zM78 80v-7h4v7h7v4h-7v7h-4v-7h-7v-4h7zm1 0v1h-7v2h7v7h2v-7h7v-2h-7v-7h-2v6z"></path>
</svg>
