<svg xmlns="http://www.w3.org/2000/svg" width="100" height="100" viewBox="0 0 100 100" class="heroicon-male1 heroicon heroicons-lg">
    <path class="heroicon-male1-top heroicon-component-accent heroicon-component-fill" fill="#7ACFC0" d="M84.63 83.31c2.96 1.49 5.37 5.37 5.37 8.7V100H10v-8c0-3.31 2.4-7.2 5.37-8.69L40 71v8a10 10 0 1 0 20 0v-8l24.63 12.31z"></path>
    <path class="heroicon-male1-collar heroicon-component-accent heroicon-component-fill" fill="#7ACFC0" d="M38 79a12 12 0 0 0 24 0v-4.75l-2-1V79a10 10 0 1 1-20 0v-5.76l-2 1V79z"></path>
    <path class="heroicon-male1-hair heroicon-component-fill" fill="#FFFFFF" d="M31 23c2.06 0 3.98-.9 5.3-2.42l.76-.88 1.15.23c.9.17 1.82.04 2.63-.37l1.1-.57 1 .72a6.96 6.96 0 0 0 8.56-.34l1.01-.85 1.18.6a8.46 8.46 0 0 0 7 .28l1.4-.58.93 1.22a4.99 4.99 0 0 0 6.05 1.52l1.22-.55.97.92A4 4 0 1 0 76 15.55l-.96-.57-.03-1.11a5 5 0 0 0-4.1-4.78l-.93-.17-.46-.83a4 4 0 0 0-4.22-2.02l-1.03.19-.74-.75a8.47 8.47 0 0 0-9.16-1.9l-1.14.45-.92-.8a4.97 4.97 0 0 0-7.12.53l-1.2 1.4-1.5-1.07a6 6 0 0 0-9.3 3.39l-.39 1.55L31.2 9H31a7 7 0 0 0-6.76 5.16l-.23.86-.8.4a4 4 0 1 0 3.58 7.16l.8-.4.83.33A7 7 0 0 0 31 23z"></path>
    <path class="heroicon-male1-face heroicon-component-fill" fill="#FFFFFF" d="M28.09 49A22.02 22.02 0 0 0 42 67.5V79a8 8 0 1 0 16 0V67.5A22.02 22.02 0 0 0 71.91 49h2.1a5 5 0 0 0 0-10H72V24.67a6 6 0 0 1-2.1-1.28 6.97 6.97 0 0 1-8.47-2.14c-2.8 1.13-5.94 1-8.64-.35a8.96 8.96 0 0 1-11.02.43 5.97 5.97 0 0 1-3.96.56 8.98 8.98 0 0 1-9.81 2.6V39h-2a5 5 0 0 0 0 10h2.09z"></path>
    <path class="heroicon-male1-mouth heroicon-component-fill" fill="#FFFFFF" d="M43.07 58a8 8 0 0 0 13.86 0H43.07z"></path>
    <path class="heroicon-male1-teeth heroicon-component-fill" fill="#FFFFFF" d="M42.58 57h14.84c.13-.31.24-.65.33-1h-15.5c.09.35.2.69.33 1z"></path>
    <path class="heroicon-shadows" fill="#000000" d="M40 68.82A23.91 23.91 0 0 0 50 71c3.57 0 6.96-.78 10-2.18V71l8.74 4.37A33.84 33.84 0 0 1 50 81a33.84 33.84 0 0 1-18.74-5.63L40 71v-2.18zM28 24.5c3.5 1.24 7.39.2 9.81-2.6 1.35.27 2.74.07 3.96-.56a8.96 8.96 0 0 0 11.02-.43 10.47 10.47 0 0 0 8.64.35 6.97 6.97 0 0 0 8.47 2.14 6 6 0 0 0 2.1 1.28v2a6 6 0 0 1-2.1-1.28 6.97 6.97 0 0 1-8.47-2.14c-2.8 1.13-5.94 1-8.64-.35a8.96 8.96 0 0 1-11.02.43 5.97 5.97 0 0 1-3.96.56 8.98 8.98 0 0 1-9.81 2.6v-2z" opacity=".2"></path>
    <path class="heroicon-outline" fill="#4A4A4A" fill-rule="nonzero" d="M19 19a6 6 0 0 1 3.31-5.36A9 9 0 0 1 31.25 7a8 8 0 0 1 12.4-4.51 6.98 6.98 0 0 1 9.97-.75c3.9-1.56 8.36-.64 11.32 2.35a6.03 6.03 0 0 1 6.32 3.02 7 7 0 0 1 5.74 6.7A6 6 0 0 1 74 25v13a6 6 0 1 1-.19 12A24.02 24.02 0 0 1 60 68.83V71l3 1.5 21.63 10.8c2.96 1.5 5.37 5.38 5.37 8.7v8H10v-8c0-3.31 2.4-7.2 5.37-8.7L37 72.52l3-1.5v-2.18A24.02 24.02 0 0 1 26.19 50 6 6 0 0 1 26 38V24.93A6 6 0 0 1 19 19zm23 50.64V79a8 8 0 1 0 16 0v-9.37a23.96 23.96 0 0 1-16 0zm8-.63a22 22 0 0 0 22-22V24.67a6 6 0 0 1-2.1-1.28 6.97 6.97 0 0 1-8.47-2.14c-2.8 1.13-5.94 1-8.64-.35a8.96 8.96 0 0 1-11.02.43 5.97 5.97 0 0 1-3.96.56 8.98 8.98 0 0 1-9.81 2.6V47a22 22 0 0 0 22 22zM36.3 20.58l.76-.88 1.15.23c.9.17 1.82.04 2.63-.37l1.1-.57 1 .72a6.96 6.96 0 0 0 8.56-.34l1.01-.85 1.18.6a8.46 8.46 0 0 0 7 .28l1.4-.58.93 1.22a4.99 4.99 0 0 0 6.05 1.52l1.22-.55.97.92A4 4 0 1 0 76 15.55l-.96-.57-.03-1.11a5 5 0 0 0-4.1-4.78l-.93-.17-.46-.83a4 4 0 0 0-4.22-2.02l-1.03.19-.74-.75a8.47 8.47 0 0 0-9.16-1.9l-1.14.45-.92-.8a4.97 4.97 0 0 0-7.12.53l-1.2 1.4-1.5-1.07a6 6 0 0 0-9.3 3.39l-.39 1.55L31.2 9H31a7 7 0 0 0-6.76 5.16l-.23.86-.8.4a4 4 0 1 0 3.58 7.16l.8-.4.83.33a7 7 0 0 0 7.88-1.94zM26 40a4 4 0 1 0 0 8h.02L26 47v-7zm48 0v8a4 4 0 1 0 0-8zM38 79a12 12 0 0 0 24 0v-4.76l-2-1V79a10 10 0 1 1-20 0v-5.76l-2 1V79zm-1-4.26L16.27 85.1A8.64 8.64 0 0 0 12 92v6h8v-6h1v6h58v-6h1v6h8v-6c0-2.56-1.98-5.75-4.27-6.9L63 74.75V79a13 13 0 0 1-26 0v-4.26zM58.94 55c-.5 4.56-4.36 8-8.95 7.99a8.99 8.99 0 0 1-8.94-8h17.89zm-15.87 3a8 8 0 0 0 13.86 0H43.07zm-.49-1h14.84c.13-.32.24-.66.33-1h-15.5c.09.34.2.68.33 1zm3.26-8.23l.83-.55a4 4 0 0 0 6.66 0l.83.55a5 5 0 0 1-8.32 0zM59 42a2 2 0 1 1 0-4 2 2 0 0 1 0 4zm-18 0a2 2 0 1 1 0-4 2 2 0 0 1 0 4zm24.26-5.13l-.9.45a6 6 0 0 0-6.54-3.2l-.2-1a7 7 0 0 1 7.64 3.74zM41 33c.47 0 .93.05 1.37.13l-.2.99a6.03 6.03 0 0 0-6.54 3.2l-.9-.45A7 7 0 0 1 41 33z"></path>
</svg>
