<svg xmlns="http://www.w3.org/2000/svg" width="100" height="100" viewBox="0 0 100 100" class="heroicon-heart heroicon heroicons-lg">
    <path class="heroicon-heart-outer heroicon-component-accent heroicon-component-fill" fill="#7ACFC0" d="M8.05 52.95L50 94.89l41.95-41.94a27.5 27.5 0 1 0-38.9-38.9L50 17.11l-3.05-3.06a27.5 27.5 0 0 0-38.9 38.9z"></path>
    <path class="heroicon-heart-inner heroicon-component-fill" fill="#FFFFFF" d="M87.7 18.3c-8.4-8.4-22-8.4-30.4 0L50 25.6l-7.3-7.3a21.5 21.5 0 0 0-30.4 30.4L50 86.4l37.7-37.7c8.4-8.4 8.4-22 0-30.4z"></path>
    <path class="heroicon-outline" fill="#4A4A4A" fill-rule="nonzero" d="M8.05 52.95a27.5 27.5 0 1 1 38.9-38.9L50 17.11l3.05-3.06a27.5 27.5 0 0 1 38.9 38.9L50 94.89 8.05 52.95zm82.48-37.48a25.5 25.5 0 0 0-36.06 0L50 19.94l-4.47-4.47A25.5 25.5 0 0 0 9.47 51.53L50 92.06l40.53-40.53a25.5 25.5 0 0 0 0-36.06zM87.7 18.3c8.4 8.4 8.4 22 0 30.4L50 86.4 12.3 48.7a21.5 21.5 0 0 1 30.4-30.4l7.3 7.3 7.3-7.3c8.4-8.4 22-8.4 30.4 0zM86.3 19.7a19.5 19.5 0 0 0-27.58 0L50 28.42l-8.71-8.7A19.5 19.5 0 0 0 13.7 47.28L50 83.58l36.29-36.3a19.5 19.5 0 0 0 0-27.57zm-68.75 2.84c2.9-2.9 6.66-4.42 10.46-4.54v1a14.43 14.43 0 0 0-12.36 7.8l-.9-.44a15.52 15.52 0 0 1 2.8-3.82zM13.01 33c.04-1.22.22-2.43.55-3.61l.97.24a14.6 14.6 0 0 0-.52 3.37h-1zm4.53 11.52a15.47 15.47 0 0 1-4.22-7.85l.97-.24c.55 2.7 1.86 5.28 3.96 7.38L29 54.58V56L17.54 44.52z"></path>
</svg>
