<svg xmlns="http://www.w3.org/2000/svg" width="100" height="100" viewBox="0 0 100 100" class="heroicon-phone-chat heroicon heroicons-lg">
    <rect class="heroicon-phone-chat-edge-outer heroicon-component-accent heroicon-component-fill" width="56" height="98" x="22" y="1" fill="#7ACFC0" rx="5"></rect>
    <rect class="heroicon-phone-chat-edge-inner heroicon-component-accent heroicon-component-fill" width="52" height="94" x="24" y="3" fill="#7ACFC0" rx="3"></rect>
    <rect class="heroicon-phone-chat-screen heroicon-component-fill" width="46" height="74" x="27" y="13" fill="#FFFFFF"></rect>
    <rect class="heroicon-phone-chat-button heroicon-component-fill" width="10" height="3" x="45" y="90" fill="#FFFFFF" rx="1.5"></rect>
    <path class="heroicon-phone-chat-bubbles heroicon-component-fill" fill="#FFFFFF" d="M0 28.99A4 4 0 0 1 4 25h38a4 4 0 0 1 4 4v4l4 4-4 4v4a4 4 0 0 1-4 4H4a4 4 0 0 1-4-3.99V28.99zm100 26v16.02A4 4 0 0 1 96 75H58a4 4 0 0 1-4-4v-4l-4-4 4-4v-4a4 4 0 0 1 4-4h38a4 4 0 0 1 4 3.99z"></path>
    <path class="heroicon-phone-chat-dots heroicon-component-accent heroicon-component-fill" fill="#7ACFC0" d="M15 40a3 3 0 1 1 0-6 3 3 0 0 1 0 6zm8 0a3 3 0 1 1 0-6 3 3 0 0 1 0 6zm8 0a3 3 0 1 1 0-6 3 3 0 0 1 0 6zm38 26a3 3 0 1 1 0-6 3 3 0 0 1 0 6zm8 0a3 3 0 1 1 0-6 3 3 0 0 1 0 6zm8 0a3 3 0 1 1 0-6 3 3 0 0 1 0 6z"></path>
    <path class="heroicon-shadows" fill="#000000" d="M79 79H58a4 4 0 0 1-4-4v-4l-4-4 2-2 2 2v4a4 4 0 0 0 4 4h21v4zM21 53h21a4 4 0 0 0 4-4v-4l4-4-2-2-2 2v4a4 4 0 0 1-4 4H21v4z" opacity=".2"></path>
    <path class="heroicon-outline" fill="#4A4A4A" fill-rule="nonzero" d="M79 75v19a6 6 0 0 1-6 6H27a6 6 0 0 1-6-6V49H4a4 4 0 0 1-4-4V29a4 4 0 0 1 4-4h17V6a6 6 0 0 1 6-6h46a6 6 0 0 1 6 6v45h17a4 4 0 0 1 4 4v16a4 4 0 0 1-4 4H79zM27 2a4 4 0 0 0-4 4v19h1V6a3 3 0 0 1 3-3h46a3 3 0 0 1 3 3v45h1V6a4 4 0 0 0-4-4H27zm48 49V6a2 2 0 0 0-2-2H27a2 2 0 0 0-2 2v19h2V13h46v38h2zm-3 0V14H28v11h14a4 4 0 0 1 4 4v4l2.59 2.59L50 37l-1.41 1.41L46 41v4a4 4 0 0 1-4 4H28v37h44V75H58a4 4 0 0 1-4-4v-4l-2.59-2.59L50 63l1.41-1.41L54 59v-4a4 4 0 0 1 4-4h14zm1 24v12H27V49h-2v45c0 1.1.9 2 2 2h46a2 2 0 0 0 2-2V75h-2zm3 0v19a3 3 0 0 1-3 3H27a3 3 0 0 1-3-3V49h-1v45a4 4 0 0 0 4 4h46a4 4 0 0 0 4-4V75h-1zM44 33v-4a2 2 0 0 0-2-2H4a2 2 0 0 0-2 2v16c0 1.1.9 2 2 2h38a2 2 0 0 0 2-2v-4.83l.59-.58L47.17 37l-2.58-2.59-.59-.58V33zm12 34v4c0 1.1.9 2 2 2h38a2 2 0 0 0 2-2V55a2 2 0 0 0-2-2H58a2 2 0 0 0-2 2v4.83l-.59.58L52.83 63l2.58 2.59.59.58V67zM47 8h6v1h-6V8zm-.5 82h7a1.5 1.5 0 0 1 0 3h-7a1.5 1.5 0 0 1 0-3zm7.5 1.5a.5.5 0 0 0-.5-.5h-7a.5.5 0 0 0 0 1h7a.5.5 0 0 0 .5-.5zM15 40a3 3 0 1 1 0-6 3 3 0 0 1 0 6zm2-3a2 2 0 1 0-4 0 2 2 0 0 0 4 0zm9 0a3 3 0 1 1-6 0 3 3 0 0 1 6 0zm-3 2a2 2 0 1 0 0-4 2 2 0 0 0 0 4zm8 1a3 3 0 1 1 0-6 3 3 0 0 1 0 6zm2-3a2 2 0 1 0-4 0 2 2 0 0 0 4 0zm39 26a3 3 0 1 1-6 0 3 3 0 0 1 6 0zm-3 2a2 2 0 1 0 0-4 2 2 0 0 0 0 4zm8 1a3 3 0 1 1 0-6 3 3 0 0 1 0 6zm2-3a2 2 0 1 0-4 0 2 2 0 0 0 4 0zm9 0a3 3 0 1 1-6 0 3 3 0 0 1 6 0zm-3 2a2 2 0 1 0 0-4 2 2 0 0 0 0 4z"></path>
</svg>
