<?xml version="1.0" encoding="utf-8"?>
<!-- Generator: Adobe Illustrator 21.0.2, SVG Export Plug-In . SVG Version: 6.00 Build 0)  -->
<svg version="1.1" id="Layer_1" xmlns="http://www.w3.org/2000/svg" xmlns:xlink="http://www.w3.org/1999/xlink" x="0px" y="0px"
	 viewBox="0 0 512 512" style="enable-background:new 0 0 512 512;" xml:space="preserve">
<style type="text/css">
	.st0{fill:url(#SVGID_1_);}
	.st1{fill:url(#SVGID_2_);}
	.st2{fill:url(#SVGID_3_);}
	.st3{fill:url(#SVGID_4_);}
	.st4{fill:url(#SVGID_5_);}
	.st5{fill:url(#SVGID_6_);}
	.st6{fill:url(#SVGID_7_);}
	.st7{fill:url(#SVGID_8_);}
	.st8{fill:url(#SVGID_9_);}
	.st9{fill:url(#SVGID_10_);}
	.st10{opacity:0.75;fill:url(#SVGID_11_);}
	.st11{opacity:0.75;}
	.st12{fill:url(#SVGID_12_);}
	.st13{fill:url(#SVGID_13_);}
</style>
<g>
	<linearGradient id="SVGID_1_" gradientUnits="userSpaceOnUse" x1="381.841" y1="310.9305" x2="462.9806" y2="361.6321">
		<stop  offset="0" style="stop-color:#31C1D4"/>
		<stop  offset="1" style="stop-color:#046BA9"/>
	</linearGradient>
	<path class="st0" d="M492.4,308.5c-9.4,21.3-18.8,37.3-27.9,49.5c-9.1,12.2-18,20.5-26.4,26.3c0,0-0.1,0.1-0.2,0.1
		c0,0-0.1,0-0.1,0.1c-1.6,1.1-3.2,2.1-4.8,3c-0.1,0.1-0.2,0.1-0.4,0.2c-0.1,0-0.2,0.1-0.3,0.2c-0.3,0.2-0.7,0.4-1.1,0.6l0,0L412,396
		c-0.1,0-0.2,0-0.3,0.1c-0.4,0.1-0.8,0.2-1.2,0.3h0l-28.6-14L369,331.5c0,0.1,0,0.1,0.1,0.2c0,0,0,0,0,0.1
		c8.2,16.2,19.7,23,38.6,23.3c0.4,0,0.7,0,1.1,0h0.6c0.1,0,0.2,0,0.3,0C449.3,354.6,492.4,308.5,492.4,308.5z"/>
	<linearGradient id="SVGID_2_" gradientUnits="userSpaceOnUse" x1="176.8793" y1="373.0979" x2="-12.8722" y2="373.0979">
		<stop  offset="0" style="stop-color:#47296F"/>
		<stop  offset="1" style="stop-color:#6A2E8D"/>
	</linearGradient>
	<path class="st1" d="M207.3,339.6l-19.6,57.6l-10.4,30.4l-2.4,5l-6.9,14.3l0,0h0c0,0,0,0-0.1,0c0,0,0,0,0,0l-7.6,3.4l-24.1,10.8
		c-11.5,3.4-22.5,4.7-32.9,4.2c-44.6-2.2-76.6-38.4-76.6-91c0-1.5,0-3,0.1-4.4c0.3-6.2,1.2-12.2,2.7-17.8c1.5-2.8,3.1-5.6,4.8-8.4
		c5.2-5.5,10.3-11.1,15.4-16.7c8.9-9.7,18.5-18.1,29.7-25.5c2.1-1.4,4.3-2.8,6.5-4.1c2.8,0.4,6.1-0.6,9.2-2.5
		c9.2-5.8,19.1-9.6,28.7-14c1.7,4.5,3.9,8.8,6.2,13.1h0c1,1.7,1.9,3.5,2.9,5.2c0.6,1.1,1.3,2.2,1.9,3.3c0.3,0.6,0.7,1.2,1,1.9
		c0.6,1.1,1.2,2.3,1.8,3.5c0.2,0.4,0.4,0.7,0.6,1.1c0.2,0.4,0.4,0.7,0.5,1.1c0.1,0.3,0.3,0.6,0.4,0.8c0.1,0.3,0.3,0.6,0.4,0.8
		c0.3,0.6,0.5,1.1,0.8,1.7c0.1,0.3,0.2,0.5,0.3,0.8c0.4,0.9,0.7,1.7,1,2.6c-0.1,0-0.1,0-0.2,0c0,0-0.1,0-0.1,0
		c-0.5,0.1-1,0.2-1.5,0.2c-0.4,0.1-0.7,0.1-1.1,0.2c-0.4,0.1-0.9,0.2-1.3,0.3c-0.4,0.1-0.7,0.2-1.1,0.3c-0.8,0.2-1.7,0.5-2.5,0.7
		c-0.4,0.1-0.8,0.3-1.2,0.4c-0.1,0-0.2,0-0.3,0.1c-0.4,0.1-0.8,0.2-1.1,0.4c-0.8,0.3-1.5,0.5-2.3,0.8c-0.4,0.1-0.8,0.3-1.2,0.4
		c-0.4,0.2-0.8,0.3-1.2,0.5c-0.5,0.2-1,0.4-1.5,0.6c-0.3,0.1-0.5,0.2-0.8,0.3c-0.7,0.3-1.4,0.6-2.1,0.9c-0.5,0.2-0.9,0.4-1.4,0.6
		c-1,0.5-1.9,0.9-2.7,1.3c-0.3,0.1-0.6,0.3-0.8,0.4c-1.1,0.5-2.2,1.1-3.3,1.7c-1.1,0.6-2.1,1.1-3.1,1.7c-0.4,0.2-0.8,0.5-1.2,0.7
		c-1.2,0.7-2.3,1.4-3.4,2.2c-1.5,1-2.9,2-4.2,3c-1.2,0.9-2.3,1.8-3.4,2.7c-0.5,0.4-0.9,0.8-1.4,1.2c-0.8,0.8-1.6,1.5-2.4,2.3
		c-0.3,0.3-0.6,0.6-0.9,0.9c-0.1,0.1-0.2,0.2-0.2,0.3c-0.4,0.4-0.7,0.8-1.1,1.2c-0.4,0.4-0.7,0.8-1,1.2c-0.7,0.8-1.3,1.5-1.9,2.3
		c-0.2,0.3-0.5,0.6-0.7,0.9c-0.8,1-1.5,2-2.2,3c-0.2,0.3-0.4,0.7-0.6,1c0,0.1-0.1,0.1-0.1,0.2c-0.2,0.3-0.3,0.5-0.5,0.8
		c-0.3,0.5-0.6,1-0.9,1.5c-0.1,0.3-0.3,0.5-0.4,0.8c-0.4,0.7-0.7,1.3-1,2c-0.1,0.3-0.3,0.6-0.4,0.9c-0.6,1.3-1.1,2.6-1.6,3.8
		c-0.1,0.3-0.3,0.7-0.4,1c0,0.1,0,0.1-0.1,0.2c-0.2,0.7-0.5,1.5-0.7,2.2c-0.4,1.4-0.7,2.8-1,4.2c-0.1,0.7-0.2,1.4-0.3,2
		c-0.1,0.3-0.1,0.7-0.1,1c0,0.3-0.1,0.7-0.1,1c0,0.3-0.1,0.7-0.1,1c0,0.1,0,0.3,0,0.4c0,0.3,0,0.5,0,0.8c-0.2,8.8,2.4,16.5,6.6,21.3
		c7.4,8.5,24.9,19.3,55.2,4.8c0.5-0.3,1-0.5,1.6-0.8c0.3-0.2,0.7-0.4,1-0.5c0.3-0.1,0.6-0.3,0.8-0.5c0.1,0,0.2-0.1,0.2-0.1
		c0.3-0.2,0.7-0.4,1-0.6c0.4-0.2,0.8-0.5,1.2-0.8c0.3-0.2,0.5-0.3,0.7-0.5c0.2-0.1,0.4-0.3,0.6-0.4c0.3-0.2,0.5-0.4,0.8-0.6
		c0,0,0.1,0,0.1-0.1c0.3-0.2,0.6-0.4,0.9-0.7c0.4-0.3,0.8-0.6,1.1-0.9c0.8-0.7,1.6-1.4,2.5-2.1c0.2-0.2,0.5-0.4,0.7-0.7
		c1.2-1.1,2.4-2.3,3.5-3.5c0.4-0.4,0.8-0.9,1.2-1.3c0.4-0.4,0.8-0.9,1.2-1.3c1.1-1.4,2.2-2.8,3.3-4.2c0.4-0.5,0.7-1,1-1.5
		c0.3-0.5,0.7-1,1-1.5c0.6-0.9,1.2-1.9,1.8-2.8c0,0,0.1-0.1,0.1-0.2c0.6-1,1.2-2,1.8-3c0.3-0.5,0.6-1,0.9-1.5c0.6-1,1.1-2,1.6-2.9
		c0.2-0.3,0.4-0.7,0.5-1c2.3-4.6,4.3-9.1,5.9-13.4c0.2-0.5,0.4-1,0.5-1.4c0.3-0.7,0.5-1.4,0.8-2.1c0.1-0.4,0.3-0.8,0.4-1.2
		c0.9-2.7,1.7-5.1,2.4-7.4c0.2-0.5,0.3-1,0.4-1.5c0.1-0.4,0.2-0.7,0.3-1.1c0-0.1,0-0.1,0-0.2c0.1-0.3,0.2-0.6,0.2-0.8
		c0.4-1.3,0.7-2.6,0.9-3.6c0.1-0.2,0.1-0.5,0.2-0.7c0-0.1,0-0.2,0.1-0.3c0-0.1,0.1-0.3,0.1-0.4c0.1-0.3,0.1-0.5,0.2-0.8
		c0-0.2,0.1-0.4,0.1-0.6c0.1-0.3,0.1-0.6,0.2-0.9c0-0.1,0-0.2,0.1-0.3c0-0.1,0-0.2,0.1-0.3c0-0.1,0-0.2,0.1-0.3c0-0.1,0-0.1,0-0.2
		c0-0.2,0.1-0.3,0.1-0.4c0-0.1,0-0.1,0-0.2c0,0,0-0.1,0-0.2h0L207.3,339.6z"/>
	<g>
		
			<linearGradient id="SVGID_3_" gradientUnits="userSpaceOnUse" x1="74.3589" y1="1730.6316" x2="180.0661" y2="1810.2876" gradientTransform="matrix(1 -0.2638 0 1 0 -1363.8567)">
			<stop  offset="0" style="stop-color:#47296F"/>
			<stop  offset="0.2609" style="stop-color:#552B7B;stop-opacity:0.7391"/>
			<stop  offset="0.6746" style="stop-color:#642D88;stop-opacity:0.3254"/>
			<stop  offset="1" style="stop-color:#6A2E8D;stop-opacity:0"/>
		</linearGradient>
		<path class="st2" d="M100,437.1c30.2,2.5,57.5-0.8,88-23l19.3-74.5L184.8,329c0,0-10.3,56-44.2,72.2c-30.3,14.4-47.8,3.7-55.2-4.8
			c-11.9-13.7-11.1-50.3,31.8-71.2c5.6-2.7,15.5-7.3,24.3-8.5c-2.8-7.8-7.4-15.2-11.6-22.8c-15.7,8.5,0.6,13.3-15.1,21.7
			C20,347.5,54.2,433.4,100,437.1z"/>
	</g>
	<linearGradient id="SVGID_4_" gradientUnits="userSpaceOnUse" x1="101.0572" y1="229.9925" x2="355.2456" y2="388.8271">
		<stop  offset="0" style="stop-color:#EE2D77"/>
		<stop  offset="1" style="stop-color:#A22063"/>
	</linearGradient>
	<path class="st3" d="M438.4,254.5c0,0-16.3,41-74.6,61.2c0,0,0,0,0,0c0,0,0,0,0,0c0,0,0,0,0,0c-0.3,0.1-0.5,0.2-0.8,0.3
		c0,0,0,0-0.1,0c-0.6,0.2-1.3,0.4-1.9,0.7c-0.7,0.2-1.3,0.4-2,0.6c-0.7,0.2-1.4,0.4-2.1,0.6s-1.4,0.4-2.1,0.6
		c-1.4,0.4-2.8,0.8-4.3,1.2c-1.4,0.4-2.9,0.8-4.4,1.1c-3.4,0.8-7,1.5-10.7,2.1c-7.5,1.2-15.6,1.9-24.2,2.3h0
		c-16.8,0.7-35.4-0.1-54.6-1.9l-0.1,0c-4-0.4-8.3-0.8-12.4-1.3c-9-1-18.1-2.2-27.1-3.5c-3-0.4-6-0.9-9-1.3c-6.1-0.9-12.9-1.6-20.3-2
		c-13.9-0.8-29.7-0.5-46.1,1.4c0,0-0.1,0-0.1,0c-23.5,2.7-48.2,8.7-70.4,19.6c-16.7,8.2-32,19.1-44.1,33.5
		c0.3-6.2,1.2-12.2,2.7-17.8c8.2-31.4,33.3-54.8,64-70.3c0,0,0,0,0,0c0.2-0.1,1-0.5,2.1-1.1c1.3-0.7,3.1-1.5,5-2.3c0,0,0,0,0,0
		c5.6-2.4,11.7-4.6,18.1-6.6c26.4-8.3,48.2-11.7,67.2-12.1c0.1,0,0.2,0,0.2,0c2.8-0.1,5.6,0,8.3,0c8.8,0.2,17,1,25,2.3
		c9.8,1.5,19.2,3.7,28.5,6.2c0,0,0.1,0,0.1,0c4.6,1.2,9.3,2.5,13.9,3.8c11.3,3.1,22.8,6.3,35.4,8.8c4.9,1,9.9,1.9,15.2,2.7
		c4.2,0.6,8.5,1.1,12.9,1.6c3.6,0.3,7.3,0.6,11.1,0.8c6.7,0.3,13.1,0.3,19.2-0.1c0.1,0,0.3,0,0.4,0h0c23.9-1.4,42.6-7.5,56-14
		c0.1,0,0.2-0.1,0.3-0.1C428.8,263.8,437.4,255.5,438.4,254.5C438.3,254.6,438.4,254.6,438.4,254.5
		C438.4,254.5,438.4,254.5,438.4,254.5z"/>
	<linearGradient id="SVGID_5_" gradientUnits="userSpaceOnUse" x1="199.2756" y1="143.7206" x2="479.1057" y2="318.5778">
		<stop  offset="0" style="stop-color:#046BA9"/>
		<stop  offset="1" style="stop-color:#31C1D4"/>
	</linearGradient>
	<path class="st4" d="M438.1,384.2c0,0-0.1,0.1-0.2,0.1c0,0-0.1,0-0.1,0.1c-0.3,0.2-0.7,0.5-1.2,0.9c-0.8,0.5-2,1.3-3.5,2.2
		c-0.1,0.1-0.2,0.1-0.4,0.2c-0.1,0-0.2,0.1-0.3,0.2c-0.3,0.2-0.7,0.4-1.1,0.6l0,0c-0.5,0.3-1.1,0.6-1.7,0.9
		c-0.2,0.1-0.3,0.2-0.5,0.3c-0.5,0.2-1,0.5-1.5,0.7c-1.1,0.5-2.2,1-3.4,1.6c-0.4,0.2-0.8,0.3-1.2,0.5l-6.6,2.4
		c-0.9,0.3-1.9,0.6-2.9,0.9L412,396c-0.1,0-0.2,0-0.3,0.1c-0.4,0.1-0.8,0.2-1.2,0.3h0c0,0-0.1,0-0.1,0c-0.2,0.1-0.5,0.1-0.8,0.2
		c0,0,0,0,0,0c0,0,0,0-0.1,0c0,0-0.1,0-0.1,0c0,0-0.1,0-0.1,0c-0.1,0-0.1,0-0.2,0v0c0,0-0.1,0-0.1,0c-0.1,0-0.1,0-0.1,0
		c-0.1,0-0.1,0-0.2,0c0,0,0,0,0,0c0,0,0,0-0.1,0c-0.3,0.1-0.6,0.1-1,0.2c0,0-0.1,0-0.1,0c-0.3,0.1-0.7,0.1-1.1,0.2c0,0-0.1,0-0.1,0
		c-0.4,0.1-0.8,0.2-1.2,0.2c0,0,0,0-0.1,0c-0.3,0.1-0.5,0.1-0.8,0.2c0,0-0.1,0-0.1,0c-0.1,0-0.2,0-0.4,0.1c0,0,0,0,0,0h0
		c-0.2,0-0.5,0.1-0.7,0.1c-0.4,0.1-0.7,0.1-1.1,0.2c-0.4,0.1-0.7,0.1-1.1,0.2h0c-0.3,0-0.6,0.1-1,0.1c-0.3,0-0.7,0.1-1,0.1
		c-1.6,0.1-3.2,0.3-5,0.3c-0.5,0-1,0-1.5,0c-0.3,0-0.7,0-1,0c-0.4,0-0.7,0-1.1,0l-0.7,0c-0.5,0-0.9-0.1-1.4-0.1h0
		c-0.4,0-0.7,0-1.1-0.1c-0.4,0-0.7-0.1-1.1-0.1h0c-0.4,0-0.7-0.1-1.1-0.1l-7.1-1.2c-0.4-0.1-0.8-0.2-1.2-0.3l-1-0.3
		c-0.3-0.1-0.6-0.1-0.8-0.2l-7.1-2.5c-0.4-0.2-0.9-0.4-1.3-0.6c-0.1,0-0.1-0.1-0.2-0.1c-0.4-0.2-0.7-0.3-1.1-0.5l-1.5-0.7
		c-0.4-0.2-0.7-0.4-1.1-0.6c-0.5-0.2-0.9-0.5-1.3-0.7c-0.4-0.2-0.8-0.4-1.2-0.6c-0.1,0-0.1-0.1-0.2-0.1c-0.4-0.3-0.9-0.5-1.3-0.8
		l-4-2.6c-1.4-0.9-2.7-2-4.1-3c-0.5-0.4-0.9-0.7-1.4-1.1c-0.5-0.4-0.9-0.8-1.4-1.2c-0.5-0.4-0.9-0.8-1.4-1.2
		c-0.4-0.4-0.9-0.8-1.4-1.3c-0.7-0.6-1.3-1.3-2-2c-0.7-0.7-1.3-1.4-2-2.1c0,0,0,0,0-0.1c-0.7-0.7-1.4-1.5-2-2.2
		c-0.7-0.8-1.3-1.5-2-2.3c-0.9-1.1-1.8-2.2-2.7-3.3c-0.9-1.2-1.8-2.3-2.7-3.6c-0.3-0.4-0.5-0.8-0.8-1.2c-0.5-0.8-1.1-1.6-1.6-2.4
		c-0.5-0.8-1.1-1.7-1.6-2.5c-0.8-1.3-1.6-2.6-2.4-3.9c0,0,0-0.1-0.1-0.1c-1.3-2.1-2.5-4.4-3.8-6.7c-0.7-1.4-1.5-2.8-2.2-4.2
		c-0.1-0.2-0.2-0.4-0.3-0.6c-0.8-1.7-1.6-3.4-2.5-5.1c-0.8-1.8-1.6-3.6-2.4-5.4c-0.8-1.9-1.6-3.8-2.4-5.7
		c-2.7-6.8-5.3-14.2-7.8-22.3c-2.1-6.9-4.1-14.3-6-22.2c-2.9-12.1-5.5-25.4-7.7-40C262.5,64.2,248.6,86.4,248.6,86.4l5.5-23.2
		l2.8-11.7l26.5,0.8c36.6,13.3,31.8,32.8,55,147.2c0,0,0,0.1,0,0.2c0,0.1,0,0.2,0.1,0.3c0,0.1,0,0.1,0,0.2c0.7,3.3,1.3,6.7,2.1,10.2
		c4.7,20.7,8.5,40.9,12.3,59.9c1.1,5.3,2.1,10.4,3.3,15.4c1.2,5.4,2.4,10.6,3.7,15.8c1.2,4.9,2.5,9.7,3.9,14.3c0,0,0,0,0,0
		c-0.3,0.1-0.5,0.2-0.8,0.3c1.8,5.9,3.8,11,6,15.5c0,0.1,0,0.1,0.1,0.2c0,0,0,0,0,0.1C381.6,364.4,400.7,385.2,438.1,384.2z"/>
	<linearGradient id="SVGID_6_" gradientUnits="userSpaceOnUse" x1="346.1071" y1="398.1908" x2="346.1071" y2="51.4908">
		<stop  offset="0" style="stop-color:#046BA9;stop-opacity:0"/>
		<stop  offset="0.2263" style="stop-color:#066FAB;stop-opacity:0.2263"/>
		<stop  offset="0.4382" style="stop-color:#0C7AB1;stop-opacity:0.4382"/>
		<stop  offset="0.6445" style="stop-color:#168DBA;stop-opacity:0.6445"/>
		<stop  offset="0.846" style="stop-color:#24A7C7;stop-opacity:0.846"/>
		<stop  offset="1" style="stop-color:#31C1D4"/>
	</linearGradient>
	<path class="st5" d="M438.1,384.2c0,0-0.1,0.1-0.2,0.1c0,0-0.1,0-0.1,0.1c-0.3,0.2-0.7,0.5-1.2,0.9c-0.8,0.5-2,1.3-3.5,2.2
		c-0.1,0.1-0.2,0.1-0.4,0.2c-0.1,0-0.2,0.1-0.3,0.2c-0.3,0.2-0.7,0.4-1.1,0.6l0,0c-0.5,0.3-1.1,0.6-1.7,0.9
		c-0.2,0.1-0.3,0.2-0.5,0.3c-0.5,0.2-1,0.5-1.5,0.7c-1.1,0.5-2.2,1-3.4,1.6c-0.4,0.2-0.8,0.3-1.2,0.5l-6.6,2.4
		c-0.9,0.3-1.9,0.6-2.9,0.9L412,396c-0.1,0-0.2,0-0.3,0.1c-0.4,0.1-0.8,0.2-1.2,0.3h0c0,0-0.1,0-0.1,0c-0.2,0.1-0.5,0.1-0.8,0.2
		c0,0,0,0,0,0c0,0,0,0-0.1,0c0,0-0.1,0-0.1,0c0,0-0.1,0-0.1,0c-0.1,0-0.1,0-0.2,0c0,0-0.1,0-0.1,0c-0.1,0-0.1,0-0.1,0
		c-0.1,0-0.2,0-0.3,0.1c0,0,0,0-0.1,0c-0.3,0.1-0.6,0.1-1,0.2c0,0-0.1,0-0.1,0c-0.3,0.1-0.7,0.1-1.1,0.2c0,0-0.1,0-0.1,0
		c-0.4,0.1-0.8,0.2-1.2,0.2c0,0,0,0-0.1,0c-0.3,0.1-0.5,0.1-0.8,0.2c0,0-0.1,0-0.1,0c-0.1,0-0.2,0-0.4,0.1c0,0,0,0,0,0h0
		c-0.2,0-0.5,0.1-0.7,0.1c-0.4,0.1-0.7,0.1-1.1,0.2c-0.4,0.1-0.7,0.1-1.1,0.2h0c-19.3-8.4-39.7-21.3-51.4-40.4
		c-5-8.2-9.7-20.2-14.1-34.8c-1.6-5.5-3.3-11.3-4.8-17.4c-1.7-6.6-3.4-13.5-5-20.6c-14.2-62.8-25.7-144.7-36.9-187.7
		c-4.8-18.5-18.1-28.8-34.6-34.2l2.8-11.7l26.5,0.8c36.6,13.3,31.8,32.8,55,147.2c0,0,0,0.1,0,0.2c0,0.1,0,0.2,0.1,0.3
		c0,0.1,0,0.1,0,0.2c0.7,3.3,1.3,6.7,2.1,10.2c4.7,20.7,8.5,40.9,12.3,59.9c1.1,5.3,2.1,10.4,3.3,15.4c1.2,5.4,2.4,10.6,3.7,15.8
		c1.2,4.9,2.5,9.7,3.9,14.3c0,0,0,0,0,0c-0.3,0.1-0.5,0.2-0.8,0.3c1.8,5.9,3.8,11,6,15.5c0,0.1,0,0.1,0.1,0.2c0,0,0,0,0,0.1
		C381.6,364.4,400.7,385.2,438.1,384.2z"/>
	<linearGradient id="SVGID_7_" gradientUnits="userSpaceOnUse" x1="153.31" y1="262.6437" x2="407.4983" y2="421.4782">
		<stop  offset="0" style="stop-color:#EE2D77"/>
		<stop  offset="1" style="stop-color:#A22063"/>
	</linearGradient>
	<path class="st6" d="M438.4,254.5c0,0-16.3,41-74.6,61.2c0,0,0,0,0,0c0,0,0,0,0,0c0,0,0,0,0,0c-0.3,0.1-0.5,0.2-0.8,0.3
		c0,0,0,0-0.1,0c-0.6,0.2-1.3,0.4-1.9,0.7c-0.7,0.2-1.3,0.4-2,0.6c-0.7,0.2-1.4,0.4-2.1,0.6s-1.4,0.4-2.1,0.6
		c-1.4,0.4-2.8,0.8-4.3,1.2c-1.4,0.4-2.9,0.8-4.4,1.1c-3.4,0.8-7,1.5-10.7,2.1c-7.5,1.2-15.6,1.9-24.2,2.3h0
		c-16.8,0.7-35.4-0.1-54.6-1.9l-0.1,0c-4-0.4-8.3-0.8-12.4-1.3c-9-1-18.1-2.2-27.1-3.5c-3-0.4-6-0.9-9-1.3c-6.1-0.9-12.9-1.6-20.3-2
		c-13.9-0.8-29.7-0.5-46.1,1.4c0,0-0.1,0-0.1,0c-23.5,2.7-48.2,8.7-70.4,19.6c-16.7,8.2-32,19.1-44.1,33.5
		c0.3-6.2,1.2-12.2,2.7-17.8c8.2-31.4,33.3-54.8,64-70.3c0,0,0,0,0,0c0.2-0.1,1-0.5,2.1-1.1c1.3-0.7,3.1-1.5,5-2.3c0,0,0,0,0,0
		c5.6-2.4,11.7-4.6,18.1-6.6c26.4-8.3,48.2-11.7,67.2-12.1c0.1,0,0.2,0,0.2,0c2.8-0.1,5.6,0,8.3,0c8.8,0.2,17,1,25,2.3
		c9.8,1.5,19.2,3.7,28.5,6.2c0,0,0.1,0,0.1,0c4.6,1.2,9.3,2.5,13.9,3.8c11.3,3.1,22.8,6.3,35.4,8.8c4.9,1,9.9,1.9,15.2,2.7
		c4.2,0.6,8.5,1.1,12.9,1.6c3.6,0.3,7.3,0.6,11.1,0.8c6.7,0.3,13.1,0.3,19.2-0.1c0.1,0,0.3,0,0.4,0h0c23.9-1.4,42.6-7.5,56-14
		c0.1,0,0.2-0.1,0.3-0.1C428.8,263.8,437.4,255.5,438.4,254.5C438.3,254.6,438.4,254.6,438.4,254.5
		C438.4,254.5,438.4,254.5,438.4,254.5z"/>
	<linearGradient id="SVGID_8_" gradientUnits="userSpaceOnUse" x1="101.0572" y1="229.9925" x2="355.2456" y2="388.8271">
		<stop  offset="0" style="stop-color:#A22063"/>
		<stop  offset="1" style="stop-color:#EE2D77"/>
	</linearGradient>
	<path class="st7" d="M438.4,254.5c0,0-16.3,41-74.6,61.2c0,0,0,0,0,0c0,0,0,0,0,0c0,0,0,0,0,0c-0.3,0.1-0.5,0.2-0.8,0.3
		c0,0,0,0-0.1,0c-0.6,0.2-1.3,0.4-1.9,0.7c-0.7,0.2-1.3,0.4-2,0.6c-0.7,0.2-1.4,0.4-2.1,0.6s-1.4,0.4-2.1,0.6
		c-1.4,0.4-2.8,0.8-4.3,1.2c-1.4,0.4-2.9,0.8-4.4,1.1c-3.4,0.8-7,1.5-10.7,2.1c-7.5,1.2-15.6,1.9-24.2,2.3h0
		c-16.8,0.7-35.4-0.1-54.6-1.9l-0.1,0c-4-0.4-8.3-0.8-12.4-1.3c-9-1-18.1-2.2-27.1-3.5c-3-0.4-6-0.9-9-1.3c-6.1-0.9-12.9-1.6-20.3-2
		c-13.9-0.8-29.7-0.5-46.1,1.4c0,0-0.1,0-0.1,0c-23.5,2.7-48.2,8.7-70.4,19.6c-16.7,8.2-32,19.1-44.1,33.5
		c0.3-6.2,1.2-12.2,2.7-17.8c8.2-31.4,33.3-54.8,64-70.3c0,0,0,0,0,0c32.3-13,66.2-11.8,99.5-5.6c8.9,1.6,17.8,3.6,26.5,5.8
		c8.5,2.1,17,4.4,25.3,6.7c0.8,0.2,1.7,0.4,2.5,0.7c0.1,0,0.2,0,0.3,0.1c4.3,1.2,8.6,2.4,12.8,3.5c1.8,0.5,3.6,1,5.4,1.5
		c13,3.5,25.6,6.6,37.5,8.7c9.4,1.6,18.5,2.6,27.1,2.7c5.9,0,11.7-0.4,17.2-1.5c3.9-0.8,7.8-1.6,11.4-2.5c0.3,0,0.5-0.1,0.7-0.2
		c0,0,0,0,0,0C416.2,287.3,437.7,255.6,438.4,254.5C438.4,254.5,438.4,254.5,438.4,254.5z"/>
	<linearGradient id="SVGID_9_" gradientUnits="userSpaceOnUse" x1="239.9423" y1="269.477" x2="189.7689" y2="257.8935">
		<stop  offset="0" style="stop-color:#47296F"/>
		<stop  offset="1" style="stop-color:#6A2E8D"/>
	</linearGradient>
	<path class="st8" d="M167.7,447.1C167.7,447.1,167.8,447.1,167.7,447.1c0.1-0.1,0.1-0.1,0.1-0.1c0,0,0,0,0.1,0c0,0,0,0,0,0
		c0,0,0,0,0.1,0h0c0.1-0.1,0.2-0.1,0.3-0.2c0.1-0.1,0.2-0.1,0.3-0.2c2.2-1.4,4.5-3,6.8-4.6c0.4-0.3,0.7-0.5,1.1-0.8
		c0.9-0.6,1.8-1.3,2.7-2c0.4-0.3,0.9-0.7,1.3-1c0.9-0.7,1.8-1.4,2.7-2.2c0.4-0.3,0.8-0.7,1.2-1c0.4-0.3,0.8-0.7,1.2-1
		c1.8-1.5,3.6-3.2,5.4-4.9c0.6-0.6,1.2-1.2,1.9-1.8c2.5-2.4,4.9-5,7.3-7.7c0.3-0.3,0.6-0.6,0.9-1c2.9-3.3,5.8-6.9,8.5-10.7
		c0.6-0.8,1.2-1.6,1.7-2.4c0.7-0.9,1.3-1.9,1.9-2.8c0.5-0.7,0.9-1.4,1.4-2.1c0-0.1,0.1-0.2,0.2-0.3c0.6-0.9,1.1-1.8,1.7-2.7
		c1.7-2.7,3.4-5.5,5-8.5c0.3-0.5,0.5-1,0.8-1.5c0.3-0.6,0.6-1.2,0.9-1.8c0.5-0.9,0.9-1.8,1.4-2.8c2.7-5.3,5.2-11,7.5-17
		c0.2-0.5,0.4-1,0.6-1.5c0.7-1.8,1.4-3.7,2-5.6c0.1-0.4,0.3-0.7,0.4-1.1c0.2-0.6,0.4-1.2,0.6-1.8c0.2-0.6,0.4-1.2,0.6-1.9
		c1.3-4.1,2.6-8.4,3.7-12.9c0.2-0.8,0.4-1.6,0.6-2.5c0.3-1.4,0.7-2.9,1-4.4c0.2-0.9,0.4-1.8,0.6-2.7c0.1-0.7,0.3-1.5,0.4-2.2
		c0.4-1.8,0.7-3.7,1.1-5.6l0.3-1.9l0,0l0,0h0c0.4-2.5,0.8-5,1.2-7.6c0,0,0-0.1,0-0.1v0c0.3-2,0.5-3.9,0.8-5.9c0-0.3,0.1-0.5,0.1-0.8
		c0.1-0.9,0.2-1.7,0.3-2.6c0.1-0.6,0.1-1.2,0.2-1.8c0.1-0.8,0.2-1.6,0.2-2.4c0.1-0.5,0.1-1.1,0.1-1.6c0,0,0-0.1,0-0.2
		c0-0.2,0-0.3,0-0.5c0-0.3,0.1-0.6,0.1-1c0-0.3,0.1-0.6,0.1-1c0.1-1.1,0.2-2.1,0.2-3.2v0c0.1-1.1,0.1-2.1,0.2-3.2c0-0.3,0-0.7,0.1-1
		c0.1-0.9,0.1-1.8,0.1-2.8c0-0.9,0.1-1.9,0.1-2.8c0-1,0.1-2,0.1-2.9c0-1.3,0.1-2.6,0.1-4c0-1.1,0-2.1,0-3.2c0-0.6,0-1.1,0-1.7
		c0-0.6,0-1.1,0-1.7v-1v-1V268c0-19.1,0.2-36.8,0.6-53.1c0-1.1,0.1-2.2,0.1-3.3c0.1-3.2,0.2-6.4,0.3-9.5c0-0.9,0.1-1.7,0.1-2.6
		c0.1-2.4,0.1-4.7,0.2-7c0.1-1.7,0.1-3.3,0.2-4.9c0-0.1,0-0.1,0-0.2c0.1-1.7,0.1-3.4,0.2-5.1c0-0.4,0-0.8,0.1-1.1
		c0-1,0.1-1.9,0.1-2.9c0-0.9,0.1-1.9,0.1-2.8c0-0.3,0-0.6,0-0.9c0.1-1.4,0.1-2.9,0.2-4.3c0-1.1,0.1-2.1,0.2-3.2
		c0.1-1.6,0.2-3.2,0.3-4.8c0.1-1,0.1-2.1,0.2-3.1c0.1-0.9,0.1-1.7,0.2-2.6c0.1-1.4,0.2-2.8,0.3-4.1c0.1-1.1,0.2-2.3,0.3-3.4
		c0.1-1.5,0.2-3,0.4-4.5c0-0.5,0.1-0.9,0.1-1.4c0.2-2,0.4-4,0.5-5.9c0.1-1.5,0.3-3,0.4-4.5c0.1-0.7,0.1-1.5,0.2-2.2s0.1-1.5,0.2-2.2
		c0.3-2.8,0.6-5.5,1-8.1c0.1-0.6,0.2-1.2,0.2-1.8c0.1-0.6,0.2-1.2,0.2-1.8c0.1-0.6,0.2-1.2,0.2-1.8c0-0.3,0.1-0.6,0.1-0.8
		c0.1-0.7,0.2-1.3,0.3-1.9c0.2-1.4,0.4-2.8,0.6-4.1c0.1-0.5,0.2-1.1,0.3-1.6c0.1-0.5,0.2-1.1,0.3-1.6c0.1-0.5,0.2-1.1,0.3-1.6
		c0.3-1.6,0.6-3.1,0.9-4.6c0.1-0.8,0.3-1.5,0.5-2.3v0c0-0.2,0.1-0.5,0.1-0.7c0.1-0.7,0.3-1.4,0.5-2.1c0.2-0.7,0.3-1.4,0.5-2.1
		c0.2-0.9,0.4-1.8,0.6-2.7c0.1-0.4,0.2-0.9,0.3-1.3c0.4-1.7,0.9-3.3,1.3-4.8c0.1-0.2,0.1-0.5,0.2-0.7c0.3-1,0.6-2,0.9-3
		c0.1-0.4,0.2-0.7,0.4-1.1c0.2-0.7,0.5-1.4,0.8-2.1c0.2-0.4,0.3-0.9,0.5-1.3c0.4-1.1,0.9-2.2,1.3-3.3c0.1-0.2,0.2-0.4,0.3-0.6
		c0.3-0.6,0.5-1.2,0.8-1.7c2.1-4.4,4.3-7.8,6.8-10.5c0.2-0.3,0.5-0.5,0.7-0.8s0.5-0.5,0.8-0.7c0.6-0.6,1.2-1.1,1.9-1.5
		c0.2-0.2,0.5-0.3,0.7-0.5c0.7-0.5,1.5-0.9,2.2-1.3c0.2-0.1,0.4-0.2,0.6-0.3c0.2-0.1,0.5-0.2,0.7-0.3c0.7-0.3,1.4-0.5,2.1-0.6
		c0,0-11.8-4.3-26.5-0.8c-0.2,0-0.5,0.1-0.7,0.2c-0.2,0.1-0.4,0.1-0.7,0.2c-0.4,0.1-0.8,0.2-1.3,0.3c-0.4,0.1-0.8,0.2-1.2,0.3
		c-0.2,0-0.4,0.1-0.5,0.2c-0.2,0-0.3,0.1-0.5,0.1c-0.1,0-0.2,0.1-0.3,0.1c-0.2,0.1-0.4,0.1-0.7,0.2c-0.3,0.1-0.6,0.2-0.9,0.3
		c-0.3,0.1-0.7,0.2-1,0.4c-0.8,0.3-1.6,0.6-2.4,1l0,0c-19,8.4-49.9,36.5-49.9,146.4c0,20.2-0.8,39.7-2.3,58.5c0,0,0,0.1,0,0.1
		c-0.4,5.5-0.9,10.9-1.5,16.3c-1.4,13.6-3.3,26.7-5.6,39.2c-0.8,4.6-1.7,9.2-2.7,13.7h0c0,0,0,0.1,0,0.2c0,0.1,0,0.1,0,0.2
		c0,0.1-0.1,0.3-0.1,0.4c0,0.1,0,0.1,0,0.2c0,0.1,0,0.2-0.1,0.3c0,0.1,0,0.2-0.1,0.3c0,0.1,0,0.2-0.1,0.3c-0.1,0.3-0.1,0.6-0.2,0.9
		c0,0.2-0.1,0.4-0.1,0.6c0,0.3-0.1,0.5-0.2,0.8c0,0.1-0.1,0.3-0.1,0.4c0,0.1,0,0.2-0.1,0.3c-7.6,34-18.5,63.3-32.7,86.2
		c-13.1,21-29,36.6-47.8,45.4c10.4,0.5,21.4-0.8,32.9-4.2c7.3-2.1,14.8-5.1,22.4-9L167.7,447.1z"/>
	<linearGradient id="SVGID_10_" gradientUnits="userSpaceOnUse" x1="222.2101" y1="215.4038" x2="228.6277" y2="17.2907">
		<stop  offset="0" style="stop-color:#6A2E8D;stop-opacity:0"/>
		<stop  offset="0.3255" style="stop-color:#572B7D;stop-opacity:0.3255"/>
		<stop  offset="0.6605" style="stop-color:#4B2A72;stop-opacity:0.6605"/>
		<stop  offset="1" style="stop-color:#47296F"/>
	</linearGradient>
	<path class="st9" d="M167.7,447.1C167.7,447.1,167.8,447.1,167.7,447.1c0.1-0.1,0.1-0.1,0.1-0.1c0,0,0,0,0.1,0c0,0,0,0,0,0
		c0,0,0,0,0.1,0h0c0,0,0,0,0,0c0.2-0.1,0.4-0.2,0.6-0.4c2.2-1.4,4.5-3,6.8-4.6c0.4-0.3,0.7-0.5,1.1-0.8c0.9-0.6,1.8-1.3,2.7-2
		c0.4-0.3,0.9-0.7,1.3-1c0.9-0.7,1.8-1.4,2.7-2.2c0.4-0.3,0.8-0.7,1.2-1c0.4-0.3,0.8-0.7,1.2-1c1.8-1.5,3.6-3.2,5.4-4.9
		c0.6-0.6,1.2-1.2,1.9-1.8c2.5-2.4,4.9-5,7.3-7.7c0.3-0.3,0.6-0.6,0.9-1c2.9-3.3,5.8-6.9,8.5-10.7c0.6-0.8,1.2-1.6,1.7-2.4
		c0.7-0.9,1.3-1.9,1.9-2.8c0.5-0.7,0.9-1.4,1.4-2.1c0-0.1,0.1-0.2,0.2-0.3c0.6-0.9,1.1-1.8,1.7-2.7c1.7-2.7,3.4-5.5,5-8.5
		c0.3-0.5,0.5-1,0.8-1.5c0.3-0.6,0.6-1.2,0.9-1.8c0.5-0.9,0.9-1.8,1.4-2.8c2.7-5.3,5.2-11,7.5-17c0.2-0.5,0.4-1,0.6-1.5
		c0.7-1.8,1.4-3.7,2-5.6c0.1-0.4,0.3-0.7,0.4-1.1c0.2-0.6,0.4-1.2,0.6-1.8c0.2-0.6,0.4-1.2,0.6-1.9c1.3-4.1,2.6-8.4,3.7-12.9
		c0.2-0.8,0.4-1.6,0.6-2.5c0.3-1.4,0.7-2.9,1-4.4c0.2-0.9,0.4-1.8,0.6-2.7c0.1-0.7,0.3-1.5,0.4-2.2c0.4-1.8,0.7-3.7,1.1-5.6l0.3-1.9
		l0,0v0c0.4-2.5,0.8-5,1.2-7.6c0,0,0-0.1,0-0.1v0c0.3-2,0.5-3.9,0.8-5.9c0-0.3,0.1-0.5,0.1-0.8c0.1-0.9,0.2-1.7,0.3-2.6
		c0.1-0.6,0.1-1.2,0.2-1.8c0.1-0.8,0.2-1.6,0.2-2.4c0.1-0.5,0.1-1.1,0.1-1.6c0,0,0-0.1,0-0.2c0-0.2,0-0.3,0-0.5c0-0.3,0.1-0.6,0.1-1
		c0-0.3,0.1-0.6,0.1-1c0.1-1.1,0.2-2.1,0.2-3.2v0c0.1-1.1,0.1-2.1,0.2-3.2c0-0.3,0-0.7,0.1-1c0.1-0.9,0.1-1.8,0.1-2.8
		c0-0.9,0.1-1.9,0.1-2.8c0-1,0.1-2,0.1-2.9c0-1.3,0.1-2.6,0.1-4c0-1.1,0-2.1,0-3.2c0-0.6,0-1.1,0-1.7c0-0.6,0-1.1,0-1.7v-1v-1V268
		c0-19.1,0.2-36.8,0.6-53.1c0-1.1,0-2.2,0.1-3.3c0.1-3.2,0.2-6.4,0.3-9.5c0-0.9,0.1-1.7,0.1-2.6c0.1-2.4,0.1-4.7,0.2-7
		c0.1-1.7,0.1-3.3,0.2-4.9c0-0.1,0-0.1,0-0.2c0.1-1.7,0.1-3.4,0.2-5.1c0-0.4,0-0.8,0.1-1.1c0-1,0.1-1.9,0.1-2.9
		c0-0.9,0.1-1.9,0.1-2.8c0-0.3,0-0.6,0-0.9c0.1-1.4,0.1-2.9,0.2-4.3c0-1.1,0.1-2.1,0.2-3.2c0.1-1.6,0.2-3.2,0.3-4.8
		c0.1-1,0.1-2.1,0.2-3.1c0.1-0.9,0.1-1.7,0.2-2.6c0.1-1.4,0.2-2.8,0.3-4.1c0.1-1.1,0.2-2.3,0.3-3.4c0.1-1.5,0.2-3,0.4-4.5
		c0-0.5,0.1-0.9,0.1-1.4c0.2-2,0.4-4,0.5-5.9c0.1-1.5,0.3-3,0.4-4.5c0.1-0.7,0.1-1.5,0.2-2.2s0.1-1.5,0.2-2.2c0.3-2.8,0.6-5.5,1-8.1
		c0.1-0.6,0.2-1.2,0.2-1.8c0.1-0.6,0.2-1.2,0.2-1.8c0.1-0.6,0.2-1.2,0.2-1.8c0-0.3,0.1-0.6,0.1-0.8c0.1-0.7,0.2-1.3,0.3-1.9
		c0.2-1.4,0.4-2.8,0.6-4.1c0.1-0.5,0.2-1.1,0.3-1.6c0.1-0.5,0.2-1.1,0.3-1.6c0.1-0.5,0.2-1.1,0.3-1.6c0.3-1.6,0.6-3.1,0.9-4.6
		c0.1-0.8,0.3-1.5,0.5-2.3v0c0-0.2,0.1-0.5,0.1-0.7c0.1-0.7,0.3-1.4,0.5-2.1c0.2-0.7,0.3-1.4,0.5-2.1c0.2-0.9,0.4-1.8,0.6-2.7
		c0.1-0.4,0.2-0.9,0.3-1.3c0.4-1.7,0.9-3.3,1.3-4.8c0.1-0.2,0.1-0.5,0.2-0.7c0.3-1,0.6-2,0.9-3c0.1-0.4,0.2-0.7,0.4-1.1
		c0.2-0.7,0.5-1.4,0.8-2.1c0.2-0.4,0.3-0.9,0.5-1.3c0.4-1.1,0.9-2.2,1.3-3.3c0.1-0.2,0.2-0.4,0.3-0.6c0.3-0.6,0.5-1.2,0.8-1.7
		c2.1-4.4,4.3-7.8,6.8-10.5c0.2-0.3,0.5-0.5,0.7-0.8s0.5-0.5,0.8-0.7c0.6-0.6,1.2-1.1,1.9-1.5c0.2-0.2,0.5-0.3,0.7-0.5
		c0.7-0.5,1.5-0.9,2.2-1.3c0.2-0.1,0.4-0.2,0.6-0.3c0.2-0.1,0.5-0.2,0.7-0.3c0.7-0.3,1.4-0.5,2.1-0.6c0,0-11.8-4.3-26.5-0.8
		c-0.2,0-0.5,0.1-0.7,0.2c-0.2,0.1-0.4,0.1-0.7,0.2c-0.4,0.1-0.8,0.2-1.3,0.3c-0.4,0.1-0.8,0.2-1.2,0.3c-0.2,0-0.4,0.1-0.5,0.2
		c-0.2,0-0.3,0.1-0.5,0.1c-0.1,0-0.2,0.1-0.3,0.1c-0.2,0.1-0.4,0.1-0.7,0.2c-0.3,0.1-0.6,0.2-0.9,0.3c-0.3,0.1-0.7,0.2-1,0.4
		c-0.8,0.3-1.6,0.6-2.4,1l0,0C234.8,69.7,230,86,226.9,105.1c-9.4,58.4-7.6,114.1-7.3,156.9v0.1c0.1,6.9,0.1,13.5,0,19.7
		c-0.2,14.5-0.9,27-2.7,36.8c-0.4,2.2-0.9,4.3-1.4,6.2c-6,21.3-11.3,66.8-40.5,107.7c-4.3,6.1-9.1,12-14.6,17.8
		c-0.6,0.6-1.1,1.2-1.7,1.8L167.7,447.1z"/>
	<linearGradient id="SVGID_11_" gradientUnits="userSpaceOnUse" x1="251.7607" y1="280.5634" x2="337.2607" y2="288.0634">
		<stop  offset="0" style="stop-color:#231F20"/>
		<stop  offset="0.1456" style="stop-color:#231F20;stop-opacity:0.8544"/>
		<stop  offset="1" style="stop-color:#231F20;stop-opacity:0"/>
	</linearGradient>
	<path class="st10" d="M438.4,254.5c0,0-16.3,41-74.6,61.2c0,0,0,0,0,0c0,0,0,0,0,0c0,0,0,0,0,0c-0.3,0.1-0.5,0.2-0.8,0.3
		c0,0,0,0-0.1,0c-0.6,0.2-1.3,0.4-1.9,0.7c-0.7,0.2-1.3,0.4-2,0.6c-0.7,0.2-1.4,0.4-2.1,0.6s-1.4,0.4-2.1,0.6
		c-1.4,0.4-2.8,0.8-4.3,1.2c-1.4,0.4-2.9,0.8-4.4,1.1c-3.4,0.8-7,1.5-10.7,2.1c-7.5,1.2-15.6,1.9-24.2,2.3h0
		c-16.8,0.7-35.4-0.1-54.6-1.9l-0.1,0c-4-0.4-8.3-0.8-12.4-1.3c1.1-6.3,2.5-16.9,3.4-32.9c0.3-6.2,0.6-13.2,0.7-21c0,0,0.1,0,0.1,0
		c4.6,1.2,9.3,2.5,13.9,3.8c11.3,3.1,22.8,6.3,35.4,8.8c4.9,1,9.9,1.9,15.2,2.7c4.2,0.6,8.5,1.1,12.9,1.6c3.6,0.3,7.3,0.6,11.1,0.8
		c6.7,0.3,13.1,0.3,19.2-0.1c0.1,0,0.3,0,0.4,0h0c23.9-1.4,42.6-7.5,56-14c0.1,0,0.2-0.1,0.3-0.1
		C428.8,263.8,437.4,255.5,438.4,254.5C438.3,254.6,438.4,254.6,438.4,254.5C438.4,254.5,438.4,254.5,438.4,254.5z"/>
	<g class="st11">
		<linearGradient id="SVGID_12_" gradientUnits="userSpaceOnUse" x1="397.0415" y1="300.7448" x2="415.2922" y2="362.9972">
			<stop  offset="0" style="stop-color:#231F20"/>
			<stop  offset="0.1456" style="stop-color:#231F20;stop-opacity:0.8544"/>
			<stop  offset="1" style="stop-color:#231F20;stop-opacity:0"/>
		</linearGradient>
		<path class="st12" d="M492.4,308.5c-9.4,21.3-18.8,37.3-27.9,49.5c-9.1,12.2-18,20.5-26.4,26.3c0,0-0.1,0.1-0.2,0.1
			c0,0-0.1,0-0.1,0.1c-0.3,0.2-0.7,0.5-1.2,0.9c-0.8,0.5-2,1.3-3.5,2.2c-0.1,0.1-0.2,0.1-0.4,0.2c-0.1,0-0.2,0.1-0.3,0.2
			c-0.3,0.2-0.7,0.4-1.1,0.6l0,0c-0.5,0.3-1.1,0.6-1.7,0.9c-0.2,0.1-0.3,0.2-0.5,0.3c-0.5,0.2-1,0.5-1.5,0.7c-1.1,0.5-2.2,1-3.4,1.6
			c-0.4,0.2-0.8,0.3-1.2,0.5l-6.6,2.4c-0.9,0.3-1.9,0.6-2.9,0.9L412,396c-0.1,0-0.2,0-0.3,0.1c-0.4,0.1-0.8,0.2-1.2,0.3h0
			c0,0-0.1,0-0.1,0c-0.2,0.1-0.5,0.1-0.8,0.2c0,0,0,0,0,0c0,0,0,0-0.1,0c0,0-0.1,0-0.1,0c0,0-0.1,0-0.1,0c-0.1,0-0.1,0-0.2,0
			c0,0-0.1,0-0.1,0c-0.1,0-0.1,0-0.1,0c-0.1,0-0.1,0-0.2,0c0,0,0,0,0,0v0c0,0,0,0-0.1,0c-0.3,0.1-0.6,0.1-1,0.2c0,0-0.1,0-0.1,0
			c-0.3,0.1-0.7,0.1-1.1,0.2c0,0-0.1,0-0.1,0c-0.4,0.1-0.8,0.2-1.2,0.2c0,0,0,0-0.1,0c-0.3,0.1-0.5,0.1-0.8,0.2c0,0-0.1,0-0.1,0
			c-0.1,0-0.2,0-0.4,0.1c0,0,0,0,0,0h0c-0.2,0-0.5,0.1-0.7,0.1c-0.4,0.1-0.7,0.1-1.1,0.2c-0.4,0.1-0.7,0.1-1.1,0.2h0
			c-0.3,0-0.6,0.1-1,0.1c-0.3,0-0.7,0.1-1,0.1c-1.6,0.1-3.2,0.3-5,0.3c-0.5,0-1,0-1.5,0c-0.3,0-0.7,0-1,0c-0.4,0-0.7,0-1.1,0l-0.7,0
			c-0.5,0-0.9-0.1-1.4-0.1h0c-0.4,0-0.7,0-1.1-0.1c-0.4,0-0.7-0.1-1.1-0.1h0c-0.4,0-0.7-0.1-1.1-0.1l-7.1-1.2
			c-0.4-0.1-0.8-0.2-1.2-0.3l-1-0.3c-0.3-0.1-0.6-0.1-0.8-0.2l-7.1-2.5c-0.4-0.2-0.9-0.4-1.3-0.6c-0.1,0-0.1-0.1-0.2-0.1
			c-0.4-0.2-0.7-0.3-1.1-0.5l-1.5-0.7c-0.4-0.2-0.7-0.4-1.1-0.6c-0.5-0.2-0.9-0.5-1.3-0.7c-0.4-0.2-0.8-0.4-1.2-0.6
			c-0.1,0-0.1-0.1-0.2-0.1c-0.4-0.3-0.9-0.5-1.3-0.8l-4-2.6c-1.4-0.9-2.7-2-4.1-3c-0.5-0.4-0.9-0.7-1.4-1.1
			c-0.5-0.4-0.9-0.8-1.4-1.2c-0.5-0.4-0.9-0.8-1.4-1.2c-0.4-0.4-0.9-0.8-1.4-1.3c-0.7-0.6-1.3-1.3-2-2c-0.7-0.7-1.3-1.4-2-2.1
			c0,0,0,0,0-0.1c-0.7-0.7-1.4-1.5-2-2.2c-0.7-0.8-1.3-1.5-2-2.3c-0.9-1.1-1.8-2.2-2.7-3.3s-1.8-2.3-2.7-3.6
			c-0.3-0.4-0.5-0.8-0.8-1.2c-0.5-0.8-1.1-1.6-1.6-2.4c-0.5-0.8-1.1-1.7-1.6-2.5c-0.8-1.3-1.6-2.6-2.4-3.9c0,0,0-0.1-0.1-0.1
			c-1.3-2.1-2.5-4.4-3.8-6.7c-0.7-1.4-1.5-2.8-2.2-4.2c-0.1-0.2-0.2-0.4-0.3-0.6c-0.8-1.7-1.6-3.4-2.5-5.1s-1.6-3.6-2.4-5.4
			c-0.8-1.9-1.6-3.8-2.4-5.7c8.6-0.4,16.7-1.1,24.2-2.3c3.7-0.6,7.3-1.3,10.7-2.1c1.5-0.3,3-0.7,4.4-1.1c1.5-0.4,2.9-0.8,4.3-1.2
			c0.7-0.2,1.4-0.4,2.1-0.6s1.4-0.4,2.1-0.6c0.7-0.2,1.4-0.4,2-0.6c0.7-0.2,1.3-0.4,1.9-0.7c0,0,0,0,0.1,0c1.8,5.9,3.8,11,6,15.5
			c0,0.1,0,0.1,0.1,0.2c0,0,0,0,0,0.1c8.2,16.2,19.7,23,38.6,23.3c0.4,0,0.7,0,1.1,0h0.6c0.1,0,0.2,0,0.3,0
			C449.3,354.6,492.4,308.5,492.4,308.5z"/>
	</g>
	<linearGradient id="SVGID_13_" gradientUnits="userSpaceOnUse" x1="392.9261" y1="258.8846" x2="401.7805" y2="289.0865">
		<stop  offset="0" style="stop-color:#231F20"/>
		<stop  offset="0.1456" style="stop-color:#231F20;stop-opacity:0.8544"/>
		<stop  offset="1" style="stop-color:#231F20;stop-opacity:0"/>
	</linearGradient>
	<path class="st13" d="M438.4,254.5c0,0-16.3,41-74.6,61.2c0,0,0,0,0,0c0,0,0,0,0,0c0,0,0,0,0,0c-0.3,0.1-0.5,0.2-0.8,0.3
		c-1.4-4.4-2.6-9.2-3.8-14.4c-1.1-4.9-2.2-10.2-3.3-15.9c-0.1-0.6-0.2-1.3-0.4-1.9c-0.9-4.7-1.7-9.2-2.5-13.5
		c1.1,5.3,2.1,10.4,3.3,15.4h0c23.9-1.4,42.6-7.5,56-14c0.1,0,0.2-0.1,0.3-0.1C428.8,263.8,437.4,255.5,438.4,254.5
		C438.3,254.6,438.4,254.6,438.4,254.5C438.4,254.5,438.4,254.5,438.4,254.5z"/>
</g>
</svg>
