<?xml version="1.0" encoding="utf-8"?>
<!-- Generator: Adobe Illustrator 23.0.1, SVG Export Plug-In . SVG Version: 6.00 Build 0)  -->
<svg version="1.1" id="Layer_1" xmlns="http://www.w3.org/2000/svg" xmlns:xlink="http://www.w3.org/1999/xlink" x="0px" y="0px"
	 viewBox="0 0 895.79 538.88" style="enable-background:new 0 0 895.79 538.88;" xml:space="preserve">
<g style="fill: #efefef;">
	<path d="M436.29,45.62v79.83h-90.51v45.62h-48.27c41.46,36.12,90.81,66.53,148.06,91.24l-25.53,91.24
		c-13.62-6.84-23.67-12.16-30.17-15.97v44.48h-40.84c27.85,25.86,56.16,54.37,84.94,85.54l-48.74,71.28
		c-33.73-37.26-68.54-72.42-104.43-105.5l33.42-51.32h-47.34v151.11h-88.19V382.06h-49.66l35.74,45.62
		c-32.19,41.44-67,78.5-104.43,111.2l-46.41-74.13c28.15-23.57,55.85-51.13,83.08-82.69H55.7v-44.48
		c-6.5,3.8-16.56,9.12-30.17,15.97L0,262.31c57.24-24.71,106.59-55.12,148.06-91.24H99.79v-45.62H9.28V45.62h90.51V5.7h83.54v39.92
		h78.9V5.7h83.54v39.92H436.29z M112.32,302.23h66.37V249.2C158.27,268.21,136.14,285.89,112.32,302.23z M183.33,153.97h78.9v-28.51
		h-78.9V153.97z M186.12,242.35h73.33c-14.24-13.69-26.46-26.04-36.67-37.07C212.58,216.32,200.35,228.67,186.12,242.35z
		 M266.88,249.2v53.03h66.37C309.42,285.89,287.3,268.21,266.88,249.2z"/>
	<path d="M740.3,54.17h155.49v85.54H754.23v34.21h136.92v79.83H754.23v37.07h127.64v245.21H796v-22.81h-146.2v22.81h-83.54V387.77
		c-9.28,59.69-26.3,110.06-51.06,151.12l-55.7-91.24c13.61-29.65,22.82-62.82,27.62-99.51c4.79-36.68,7.19-96.66,7.19-179.91V54.17
		h157.81V0h88.19V54.17z M574.6,290.82h93.76V139.71h-92.83v108.35C575.53,258.32,575.22,272.58,574.6,290.82z M649.79,433.39H796
		v-59.88h-146.2V433.39z"/>
</g>
</svg>
