<?xml version="1.0" encoding="utf-8"?>
<!-- Generator: Adobe Illustrator 22.1.0, SVG Export Plug-In . SVG Version: 6.00 Build 0)  -->
<svg version="1.1" id="zenith" xmlns="http://www.w3.org/2000/svg" xmlns:xlink="http://www.w3.org/1999/xlink" x="0px" y="0px"
	 viewBox="0 0 500 500" style="enable-background:new 0 0 500 500;" xml:space="preserve">
<style type="text/css">
	.st0{fill:url(#SVGID_1_);}
</style>
<g id="shape">
	<image style="overflow:visible;" width="512" height="426" xlink:href="27A8FF4D.png"  transform="matrix(1 0 0 1 -6 37)">
	</image>
	<g>
		<linearGradient id="SVGID_1_" gradientUnits="userSpaceOnUse" x1="250" y1="447.3008" x2="250" y2="52.6992">
			<stop  offset="0" style="stop-color:#FFC200"/>
			<stop  offset="1" style="stop-color:#FF7300"/>
		</linearGradient>
		<path class="st0" d="M424.8,250.1l-43.7-43.9v-87.7l54.6-54.8v54.8l-21.8,21.9v54.8l21.8,21.9h21.8l32.8,32.9H424.8z M305.6,171.2
			v42.7l-28.3,14.8v139.8L250,399.9l-28.2-31.4V228.7l-27.9-14.8v-42.7v-56l-64.4,56v-56l70.7-62.5l49.9,58.1l49.6-58.1l69.8,62.5
			v56l-63.8-56V171.2z M9.7,250.1l32.8-32.9h21.8l21.8-21.9v-54.8l-21.8-21.9V63.7l54.6,54.8v87.7l-43.7,43.9H9.7z M75.4,260.7
			l64.4,65.4l-98.5,99.6v-66.4l34.1-32.2l-65.4-66.4H75.4z M86.1,261l98.3-98.7v65.8L140.8,272v43.9L86.1,261z M162.2,283.2l43.9-43
			v109.4l-98.5,97.7v-65.4l54.6-54.7V283.2z M337.8,327.2l54.6,54.7v65.4l-98.5-97.7V240.2l43.9,43V327.2z M359.2,272l-43.7-43.9
			v-65.8l98.3,98.7l-54.6,54.8V272z M458.7,425.8l-98.5-99.6l64.4-65.4h65.4l-65.4,66.4l34.1,32.2V425.8z"/>
	</g>
</g>
</svg>
