<?xml version="1.0" encoding="utf-8"?>
<!-- Generator: Adobe Illustrator 22.1.0, SVG Export Plug-In . SVG Version: 6.00 Build 0)  -->
<svg version="1.1" id="Layer_1" xmlns="http://www.w3.org/2000/svg" xmlns:xlink="http://www.w3.org/1999/xlink" x="0px" y="0px"
	 viewBox="0 0 1920 1099" style="enable-background:new 0 0 1920 1099;" xml:space="preserve">
<style type="text/css">
	.st0{fill:url(#SVGID_1_);}
	.st1{opacity:0.1;}
	.st2{fill:#D6BBFC;}
	.st3{fill:none;}
</style>
<g>
	<g transform="translate(-23)">
		
			<linearGradient id="SVGID_1_" gradientUnits="userSpaceOnUse" x1="23.3979" y1="1089.9828" x2="23.3979" y2="1088.9828" gradientTransform="matrix(1928.1412 -227.9307 -339.9833 -1292.6591 326235.4688 1414296.5)">
			<stop  offset="0" style="stop-color:#D6BBFC;stop-opacity:0.2"/>
			<stop  offset="0.6" style="stop-color:#000;stop-opacity:0"/>
		</linearGradient>
		<path class="st0" d="M0.9,409.1c0,0,455.1-265.2,563.5-217.6c146.9,64.5-108.8,216.4,8.7,260.9s110.2-134.6,295-142.7
			s461,80.2,604.8-19s171-234.5,365.6-208.8c42.6,5.6,120.2,70,120.2,70v1239.4L0.9,1387.7V409.1z"/>
	</g>
	<g transform="translate(-23)" class="st1">
		
			<ellipse transform="matrix(0.7547 -0.6561 0.6561 0.7547 99.016 498.1983)" class="st2" cx="715.8" cy="116.7" rx="75.2" ry="45"/>
		<path class="st2" d="M1148.5,222.1c0-44,54.3-15.6,163-48s124.8-62.8,174.3-41.4s-53.1,113.7-127.4,133.4
			C1284.1,285.8,1148.5,266.2,1148.5,222.1z"/>
	</g>
	<rect y="33" class="st3" width="1920" height="1066"/>
</g>
</svg>
