<svg xmlns="http://www.w3.org/2000/svg" width="1440" height="466">
  <g fill="none" fill-rule="evenodd">
    <path fill="#FFF" d="M821.7464 181.5943c0 1.105-.895 2-2 2s-2-.895-2-2 .895-2 2-2 2 .895 2 2m-53.0024-53.1446c0 1.105-.895 2-2 2s-2-.895-2-2 .895-2 2-2 2 .895 2 2m638.1884-87.2805c0 1.105-.896 2-2 2-1.105 0-2-.895-2-2s.895-2 2-2c1.104 0 2 .895 2 2M513.9289 463.248c0 1.105-.895 2-2 2s-2-.895-2-2 .895-2 2-2 2 .895 2 2m882.6117-315.6731c0 1.105-.895 2-2 2s-2-.895-2-2 .895-2 2-2 2 .895 2 2M1421.4315 7c0 1.105-.895 2-2 2s-2-.895-2-2 .895-2 2-2 2 .895 2 2m-5.7674 184.8879c0 1.105-.896 2-2 2-1.105 0-2-.895-2-2s.895-2 2-2c1.104 0 2 .895 2 2M22 193.8879c0 1.105-.895 2-2 2s-2-.895-2-2 .895-2 2-2 2 .895 2 2m154.5862-75.2226c0 1.105-.895 2-2 2s-2-.895-2-2 .895-2 2-2 2 .895 2 2m2-13.9991c0 1.105-.895 2-2 2s-2-.895-2-2 .895-2 2-2 2 .895 2 2m400.1166-42.0583c0 1.657-1.343 3-3 3s-3-1.343-3-3 1.343-3 3-3 3 1.343 3 3m407.3814-23.4387c0 1.657-1.343 3-3 3s-3-1.343-3-3 1.343-3 3-3 3 1.343 3 3M182.033 16.6662c0 1.657-1.343 3-3 3s-3-1.343-3-3 1.343-3 3-3 3 1.343 3 3m625.8852 60.9915c0 1.105-.895 2-2 2s-2-.895-2-2 .895-2 2-2 2 .895 2 2m-318.309 124.6316c0 1.105-.895 2-2 2s-2-.895-2-2 .895-2 2-2 2 .895 2 2M857.5699 22c0 1.105-.895 2-2 2s-2-.895-2-2 .895-2 2-2 2 .895 2 2m-345.641-8c0 1.105-.895 2-2 2s-2-.895-2-2 .895-2 2-2 2 .895 2 2m432.525-11c0 1.105-.895 2-2 2s-2-.895-2-2 .895-2 2-2 2 .895 2 2M475.4903 217.4978c0 1.105-.895 2-2 2s-2-.895-2-2 .895-2 2-2 2 .895 2 2" opacity=".3"/>
    <path d="M0 0h1440v465H0z"/>
  </g>
</svg>